<?xml version="1.0" encoding="UTF-8" standalone="no"?>
<!-- Created with Inkscape (http://www.inkscape.org/) -->

<svg
   width="800px"
   height="800px"
   viewBox="0 0 800 800"
   version="1.1"
   id="SVGRoot"
   sodipodi:docname="desuni(tuercaPuntilla).svg"
   inkscape:version="1.1.2 (0a00cf5339, 2022-02-04)"
   xmlns:inkscape="http://www.inkscape.org/namespaces/inkscape"
   xmlns:sodipodi="http://sodipodi.sourceforge.net/DTD/sodipodi-0.dtd"
   xmlns="http://www.w3.org/2000/svg"
   xmlns:svg="http://www.w3.org/2000/svg">
  <sodipodi:namedview
     id="namedview1227"
     pagecolor="#505050"
     bordercolor="#eeeeee"
     borderopacity="1"
     inkscape:pageshadow="0"
     inkscape:pageopacity="0"
     inkscape:pagecheckerboard="0"
     inkscape:document-units="px"
     showgrid="false"
     inkscape:zoom="0.5"
     inkscape:cx="451"
     inkscape:cy="242"
     inkscape:window-width="1920"
     inkscape:window-height="1020"
     inkscape:window-x="0"
     inkscape:window-y="0"
     inkscape:window-maximized="1"
     inkscape:current-layer="layer2"
     inkscape:snap-global="true"
     showguides="false" />
  <defs
     id="defs1222">
    <linearGradient
       id="linearGradient1997"
       inkscape:swatch="solid">
      <stop
         style="stop-color:#ff54c4;stop-opacity:1;"
         offset="0"
         id="stop1995" />
    </linearGradient>
  </defs>
  <g
     inkscape:groupmode="layer"
     id="layer2"
     inkscape:label="Capa 2">
    <path
       style="fill:#ffb698;fill-opacity:1;fill-rule:evenodd;stroke:none;stroke-width:0.0425893;stroke-linecap:round;stroke-linejoin:round;stroke-miterlimit:4;stroke-dasharray:none;stroke-opacity:1"
       d=""
       id="path201103" />
    <path
       style="fill:#ffb698;fill-opacity:1;fill-rule:evenodd;stroke:none;stroke-width:0.0425893;stroke-linecap:round;stroke-linejoin:round;stroke-miterlimit:4;stroke-dasharray:none;stroke-opacity:1"
       d=""
       id="path201142" />
    <path
       style="fill:#ffb698;fill-opacity:1;fill-rule:evenodd;stroke:none;stroke-width:0.0425893;stroke-linecap:round;stroke-linejoin:round;stroke-miterlimit:4;stroke-dasharray:none;stroke-opacity:1"
       d=""
       id="path201181" />
    <path
       style="fill:#ffb698;fill-opacity:1;fill-rule:evenodd;stroke:none;stroke-width:0.0425893;stroke-linecap:round;stroke-linejoin:round;stroke-miterlimit:4;stroke-dasharray:none;stroke-opacity:1"
       d=""
       id="path201220" />
    <path
       style="fill:#ffb698;fill-opacity:1;fill-rule:evenodd;stroke:none;stroke-width:0.0425893;stroke-linecap:round;stroke-linejoin:round;stroke-miterlimit:4;stroke-dasharray:none;stroke-opacity:1"
       d=""
       id="path201259" />
    <path
       style="fill:#ffb698;fill-opacity:1;fill-rule:evenodd;stroke:none;stroke-width:0.0425893;stroke-linecap:round;stroke-linejoin:round;stroke-miterlimit:4;stroke-dasharray:none;stroke-opacity:1"
       d=""
       id="path201337" />
    <path
       style="fill:#ffb698;fill-opacity:1;fill-rule:evenodd;stroke:none;stroke-width:0.0425893;stroke-linecap:round;stroke-linejoin:round;stroke-miterlimit:4;stroke-dasharray:none;stroke-opacity:1"
       d=""
       id="path201454" />
    <path
       style="fill:#ffb698;fill-opacity:1;fill-rule:evenodd;stroke:none;stroke-width:0.0425893;stroke-linecap:round;stroke-linejoin:round;stroke-miterlimit:4;stroke-dasharray:none;stroke-opacity:1"
       d=""
       id="path201571" />
    <path
       style="fill:#fab69b;fill-opacity:1;fill-rule:evenodd;stroke:none;stroke-width:0.0106473;stroke-linecap:round;stroke-linejoin:round;stroke-miterlimit:4;stroke-dasharray:none;stroke-opacity:1;paint-order:stroke fill markers"
       d="m 1361.4812,973.54868 c -0.01,-0.005 -0.052,-0.0286 -0.096,-0.0532 -0.071,-0.0395 -0.079,-0.0464 -0.072,-0.0601 0.01,-0.0134 0,-0.0177 -0.03,-0.0323 -0.021,-0.009 -0.043,-0.0168 -0.048,-0.0168 -0.024,0 -0.1043,-0.043 -0.1844,-0.0983 -0.1431,-0.0988 -0.1753,-0.12766 -0.2229,-0.19954 -0.012,-0.0186 -0.025,-0.0376 -0.029,-0.0422 -0.012,-0.0141 -0.073,-0.1464 -0.092,-0.1973 -0.01,-0.0266 -0.025,-0.0943 -0.035,-0.15064 -0.018,-0.10906 -0.015,-0.10394 -0.09,-0.18233 -0.012,-0.013 -0.023,-0.0258 -0.023,-0.0284 0,-0.003 -0.015,-0.0185 -0.034,-0.0354 -0.034,-0.0305 -0.034,-0.0306 -0.066,-0.0192 -0.037,0.013 -0.1172,0.0147 -0.1655,0.003 -0.031,-0.007 -0.053,-0.004 -0.1089,0.0173 -0.012,0.004 -0.033,0.004 -0.055,-0.002 -0.029,-0.007 -0.049,-0.0221 -0.104,-0.08 -0.037,-0.039 -0.088,-0.0939 -0.1117,-0.12196 l -0.044,-0.0511 h 0.069 c 0.057,0 0.076,0.004 0.1114,0.0205 0.023,0.0113 0.046,0.0205 0.05,0.0205 0,0 0.018,0.006 0.031,0.0123 0.017,0.009 0.037,0.0109 0.073,0.007 0.038,-0.004 0.064,-4.4e-4 0.1147,0.0141 0.042,0.0122 0.088,0.019 0.1285,0.0192 l 0.063,2.9e-4 0.031,0.0368 c 0.017,0.0203 0.043,0.0492 0.058,0.0643 0.015,0.0151 0.027,0.0306 0.027,0.0344 0,0.004 0.01,0.01 0.012,0.0137 0.01,0.004 0.02,0.018 0.031,0.0318 0.01,0.0138 0.039,0.048 0.063,0.0761 0.029,0.0325 0.052,0.0695 0.064,0.10169 0.046,0.12086 0.1471,0.30859 0.1668,0.30859 0,0 0.01,0.004 0.01,0.008 0,0.005 0.01,0.0149 0.014,0.023 0.01,0.008 0.029,0.0329 0.047,0.0549 0.018,0.022 0.043,0.0494 0.057,0.0609 0.013,0.0115 0.03,0.0274 0.037,0.0352 0.01,0.008 0.017,0.0143 0.023,0.0143 0.01,0 0.01,0.003 0.01,0.007 0,0.004 0.012,0.0135 0.027,0.0211 0.1142,0.0594 0.1615,0.0901 0.2212,0.14363 0.098,0.0879 0.097,0.0864 0.094,0.1632 0,0.0621 0,0.0647 -0.019,0.0565 z"
       id="path45335" />
    <path
       style="fill:#fab69b;fill-opacity:1;fill-rule:evenodd;stroke:none;stroke-width:0.0106473;stroke-linecap:round;stroke-linejoin:round;stroke-miterlimit:4;stroke-dasharray:none;stroke-opacity:1;paint-order:stroke fill markers"
       d="m 1361.5816,973.59716 c -0.072,-0.035 -0.086,-0.0452 -0.08,-0.0552 0.013,-0.0205 0.01,-0.10009 -0.01,-0.12899 -0.028,-0.0515 -0.1634,-0.15836 -0.2765,-0.21817 -0.066,-0.0349 -0.1111,-0.0719 -0.1669,-0.13675 -0.029,-0.0334 -0.068,-0.0792 -0.088,-0.10169 -0.037,-0.0428 -0.1146,-0.18539 -0.1581,-0.291 -0.023,-0.0564 -0.078,-0.13396 -0.1475,-0.20861 -0.012,-0.0135 -0.05,-0.0559 -0.083,-0.0942 l -0.06,-0.0696 -0.074,-0.005 c -0.041,-0.003 -0.095,-0.0111 -0.119,-0.0184 -0.024,-0.007 -0.073,-0.0133 -0.1075,-0.0133 -0.053,0 -0.074,-0.005 -0.1357,-0.0292 -0.04,-0.0161 -0.076,-0.0327 -0.081,-0.0369 0,-0.004 -0.013,-0.008 -0.019,-0.008 -0.01,0 -0.015,-0.004 -0.021,-0.008 -0.022,-0.0182 -0.093,-0.066 -0.1081,-0.0729 -0.018,-0.008 -0.1004,-0.0975 -0.1477,-0.16047 -0.017,-0.0225 -0.048,-0.0595 -0.069,-0.0821 -0.021,-0.0226 -0.043,-0.0494 -0.048,-0.0594 -0.01,-0.01 -0.016,-0.0182 -0.024,-0.0183 -0.01,-3e-5 -0.025,-0.007 -0.039,-0.0163 -0.014,-0.009 -0.031,-0.0163 -0.038,-0.0163 -0.012,-5e-5 -0.067,-0.0492 -0.061,-0.0551 0,-10e-4 0.024,0.008 0.051,0.0216 0.055,0.0274 0.1361,0.0579 0.1692,0.0639 0.015,0.003 0.029,0.0144 0.04,0.0339 0.019,0.0321 0.093,0.1076 0.1051,0.1076 0,0 0.01,0.005 0.014,0.0106 0.01,0.0102 0.068,0.0494 0.068,0.0432 0,-0.002 -0.014,-0.0168 -0.031,-0.0337 -0.017,-0.0169 -0.039,-0.0419 -0.049,-0.0557 -0.035,-0.0473 -0.018,-0.0413 0.033,0.0118 0.066,0.0687 0.1168,0.10769 0.1577,0.12129 0.018,0.006 0.044,0.0196 0.059,0.0304 0.014,0.0107 0.029,0.0195 0.031,0.0195 0,0 0.011,0.005 0.017,0.0121 0.01,0.007 0.028,0.0162 0.046,0.0213 0.019,0.005 0.038,0.012 0.043,0.0155 0,0.003 0.025,0.009 0.045,0.0116 0.02,0.003 0.072,0.0161 0.1147,0.0292 0.043,0.0131 0.095,0.0262 0.1166,0.029 0.036,0.005 0.044,0.011 0.1074,0.0763 0.1174,0.12203 0.1527,0.15972 0.1527,0.16316 0,0.002 0.016,0.0189 0.035,0.0379 0.086,0.0855 0.1286,0.13548 0.147,0.17333 0.019,0.0395 0.034,0.0685 0.049,0.0941 0,0.007 0.014,0.027 0.023,0.045 0.01,0.018 0.026,0.0475 0.037,0.0655 0.011,0.018 0.023,0.0383 0.026,0.0451 0,0.011 0.032,0.0422 0.08,0.0937 0.029,0.0304 0.1043,0.0908 0.1679,0.13396 0.065,0.0444 0.1536,0.12143 0.2764,0.24152 0.058,0.057 0.076,0.0791 0.076,0.096 0,0.0121 0.01,0.0419 0.015,0.0662 0.012,0.0346 0.028,0.12246 0.023,0.122 -5e-4,-5e-5 -0.041,-0.0194 -0.089,-0.043 z"
       id="path45374" />
    <path
       style="fill:#fab69b;fill-opacity:1;fill-rule:evenodd;stroke:none;stroke-width:0.0106473;stroke-linecap:round;stroke-linejoin:round;stroke-miterlimit:4;stroke-dasharray:none;stroke-opacity:1;paint-order:stroke fill markers"
       d="m 1361.5078,972.52518 c -0.017,-0.0176 -0.031,-0.0349 -0.031,-0.0385 0,-0.004 -0.012,-0.0153 -0.027,-0.0261 -0.029,-0.0214 -0.064,-0.0524 -0.1149,-0.10012 -0.018,-0.0169 -0.036,-0.0307 -0.04,-0.0307 0,0 -0.01,-0.005 -0.01,-0.011 0,-0.0149 -0.1024,-0.12985 -0.2478,-0.27826 -0.021,-0.0218 -0.039,-0.041 -0.039,-0.0425 0,-0.002 -0.016,-0.0188 -0.035,-0.0383 -0.019,-0.0196 -0.061,-0.0646 -0.092,-0.10003 -0.078,-0.0881 -0.1187,-0.12724 -0.1456,-0.14122 -0.012,-0.007 -0.021,-0.015 -0.018,-0.0188 0,-0.004 -7e-4,-0.009 -0.01,-0.0113 -0.01,-0.002 -0.02,-0.0161 -0.03,-0.0305 l -0.019,-0.0262 0.018,0.006 c 0.01,0.003 0.023,0.002 0.03,-0.004 0.01,-0.008 0.019,-0.004 0.05,0.0197 0.1727,0.13453 0.6562,0.62616 0.7575,0.77021 0.036,0.0517 0.039,0.0574 0.026,0.0668 -0.013,0.01 -0.013,0.0119 -10e-5,0.0398 0.018,0.0372 0.01,0.036 -0.029,-0.005 z"
       id="path45413" />
    <path
       style="fill:#fab69b;fill-opacity:1;fill-rule:evenodd;stroke:none;stroke-width:0.0106473;stroke-linecap:round;stroke-linejoin:round;stroke-miterlimit:4;stroke-dasharray:none;stroke-opacity:1;paint-order:stroke fill markers"
       d="m 1362.1865,972.41917 c -0.052,-0.0483 -0.1115,-0.12052 -0.1115,-0.13473 0,-0.005 -0.024,-0.0339 -0.047,-0.0588 -0.01,-0.0107 -0.018,-0.0216 -0.018,-0.0243 0,-0.0155 -0.1335,-0.15787 -0.202,-0.21547 -0.051,-0.0433 -0.2009,-0.12464 -0.23,-0.12534 -0.01,-1.3e-4 -0.01,-0.005 -0.01,-0.0115 0,-0.006 0,-0.0103 -0.01,-0.009 -0.014,0.003 -0.035,-0.015 -0.156,-0.13255 -0.1,-0.0973 -0.1153,-0.11579 -0.1371,-0.16381 -0.028,-0.0623 -0.054,-0.10393 -0.083,-0.13254 -0.042,-0.0415 -0.1418,-0.11892 -0.1625,-0.12552 -0.01,-0.003 -0.016,-0.009 -0.016,-0.0128 0,-0.004 -0.01,-0.008 -0.014,-0.008 -0.01,-10e-5 -0.024,-0.007 -0.035,-0.0162 -0.011,-0.009 -0.026,-0.0162 -0.033,-0.0165 -0.01,-2.4e-4 -0.019,-0.006 -0.028,-0.0125 -0.01,-0.007 -0.021,-0.012 -0.028,-0.012 -0.01,0 -0.031,-0.009 -0.054,-0.0204 -0.023,-0.0112 -0.052,-0.0213 -0.064,-0.0223 -0.032,-0.003 -0.023,-0.0166 0.019,-0.0292 0.092,-0.0274 0.2346,0.0278 0.409,0.15858 0.1256,0.0942 0.1656,0.12876 0.4053,0.35019 0.2946,0.2721 0.3517,0.32838 0.3364,0.33151 -0.017,0.004 -0.017,0.005 0.013,0.0581 0.047,0.0825 0.1675,0.23974 0.2655,0.34489 0.043,0.0459 0.076,0.098 0.062,0.098 0,0 -0.035,-0.0261 -0.07,-0.0581 z"
       id="path45491" />
    <path
       style="fill:#fab69b;fill-opacity:1;fill-rule:evenodd;stroke:none;stroke-width:0.0106473;stroke-linecap:round;stroke-linejoin:round;stroke-miterlimit:4;stroke-dasharray:none;stroke-opacity:1;paint-order:stroke fill markers"
       d="m 1361.8652,972.53055 c -0.019,-0.0111 -0.04,-0.0296 -0.047,-0.0411 -0.01,-0.0115 -0.017,-0.0187 -0.022,-0.0161 0,0.003 -0.01,5.4e-4 -0.01,-0.005 0,-0.005 -0.01,-0.0196 -0.018,-0.032 -0.01,-0.0123 -0.03,-0.0367 -0.043,-0.0542 -0.029,-0.0374 -0.1338,-0.14281 -0.1421,-0.14281 0,0 -0.012,-0.006 -0.02,-0.0143 -0.027,-0.0277 -0.044,-0.043 -0.05,-0.043 0,0 -0.023,-0.012 -0.045,-0.0266 -0.059,-0.0398 -0.069,-0.0463 -0.091,-0.0556 -0.032,-0.0136 -0.1,-0.0742 -0.094,-0.0837 0,-0.005 0,-0.006 0,-0.004 -0.01,0.005 -0.038,-0.0214 -0.031,-0.0282 0,-0.002 -0.011,-0.0198 -0.029,-0.0393 -0.018,-0.0195 -0.032,-0.0367 -0.032,-0.0382 0,-10e-4 -0.01,-0.0112 -0.018,-0.0216 -0.038,-0.0393 -0.1043,-0.11719 -0.1043,-0.12303 -10e-5,-0.008 -0.03,-0.0433 -0.068,-0.081 -0.017,-0.0167 -0.031,-0.0344 -0.031,-0.0392 0,-0.005 0,-0.009 -0.01,-0.009 0,0 -0.026,-0.0184 -0.05,-0.041 -0.024,-0.0225 -0.047,-0.0409 -0.051,-0.0409 0,0 -0.011,-0.007 -0.016,-0.0164 0,-0.009 -0.014,-0.0164 -0.021,-0.0164 -0.01,0 -0.012,-0.003 -0.012,-0.006 -10e-5,-0.003 -0.018,-0.0172 -0.041,-0.0307 -0.022,-0.0135 -0.039,-0.0283 -0.038,-0.0328 0,-0.005 0.018,-0.0131 0.037,-0.0192 0.019,-0.006 0.034,-0.0155 0.034,-0.0209 0,-0.005 -0.017,-0.0225 -0.039,-0.0377 -0.064,-0.0457 0,-0.0401 0.065,0.006 0.012,0.008 0.033,0.0216 0.047,0.0305 0.014,0.009 0.026,0.019 0.026,0.0225 0,0.004 0,0.006 0.01,0.006 0.011,0 0.092,0.0819 0.142,0.14233 0.018,0.022 0.036,0.0441 0.041,0.0492 0.023,0.0266 0.085,0.11003 0.094,0.12787 0.012,0.023 0.1049,0.13364 0.1158,0.13787 0,10e-4 0.01,0.007 0.01,0.0125 0,0.009 0.03,0.0281 0.074,0.046 0.019,0.008 0.052,0.0285 0.1484,0.0935 0.1261,0.0848 0.338,0.27427 0.378,0.33791 0.011,0.0173 0.032,0.0549 0.048,0.0835 l 0.028,0.052 -0.019,0.0156 c -0.026,0.0212 -0.064,0.0195 -0.1044,-0.005 z"
       id="path45530" />
    <path
       style="fill:#fab69b;fill-opacity:1;fill-rule:evenodd;stroke:none;stroke-width:0.0322749;stroke-linecap:round;stroke-linejoin:round;stroke-miterlimit:4;stroke-dasharray:none;stroke-opacity:1;paint-order:stroke fill markers"
       d="m 1353.986,970.85732 c -0.065,-0.004 -0.1179,-0.0176 -0.1179,-0.0299 0,-0.0123 0.042,-0.0405 0.093,-0.0628 0.051,-0.0223 0.1125,-0.0507 0.1362,-0.0632 0.024,-0.0125 0.059,-0.0227 0.078,-0.0227 0.019,0 0.067,-0.0167 0.1058,-0.0371 0.039,-0.0204 0.096,-0.0372 0.127,-0.0372 0.031,-9e-5 0.056,-0.011 0.056,-0.0242 0,-0.0132 0.016,-0.0178 0.036,-0.0102 0.02,0.008 0.062,-0.004 0.092,-0.0256 0.08,-0.0562 0.1188,-0.0474 0.049,0.011 -0.032,0.0268 -0.052,0.0488 -0.043,0.0488 0.05,0 -0.074,0.11899 -0.1524,0.14542 -0.052,0.0174 -0.116,0.0412 -0.1433,0.0528 -0.1066,0.0454 -0.2035,0.0622 -0.3166,0.0549 z"
       id="path45842" />
    <path
       style="fill:#fab69b;fill-opacity:1;fill-rule:evenodd;stroke:none;stroke-width:0.0322749;stroke-linecap:round;stroke-linejoin:round;stroke-miterlimit:4;stroke-dasharray:none;stroke-opacity:1;paint-order:stroke fill markers"
       d="m 1354.7091,970.53903 c 0.01,-0.0372 0.034,-0.0751 0.054,-0.0842 0.02,-0.009 0.062,-0.0305 0.095,-0.0474 0.1726,-0.0902 0.4389,-0.14577 0.6177,-0.12891 0.062,0.006 0.029,0.049 -0.05,0.0653 -0.1343,0.0277 -0.2767,0.0797 -0.4435,0.16177 -0.087,0.0429 -0.1885,0.0832 -0.225,0.0895 -0.062,0.0107 -0.065,0.007 -0.048,-0.0561 z"
       id="path45881" />
    <g
       id="g75288"
       transform="translate(-1.7960025,2.9101867)">
      <g
         id="g74478"
         transform="translate(-20.028639,-176.98541)" />
    </g>
    <g
       id="g81608"
       transform="translate(963.9802,28.38168)" />
    <circle
       id="path49211"
       style="fill:#c8e0e5;stroke:#ba0000"
       cx="225.97897"
       cy="161.1573"
       r="0" />
    <g
       id="g209270"
       transform="matrix(2.5070563,0,0,3.3942622,-717.00787,-725.79229)"
       style="stroke-width:0.342804">
      <path
         style="fill:#bdc0b7;fill-opacity:1;stroke:#000000;stroke-width:0.342804px;stroke-linecap:butt;stroke-linejoin:miter;stroke-opacity:1"
         d="m 309.02066,334.27567 -0.82772,-12.60402 18.69895,-12.07487 31.77298,-7.79507 35.75786,-2.92497 41.719,1.61041 35.45272,5.20932 22.66162,7.70159 10.12936,10.14105 -0.78879,11.06201 -5.36234,6.32262 -20.37002,8.66771 -32.69762,5.61076 -47.99185,2.05881 -41.54235,-4.87908 -29.25892,-7.17093 z"
         id="path196845" />
      <path
         style="fill:#01091b;fill-opacity:0.729202;stroke:none;stroke-width:0.387248;stroke-linecap:round;stroke-linejoin:round;stroke-miterlimit:4;stroke-dasharray:none;stroke-opacity:1;paint-order:markers fill stroke"
         id="path196791"
         sodipodi:type="arc"
         sodipodi:cx="407.7959"
         sodipodi:cy="326.87888"
         sodipodi:rx="87.451172"
         sodipodi:ry="22.042168"
         sodipodi:start="6.1987812"
         sodipodi:end="6.17775"
         sodipodi:open="true"
         sodipodi:arc-type="chord"
         d="m 494.93575,325.02063 a 87.451172,22.042168 0 0 1 -79.30931,23.81187 87.451172,22.042168 0 0 1 -94.88805,-19.86453 87.451172,22.042168 0 0 1 78.31151,-24.02075 87.451172,22.042168 0 0 1 95.71154,19.61194 z" />
      <path
         style="fill:#bdc0b7;fill-opacity:1;stroke:#000000;stroke-width:0.308523;stroke-linecap:butt;stroke-linejoin:miter;stroke-miterlimit:4;stroke-dasharray:none;stroke-opacity:1"
         d="m 309.02066,334.27567 0.0802,80.94166 17.52636,12.22745 28.00652,5.79094 42.62247,2.33704 47.6841,-1.28123 33.23107,-3.5617 20.35723,-6.43845 5.58224,-7.83784 -0.51425,-81.85242 -5.36234,6.32262 -20.37002,8.66771 -32.69762,5.61076 -47.99185,2.05881 -41.54235,-4.87908 -29.25892,-7.17093 z"
         id="path204679"
         sodipodi:nodetypes="ccccccccccccccccc" />
      <path
         style="fill:none;stroke:#000000;stroke-width:0.342804px;stroke-linecap:butt;stroke-linejoin:miter;stroke-opacity:1"
         d="m 326.37354,345.21101 0.25368,82.23377"
         id="path207630"
         sodipodi:nodetypes="cc" />
      <path
         style="fill:none;stroke:#000000;stroke-width:0.342804px;stroke-linecap:butt;stroke-linejoin:miter;stroke-opacity:1"
         d="m 354.63374,433.23572 0.99872,-80.85378"
         id="path207632"
         sodipodi:nodetypes="cc" />
      <path
         style="fill:none;stroke:#000000;stroke-width:0.342804px;stroke-linecap:butt;stroke-linejoin:miter;stroke-opacity:1"
         d="m 397.25621,435.57276 -0.0814,-78.31174"
         id="path207634"
         sodipodi:nodetypes="cc" />
      <path
         style="fill:none;stroke:#000000;stroke-width:0.342804px;stroke-linecap:butt;stroke-linejoin:miter;stroke-opacity:1"
         d="m 445.16666,355.20221 -0.22635,79.08932"
         id="path207636"
         sodipodi:nodetypes="cc" />
      <path
         style="fill:none;stroke:#000000;stroke-width:0.342804px;stroke-linecap:butt;stroke-linejoin:miter;stroke-opacity:1"
         d="m 477.86428,349.59145 0.3071,81.13838"
         id="path207638"
         sodipodi:nodetypes="cc" />
      <path
         style="fill:none;stroke:#000000;stroke-width:0.342804px;stroke-linecap:butt;stroke-linejoin:miter;stroke-opacity:1"
         d="m 498.2343,340.92374 0.29431,83.36764"
         id="path207640"
         sodipodi:nodetypes="cc" />
    </g>
    <g
       id="g210324"
       transform="matrix(1.1932989,0,0,1.2009222,-119.3007,-85.054881)"
       style="stroke-width:0.835349">
      <path
         style="fill:#bdc0b7;fill-opacity:1;stroke:#000000;stroke-width:0.835349px;stroke-linecap:butt;stroke-linejoin:miter;stroke-opacity:1"
         d="m 573.37972,124.62099 70.69691,5.10228 70.37594,-5.77222 -0.0267,9.99217 c -1.05162,29.54211 -20.79631,54.06921 -48.3683,75.3857 l -1.08382,244.30623 -13.3491,31.41647 -7.65815,0.0355 -15.89891,-31.07632 -7.96823,-244.88626 c -42.3848,-32.40272 -46.30108,-60.69976 -46.58896,-75.25252 z"
         id="path209362"
         sodipodi:nodetypes="cccccccccccc" />
      <path
         style="fill:#bdc0b7;fill-opacity:1;stroke:#000000;stroke-width:0.751814;stroke-linecap:round;stroke-linejoin:round;stroke-miterlimit:4;stroke-dasharray:none;stroke-opacity:1;paint-order:markers fill stroke"
         id="path209327"
         sodipodi:type="arc"
         sodipodi:cx="643.96936"
         sodipodi:cy="124.40588"
         sodipodi:rx="70.735016"
         sodipodi:ry="5.3951635"
         sodipodi:start="6.1987812"
         sodipodi:end="6.17775"
         sodipodi:open="true"
         sodipodi:arc-type="chord"
         d="m 714.45257,123.95105 a 70.735016,5.3951635 0 0 1 -64.14947,5.82833 70.735016,5.3951635 0 0 1 -76.75034,-4.86216 70.735016,5.3951635 0 0 1 63.34239,-5.87945 70.735016,5.3951635 0 0 1 77.41642,4.80033 z" />
    </g>
  </g>
  <g
     inkscape:label="Capa 1"
     inkscape:groupmode="layer"
     id="layer1" />
</svg>
