<?xml version="1.0" encoding="UTF-8" standalone="no"?>
<!-- Created with Inkscape (http://www.inkscape.org/) -->

<svg
   width="800px"
   height="800px"
   viewBox="0 0 800 800"
   version="1.1"
   id="SVGRoot"
   sodipodi:docname="llave.svg"
   inkscape:version="1.1.2 (0a00cf5339, 2022-02-04)"
   xmlns:inkscape="http://www.inkscape.org/namespaces/inkscape"
   xmlns:sodipodi="http://sodipodi.sourceforge.net/DTD/sodipodi-0.dtd"
   xmlns="http://www.w3.org/2000/svg"
   xmlns:svg="http://www.w3.org/2000/svg">
  <sodipodi:namedview
     id="namedview1227"
     pagecolor="#505050"
     bordercolor="#eeeeee"
     borderopacity="1"
     inkscape:pageshadow="0"
     inkscape:pageopacity="0"
     inkscape:pagecheckerboard="0"
     inkscape:document-units="px"
     showgrid="false"
     inkscape:zoom="0.70710678"
     inkscape:cx="311.83409"
     inkscape:cy="330.92597"
     inkscape:window-width="1920"
     inkscape:window-height="1020"
     inkscape:window-x="0"
     inkscape:window-y="0"
     inkscape:window-maximized="1"
     inkscape:current-layer="layer2"
     inkscape:snap-global="true"
     showguides="false" />
  <defs
     id="defs1222">
    <linearGradient
       id="linearGradient1997"
       inkscape:swatch="solid">
      <stop
         style="stop-color:#ff54c4;stop-opacity:1;"
         offset="0"
         id="stop1995" />
    </linearGradient>
  </defs>
  <g
     inkscape:groupmode="layer"
     id="layer2"
     inkscape:label="Capa 2">
    <path
       style="fill:#ffb698;fill-opacity:1;fill-rule:evenodd;stroke:none;stroke-width:0.0425893;stroke-linecap:round;stroke-linejoin:round;stroke-miterlimit:4;stroke-dasharray:none;stroke-opacity:1"
       d=""
       id="path201103" />
    <path
       style="fill:#ffb698;fill-opacity:1;fill-rule:evenodd;stroke:none;stroke-width:0.0425893;stroke-linecap:round;stroke-linejoin:round;stroke-miterlimit:4;stroke-dasharray:none;stroke-opacity:1"
       d=""
       id="path201142" />
    <path
       style="fill:#ffb698;fill-opacity:1;fill-rule:evenodd;stroke:none;stroke-width:0.0425893;stroke-linecap:round;stroke-linejoin:round;stroke-miterlimit:4;stroke-dasharray:none;stroke-opacity:1"
       d=""
       id="path201181" />
    <path
       style="fill:#ffb698;fill-opacity:1;fill-rule:evenodd;stroke:none;stroke-width:0.0425893;stroke-linecap:round;stroke-linejoin:round;stroke-miterlimit:4;stroke-dasharray:none;stroke-opacity:1"
       d=""
       id="path201220" />
    <path
       style="fill:#ffb698;fill-opacity:1;fill-rule:evenodd;stroke:none;stroke-width:0.0425893;stroke-linecap:round;stroke-linejoin:round;stroke-miterlimit:4;stroke-dasharray:none;stroke-opacity:1"
       d=""
       id="path201259" />
    <path
       style="fill:#ffb698;fill-opacity:1;fill-rule:evenodd;stroke:none;stroke-width:0.0425893;stroke-linecap:round;stroke-linejoin:round;stroke-miterlimit:4;stroke-dasharray:none;stroke-opacity:1"
       d=""
       id="path201337" />
    <path
       style="fill:#ffb698;fill-opacity:1;fill-rule:evenodd;stroke:none;stroke-width:0.0425893;stroke-linecap:round;stroke-linejoin:round;stroke-miterlimit:4;stroke-dasharray:none;stroke-opacity:1"
       d=""
       id="path201454" />
    <path
       style="fill:#ffb698;fill-opacity:1;fill-rule:evenodd;stroke:none;stroke-width:0.0425893;stroke-linecap:round;stroke-linejoin:round;stroke-miterlimit:4;stroke-dasharray:none;stroke-opacity:1"
       d=""
       id="path201571" />
    <path
       style="fill:#fab69b;fill-opacity:1;fill-rule:evenodd;stroke:none;stroke-width:0.0106473;stroke-linecap:round;stroke-linejoin:round;stroke-miterlimit:4;stroke-dasharray:none;stroke-opacity:1;paint-order:stroke fill markers"
       d="m 1361.4812,973.54868 c -0.01,-0.005 -0.052,-0.0286 -0.096,-0.0532 -0.071,-0.0395 -0.079,-0.0464 -0.072,-0.0601 0.01,-0.0134 0,-0.0177 -0.03,-0.0323 -0.021,-0.009 -0.043,-0.0168 -0.048,-0.0168 -0.024,0 -0.1043,-0.043 -0.1844,-0.0983 -0.1431,-0.0988 -0.1753,-0.12766 -0.2229,-0.19954 -0.012,-0.0186 -0.025,-0.0376 -0.029,-0.0422 -0.012,-0.0141 -0.073,-0.1464 -0.092,-0.1973 -0.01,-0.0266 -0.025,-0.0943 -0.035,-0.15064 -0.018,-0.10906 -0.015,-0.10394 -0.09,-0.18233 -0.012,-0.013 -0.023,-0.0258 -0.023,-0.0284 0,-0.003 -0.015,-0.0185 -0.034,-0.0354 -0.034,-0.0305 -0.034,-0.0306 -0.066,-0.0192 -0.037,0.013 -0.1172,0.0147 -0.1655,0.003 -0.031,-0.007 -0.053,-0.004 -0.1089,0.0173 -0.012,0.004 -0.033,0.004 -0.055,-0.002 -0.029,-0.007 -0.049,-0.0221 -0.104,-0.08 -0.037,-0.039 -0.088,-0.0939 -0.1117,-0.12196 l -0.044,-0.0511 h 0.069 c 0.057,0 0.076,0.004 0.1114,0.0205 0.023,0.0113 0.046,0.0205 0.05,0.0205 0,0 0.018,0.006 0.031,0.0123 0.017,0.009 0.037,0.0109 0.073,0.007 0.038,-0.004 0.064,-4.4e-4 0.1147,0.0141 0.042,0.0122 0.088,0.019 0.1285,0.0192 l 0.063,2.9e-4 0.031,0.0368 c 0.017,0.0203 0.043,0.0492 0.058,0.0643 0.015,0.0151 0.027,0.0306 0.027,0.0344 0,0.004 0.01,0.01 0.012,0.0137 0.01,0.004 0.02,0.018 0.031,0.0318 0.01,0.0138 0.039,0.048 0.063,0.0761 0.029,0.0325 0.052,0.0695 0.064,0.10169 0.046,0.12086 0.1471,0.30859 0.1668,0.30859 0,0 0.01,0.004 0.01,0.008 0,0.005 0.01,0.0149 0.014,0.023 0.01,0.008 0.029,0.0329 0.047,0.0549 0.018,0.022 0.043,0.0494 0.057,0.0609 0.013,0.0115 0.03,0.0274 0.037,0.0352 0.01,0.008 0.017,0.0143 0.023,0.0143 0.01,0 0.01,0.003 0.01,0.007 0,0.004 0.012,0.0135 0.027,0.0211 0.1142,0.0594 0.1615,0.0901 0.2212,0.14363 0.098,0.0879 0.097,0.0864 0.094,0.1632 0,0.0621 0,0.0647 -0.019,0.0565 z"
       id="path45335" />
    <path
       style="fill:#fab69b;fill-opacity:1;fill-rule:evenodd;stroke:none;stroke-width:0.0106473;stroke-linecap:round;stroke-linejoin:round;stroke-miterlimit:4;stroke-dasharray:none;stroke-opacity:1;paint-order:stroke fill markers"
       d="m 1361.5816,973.59716 c -0.072,-0.035 -0.086,-0.0452 -0.08,-0.0552 0.013,-0.0205 0.01,-0.10009 -0.01,-0.12899 -0.028,-0.0515 -0.1634,-0.15836 -0.2765,-0.21817 -0.066,-0.0349 -0.1111,-0.0719 -0.1669,-0.13675 -0.029,-0.0334 -0.068,-0.0792 -0.088,-0.10169 -0.037,-0.0428 -0.1146,-0.18539 -0.1581,-0.291 -0.023,-0.0564 -0.078,-0.13396 -0.1475,-0.20861 -0.012,-0.0135 -0.05,-0.0559 -0.083,-0.0942 l -0.06,-0.0696 -0.074,-0.005 c -0.041,-0.003 -0.095,-0.0111 -0.119,-0.0184 -0.024,-0.007 -0.073,-0.0133 -0.1075,-0.0133 -0.053,0 -0.074,-0.005 -0.1357,-0.0292 -0.04,-0.0161 -0.076,-0.0327 -0.081,-0.0369 0,-0.004 -0.013,-0.008 -0.019,-0.008 -0.01,0 -0.015,-0.004 -0.021,-0.008 -0.022,-0.0182 -0.093,-0.066 -0.1081,-0.0729 -0.018,-0.008 -0.1004,-0.0975 -0.1477,-0.16047 -0.017,-0.0225 -0.048,-0.0595 -0.069,-0.0821 -0.021,-0.0226 -0.043,-0.0494 -0.048,-0.0594 -0.01,-0.01 -0.016,-0.0182 -0.024,-0.0183 -0.01,-3e-5 -0.025,-0.007 -0.039,-0.0163 -0.014,-0.009 -0.031,-0.0163 -0.038,-0.0163 -0.012,-5e-5 -0.067,-0.0492 -0.061,-0.0551 0,-10e-4 0.024,0.008 0.051,0.0216 0.055,0.0274 0.1361,0.0579 0.1692,0.0639 0.015,0.003 0.029,0.0144 0.04,0.0339 0.019,0.0321 0.093,0.1076 0.1051,0.1076 0,0 0.01,0.005 0.014,0.0106 0.01,0.0102 0.068,0.0494 0.068,0.0432 0,-0.002 -0.014,-0.0168 -0.031,-0.0337 -0.017,-0.0169 -0.039,-0.0419 -0.049,-0.0557 -0.035,-0.0473 -0.018,-0.0413 0.033,0.0118 0.066,0.0687 0.1168,0.10769 0.1577,0.12129 0.018,0.006 0.044,0.0196 0.059,0.0304 0.014,0.0107 0.029,0.0195 0.031,0.0195 0,0 0.011,0.005 0.017,0.0121 0.01,0.007 0.028,0.0162 0.046,0.0213 0.019,0.005 0.038,0.012 0.043,0.0155 0,0.003 0.025,0.009 0.045,0.0116 0.02,0.003 0.072,0.0161 0.1147,0.0292 0.043,0.0131 0.095,0.0262 0.1166,0.029 0.036,0.005 0.044,0.011 0.1074,0.0763 0.1174,0.12203 0.1527,0.15972 0.1527,0.16316 0,0.002 0.016,0.0189 0.035,0.0379 0.086,0.0855 0.1286,0.13548 0.147,0.17333 0.019,0.0395 0.034,0.0685 0.049,0.0941 0,0.007 0.014,0.027 0.023,0.045 0.01,0.018 0.026,0.0475 0.037,0.0655 0.011,0.018 0.023,0.0383 0.026,0.0451 0,0.011 0.032,0.0422 0.08,0.0937 0.029,0.0304 0.1043,0.0908 0.1679,0.13396 0.065,0.0444 0.1536,0.12143 0.2764,0.24152 0.058,0.057 0.076,0.0791 0.076,0.096 0,0.0121 0.01,0.0419 0.015,0.0662 0.012,0.0346 0.028,0.12246 0.023,0.122 -5e-4,-5e-5 -0.041,-0.0194 -0.089,-0.043 z"
       id="path45374" />
    <path
       style="fill:#fab69b;fill-opacity:1;fill-rule:evenodd;stroke:none;stroke-width:0.0106473;stroke-linecap:round;stroke-linejoin:round;stroke-miterlimit:4;stroke-dasharray:none;stroke-opacity:1;paint-order:stroke fill markers"
       d="m 1361.5078,972.52518 c -0.017,-0.0176 -0.031,-0.0349 -0.031,-0.0385 0,-0.004 -0.012,-0.0153 -0.027,-0.0261 -0.029,-0.0214 -0.064,-0.0524 -0.1149,-0.10012 -0.018,-0.0169 -0.036,-0.0307 -0.04,-0.0307 0,0 -0.01,-0.005 -0.01,-0.011 0,-0.0149 -0.1024,-0.12985 -0.2478,-0.27826 -0.021,-0.0218 -0.039,-0.041 -0.039,-0.0425 0,-0.002 -0.016,-0.0188 -0.035,-0.0383 -0.019,-0.0196 -0.061,-0.0646 -0.092,-0.10003 -0.078,-0.0881 -0.1187,-0.12724 -0.1456,-0.14122 -0.012,-0.007 -0.021,-0.015 -0.018,-0.0188 0,-0.004 -7e-4,-0.009 -0.01,-0.0113 -0.01,-0.002 -0.02,-0.0161 -0.03,-0.0305 l -0.019,-0.0262 0.018,0.006 c 0.01,0.003 0.023,0.002 0.03,-0.004 0.01,-0.008 0.019,-0.004 0.05,0.0197 0.1727,0.13453 0.6562,0.62616 0.7575,0.77021 0.036,0.0517 0.039,0.0574 0.026,0.0668 -0.013,0.01 -0.013,0.0119 -10e-5,0.0398 0.018,0.0372 0.01,0.036 -0.029,-0.005 z"
       id="path45413" />
    <path
       style="fill:#fab69b;fill-opacity:1;fill-rule:evenodd;stroke:none;stroke-width:0.0106473;stroke-linecap:round;stroke-linejoin:round;stroke-miterlimit:4;stroke-dasharray:none;stroke-opacity:1;paint-order:stroke fill markers"
       d="m 1362.1865,972.41917 c -0.052,-0.0483 -0.1115,-0.12052 -0.1115,-0.13473 0,-0.005 -0.024,-0.0339 -0.047,-0.0588 -0.01,-0.0107 -0.018,-0.0216 -0.018,-0.0243 0,-0.0155 -0.1335,-0.15787 -0.202,-0.21547 -0.051,-0.0433 -0.2009,-0.12464 -0.23,-0.12534 -0.01,-1.3e-4 -0.01,-0.005 -0.01,-0.0115 0,-0.006 0,-0.0103 -0.01,-0.009 -0.014,0.003 -0.035,-0.015 -0.156,-0.13255 -0.1,-0.0973 -0.1153,-0.11579 -0.1371,-0.16381 -0.028,-0.0623 -0.054,-0.10393 -0.083,-0.13254 -0.042,-0.0415 -0.1418,-0.11892 -0.1625,-0.12552 -0.01,-0.003 -0.016,-0.009 -0.016,-0.0128 0,-0.004 -0.01,-0.008 -0.014,-0.008 -0.01,-10e-5 -0.024,-0.007 -0.035,-0.0162 -0.011,-0.009 -0.026,-0.0162 -0.033,-0.0165 -0.01,-2.4e-4 -0.019,-0.006 -0.028,-0.0125 -0.01,-0.007 -0.021,-0.012 -0.028,-0.012 -0.01,0 -0.031,-0.009 -0.054,-0.0204 -0.023,-0.0112 -0.052,-0.0213 -0.064,-0.0223 -0.032,-0.003 -0.023,-0.0166 0.019,-0.0292 0.092,-0.0274 0.2346,0.0278 0.409,0.15858 0.1256,0.0942 0.1656,0.12876 0.4053,0.35019 0.2946,0.2721 0.3517,0.32838 0.3364,0.33151 -0.017,0.004 -0.017,0.005 0.013,0.0581 0.047,0.0825 0.1675,0.23974 0.2655,0.34489 0.043,0.0459 0.076,0.098 0.062,0.098 0,0 -0.035,-0.0261 -0.07,-0.0581 z"
       id="path45491" />
    <path
       style="fill:#fab69b;fill-opacity:1;fill-rule:evenodd;stroke:none;stroke-width:0.0106473;stroke-linecap:round;stroke-linejoin:round;stroke-miterlimit:4;stroke-dasharray:none;stroke-opacity:1;paint-order:stroke fill markers"
       d="m 1361.8652,972.53055 c -0.019,-0.0111 -0.04,-0.0296 -0.047,-0.0411 -0.01,-0.0115 -0.017,-0.0187 -0.022,-0.0161 0,0.003 -0.01,5.4e-4 -0.01,-0.005 0,-0.005 -0.01,-0.0196 -0.018,-0.032 -0.01,-0.0123 -0.03,-0.0367 -0.043,-0.0542 -0.029,-0.0374 -0.1338,-0.14281 -0.1421,-0.14281 0,0 -0.012,-0.006 -0.02,-0.0143 -0.027,-0.0277 -0.044,-0.043 -0.05,-0.043 0,0 -0.023,-0.012 -0.045,-0.0266 -0.059,-0.0398 -0.069,-0.0463 -0.091,-0.0556 -0.032,-0.0136 -0.1,-0.0742 -0.094,-0.0837 0,-0.005 0,-0.006 0,-0.004 -0.01,0.005 -0.038,-0.0214 -0.031,-0.0282 0,-0.002 -0.011,-0.0198 -0.029,-0.0393 -0.018,-0.0195 -0.032,-0.0367 -0.032,-0.0382 0,-10e-4 -0.01,-0.0112 -0.018,-0.0216 -0.038,-0.0393 -0.1043,-0.11719 -0.1043,-0.12303 -10e-5,-0.008 -0.03,-0.0433 -0.068,-0.081 -0.017,-0.0167 -0.031,-0.0344 -0.031,-0.0392 0,-0.005 0,-0.009 -0.01,-0.009 0,0 -0.026,-0.0184 -0.05,-0.041 -0.024,-0.0225 -0.047,-0.0409 -0.051,-0.0409 0,0 -0.011,-0.007 -0.016,-0.0164 0,-0.009 -0.014,-0.0164 -0.021,-0.0164 -0.01,0 -0.012,-0.003 -0.012,-0.006 -10e-5,-0.003 -0.018,-0.0172 -0.041,-0.0307 -0.022,-0.0135 -0.039,-0.0283 -0.038,-0.0328 0,-0.005 0.018,-0.0131 0.037,-0.0192 0.019,-0.006 0.034,-0.0155 0.034,-0.0209 0,-0.005 -0.017,-0.0225 -0.039,-0.0377 -0.064,-0.0457 0,-0.0401 0.065,0.006 0.012,0.008 0.033,0.0216 0.047,0.0305 0.014,0.009 0.026,0.019 0.026,0.0225 0,0.004 0,0.006 0.01,0.006 0.011,0 0.092,0.0819 0.142,0.14233 0.018,0.022 0.036,0.0441 0.041,0.0492 0.023,0.0266 0.085,0.11003 0.094,0.12787 0.012,0.023 0.1049,0.13364 0.1158,0.13787 0,10e-4 0.01,0.007 0.01,0.0125 0,0.009 0.03,0.0281 0.074,0.046 0.019,0.008 0.052,0.0285 0.1484,0.0935 0.1261,0.0848 0.338,0.27427 0.378,0.33791 0.011,0.0173 0.032,0.0549 0.048,0.0835 l 0.028,0.052 -0.019,0.0156 c -0.026,0.0212 -0.064,0.0195 -0.1044,-0.005 z"
       id="path45530" />
    <path
       style="fill:#fab69b;fill-opacity:1;fill-rule:evenodd;stroke:none;stroke-width:0.0322749;stroke-linecap:round;stroke-linejoin:round;stroke-miterlimit:4;stroke-dasharray:none;stroke-opacity:1;paint-order:stroke fill markers"
       d="m 1353.986,970.85732 c -0.065,-0.004 -0.1179,-0.0176 -0.1179,-0.0299 0,-0.0123 0.042,-0.0405 0.093,-0.0628 0.051,-0.0223 0.1125,-0.0507 0.1362,-0.0632 0.024,-0.0125 0.059,-0.0227 0.078,-0.0227 0.019,0 0.067,-0.0167 0.1058,-0.0371 0.039,-0.0204 0.096,-0.0372 0.127,-0.0372 0.031,-9e-5 0.056,-0.011 0.056,-0.0242 0,-0.0132 0.016,-0.0178 0.036,-0.0102 0.02,0.008 0.062,-0.004 0.092,-0.0256 0.08,-0.0562 0.1188,-0.0474 0.049,0.011 -0.032,0.0268 -0.052,0.0488 -0.043,0.0488 0.05,0 -0.074,0.11899 -0.1524,0.14542 -0.052,0.0174 -0.116,0.0412 -0.1433,0.0528 -0.1066,0.0454 -0.2035,0.0622 -0.3166,0.0549 z"
       id="path45842" />
    <path
       style="fill:#fab69b;fill-opacity:1;fill-rule:evenodd;stroke:none;stroke-width:0.0322749;stroke-linecap:round;stroke-linejoin:round;stroke-miterlimit:4;stroke-dasharray:none;stroke-opacity:1;paint-order:stroke fill markers"
       d="m 1354.7091,970.53903 c 0.01,-0.0372 0.034,-0.0751 0.054,-0.0842 0.02,-0.009 0.062,-0.0305 0.095,-0.0474 0.1726,-0.0902 0.4389,-0.14577 0.6177,-0.12891 0.062,0.006 0.029,0.049 -0.05,0.0653 -0.1343,0.0277 -0.2767,0.0797 -0.4435,0.16177 -0.087,0.0429 -0.1885,0.0832 -0.225,0.0895 -0.062,0.0107 -0.065,0.007 -0.048,-0.0561 z"
       id="path45881" />
    <g
       id="g75288"
       transform="translate(-1.7960025,2.9101867)">
      <g
         id="g74478"
         transform="translate(-20.028639,-176.98541)" />
    </g>
    <g
       id="g81608"
       transform="translate(963.9802,28.38168)" />
    <circle
       id="path49211"
       style="fill:#c8e0e5;stroke:#ba0000"
       cx="225.97897"
       cy="161.1573"
       r="0" />
    <path
       style="fill:#b0b8b9;fill-opacity:1;stroke:#000000;stroke-width:1px;stroke-linecap:butt;stroke-linejoin:miter;stroke-opacity:1"
       d="M 253.03938,440.8232 437.25525,275.40094 c 3.96416,-163.99227 82.40754,-220.130153 200.6734,-263.177511 39.15274,0.590232 81.62132,19.914181 64.3948,57.90158 -61.95085,43.152311 -161.1772,126.598861 -93.44456,183.262681 43.2631,39.75742 87.86237,-4.34458 141.62607,-39.11266 41.16345,-8.62987 49.27254,20.28231 38.50735,57.12103 -92.14824,124.13061 -138.90349,138.61922 -245.46888,121.43718 l -178.72656,169.35991 -40.06488,38.52334 c -5.08139,19.44966 -11.07155,37.01415 -17.06256,53.17318 -126.58311,341.42145 -509.90172,-39.46133 -165.56447,-156.07088 18.08474,-6.12438 37.98348,-12.42787 60.33925,-17.28035 z"
       id="path182597"
       sodipodi:nodetypes="ccccccccccsscc" />
    <path
       style="fill:#a6b8b9;fill-opacity:1;stroke:#000000;stroke-width:1px;stroke-linecap:butt;stroke-linejoin:miter;stroke-opacity:1"
       d="m 82.138593,574.4313 -3.585161,-15.00421 c 0.156015,-7.9824 8.925597,-16.84986 8.925597,-16.84986 0,0 11.521406,-2.97472 17.253521,0.78991 l 10.84879,11.03348 z"
       id="path190278"
       sodipodi:nodetypes="cccccc" />
    <path
       style="fill:#a6b8b9;fill-opacity:1;stroke:#000000;stroke-width:1px;stroke-linecap:butt;stroke-linejoin:miter;stroke-opacity:1"
       d="m 115.58134,554.40062 1.43293,-15.35991 c 2.71599,-7.50776 13.87229,-13.08218 13.87229,-13.08218 0,0 11.86588,0.89036 16.08198,6.29908 l 6.722,13.93729 z"
       id="path190278-6"
       sodipodi:nodetypes="cccccc" />
    <path
       style="fill:#a6b8b9;fill-opacity:1;stroke:#000000;stroke-width:1px;stroke-linecap:butt;stroke-linejoin:miter;stroke-opacity:1"
       d="m 153.69054,546.1949 7.51164,-13.47423 c 5.51567,-5.77239 17.97286,-6.36871 17.97286,-6.36871 0,0 10.49661,5.60473 12.17045,12.25513 l 0.52356,15.4648 z"
       id="path190278-4"
       sodipodi:nodetypes="cccccc" />
    <path
       style="fill:#a6b8b9;fill-opacity:1;stroke:#000000;stroke-width:1px;stroke-linecap:butt;stroke-linejoin:miter;stroke-opacity:1"
       d="m 191.86905,554.07189 11.33016,-10.46935 c 7.03754,-3.7704 19.06226,-0.46235 19.06226,-0.46235 0,0 8.23257,8.59165 7.75478,15.4328 l -4.31269,14.86051 z"
       id="path190278-3"
       sodipodi:nodetypes="cccccc" />
    <path
       style="fill:#a6b8b9;fill-opacity:1;stroke:#000000;stroke-width:1px;stroke-linecap:butt;stroke-linejoin:miter;stroke-opacity:1"
       d="m 225.70356,573.4335 14.3477,-5.66773 c 7.92446,-0.97259 17.94129,6.45712 17.94129,6.45712 0,0 4.57165,10.98598 1.65407,17.1922 l -9.39119,12.29795 z"
       id="path190278-1"
       sodipodi:nodetypes="cccccc" />
    <path
       style="fill:#a6b8b9;fill-opacity:1;stroke:#000000;stroke-width:1px;stroke-linecap:butt;stroke-linejoin:miter;stroke-opacity:1"
       d="m 250.25543,603.71304 15.40818,0.75343 c 7.62034,2.3819 13.68187,13.28121 13.68187,13.28121 0,0 -0.36564,11.89362 -5.58294,16.34439 l -13.62696,7.33076 z"
       id="path190278-94"
       sodipodi:nodetypes="cccccc" />
    <path
       style="fill:#a6b8b9;fill-opacity:1;stroke:#000000;stroke-width:1px;stroke-linecap:butt;stroke-linejoin:miter;stroke-opacity:1"
       d="m 260.13558,641.42283 13.86191,6.76959 c 6.06312,5.19438 7.33437,17.60088 7.33437,17.60088 0,0 -5.02702,10.78521 -11.57683,12.81737 l -15.41361,1.36178 z"
       id="path190278-62"
       sodipodi:nodetypes="cccccc" />
    <path
       style="fill:#a6b8b9;fill-opacity:1;stroke:#000000;stroke-width:1px;stroke-linecap:butt;stroke-linejoin:miter;stroke-opacity:1"
       d="m 254.34142,679.97245 10.12494,11.63896 c 3.55771,7.14743 -0.10938,19.06757 -0.10938,19.06757 0,0 -8.83462,7.97127 -15.65837,7.28858 l -14.72452,-4.75631 z"
       id="path190278-59"
       sodipodi:nodetypes="cccccc" />
    <path
       style="fill:#a6b8b9;fill-opacity:1;stroke:#000000;stroke-width:1px;stroke-linecap:butt;stroke-linejoin:miter;stroke-opacity:1"
       d="m 233.97409,713.21125 4.78321,14.66631 c 0.48807,7.96899 -7.53801,17.51463 -7.53801,17.51463 0,0 -11.24405,3.89396 -17.26103,0.60375 L 202.2552,735.87307 Z"
       id="path190278-17"
       sodipodi:nodetypes="cccccc" />
    <path
       style="fill:#a6b8b9;fill-opacity:1;stroke:#000000;stroke-width:1px;stroke-linecap:butt;stroke-linejoin:miter;stroke-opacity:1"
       d="m 202.2552,735.87307 -0.31484,15.42338 c -2.16418,7.68502 -12.88668,14.05411 -12.88668,14.05411 0,0 -11.8992,-0.0272 -16.49656,-5.11577 l -7.71541,-13.41292 z"
       id="path190278-7"
       sodipodi:nodetypes="cccccc" />
    <path
       style="fill:#a6b8b9;fill-opacity:1;stroke:#000000;stroke-width:1px;stroke-linecap:butt;stroke-linejoin:miter;stroke-opacity:1"
       d="m 164.84171,746.82187 -6.1631,14.14199 c -4.92701,6.28233 -17.26684,8.08952 -17.26684,8.08952 0,0 -10.99274,-4.55538 -13.30656,-11.01106 l -2.02782,-15.34019 z"
       id="path190278-41"
       sodipodi:nodetypes="cccccc" />
    <path
       style="fill:#a6b8b9;fill-opacity:1;stroke:#000000;stroke-width:1px;stroke-linecap:butt;stroke-linejoin:miter;stroke-opacity:1"
       d="m 126.07739,742.70213 -10.3821,11.41015 c -6.68504,4.36503 -18.950842,2.1095 -18.950842,2.1095 0,0 -8.944887,-7.84735 -9.060633,-14.70419 l 3.01111,-15.17785 z"
       id="path190278-19"
       sodipodi:nodetypes="cccccc" />
    <path
       style="fill:#a6b8b9;fill-opacity:1;stroke:#000000;stroke-width:1px;stroke-linecap:butt;stroke-linejoin:miter;stroke-opacity:1"
       d="m 90.694925,726.33974 -13.876717,6.73918 c -7.827917,1.57058 -18.379191,-5.07833 -18.379191,-5.07833 0,0 -5.391389,-10.60776 -2.95272,-17.01733 l 8.431797,-12.97453 z"
       id="path190278-13"
       sodipodi:nodetypes="cccccc" />
    <path
       style="fill:#a6b8b9;fill-opacity:1;stroke:#000000;stroke-width:1px;stroke-linecap:butt;stroke-linejoin:miter;stroke-opacity:1"
       d="m 63.918094,698.00873 -15.412946,0.64867 c -7.805136,-1.68015 -14.831226,-11.98411 -14.831226,-11.98411 0,0 -0.715758,-11.87769 4.07589,-16.78377 l 12.905068,-8.53775 z"
       id="path190278-8"
       sodipodi:nodetypes="cccccc" />
    <path
       style="fill:#a6b8b9;fill-opacity:1;stroke:#000000;stroke-width:1px;stroke-linecap:butt;stroke-linejoin:miter;stroke-opacity:1"
       d="m 50.65488,661.35177 -14.503256,-5.25693 c -6.581183,-4.52007 -9.164702,-16.72102 -9.164702,-16.72102 0,0 3.85147,-11.25868 10.147997,-13.97591 l 15.18136,-2.99335 z"
       id="path190278-74"
       sodipodi:nodetypes="cccccc" />
    <path
       style="fill:#a6b8b9;fill-opacity:1;stroke:#000000;stroke-width:1px;stroke-linecap:butt;stroke-linejoin:miter;stroke-opacity:1"
       d="M 52.316279,622.40456 41.351814,611.55282 c -4.080672,-6.8623 -1.312443,-19.02267 -1.312443,-19.02267 0,0 8.215768,-8.60772 15.07142,-8.43564 l 15.038136,3.64532 z"
       id="path190278-93"
       sodipodi:nodetypes="cccccc" />
    <path
       style="fill:#a6b8b9;fill-opacity:1;stroke:#000000;stroke-width:1px;stroke-linecap:butt;stroke-linejoin:miter;stroke-opacity:1"
       d="M 65.029162,595.37933 57.584813,581.8678 c -1.971337,-7.73672 4.12579,-18.61617 4.12579,-18.61617 0,0 10.316262,-5.93014 16.842829,-3.82454 l 13.391256,7.75294 z"
       id="path190278-138"
       sodipodi:nodetypes="cccccc" />
    <path
       style="fill:#abb8b9;fill-opacity:1;stroke:none;stroke-width:1.01;stroke-linecap:round;stroke-linejoin:round;stroke-miterlimit:4;stroke-dasharray:none;stroke-opacity:1;paint-order:markers fill stroke"
       id="path191157"
       sodipodi:type="arc"
       sodipodi:cx="155.46161"
       sodipodi:cy="646.49799"
       sodipodi:rx="106.6529"
       sodipodi:ry="100.68773"
       sodipodi:start="6.1987812"
       sodipodi:end="6.17775"
       sodipodi:open="true"
       sodipodi:arc-type="chord"
       d="M 261.73483,638.00961 A 106.6529,100.68773 0 0 1 165.01151,746.78126 106.6529,100.68773 0 0 1 49.288806,656.04089 106.6529,100.68773 0 0 1 144.79525,546.31506 a 106.6529,100.68773 0 0 1 116.727,89.58654 z" />
  </g>
  <g
     inkscape:label="Capa 1"
     inkscape:groupmode="layer"
     id="layer1" />
</svg>
