<?xml version="1.0" standalone="no"?>
<!DOCTYPE svg PUBLIC "-//W3C//DTD SVG 20010904//EN"
 "http://www.w3.org/TR/2001/REC-SVG-20010904/DTD/svg10.dtd">
<svg version="1.0" xmlns="http://www.w3.org/2000/svg"
 width="16130.000000pt" height="995.000000pt" viewBox="0 0 16130.000000 995.000000"
 preserveAspectRatio="xMidYMid meet">
<metadata>
Created by potrace 1.16, written by Peter Selinger 2001-2019
</metadata>
<g transform="translate(0.000000,995.000000) scale(0.100000,-0.100000)"
fill="#000000" stroke="none">
<path d="M92680 9880 c-839 -66 -1540 -348 -2317 -932 -187 -141 -489 -394
-605 -508 -132 -130 -172 -215 -133 -290 36 -70 195 -80 355 -22 47 17 140 51
207 76 66 25 248 84 403 131 412 125 584 197 810 339 108 68 143 78 163 44 16
-24 5 -34 -187 -168 -323 -226 -396 -289 -396 -345 0 -12 10 -31 23 -43 47
-44 105 -52 217 -29 78 17 133 12 156 -14 28 -31 6 -59 -87 -109 -98 -53 -102
-61 -70 -166 31 -99 21 -125 -106 -271 -52 -60 -63 -79 -63 -108 0 -46 39 -71
124 -80 118 -13 212 -37 376 -97 128 -46 178 -60 222 -60 31 0 63 4 71 9 8 4
65 53 127 108 184 163 447 365 478 365 9 0 39 -124 67 -275 63 -340 60 -767
-6 -1088 -112 -543 -410 -1044 -859 -1445 -196 -175 -496 -383 -734 -507 -87
-46 -120 -57 -236 -80 -74 -14 -135 -27 -136 -28 -1 -1 -79 -132 -173 -292
l-171 -290 63 -12 c130 -25 349 -36 490 -24 527 44 788 164 1162 536 416 412
711 928 884 1540 205 731 183 1522 -55 1997 -24 48 -44 90 -44 92 0 8 130 44
204 57 86 14 258 6 341 -16 33 -9 94 -33 135 -52 71 -33 74 -36 50 -46 -104
-44 -211 -98 -229 -116 -11 -11 -21 -31 -21 -43 0 -37 98 -117 239 -197 73
-41 134 -78 136 -81 2 -4 -5 -35 -16 -71 -24 -76 -19 -122 16 -145 13 -8 65
-24 116 -34 51 -11 97 -24 103 -30 19 -19 -9 -44 -65 -58 -120 -30 -119 -65 4
-188 86 -87 107 -101 322 -224 278 -160 469 -283 495 -320 28 -39 25 -82 -7
-121 -54 -63 -110 -70 -203 -24 -124 61 -323 108 -395 93 -58 -12 -105 -56
-105 -96 0 -43 27 -70 111 -111 107 -52 106 -73 -14 -239 -52 -71 -61 -91 -65
-135 -5 -68 18 -93 85 -90 59 2 132 46 239 146 90 82 124 95 157 59 24 -26 22
-38 -23 -112 -47 -78 -60 -117 -60 -180 0 -59 21 -90 63 -90 19 0 87 27 167
65 185 89 244 97 270 34 11 -25 10 -55 -4 -172 -43 -367 -137 -682 -305 -1022
-403 -812 -1148 -1439 -2091 -1760 -764 -259 -1603 -294 -2415 -100 -55 13
-101 22 -103 21 -1 -2 -206 -511 -456 -1132 -250 -621 -470 -1168 -489 -1217
-22 -53 -31 -87 -24 -87 7 0 227 538 491 1194 263 657 482 1200 486 1207 7 10
38 6 147 -19 334 -75 630 -106 998 -106 293 1 471 16 730 60 1279 221 2338
998 2806 2058 140 315 237 691 256 988 6 95 6 96 -21 123 -44 44 -106 33 -263
-44 -157 -78 -178 -84 -198 -65 -41 42 -26 145 35 239 46 71 52 115 18 139
-45 32 -83 21 -151 -42 -119 -110 -214 -172 -267 -172 -31 0 -60 35 -60 74 0
34 24 75 119 207 17 22 35 56 41 75 16 49 -6 79 -85 115 -70 31 -105 62 -105
92 0 30 52 74 96 81 52 9 247 -41 352 -90 139 -64 231 -41 277 70 15 35 15 40
-2 74 -29 59 -165 151 -527 358 -189 107 -219 128 -304 210 -117 114 -118 127
-18 159 62 20 96 44 96 66 0 17 -33 39 -68 44 -87 15 -158 37 -176 55 -23 23
-23 60 0 134 14 45 15 58 5 70 -7 8 -61 42 -120 75 -195 109 -272 178 -241
217 16 19 128 76 206 105 53 20 58 20 113 5 70 -20 135 -21 150 -2 21 25 -15
40 -112 44 -75 4 -102 10 -147 32 -416 207 -874 60 -1453 -466 -54 -49 -115
-98 -134 -108 -47 -25 -83 -18 -294 57 -85 31 -198 63 -250 72 -208 36 -229
45 -216 97 4 15 39 63 78 109 71 82 108 145 109 185 0 11 -9 47 -20 79 -32 92
-29 99 43 133 88 42 127 77 127 113 0 45 -44 63 -134 55 -170 -16 -192 -17
-218 -7 -15 5 -34 22 -44 36 -29 45 -6 75 145 188 75 57 200 146 277 200 78
53 144 104 148 113 18 47 2 64 -61 64 -27 0 -60 -15 -131 -61 -197 -128 -405
-217 -747 -320 -294 -88 -437 -136 -557 -185 -138 -56 -215 -75 -298 -75 -79
0 -110 11 -139 47 -28 36 -27 69 6 135 41 81 221 251 538 505 893 718 1693
1042 2640 1071 942 28 1743 -323 2260 -990 118 -151 200 -284 305 -492 313
-618 503 -1307 614 -2235 25 -207 37 -321 101 -995 56 -575 99 -882 166 -1185
43 -196 76 -304 209 -695 181 -531 289 -825 290 -788 0 18 -45 160 -101 315
-190 532 -302 872 -348 1056 -89 351 -134 675 -216 1537 -102 1075 -176 1535
-335 2084 -164 568 -423 1113 -686 1440 -427 531 -1035 857 -1764 946 -155 19
-497 27 -650 15z m38 -2137 c147 -285 221 -733 193 -1181 -33 -537 -158 -1011
-387 -1472 -180 -361 -371 -626 -641 -891 -360 -353 -579 -455 -1098 -510 -61
-6 -163 -9 -230 -6 -132 6 -307 26 -316 36 -3 3 67 130 156 281 l162 275 138
27 c156 31 214 58 468 217 528 328 922 746 1158 1226 271 552 334 1163 188
1838 -17 75 -27 142 -23 148 7 13 162 89 180 89 6 0 30 -35 52 -77z m926 28
c34 -13 3 -20 -48 -10 -27 5 -52 11 -54 14 -8 8 81 4 102 -4z"/>
<path d="M109335 9179 c-650 -35 -1265 -226 -1840 -572 -374 -224 -836 -575
-1136 -864 -139 -134 -182 -242 -124 -312 37 -43 83 -55 184 -48 90 6 125 16
311 90 63 25 228 80 365 122 483 147 681 228 905 369 107 68 138 77 160 51 18
-22 8 -31 -159 -147 -208 -145 -367 -265 -396 -300 -44 -52 -26 -116 41 -144
43 -18 91 -18 184 2 64 13 81 14 115 2 74 -25 49 -69 -70 -127 -78 -37 -89
-57 -68 -121 40 -123 28 -166 -77 -285 -94 -106 -108 -156 -55 -191 12 -8 78
-24 146 -34 131 -21 168 -31 372 -104 98 -35 142 -46 187 -46 l60 0 81 73
c264 233 510 420 529 401 5 -5 20 -62 34 -126 128 -576 93 -1142 -101 -1633
-238 -601 -699 -1101 -1373 -1489 -112 -64 -117 -66 -220 -78 -58 -6 -226 -12
-375 -12 -339 -1 -487 19 -759 103 -159 50 -246 41 -299 -31 -30 -40 -43 -78
-101 -278 -67 -237 -71 -256 -70 -375 1 -87 7 -128 27 -195 37 -122 50 -208
45 -302 -5 -121 -28 -161 -142 -252 -158 -126 -199 -185 -199 -286 0 -59 11
-103 49 -190 l24 -55 153 -77 c168 -85 274 -150 284 -173 14 -38 -88 -105
-322 -210 -200 -90 -275 -136 -352 -218 -66 -70 -73 -95 -43 -161 81 -181 99
-310 61 -434 -50 -167 -190 -302 -476 -461 l-110 -61 295 2 295 3 -254 2 -253
3 108 65 c253 152 372 276 424 444 37 117 20 262 -49 414 -17 38 -31 78 -31
89 0 30 111 139 186 183 36 21 140 73 232 114 168 77 258 129 301 175 53 57 6
100 -254 232 -93 48 -173 92 -177 98 -15 22 -50 122 -60 173 -22 107 22 179
192 312 114 90 142 142 148 270 3 92 -9 173 -52 335 -29 112 -33 190 -12 298
19 98 114 423 137 470 40 79 103 100 214 70 437 -118 495 -127 870 -126 l280
0 -90 -18 c-49 -10 -94 -23 -99 -28 -17 -17 54 -11 181 14 102 21 135 33 221
80 808 441 1335 1045 1547 1772 129 441 137 943 24 1439 -28 123 -28 131 -12
144 22 16 158 81 171 81 12 0 82 -140 117 -234 35 -94 81 -285 102 -425 25
-168 25 -652 0 -841 -129 -961 -562 -1776 -1229 -2310 -182 -147 -373 -231
-618 -274 -289 -51 -482 -56 -725 -21 -124 18 -115 18 -115 0 0 -8 3 -15 8
-15 4 0 50 -7 102 -15 233 -35 447 -29 730 20 205 37 394 108 530 201 164 111
430 366 585 559 317 396 550 878 679 1408 35 139 62 288 88 477 18 131 18 664
0 785 -39 256 -95 452 -177 615 l-44 87 74 22 c214 64 442 49 613 -39 l57 -29
-33 -11 c-54 -20 -196 -90 -214 -107 -24 -22 -23 -64 3 -97 28 -36 125 -103
247 -171 111 -62 112 -64 87 -135 -37 -105 -8 -150 113 -175 104 -21 125 -28
129 -42 5 -13 -46 -43 -72 -43 -29 0 -84 -31 -90 -50 -9 -30 17 -69 107 -156
73 -72 110 -97 319 -217 274 -157 461 -278 489 -317 11 -16 20 -37 20 -48 0
-30 -42 -85 -80 -105 -44 -23 -77 -18 -178 27 -107 46 -254 86 -322 86 -68 0
-119 -25 -142 -70 -28 -55 2 -107 81 -136 68 -26 101 -51 101 -79 0 -13 -28
-65 -62 -115 -91 -132 -96 -141 -103 -185 -5 -32 -2 -45 14 -66 57 -73 166
-32 331 124 76 71 112 84 145 51 19 -20 14 -40 -30 -108 -42 -68 -55 -108 -55
-175 0 -122 41 -129 232 -36 179 87 241 96 266 39 26 -55 -40 -456 -114 -702
-365 -1212 -1456 -2130 -2849 -2396 -185 -35 -542 -76 -667 -76 -10 0 -18 -7
-18 -15 0 -11 15 -13 88 -9 628 38 1178 181 1696 443 1045 528 1734 1453 1881
2521 22 165 22 230 1 263 -39 59 -104 50 -296 -43 -187 -90 -197 -88 -190 40
2 42 21 90 60 151 47 72 36 129 -26 145 -41 11 -69 -3 -140 -71 -134 -127
-228 -174 -279 -141 -45 30 -33 76 50 192 65 90 95 145 95 172 0 34 -39 71
-101 93 -58 21 -99 57 -99 86 0 24 46 61 90 73 36 10 56 7 148 -15 59 -15 143
-42 188 -61 118 -50 141 -55 188 -43 53 14 112 74 121 122 6 31 3 45 -18 76
-33 50 -195 156 -493 326 -214 121 -236 136 -326 226 -54 52 -98 102 -98 111
0 16 20 26 100 50 30 9 49 22 59 40 23 41 -3 64 -92 78 -40 7 -91 20 -114 30
-40 18 -43 21 -43 58 0 22 7 56 16 77 29 70 21 83 -97 150 -151 86 -204 122
-239 161 -25 29 -28 38 -20 55 12 21 113 75 206 109 59 21 63 21 114 6 71 -21
146 -21 154 0 3 9 4 20 1 25 -10 16 -87 31 -144 28 -48 -3 -68 3 -135 35 -405
194 -846 58 -1396 -431 -174 -154 -175 -155 -222 -160 -33 -3 -73 7 -173 43
-228 81 -293 98 -457 119 -61 8 -93 33 -85 67 4 13 34 56 68 94 74 84 119 159
119 200 0 16 -9 58 -21 92 -12 34 -18 69 -15 77 3 8 33 28 68 46 112 56 146
110 97 155 -23 21 -95 24 -240 9 -161 -16 -192 61 -64 162 55 44 281 206 418
300 53 37 79 61 83 79 10 40 -7 59 -57 62 -39 2 -54 -4 -129 -53 -114 -75
-358 -194 -500 -244 -63 -22 -235 -77 -382 -121 -147 -45 -334 -107 -415 -139
-176 -69 -236 -85 -323 -84 -115 0 -166 49 -139 132 26 75 92 151 269 305 935
814 1667 1177 2610 1293 200 24 642 24 820 0 568 -79 1031 -279 1417 -611 406
-350 708 -858 948 -1596 187 -575 278 -1110 385 -2250 60 -639 91 -898 146
-1210 14 -80 36 -224 48 -320 23 -173 24 -174 25 -89 1 94 -15 230 -53 447
-49 279 -84 570 -141 1182 -44 471 -59 616 -91 860 -118 924 -320 1613 -654
2240 -115 214 -236 388 -382 546 -479 519 -1095 797 -1868 844 -179 11 -178
11 -385 -1z m905 -2119 c10 -7 1 -8 -30 -4 -56 8 -64 14 -19 14 19 0 41 -5 49
-10z m-2877 -3427 c-7 -2 -19 -2 -25 0 -7 3 -2 5 12 5 14 0 19 -2 13 -5z"/>
<path d="M125465 9179 c-650 -35 -1265 -226 -1840 -572 -374 -224 -836 -575
-1136 -864 -139 -134 -182 -242 -124 -312 37 -43 83 -55 184 -48 90 6 125 16
311 90 63 25 228 80 365 122 483 147 681 228 905 369 107 68 138 77 160 51 18
-22 8 -31 -159 -147 -208 -145 -367 -265 -396 -300 -44 -52 -26 -116 41 -144
43 -18 91 -18 184 2 64 13 81 14 115 2 74 -25 49 -69 -70 -127 -78 -37 -89
-57 -68 -121 40 -123 28 -166 -77 -285 -94 -106 -108 -156 -55 -191 12 -8 78
-24 146 -34 131 -21 168 -31 372 -104 98 -35 142 -46 187 -46 l60 0 81 73
c264 233 510 420 529 401 5 -5 20 -62 34 -126 128 -576 93 -1142 -101 -1633
-238 -601 -699 -1101 -1373 -1489 -112 -64 -117 -66 -220 -78 -58 -6 -226 -12
-375 -12 -339 -1 -487 19 -759 103 -159 50 -246 41 -299 -31 -30 -40 -43 -78
-101 -278 -67 -237 -71 -256 -70 -375 1 -87 7 -128 27 -195 37 -122 50 -208
45 -302 -5 -121 -28 -161 -142 -252 -158 -126 -199 -185 -199 -286 0 -59 11
-103 49 -190 l24 -55 153 -77 c168 -85 274 -150 284 -173 14 -38 -88 -105
-322 -210 -200 -90 -275 -136 -352 -218 -66 -70 -73 -95 -43 -161 81 -181 99
-310 61 -434 -50 -167 -190 -302 -476 -461 l-110 -61 295 2 295 3 -254 2 -253
3 108 65 c253 152 372 276 424 444 37 117 20 262 -49 414 -17 38 -31 78 -31
89 0 30 111 139 186 183 36 21 140 73 232 114 168 77 258 129 301 175 53 57 6
100 -254 232 -93 48 -173 92 -177 98 -15 22 -50 122 -60 173 -22 107 22 179
192 312 114 90 142 142 148 270 3 92 -9 173 -52 335 -29 112 -33 190 -12 298
19 98 114 423 137 470 40 79 103 100 214 70 437 -118 495 -127 870 -126 l280
0 -90 -18 c-49 -10 -94 -23 -99 -28 -17 -17 54 -11 181 14 102 21 135 33 221
80 808 441 1335 1045 1547 1772 129 441 137 943 24 1439 -28 123 -28 131 -12
144 22 16 158 81 171 81 12 0 82 -140 117 -234 35 -94 81 -285 102 -425 25
-168 25 -652 0 -841 -129 -961 -562 -1776 -1229 -2310 -182 -147 -373 -231
-618 -274 -289 -51 -482 -56 -725 -21 -124 18 -115 18 -115 0 0 -8 3 -15 8
-15 4 0 50 -7 102 -15 233 -35 447 -29 730 20 205 37 394 108 530 201 164 111
430 366 585 559 317 396 550 878 679 1408 35 139 62 288 88 477 18 131 18 664
0 785 -39 256 -95 452 -177 615 l-44 87 74 22 c214 64 442 49 613 -39 l57 -29
-33 -11 c-54 -20 -196 -90 -214 -107 -24 -22 -23 -64 3 -97 28 -36 125 -103
247 -171 111 -62 112 -64 87 -135 -37 -105 -8 -150 113 -175 104 -21 125 -28
129 -42 5 -13 -46 -43 -72 -43 -29 0 -84 -31 -90 -50 -9 -30 17 -69 107 -156
73 -72 110 -97 319 -217 274 -157 461 -278 489 -317 11 -16 20 -37 20 -48 0
-30 -42 -85 -80 -105 -44 -23 -77 -18 -178 27 -107 46 -254 86 -322 86 -68 0
-119 -25 -142 -70 -28 -55 2 -107 81 -136 68 -26 101 -51 101 -79 0 -13 -28
-65 -62 -115 -91 -132 -96 -141 -103 -185 -5 -32 -2 -45 14 -66 57 -73 166
-32 331 124 76 71 112 84 145 51 19 -20 14 -40 -30 -108 -42 -68 -55 -108 -55
-175 0 -122 41 -129 232 -36 179 87 241 96 266 39 26 -55 -40 -456 -114 -702
-365 -1212 -1456 -2130 -2849 -2396 -185 -35 -542 -76 -667 -76 -10 0 -18 -7
-18 -15 0 -11 15 -13 88 -9 628 38 1178 181 1696 443 1045 528 1734 1453 1881
2521 22 165 22 230 1 263 -39 59 -104 50 -296 -43 -187 -90 -197 -88 -190 40
2 42 21 90 60 151 47 72 36 129 -26 145 -41 11 -69 -3 -140 -71 -134 -127
-228 -174 -279 -141 -45 30 -33 76 50 192 65 90 95 145 95 172 0 34 -39 71
-101 93 -58 21 -99 57 -99 86 0 24 46 61 90 73 36 10 56 7 148 -15 59 -15 143
-42 188 -61 118 -50 141 -55 188 -43 53 14 112 74 121 122 6 31 3 45 -18 76
-33 50 -195 156 -493 326 -214 121 -236 136 -326 226 -54 52 -98 102 -98 111
0 16 20 26 100 50 30 9 49 22 59 40 23 41 -3 64 -92 78 -40 7 -91 20 -114 30
-40 18 -43 21 -43 58 0 22 7 56 16 77 29 70 21 83 -97 150 -151 86 -204 122
-239 161 -25 29 -28 38 -20 55 12 21 113 75 206 109 59 21 63 21 114 6 71 -21
146 -21 154 0 3 9 4 20 1 25 -10 16 -87 31 -144 28 -48 -3 -68 3 -135 35 -405
194 -846 58 -1396 -431 -174 -154 -175 -155 -222 -160 -33 -3 -73 7 -173 43
-228 81 -293 98 -457 119 -61 8 -93 33 -85 67 4 13 34 56 68 94 74 84 119 159
119 200 0 16 -9 58 -21 92 -12 34 -18 69 -15 77 3 8 33 28 68 46 112 56 146
110 97 155 -23 21 -95 24 -240 9 -161 -16 -192 61 -64 162 55 44 281 206 418
300 53 37 79 61 83 79 10 40 -7 59 -57 62 -39 2 -54 -4 -129 -53 -114 -75
-358 -194 -500 -244 -63 -22 -235 -77 -382 -121 -147 -45 -334 -107 -415 -139
-176 -69 -236 -85 -323 -84 -115 0 -166 49 -139 132 26 75 92 151 269 305 935
814 1667 1177 2610 1293 200 24 642 24 820 0 568 -79 1031 -279 1417 -611 406
-350 708 -858 948 -1596 187 -575 278 -1110 385 -2250 60 -639 91 -898 146
-1210 14 -80 36 -224 48 -320 23 -173 24 -174 25 -89 1 94 -15 230 -53 447
-49 279 -84 570 -141 1182 -44 471 -59 616 -91 860 -118 924 -320 1613 -654
2240 -115 214 -236 388 -382 546 -479 519 -1095 797 -1868 844 -179 11 -178
11 -385 -1z m905 -2119 c10 -7 1 -8 -30 -4 -56 8 -64 14 -19 14 19 0 41 -5 49
-10z m-2877 -3427 c-7 -2 -19 -2 -25 0 -7 3 -2 5 12 5 14 0 19 -2 13 -5z"/>
<path d="M141595 9179 c-650 -35 -1265 -226 -1840 -572 -374 -224 -836 -575
-1136 -864 -139 -134 -182 -242 -124 -312 37 -43 83 -55 184 -48 90 6 125 16
311 90 63 25 228 80 365 122 483 147 681 228 905 369 107 68 138 77 160 51 18
-22 8 -31 -159 -147 -208 -145 -367 -265 -396 -300 -44 -52 -26 -116 41 -144
43 -18 91 -18 184 2 64 13 81 14 115 2 74 -25 49 -69 -70 -127 -78 -37 -89
-57 -68 -121 40 -123 28 -166 -77 -285 -94 -106 -108 -156 -55 -191 12 -8 78
-24 146 -34 131 -21 168 -31 372 -104 98 -35 142 -46 187 -46 l60 0 81 73
c264 233 510 420 529 401 5 -5 20 -62 34 -126 128 -576 93 -1142 -101 -1633
-238 -601 -699 -1101 -1373 -1489 -112 -64 -117 -66 -220 -78 -58 -6 -226 -12
-375 -12 -339 -1 -487 19 -759 103 -159 50 -246 41 -299 -31 -30 -40 -43 -78
-101 -278 -67 -237 -71 -256 -70 -375 1 -87 7 -128 27 -195 37 -122 50 -208
45 -302 -5 -121 -28 -161 -142 -252 -158 -126 -199 -185 -199 -286 0 -59 11
-103 49 -190 l24 -55 153 -77 c168 -85 274 -150 284 -173 14 -38 -88 -105
-322 -210 -200 -90 -275 -136 -352 -218 -66 -70 -73 -95 -43 -161 81 -181 99
-310 61 -434 -50 -167 -190 -302 -476 -461 l-110 -61 295 2 295 3 -254 2 -253
3 108 65 c253 152 372 276 424 444 37 117 20 262 -49 414 -17 38 -31 78 -31
89 0 30 111 139 186 183 36 21 140 73 232 114 168 77 258 129 301 175 53 57 6
100 -254 232 -93 48 -173 92 -177 98 -15 22 -50 122 -60 173 -22 107 22 179
192 312 114 90 142 142 148 270 3 92 -9 173 -52 335 -29 112 -33 190 -12 298
19 98 114 423 137 470 40 79 103 100 214 70 437 -118 495 -127 870 -126 l280
0 -90 -18 c-49 -10 -94 -23 -99 -28 -17 -17 54 -11 181 14 102 21 135 33 221
80 808 441 1335 1045 1547 1772 129 441 137 943 24 1439 -28 123 -28 131 -12
144 22 16 158 81 171 81 12 0 82 -140 117 -234 35 -94 81 -285 102 -425 25
-168 25 -652 0 -841 -129 -961 -562 -1776 -1229 -2310 -182 -147 -373 -231
-618 -274 -289 -51 -482 -56 -725 -21 -124 18 -115 18 -115 0 0 -8 3 -15 8
-15 4 0 50 -7 102 -15 233 -35 447 -29 730 20 205 37 394 108 530 201 164 111
430 366 585 559 317 396 550 878 679 1408 35 139 62 288 88 477 18 131 18 664
0 785 -39 256 -95 452 -177 615 l-44 87 74 22 c214 64 442 49 613 -39 l57 -29
-33 -11 c-54 -20 -196 -90 -214 -107 -24 -22 -23 -64 3 -97 28 -36 125 -103
247 -171 111 -62 112 -64 87 -135 -37 -105 -8 -150 113 -175 104 -21 125 -28
129 -42 5 -13 -46 -43 -72 -43 -29 0 -84 -31 -90 -50 -9 -30 17 -69 107 -156
73 -72 110 -97 319 -217 274 -157 461 -278 489 -317 11 -16 20 -37 20 -48 0
-30 -42 -85 -80 -105 -44 -23 -77 -18 -178 27 -107 46 -254 86 -322 86 -68 0
-119 -25 -142 -70 -28 -55 2 -107 81 -136 68 -26 101 -51 101 -79 0 -13 -28
-65 -62 -115 -91 -132 -96 -141 -103 -185 -5 -32 -2 -45 14 -66 57 -73 166
-32 331 124 76 71 112 84 145 51 19 -20 14 -40 -30 -108 -42 -68 -55 -108 -55
-175 0 -122 41 -129 232 -36 179 87 241 96 266 39 26 -55 -40 -456 -114 -702
-365 -1212 -1456 -2130 -2849 -2396 -185 -35 -542 -76 -667 -76 -10 0 -18 -7
-18 -15 0 -11 15 -13 88 -9 628 38 1178 181 1696 443 1045 528 1734 1453 1881
2521 22 165 22 230 1 263 -39 59 -104 50 -296 -43 -187 -90 -197 -88 -190 40
2 42 21 90 60 151 47 72 36 129 -26 145 -41 11 -69 -3 -140 -71 -134 -127
-228 -174 -279 -141 -45 30 -33 76 50 192 65 90 95 145 95 172 0 34 -39 71
-101 93 -58 21 -99 57 -99 86 0 24 46 61 90 73 36 10 56 7 148 -15 59 -15 143
-42 188 -61 118 -50 141 -55 188 -43 53 14 112 74 121 122 6 31 3 45 -18 76
-33 50 -195 156 -493 326 -214 121 -236 136 -326 226 -54 52 -98 102 -98 111
0 16 20 26 100 50 30 9 49 22 59 40 23 41 -3 64 -92 78 -40 7 -91 20 -114 30
-40 18 -43 21 -43 58 0 22 7 56 16 77 29 70 21 83 -97 150 -151 86 -204 122
-239 161 -25 29 -28 38 -20 55 12 21 113 75 206 109 59 21 63 21 114 6 71 -21
146 -21 154 0 3 9 4 20 1 25 -10 16 -87 31 -144 28 -48 -3 -68 3 -135 35 -405
194 -846 58 -1396 -431 -174 -154 -175 -155 -222 -160 -33 -3 -73 7 -173 43
-228 81 -293 98 -457 119 -61 8 -93 33 -85 67 4 13 34 56 68 94 74 84 119 159
119 200 0 16 -9 58 -21 92 -12 34 -18 69 -15 77 3 8 33 28 68 46 112 56 146
110 97 155 -23 21 -95 24 -240 9 -161 -16 -192 61 -64 162 55 44 281 206 418
300 53 37 79 61 83 79 10 40 -7 59 -57 62 -39 2 -54 -4 -129 -53 -114 -75
-358 -194 -500 -244 -63 -22 -235 -77 -382 -121 -147 -45 -334 -107 -415 -139
-176 -69 -236 -85 -323 -84 -115 0 -166 49 -139 132 26 75 92 151 269 305 935
814 1667 1177 2610 1293 200 24 642 24 820 0 568 -79 1031 -279 1417 -611 406
-350 708 -858 948 -1596 187 -575 278 -1110 385 -2250 60 -639 91 -898 146
-1210 14 -80 36 -224 48 -320 23 -173 24 -174 25 -89 1 94 -15 230 -53 447
-49 279 -84 570 -141 1182 -44 471 -59 616 -91 860 -118 924 -320 1613 -654
2240 -115 214 -236 388 -382 546 -479 519 -1095 797 -1868 844 -179 11 -178
11 -385 -1z m905 -2119 c10 -7 1 -8 -30 -4 -56 8 -64 14 -19 14 19 0 41 -5 49
-10z m-2877 -3427 c-7 -2 -19 -2 -25 0 -7 3 -2 5 12 5 14 0 19 -2 13 -5z"/>
<path d="M157725 9179 c-650 -35 -1265 -226 -1840 -572 -374 -224 -836 -575
-1136 -864 -139 -134 -182 -242 -124 -312 37 -43 83 -55 184 -48 90 6 125 16
311 90 63 25 228 80 365 122 483 147 681 228 905 369 107 68 138 77 160 51 18
-22 8 -31 -159 -147 -208 -145 -367 -265 -396 -300 -44 -52 -26 -116 41 -144
43 -18 91 -18 184 2 64 13 81 14 115 2 74 -25 49 -69 -70 -127 -78 -37 -89
-57 -68 -121 40 -123 28 -166 -77 -285 -94 -106 -108 -156 -55 -191 12 -8 78
-24 146 -34 131 -21 168 -31 372 -104 98 -35 142 -46 187 -46 l60 0 81 73
c264 233 510 420 529 401 5 -5 20 -62 34 -126 128 -576 93 -1142 -101 -1633
-238 -601 -699 -1101 -1373 -1489 -112 -64 -117 -66 -220 -78 -58 -6 -226 -12
-375 -12 -339 -1 -487 19 -759 103 -159 50 -246 41 -299 -31 -30 -40 -43 -78
-101 -278 -67 -237 -71 -256 -70 -375 1 -87 7 -128 27 -195 37 -122 50 -208
45 -302 -5 -121 -28 -161 -142 -252 -158 -126 -199 -185 -199 -286 0 -59 11
-103 49 -190 l24 -55 153 -77 c168 -85 274 -150 284 -173 14 -38 -88 -105
-322 -210 -200 -90 -275 -136 -352 -218 -66 -70 -73 -95 -43 -161 81 -181 99
-310 61 -434 -50 -167 -190 -302 -476 -461 l-110 -61 295 2 295 3 -254 2 -253
3 108 65 c253 152 372 276 424 444 37 117 20 262 -49 414 -17 38 -31 78 -31
89 0 30 111 139 186 183 36 21 140 73 232 114 168 77 258 129 301 175 53 57 6
100 -254 232 -93 48 -173 92 -177 98 -15 22 -50 122 -60 173 -22 107 22 179
192 312 114 90 142 142 148 270 3 92 -9 173 -52 335 -29 112 -33 190 -12 298
19 98 114 423 137 470 40 79 103 100 214 70 437 -118 495 -127 870 -126 l280
0 -90 -18 c-49 -10 -94 -23 -99 -28 -17 -17 54 -11 181 14 102 21 135 33 221
80 808 441 1335 1045 1547 1772 129 441 137 943 24 1439 -28 123 -28 131 -12
144 22 16 158 81 171 81 12 0 82 -140 117 -234 35 -94 81 -285 102 -425 25
-168 25 -652 0 -841 -129 -961 -562 -1776 -1229 -2310 -182 -147 -373 -231
-618 -274 -289 -51 -482 -56 -725 -21 -124 18 -115 18 -115 0 0 -8 3 -15 8
-15 4 0 50 -7 102 -15 233 -35 447 -29 730 20 205 37 394 108 530 201 164 111
430 366 585 559 317 396 550 878 679 1408 35 139 62 288 88 477 18 131 18 664
0 785 -39 256 -95 452 -177 615 l-44 87 74 22 c214 64 442 49 613 -39 l57 -29
-33 -11 c-54 -20 -196 -90 -214 -107 -24 -22 -23 -64 3 -97 28 -36 125 -103
247 -171 111 -62 112 -64 87 -135 -37 -105 -8 -150 113 -175 104 -21 125 -28
129 -42 5 -13 -46 -43 -72 -43 -29 0 -84 -31 -90 -50 -9 -30 17 -69 107 -156
73 -72 110 -97 319 -217 274 -157 461 -278 489 -317 11 -16 20 -37 20 -48 0
-30 -42 -85 -80 -105 -44 -23 -77 -18 -178 27 -107 46 -254 86 -322 86 -68 0
-119 -25 -142 -70 -28 -55 2 -107 81 -136 68 -26 101 -51 101 -79 0 -13 -28
-65 -62 -115 -91 -132 -96 -141 -103 -185 -5 -32 -2 -45 14 -66 57 -73 166
-32 331 124 76 71 112 84 145 51 19 -20 14 -40 -30 -108 -42 -68 -55 -108 -55
-175 0 -122 41 -129 232 -36 179 87 241 96 266 39 26 -55 -40 -456 -114 -702
-365 -1212 -1456 -2130 -2849 -2396 -185 -35 -542 -76 -667 -76 -10 0 -18 -7
-18 -15 0 -11 15 -13 88 -9 628 38 1178 181 1696 443 1045 528 1734 1453 1881
2521 22 165 22 230 1 263 -39 59 -104 50 -296 -43 -187 -90 -197 -88 -190 40
2 42 21 90 60 151 47 72 36 129 -26 145 -41 11 -69 -3 -140 -71 -134 -127
-228 -174 -279 -141 -45 30 -33 76 50 192 65 90 95 145 95 172 0 34 -39 71
-101 93 -58 21 -99 57 -99 86 0 24 46 61 90 73 36 10 56 7 148 -15 59 -15 143
-42 188 -61 118 -50 141 -55 188 -43 53 14 112 74 121 122 6 31 3 45 -18 76
-33 50 -195 156 -493 326 -214 121 -236 136 -326 226 -54 52 -98 102 -98 111
0 16 20 26 100 50 30 9 49 22 59 40 23 41 -3 64 -92 78 -40 7 -91 20 -114 30
-40 18 -43 21 -43 58 0 22 7 56 16 77 29 70 21 83 -97 150 -151 86 -204 122
-239 161 -25 29 -28 38 -20 55 12 21 113 75 206 109 59 21 63 21 114 6 71 -21
146 -21 154 0 3 9 4 20 1 25 -10 16 -87 31 -144 28 -48 -3 -68 3 -135 35 -405
194 -846 58 -1396 -431 -174 -154 -175 -155 -222 -160 -33 -3 -73 7 -173 43
-228 81 -293 98 -457 119 -61 8 -93 33 -85 67 4 13 34 56 68 94 74 84 119 159
119 200 0 16 -9 58 -21 92 -12 34 -18 69 -15 77 3 8 33 28 68 46 112 56 146
110 97 155 -23 21 -95 24 -240 9 -161 -16 -192 61 -64 162 55 44 281 206 418
300 53 37 79 61 83 79 10 40 -7 59 -57 62 -39 2 -54 -4 -129 -53 -114 -75
-358 -194 -500 -244 -63 -22 -235 -77 -382 -121 -147 -45 -334 -107 -415 -139
-176 -69 -236 -85 -323 -84 -115 0 -166 49 -139 132 26 75 92 151 269 305 935
814 1667 1177 2610 1293 200 24 642 24 820 0 568 -79 1031 -279 1417 -611 406
-350 708 -858 948 -1596 187 -575 278 -1110 385 -2250 60 -639 91 -898 146
-1210 14 -80 36 -224 48 -320 23 -173 24 -174 25 -89 1 94 -15 230 -53 447
-49 279 -84 570 -141 1182 -44 471 -59 616 -91 860 -118 924 -320 1613 -654
2240 -115 214 -236 388 -382 546 -479 519 -1095 797 -1868 844 -179 11 -178
11 -385 -1z m905 -2119 c10 -7 1 -8 -30 -4 -56 8 -64 14 -19 14 19 0 41 -5 49
-10z m-2877 -3427 c-7 -2 -19 -2 -25 0 -7 3 -2 5 12 5 14 0 19 -2 13 -5z"/>
<path d="M76375 9039 c-251 -17 -431 -38 -493 -58 -175 -54 -211 -157 -93
-264 62 -56 147 -94 310 -137 82 -22 234 -70 338 -106 607 -213 745 -248 1056
-270 94 -6 136 -26 124 -57 -6 -15 -40 -16 -354 -14 -319 2 -351 0 -381 -16
-95 -52 -46 -162 103 -233 81 -38 95 -48 120 -88 18 -28 18 -29 0 -42 -23 -17
-71 -18 -146 -2 -84 17 -101 6 -129 -79 -36 -110 -68 -132 -238 -168 -90 -19
-130 -39 -143 -71 -13 -37 13 -86 74 -137 65 -55 153 -165 244 -304 80 -125
140 -189 185 -201 16 -4 84 -1 151 7 133 15 660 21 673 8 5 -4 8 -162 9 -350
0 -385 -11 -490 -81 -769 -90 -359 -260 -702 -491 -988 -252 -314 -625 -598
-1047 -800 -212 -102 -224 -105 -566 -144 -499 -58 -524 -60 -810 -61 -347 0
-521 23 -789 107 -171 53 -273 32 -323 -65 -24 -49 -122 -366 -143 -468 -21
-99 -19 -209 6 -304 51 -197 60 -249 56 -340 -4 -127 -31 -173 -148 -260 -93
-70 -158 -135 -182 -181 -37 -73 -29 -165 24 -284 l29 -65 193 -97 c105 -53
210 -112 232 -132 l40 -35 -30 -26 c-59 -50 -147 -97 -323 -173 -98 -43 -210
-99 -249 -125 -78 -52 -160 -135 -169 -172 -4 -15 7 -51 29 -102 91 -201 98
-335 25 -482 -61 -126 -242 -277 -481 -401 -48 -25 -87 -50 -87 -56 0 -17 811
-24 3665 -28 1768 -3 2281 -2 1630 4 -522 4 -1706 13 -2630 19 -924 6 -1884
14 -2133 17 l-453 6 83 47 c135 76 238 150 318 231 186 187 214 390 90 652
-17 35 -30 71 -30 82 0 10 31 49 68 85 74 73 168 126 390 221 129 55 214 103
278 157 34 29 37 34 26 57 -18 40 -94 89 -284 183 l-176 88 -26 57 c-84 189
-55 273 147 428 50 39 104 89 119 111 37 55 52 135 45 239 -6 77 -15 120 -62
290 -17 62 -20 192 -5 271 14 78 119 427 141 471 45 89 123 102 299 50 288
-86 443 -106 790 -106 284 1 348 6 910 74 179 22 426 49 550 60 226 21 262 25
685 80 127 16 280 32 340 36 108 6 111 6 149 -20 49 -33 88 -33 155 0 50 25
59 27 150 21 130 -8 245 -31 332 -67 77 -32 103 -37 97 -18 -4 11 -108 58
-173 79 -39 12 -236 39 -285 39 -44 0 -48 5 -22 36 27 34 67 56 201 109 174
69 171 79 -31 85 -139 4 -160 7 -185 26 -15 12 -29 32 -31 46 -5 43 39 73 172
118 130 43 176 74 176 120 0 13 -16 52 -35 87 -55 100 -45 153 30 153 78 0
199 -129 319 -342 35 -62 78 -88 147 -88 59 0 110 24 129 61 31 57 -19 214
-200 624 -90 203 -104 243 -121 340 -23 135 -23 154 -3 162 9 3 45 -3 80 -15
46 -16 71 -19 88 -12 51 19 39 58 -44 147 -90 96 -90 118 2 188 29 23 54 50
56 61 2 11 -20 70 -47 131 -64 142 -91 222 -91 272 0 52 18 57 120 37 149 -28
185 -43 216 -87 59 -86 133 -125 142 -75 4 20 -84 110 -119 121 -11 4 -33 34
-50 68 -142 282 -387 443 -774 508 -109 19 -548 16 -715 -4 -123 -14 -126 -14
-170 7 -39 18 -58 40 -140 162 -116 171 -185 257 -254 317 -29 25 -59 60 -66
78 -13 29 -12 33 9 50 12 10 47 23 79 29 190 37 248 73 281 173 33 97 26 92
124 77 121 -19 167 -4 167 54 0 43 -55 96 -140 135 -100 46 -148 97 -136 146
12 48 26 50 403 50 315 0 354 2 369 17 23 23 11 64 -27 87 -21 13 -60 20 -137
25 -134 9 -267 29 -397 62 -128 32 -170 45 -515 166 -157 55 -352 117 -435
139 -248 65 -375 144 -375 234 0 118 192 159 873 186 780 30 1411 -70 1997
-316 69 -29 168 -67 220 -85 537 -182 1091 -761 1488 -1555 111 -222 213 -469
305 -735 l15 -45 1 43 c1 53 -97 321 -205 559 -411 907 -1009 1565 -1606 1764
-51 17 -138 50 -193 74 -365 155 -696 242 -1135 296 -137 17 -235 21 -585 24
-231 2 -478 -1 -550 -6z m1580 -2265 c33 -8 65 -21 72 -30 18 -24 52 -160 69
-280 20 -145 20 -420 -1 -599 -65 -554 -272 -1113 -593 -1602 -59 -89 -75
-107 -132 -141 -153 -94 -316 -161 -500 -207 -99 -25 -406 -67 -615 -85 -66
-5 -140 -13 -165 -16 -37 -5 -13 10 150 93 597 302 1022 707 1283 1221 139
272 216 516 269 853 20 130 23 178 22 482 l0 338 40 -6 c23 -4 68 -13 101 -21z
m215 -75 c179 -86 309 -209 390 -368 l22 -44 -24 7 c-12 3 -71 16 -129 28 -93
18 -109 19 -135 7 -60 -29 -41 -137 62 -358 24 -52 44 -100 44 -107 0 -7 -20
-27 -44 -43 -83 -58 -105 -109 -69 -161 9 -14 41 -52 70 -86 76 -88 70 -108
-21 -73 -70 26 -106 22 -125 -13 -13 -23 -13 -39 3 -145 18 -111 25 -133 136
-388 147 -338 200 -481 200 -540 0 -40 -4 -47 -32 -65 -40 -24 -110 -26 -148
-4 -15 9 -44 46 -65 83 -85 149 -207 292 -270 317 -132 50 -200 -49 -120 -176
19 -30 35 -64 35 -76 0 -35 -44 -61 -167 -100 -90 -28 -121 -42 -148 -70 -45
-44 -47 -84 -7 -124 38 -38 87 -50 207 -51 l100 0 -65 -24 c-125 -47 -186 -83
-239 -145 -56 -64 -101 -86 -155 -76 -60 11 -86 63 -67 133 6 22 36 80 68 129
297 466 458 822 568 1254 113 447 130 935 41 1241 -15 53 -19 79 -11 79 6 0
49 -18 95 -41z m550 -533 c22 -27 -5 -17 -31 10 -21 24 -22 26 -3 16 11 -6 26
-18 34 -26z m-1337 -2111 c-8 -25 -13 -59 -11 -75 4 -28 3 -30 -31 -30 -20 0
-106 -9 -191 -20 -85 -11 -157 -20 -160 -20 -3 1 30 14 72 30 87 32 248 108
293 138 43 29 46 27 28 -23z"/>
<path d="M85390 8260 c0 -39 -5 -103 -11 -141 -13 -82 -1 -110 51 -125 19 -5
36 -18 41 -31 7 -18 -3 -28 -74 -76 -120 -80 -203 -161 -268 -260 -69 -104
-74 -127 -74 -332 0 -119 4 -158 17 -188 l17 -37 -77 6 c-70 5 -79 4 -99 -15
-45 -42 -37 -103 17 -142 22 -15 59 -19 278 -25 173 -5 255 -10 257 -18 1 -6
8 -36 15 -66 19 -87 19 -88 51 -95 18 -4 35 -16 41 -30 13 -29 25 -32 169 -41
l116 -7 21 28 c19 24 22 41 22 116 l0 89 29 0 c15 0 56 -3 90 -6 l61 -7 0 -45
c0 -25 -6 -53 -14 -61 -7 -9 -16 -41 -19 -72 l-5 -57 74 -11 c154 -23 247 -8
260 43 3 13 14 32 25 42 24 22 24 45 -1 77 -11 14 -20 33 -20 42 0 15 6 17 43
11 23 -3 85 -9 139 -12 94 -7 97 -6 122 19 57 57 20 134 -69 145 -46 5 -47 5
-41 36 3 17 14 102 26 188 l20 157 -35 92 c-60 155 -112 244 -193 330 -61 66
-89 87 -156 118 -131 62 -370 131 -453 131 -26 0 -128 -20 -180 -36 -20 -5
-23 -3 -23 19 0 13 7 30 15 37 25 20 18 66 -16 104 -16 19 -66 67 -110 106
l-79 72 0 -72z"/>
<path d="M101500 8209 c0 -28 -5 -93 -11 -145 -11 -93 -11 -96 12 -120 12 -13
32 -24 45 -24 20 0 34 -17 34 -40 0 -5 -37 -33 -83 -63 -149 -97 -265 -222
-320 -345 -17 -39 -21 -73 -25 -202 -4 -143 0 -186 24 -244 7 -18 4 -19 -60
-13 -95 9 -135 -15 -136 -82 0 -24 9 -42 33 -66 l32 -32 175 -7 c96 -3 217 -9
268 -13 89 -6 92 -7 92 -30 0 -13 7 -50 17 -83 12 -45 21 -60 34 -60 10 0 34
-16 53 -35 l35 -35 130 0 c161 0 161 0 161 134 l0 89 68 -6 c37 -4 77 -7 90
-7 20 0 22 -5 22 -49 0 -31 -5 -53 -15 -61 -10 -8 -15 -30 -15 -65 0 -51 1
-53 33 -59 17 -4 70 -9 117 -13 74 -5 93 -3 133 15 29 13 47 27 47 37 0 9 9
28 20 42 26 33 25 57 -2 83 -12 11 -19 23 -15 26 4 4 60 1 125 -6 100 -11 123
-10 148 1 40 20 61 60 49 96 -13 35 -69 73 -108 73 -29 0 -29 1 -23 38 3 20
15 105 26 189 l21 152 -46 116 c-25 64 -60 139 -77 168 -40 68 -124 171 -164
202 -81 62 -300 148 -459 180 -85 17 -162 14 -243 -10 -37 -12 -44 -11 -49 1
-3 8 4 25 16 38 26 28 27 50 2 90 -18 29 -193 196 -205 196 -3 0 -6 -23 -6
-51z"/>
<path d="M117630 8209 c0 -28 -5 -93 -11 -145 -11 -93 -11 -96 12 -120 12 -13
32 -24 45 -24 20 0 34 -17 34 -40 0 -5 -37 -33 -83 -63 -149 -97 -265 -222
-320 -345 -17 -39 -21 -73 -25 -202 -4 -143 0 -186 24 -244 7 -18 4 -19 -60
-13 -95 9 -135 -15 -136 -82 0 -24 9 -42 33 -66 l32 -32 175 -7 c96 -3 217 -9
268 -13 89 -6 92 -7 92 -30 0 -13 7 -50 17 -83 12 -45 21 -60 34 -60 10 0 34
-16 53 -35 l35 -35 130 0 c161 0 161 0 161 134 l0 89 68 -6 c37 -4 77 -7 90
-7 20 0 22 -5 22 -49 0 -31 -5 -53 -15 -61 -10 -8 -15 -30 -15 -65 0 -51 1
-53 33 -59 17 -4 70 -9 117 -13 74 -5 93 -3 133 15 29 13 47 27 47 37 0 9 9
28 20 42 26 33 25 57 -2 83 -12 11 -19 23 -15 26 4 4 60 1 125 -6 100 -11 123
-10 148 1 40 20 61 60 49 96 -13 35 -69 73 -108 73 -29 0 -29 1 -23 38 3 20
15 105 26 189 l21 152 -46 116 c-25 64 -60 139 -77 168 -40 68 -124 171 -164
202 -81 62 -300 148 -459 180 -85 17 -162 14 -243 -10 -37 -12 -44 -11 -49 1
-3 8 4 25 16 38 26 28 27 50 2 90 -18 29 -193 196 -205 196 -3 0 -6 -23 -6
-51z"/>
<path d="M133760 8209 c0 -28 -5 -93 -11 -145 -11 -93 -11 -96 12 -120 12 -13
32 -24 45 -24 20 0 34 -17 34 -40 0 -5 -37 -33 -83 -63 -149 -97 -265 -222
-320 -345 -17 -39 -21 -73 -25 -202 -4 -143 0 -186 24 -244 7 -18 4 -19 -60
-13 -95 9 -135 -15 -136 -82 0 -24 9 -42 33 -66 l32 -32 175 -7 c96 -3 217 -9
268 -13 89 -6 92 -7 92 -30 0 -13 7 -50 17 -83 12 -45 21 -60 34 -60 10 0 34
-16 53 -35 l35 -35 130 0 c161 0 161 0 161 134 l0 89 68 -6 c37 -4 77 -7 90
-7 20 0 22 -5 22 -49 0 -31 -5 -53 -15 -61 -10 -8 -15 -30 -15 -65 0 -51 1
-53 33 -59 17 -4 70 -9 117 -13 74 -5 93 -3 133 15 29 13 47 27 47 37 0 9 9
28 20 42 26 33 25 57 -2 83 -12 11 -19 23 -15 26 4 4 60 1 125 -6 100 -11 123
-10 148 1 40 20 61 60 49 96 -13 35 -69 73 -108 73 -29 0 -29 1 -23 38 3 20
15 105 26 189 l21 152 -46 116 c-25 64 -60 139 -77 168 -40 68 -124 171 -164
202 -81 62 -300 148 -459 180 -85 17 -162 14 -243 -10 -37 -12 -44 -11 -49 1
-3 8 4 25 16 38 26 28 27 50 2 90 -18 29 -193 196 -205 196 -3 0 -6 -23 -6
-51z"/>
<path d="M149890 8209 c0 -28 -5 -93 -11 -145 -11 -93 -11 -96 12 -120 12 -13
32 -24 45 -24 20 0 34 -17 34 -40 0 -5 -37 -33 -83 -63 -149 -97 -265 -222
-320 -345 -17 -39 -21 -73 -25 -202 -4 -143 0 -186 24 -244 7 -18 4 -19 -60
-13 -95 9 -135 -15 -136 -82 0 -24 9 -42 33 -66 l32 -32 175 -7 c96 -3 217 -9
268 -13 89 -6 92 -7 92 -30 0 -13 7 -50 17 -83 12 -45 21 -60 34 -60 10 0 34
-16 53 -35 l35 -35 130 0 c161 0 161 0 161 134 l0 89 68 -6 c37 -4 77 -7 90
-7 20 0 22 -5 22 -49 0 -31 -5 -53 -15 -61 -10 -8 -15 -30 -15 -65 0 -51 1
-53 33 -59 17 -4 70 -9 117 -13 74 -5 93 -3 133 15 29 13 47 27 47 37 0 9 9
28 20 42 26 33 25 57 -2 83 -12 11 -19 23 -15 26 4 4 60 1 125 -6 100 -11 123
-10 148 1 40 20 61 60 49 96 -13 35 -69 73 -108 73 -29 0 -29 1 -23 38 3 20
15 105 26 189 l21 152 -46 116 c-25 64 -60 139 -77 168 -40 68 -124 171 -164
202 -81 62 -300 148 -459 180 -85 17 -162 14 -243 -10 -37 -12 -44 -11 -49 1
-3 8 4 25 16 38 26 28 27 50 2 90 -18 29 -193 196 -205 196 -3 0 -6 -23 -6
-51z"/>
<path d="M68594 8133 c10 -35 26 -149 26 -191 0 -77 26 -108 88 -103 15 1 26
-6 33 -23 11 -23 8 -30 -46 -83 -118 -117 -192 -234 -236 -367 -21 -65 -22
-74 -10 -168 16 -126 44 -239 75 -293 l23 -43 -30 -6 c-16 -3 -44 -6 -63 -6
-84 0 -119 -95 -56 -151 18 -16 41 -29 52 -29 17 0 437 72 493 84 11 3 21 -2
24 -12 3 -9 19 -46 35 -81 27 -58 31 -63 56 -58 21 4 32 -1 48 -21 l21 -25 89
12 c213 30 215 31 194 166 -7 46 -13 88 -13 92 0 5 22 11 49 15 27 4 66 9 86
12 l36 6 10 -46 c7 -30 6 -54 -1 -73 -6 -15 -7 -47 -3 -75 l8 -48 81 7 c45 3
104 11 130 17 53 11 107 50 107 78 0 10 6 30 14 45 17 32 12 51 -22 83 -40 38
-25 46 102 58 126 11 162 27 180 76 23 65 -35 117 -116 104 -37 -6 -38 -6 -38
26 0 18 -7 105 -15 192 l-14 159 -67 101 c-132 199 -267 309 -421 344 -48 12
-132 26 -185 31 -199 22 -303 10 -411 -46 -28 -15 -55 -29 -58 -31 -15 -7 -16
41 -3 68 26 50 -3 82 -149 164 -54 31 -101 56 -104 56 -2 0 -2 -8 1 -17z"/>
<path d="M52385 7802 c12 -39 35 -175 35 -210 1 -51 22 -75 71 -81 71 -10 71
-29 3 -107 -120 -137 -167 -213 -209 -332 -31 -88 -32 -151 -5 -283 23 -113
52 -196 80 -232 20 -25 20 -25 -3 -31 -12 -3 -34 -6 -48 -6 -47 0 -87 -20
-102 -51 -19 -40 -11 -74 26 -105 39 -33 51 -32 341 30 l209 44 26 -59 c24
-54 28 -59 58 -59 23 0 36 -6 44 -21 11 -21 16 -22 108 -15 178 12 218 34 207
111 -3 22 -8 61 -12 86 l-6 46 78 13 c44 7 83 13 89 14 13 1 25 -86 13 -101
-5 -6 -8 -38 -6 -70 l3 -58 96 2 c145 2 229 34 229 86 0 12 7 31 15 41 21 28
19 43 -10 72 -14 14 -25 29 -25 34 0 5 -12 16 -26 23 -24 13 -16 15 114 30
161 19 185 26 208 62 25 38 21 75 -11 103 -23 20 -37 23 -81 20 l-53 -3 -6 75
c-4 41 -13 127 -21 190 -14 115 -14 115 -71 198 -117 172 -258 294 -379 332
-123 38 -396 60 -499 41 -33 -6 -96 -28 -140 -50 -82 -41 -102 -40 -89 4 18
58 16 74 -9 98 -25 22 -226 137 -241 137 -4 0 -5 -8 -1 -18z"/>
<path d="M19940 7548 c0 -2 9 -31 19 -66 11 -34 24 -93 31 -131 14 -82 33
-105 83 -99 26 3 37 -2 50 -18 16 -21 15 -24 -22 -65 -127 -146 -221 -351
-221 -480 0 -97 68 -315 120 -387 l29 -40 -62 -12 c-68 -13 -88 -23 -106 -58
-28 -52 22 -122 87 -122 16 0 132 29 257 65 125 35 231 62 235 60 4 -2 18 -27
31 -55 22 -45 27 -50 57 -50 23 0 40 -7 52 -22 l18 -22 93 17 c143 27 168 36
185 62 15 22 14 31 -2 105 -9 44 -14 83 -11 86 8 9 159 46 164 40 13 -13 22
-87 12 -104 -7 -11 -8 -34 -2 -67 l9 -50 69 2 c147 5 237 41 243 97 2 16 10
39 18 51 8 13 11 30 7 41 -9 25 -69 84 -85 84 -36 1 29 20 140 40 137 25 181
47 196 97 18 64 -53 115 -129 94 -41 -11 -40 -12 -50 69 -3 30 -17 110 -30
178 l-24 122 -60 73 c-128 155 -180 200 -301 266 -50 26 -99 44 -145 52 -94
15 -365 15 -440 -1 -61 -13 -160 -57 -205 -92 -23 -18 -25 -18 -37 -2 -8 11
-9 22 -3 35 35 64 -11 106 -199 183 -64 26 -71 28 -71 24z"/>
<path d="M35966 7468 c8 -22 23 -84 34 -136 10 -53 26 -102 34 -110 9 -9 31
-15 53 -14 28 1 42 -3 51 -18 11 -18 5 -29 -51 -100 -107 -135 -197 -335 -197
-438 0 -100 107 -412 141 -412 5 0 9 -4 9 -9 0 -5 -30 -16 -67 -25 -44 -10
-74 -23 -85 -37 -24 -29 -23 -80 3 -108 43 -46 55 -46 287 20 120 33 229 64
243 69 23 7 30 4 47 -20 12 -15 24 -40 28 -54 5 -22 12 -26 44 -26 28 0 41 -6
52 -22 l15 -23 99 17 c120 20 174 38 188 60 9 16 0 105 -20 174 -5 19 2 23 80
43 47 11 87 21 90 21 10 0 17 -101 8 -113 -7 -8 -7 -28 -2 -57 5 -25 9 -48 10
-52 0 -12 77 -9 162 7 91 16 146 45 154 83 3 15 10 37 15 50 5 13 9 29 9 37 0
18 -73 95 -90 95 -35 0 7 11 130 35 74 15 143 31 155 37 59 30 74 102 28 138
-24 19 -37 21 -85 17 l-57 -5 -6 42 c-3 22 -18 106 -32 186 l-26 145 -81 99
c-99 121 -185 195 -291 247 -105 51 -183 62 -404 57 -198 -5 -249 -17 -349
-84 -43 -28 -56 -33 -63 -22 -9 12 -6 38 7 72 11 29 -55 80 -169 129 -59 26
-109 47 -112 47 -2 0 2 -19 11 -42z"/>
<path d="M4765 7343 c-4 -27 -16 -88 -27 -136 -24 -107 -20 -131 26 -148 37
-13 60 -59 34 -68 -39 -13 -173 -90 -240 -138 -80 -57 -166 -150 -198 -213
-42 -83 -76 -360 -52 -429 13 -36 14 -36 -62 -16 -67 18 -99 12 -126 -22 -26
-33 -25 -62 3 -104 27 -40 21 -38 292 -79 274 -42 255 -37 255 -67 0 -14 5
-54 12 -88 10 -57 14 -64 39 -69 15 -3 30 -14 34 -25 3 -10 12 -24 20 -31 16
-14 171 -40 237 -40 42 0 49 3 62 28 7 15 17 62 21 105 4 42 10 77 14 77 3 0
41 -7 84 -15 43 -8 81 -15 84 -15 12 0 -6 -82 -21 -99 -18 -19 -39 -112 -28
-122 11 -9 132 -38 193 -45 67 -8 125 13 139 51 5 14 13 25 18 25 5 0 14 11
19 23 9 18 7 31 -4 56 -9 17 -13 34 -11 37 3 2 53 -7 111 -22 72 -18 118 -24
141 -20 40 8 76 47 76 83 0 34 -49 80 -94 89 -32 5 -37 10 -33 28 3 11 24 94
48 184 l42 162 -32 123 c-51 198 -137 352 -241 431 -63 48 -233 134 -346 176
-94 34 -199 44 -291 27 -41 -7 -43 -6 -43 16 0 13 9 32 20 42 11 10 20 30 20
44 0 36 -24 69 -141 199 l-48 52 -6 -47z"/>
<path d="M7724 7114 c-97 -48 -164 -151 -164 -252 0 -72 20 -102 85 -128 52
-22 62 -39 39 -65 -11 -12 -14 -27 -10 -44 4 -14 2 -35 -5 -46 -8 -16 -7 -24
4 -37 9 -9 16 -21 16 -27 1 -12 74 -19 117 -10 38 7 62 51 46 82 -7 12 -7 24
0 36 7 13 6 23 -3 33 -7 8 -13 28 -14 45 -2 26 5 34 43 56 61 36 76 73 61 157
-14 83 -51 137 -124 181 -31 19 -58 35 -59 35 0 0 -15 -7 -32 -16z"/>
<path d="M64013 7080 c-50 -30 -64 -69 -73 -199 -13 -192 -51 -259 -224 -393
-100 -77 -154 -108 -189 -108 -24 0 -109 49 -122 70 -15 24 -129 90 -156 90
-29 0 -63 -33 -75 -73 -3 -12 -24 -69 -47 -127 -42 -110 -72 -164 -87 -155
-15 10 -32 85 -40 183 -10 109 -38 175 -89 209 -39 26 -66 28 -125 11 -51 -15
-109 -74 -221 -223 -146 -195 -249 -361 -516 -837 -376 -668 -548 -923 -806
-1187 -112 -115 -124 -124 -137 -109 -7 10 -19 18 -26 18 -8 0 -70 -55 -139
-123 -141 -138 -224 -203 -324 -253 -156 -79 -193 -87 -587 -124 -124 -12
-364 -39 -535 -60 -595 -75 -837 -91 -1089 -71 -191 16 -328 40 -507 93 -218
63 -289 55 -348 -36 -17 -27 -52 -129 -92 -267 l-64 -224 1 -140 c0 -123 3
-150 27 -223 14 -46 31 -129 38 -185 10 -88 9 -112 -5 -166 -21 -82 -39 -105
-145 -190 -106 -85 -147 -129 -174 -190 -27 -62 -19 -154 23 -255 l32 -76 137
-70 c162 -82 246 -132 284 -168 l27 -26 -27 -29 c-43 -44 -124 -89 -306 -171
-191 -85 -284 -143 -356 -222 -63 -68 -64 -88 -16 -203 107 -254 77 -431 -104
-611 -83 -82 -196 -165 -310 -226 -49 -26 -52 -29 -29 -32 53 -6 283 151 388
266 167 182 187 372 69 644 -28 63 -29 70 -15 97 9 16 44 54 78 86 63 57 82
67 438 238 106 50 220 132 220 158 0 20 -65 80 -128 117 -37 22 -126 69 -198
105 l-131 66 -28 68 c-16 40 -30 96 -33 135 -8 110 21 152 209 304 116 94 147
180 128 354 -9 80 -17 119 -55 250 -20 73 -21 227 0 315 38 160 119 423 142
458 32 49 83 71 144 64 25 -3 97 -21 160 -40 248 -75 431 -100 730 -100 258 0
339 7 835 68 198 24 410 49 470 55 170 17 396 40 440 46 58 8 26 -9 -65 -35
-130 -36 -250 -52 -432 -58 -149 -5 -178 -9 -178 -21 0 -13 24 -14 178 -9 97
3 218 13 267 21 321 54 561 183 832 449 115 112 122 118 133 97 10 -18 19 -21
69 -18 57 2 57 2 103 -46 l47 -48 76 7 c88 8 89 8 148 -80 43 -63 144 -175
159 -175 19 0 5 26 -47 82 -30 32 -73 85 -94 116 -63 93 -68 96 -156 87 l-76
-7 -44 48 c-37 41 -49 48 -80 47 l-36 -1 103 106 c130 134 251 286 377 472
134 198 207 319 426 710 298 531 421 725 588 932 84 105 130 138 191 138 68 0
126 -84 126 -184 0 -61 19 -165 36 -197 17 -34 52 -39 78 -10 15 16 69 144
120 284 15 40 22 47 45 47 27 0 79 -32 170 -107 58 -47 104 -60 153 -44 46 15
236 160 288 218 75 85 110 183 110 308 0 38 5 87 10 107 12 42 51 78 85 78 42
0 168 -73 226 -130 95 -94 136 -196 195 -484 32 -156 33 -159 33 -94 1 71 -36
268 -68 359 -57 168 -145 273 -282 339 -94 45 -111 48 -156 20z"/>
<path d="M23301 6901 c-47 -66 -55 -94 -53 -179 3 -94 22 -145 69 -182 24 -18
38 -21 93 -18 l65 3 3 -38 c2 -22 10 -41 18 -44 8 -3 14 -18 14 -33 0 -20 6
-31 20 -35 11 -3 20 -13 20 -20 0 -12 6 -11 38 1 68 29 102 61 102 99 0 25 -5
35 -20 40 -11 3 -20 15 -20 25 0 11 -11 26 -23 35 -43 28 -49 59 -22 107 38
66 33 93 -28 171 -41 53 -107 84 -190 89 -64 4 -70 2 -86 -21z"/>
<path d="M56292 6804 c-12 -8 -36 -39 -52 -67 -26 -46 -30 -62 -30 -133 0 -45
5 -106 10 -135 19 -95 30 -203 24 -222 -4 -13 -12 -17 -27 -13 -12 2 -30 -1
-41 -9 -16 -12 -17 -22 -11 -85 5 -52 12 -73 25 -80 10 -5 21 -5 26 0 5 5 19
7 30 4 19 -5 24 -20 38 -112 59 -365 81 -431 155 -450 23 -5 41 -8 41 -6 0 3
-11 27 -25 54 -14 28 -30 83 -36 127 -6 43 -17 105 -24 138 -13 59 -28 169
-60 450 -18 151 -25 496 -12 533 10 26 0 28 -31 6z"/>
<path d="M39291 6735 c-18 -8 -42 -15 -52 -15 -12 0 -21 -12 -28 -37 -29 -103
9 -237 84 -298 51 -42 93 -45 159 -13 37 18 47 19 60 8 9 -7 16 -21 16 -31 0
-11 9 -21 24 -25 15 -3 27 -15 30 -30 5 -17 13 -24 31 -24 14 0 25 -5 25 -12
0 -18 77 61 90 93 14 34 -4 81 -34 85 -10 1 -25 12 -33 23 -8 12 -22 21 -31
21 -9 1 -26 8 -37 18 -17 14 -20 27 -17 83 4 65 3 66 -34 99 -76 66 -176 88
-253 55z"/>
<path d="M85932 6556 c-32 -32 -59 -97 -47 -116 12 -19 74 -11 85 10 14 26 36
26 50 -1 9 -15 19 -19 43 -17 29 3 32 7 35 39 3 31 -3 40 -43 77 -26 23 -56
42 -68 42 -12 0 -37 -16 -55 -34z"/>
<path d="M69520 6574 c-9 -3 -20 -13 -25 -23 -6 -10 -18 -32 -27 -48 -19 -33
-15 -104 6 -98 6 2 23 6 38 9 15 3 30 15 33 26 8 24 33 26 49 5 8 -11 20 -14
44 -9 32 7 33 8 27 43 -7 38 -34 67 -72 77 -13 3 -23 10 -23 15 0 9 -22 10
-50 3z"/>
<path d="M102038 6474 c-28 -33 -38 -55 -38 -80 0 -32 2 -34 36 -34 25 0 42 7
55 23 l19 22 19 -22 c12 -15 30 -23 50 -23 29 0 31 2 31 40 0 33 -6 45 -42 79
-57 54 -82 53 -130 -5z"/>
<path d="M118168 6474 c-28 -33 -38 -55 -38 -80 0 -32 2 -34 36 -34 25 0 42 7
55 23 l19 22 19 -22 c12 -15 30 -23 50 -23 29 0 31 2 31 40 0 33 -6 45 -42 79
-57 54 -82 53 -130 -5z"/>
<path d="M134298 6474 c-28 -33 -38 -55 -38 -80 0 -32 2 -34 36 -34 25 0 42 7
55 23 l19 22 19 -22 c12 -15 30 -23 50 -23 29 0 31 2 31 40 0 33 -6 45 -42 79
-57 54 -82 53 -130 -5z"/>
<path d="M150428 6474 c-28 -33 -38 -55 -38 -80 0 -32 2 -34 36 -34 25 0 42 7
55 23 l19 22 19 -22 c12 -15 30 -23 50 -23 29 0 31 2 31 40 0 33 -6 45 -42 79
-57 54 -82 53 -130 -5z"/>
<path d="M40445 6454 c-58 -21 -127 -94 -210 -219 -40 -60 -85 -121 -99 -135
-25 -23 -29 -24 -40 -8 -7 9 -23 19 -37 22 -20 5 -30 -2 -61 -48 -43 -62 -49
-96 -18 -96 11 0 20 -6 20 -14 0 -8 4 -16 9 -18 5 -1 -26 -59 -70 -128 -190
-299 -210 -349 -166 -408 l25 -33 16 54 c16 55 48 109 219 365 132 199 198
290 292 406 44 55 104 129 133 165 32 40 68 72 90 82 29 12 33 17 18 22 -28
11 -77 7 -121 -9z"/>
<path d="M55324 6286 c-57 -18 -103 -54 -126 -101 -11 -22 -27 -47 -35 -57
-30 -34 49 -140 133 -178 140 -64 227 -40 263 73 13 40 33 47 65 22 13 -10 24
-11 37 -4 13 7 26 6 40 -1 16 -9 24 -8 39 5 10 9 24 14 29 10 12 -7 15 93 5
132 -8 28 -58 50 -78 34 -7 -6 -26 -8 -43 -5 -18 4 -33 1 -37 -5 -8 -13 -76
-15 -76 -3 0 5 -16 27 -36 50 -33 40 -39 42 -87 41 -29 0 -70 -6 -93 -13z"/>
<path d="M53298 6248 c-39 -51 -46 -70 -41 -106 5 -32 8 -34 36 -28 16 3 33 6
38 6 5 0 9 6 9 14 0 7 6 19 14 25 11 10 18 8 33 -9 15 -15 27 -19 51 -14 55
11 40 71 -29 114 -62 38 -81 38 -111 -2z"/>
<path d="M24255 6216 c-38 -18 -110 -63 -159 -100 -50 -37 -107 -76 -128 -87
l-38 -20 -10 25 c-18 47 -40 48 -108 5 -61 -39 -79 -70 -48 -82 7 -3 16 -14
18 -25 4 -16 -12 -33 -81 -83 -167 -124 -296 -230 -313 -257 -18 -28 -23 -69
-12 -109 6 -22 8 -21 34 15 33 45 59 70 128 119 28 21 84 63 124 94 125 96
386 267 558 366 91 53 171 100 178 106 8 6 32 13 55 17 l42 5 -27 19 c-16 10
-52 20 -85 22 -50 3 -68 -1 -128 -30z"/>
<path d="M70476 6134 c-87 -12 -179 -25 -205 -29 -41 -6 -54 -15 -118 -83
l-72 -76 -24 22 c-23 22 -71 29 -93 14 -39 -25 -19 -84 51 -152 20 -19 51 -62
68 -94 19 -36 70 -98 127 -156 86 -88 105 -102 200 -148 138 -66 164 -72 301
-72 145 0 215 14 282 56 29 18 93 56 142 85 128 74 165 105 165 138 0 38 -29
61 -76 62 -38 0 -41 3 -94 86 -85 132 -194 225 -366 313 -115 59 -112 58 -288
34z"/>
<path d="M84629 6111 c-116 -12 -163 -21 -185 -35 -16 -11 -70 -60 -120 -110
-74 -75 -99 -107 -135 -181 -25 -49 -51 -118 -59 -152 -11 -56 -15 -63 -37
-63 -43 0 -63 -18 -63 -56 0 -32 4 -36 46 -54 25 -11 82 -29 127 -40 45 -12
118 -33 161 -47 68 -22 90 -25 158 -20 197 16 298 58 436 182 53 48 71 75 117
168 30 61 55 125 55 141 0 17 17 66 37 109 35 74 36 81 22 105 -11 20 -24 28
-52 30 -32 3 -39 -1 -55 -27 l-18 -30 -85 49 c-98 58 -98 58 -350 31z"/>
<path d="M7710 6111 c-32 -5 -35 -9 -35 -41 -1 -19 -4 -40 -8 -46 -3 -6 -39
-14 -79 -18 -166 -16 -403 -58 -435 -77 -28 -18 -63 -82 -51 -95 3 -2 26 5 52
17 26 11 87 24 136 30 49 5 109 13 132 18 24 5 108 15 188 21 80 6 189 15 243
20 54 6 192 10 308 10 169 0 216 -3 239 -15 32 -17 36 -12 17 22 -14 25 -49
53 -93 76 -41 21 -179 24 -299 8 -49 -7 -110 -11 -135 -9 -40 3 -45 5 -43 26
5 43 -14 62 -60 61 -23 -1 -58 -4 -77 -8z"/>
<path d="M20993 6080 c-13 -5 -23 -14 -23 -21 0 -6 -9 -22 -20 -36 -21 -27
-28 -97 -10 -108 21 -13 71 7 80 31 11 28 35 32 48 8 12 -22 72 -10 72 14 0
44 -15 64 -64 90 -28 15 -53 28 -56 29 -3 1 -15 -2 -27 -7z"/>
<path d="M36974 5998 c-27 -41 -39 -107 -22 -124 12 -11 78 6 78 20 0 8 7 19
15 26 13 10 19 10 35 -5 13 -12 27 -15 49 -10 32 7 33 15 16 72 -5 15 -98 63
-123 63 -12 0 -31 -17 -48 -42z"/>
<path d="M100703 6016 l-161 -21 -69 -61 c-135 -120 -215 -246 -251 -394 -18
-71 -20 -75 -51 -81 -39 -8 -52 -24 -49 -58 4 -37 44 -59 158 -86 58 -14 135
-34 171 -45 93 -28 200 -27 324 6 123 31 161 53 266 151 71 68 88 90 126 170
24 51 50 123 58 161 8 38 26 94 40 123 30 66 30 70 4 103 -33 42 -103 28 -121
-24 -2 -8 -31 3 -89 34 -101 54 -110 55 -356 22z"/>
<path d="M116833 6016 l-161 -21 -69 -61 c-135 -120 -215 -246 -251 -394 -18
-71 -20 -75 -51 -81 -39 -8 -52 -24 -49 -58 4 -37 44 -59 158 -86 58 -14 135
-34 171 -45 93 -28 200 -27 324 6 123 31 161 53 266 151 71 68 88 90 126 170
24 51 50 123 58 161 8 38 26 94 40 123 30 66 30 70 4 103 -33 42 -103 28 -121
-24 -2 -8 -31 3 -89 34 -101 54 -110 55 -356 22z"/>
<path d="M132963 6016 l-161 -21 -69 -61 c-135 -120 -215 -246 -251 -394 -18
-71 -20 -75 -51 -81 -39 -8 -52 -24 -49 -58 4 -37 44 -59 158 -86 58 -14 135
-34 171 -45 93 -28 200 -27 324 6 123 31 161 53 266 151 71 68 88 90 126 170
24 51 50 123 58 161 8 38 26 94 40 123 30 66 30 70 4 103 -33 42 -103 28 -121
-24 -2 -8 -31 3 -89 34 -101 54 -110 55 -356 22z"/>
<path d="M149093 6016 l-161 -21 -69 -61 c-135 -120 -215 -246 -251 -394 -18
-71 -20 -75 -51 -81 -39 -8 -52 -24 -49 -58 4 -37 44 -59 158 -86 58 -14 135
-34 171 -45 93 -28 200 -27 324 6 123 31 161 53 266 151 71 68 88 90 126 170
24 51 50 123 58 161 8 38 26 94 40 123 30 66 30 70 4 103 -33 42 -103 28 -121
-24 -2 -8 -31 3 -89 34 -101 54 -110 55 -356 22z"/>
<path d="M86445 5925 c-42 -30 -79 -55 -82 -55 -3 0 -18 14 -33 30 -33 35 -62
38 -90 10 -29 -29 -25 -57 20 -130 22 -36 47 -86 54 -111 30 -98 144 -280 209
-331 40 -32 40 -32 34 -8 -4 14 -10 44 -13 66 -6 40 -5 42 41 74 26 18 76 54
112 81 35 27 71 49 80 49 41 0 87 -36 132 -103 75 -113 91 -141 91 -161 0 -34
-39 -82 -88 -109 -26 -14 -56 -35 -65 -45 -17 -18 -15 -19 52 -31 126 -20 191
-15 283 23 46 19 115 43 153 55 107 32 149 60 153 99 3 33 -11 62 -30 62 -5 0
-2 -7 6 -16 21 -20 20 -47 -1 -72 -24 -27 -78 -19 -100 14 -8 13 -23 24 -33
24 -30 0 -53 35 -45 69 4 17 10 31 15 31 5 0 15 3 23 6 10 3 22 -6 33 -25 15
-26 24 -31 54 -30 27 2 29 3 9 6 -22 3 -30 16 -58 87 l-31 84 -48 7 c-59 9
-79 19 -87 46 -7 22 18 59 42 59 21 0 15 12 -32 63 -32 35 -51 47 -72 47 -15
0 -39 3 -52 7 -20 5 -22 10 -18 39 5 31 1 37 -45 74 -28 22 -61 42 -72 45 -27
6 -313 25 -376 25 -42 0 -57 -7 -125 -55z m571 -163 c12 -9 24 -25 27 -35 8
-22 -26 -59 -47 -51 -10 4 -22 -8 -38 -35 -27 -48 -50 -51 -82 -8 l-21 28 33
27 c18 15 32 30 32 34 0 4 4 18 10 32 11 31 53 35 86 8z m-269 -8 c23 -6 25
-10 19 -48 -16 -116 -37 -142 -100 -125 -41 11 -42 18 -25 101 11 54 42 92 67
83 8 -3 25 -8 39 -11z m361 -95 c17 -6 33 -16 35 -23 10 -25 -25 -73 -80 -109
-60 -40 -83 -46 -83 -22 0 9 -7 18 -15 21 -27 11 -16 36 38 90 57 58 59 59
105 43z m145 -209 c5 -4 7 -23 5 -41 l-3 -34 -65 0 c-36 0 -71 -4 -78 -8 -19
-13 -42 -1 -42 22 0 11 -5 23 -10 26 -7 4 -7 13 0 26 9 15 18 18 48 13 20 -3
48 -1 62 4 25 10 68 6 83 -8z"/>
<path d="M102595 5928 c-11 -7 -48 -34 -83 -61 l-63 -50 -28 27 c-35 34 -95
37 -111 5 -16 -28 -6 -60 41 -134 22 -35 47 -85 56 -111 9 -26 28 -66 43 -89
15 -22 43 -66 61 -99 31 -53 129 -156 149 -156 5 0 6 24 3 54 -5 49 -4 55 18
67 13 7 62 41 109 76 75 57 89 64 119 59 43 -7 71 -33 131 -123 80 -118 84
-127 64 -168 -17 -37 -38 -57 -96 -89 l-33 -19 25 -8 c14 -4 66 -7 115 -8 76
0 99 4 150 25 33 15 97 40 142 56 91 33 96 47 32 77 -25 12 -35 24 -37 44 -7
58 42 77 71 27 15 -26 24 -30 59 -30 27 0 45 -6 54 -17 12 -16 13 -15 14 13 0
43 -20 66 -65 73 -36 6 -41 10 -61 61 -22 55 -22 55 -74 61 -89 12 -119 68
-53 99 18 8 33 18 33 21 0 4 -20 29 -44 56 -39 43 -49 49 -75 45 -70 -10 -98
17 -70 69 11 22 2 32 -98 101 -59 41 -74 43 -338 52 -95 3 -146 1 -160 -6z
m534 -243 c37 -18 45 -51 20 -76 -10 -10 -25 -16 -32 -13 -8 3 -25 -11 -41
-36 -31 -47 -49 -48 -80 -7 l-21 28 33 27 c18 15 32 30 32 34 0 4 4 18 10 32
11 30 37 33 79 11z m-270 -6 c32 -11 33 -13 26 -58 -3 -25 -14 -62 -23 -81
-16 -32 -20 -35 -60 -34 -24 0 -47 6 -52 13 -12 20 20 134 44 153 25 21 25 21
65 7z m384 -111 c44 -23 0 -92 -88 -139 l-44 -23 -25 27 c-14 16 -26 30 -26
33 0 3 25 32 56 65 59 61 72 65 127 37z m132 -199 c3 -4 3 -24 -1 -44 l-7 -38
-60 6 c-35 3 -67 1 -77 -5 -20 -13 -54 -3 -45 12 4 6 2 17 -5 25 -8 9 -8 20
-2 32 9 15 23 18 100 18 50 0 93 -3 97 -6z"/>
<path d="M118725 5928 c-11 -7 -48 -34 -83 -61 l-63 -50 -28 27 c-35 34 -95
37 -111 5 -16 -28 -6 -60 41 -134 22 -35 47 -85 56 -111 9 -26 28 -66 43 -89
15 -22 43 -66 61 -99 31 -53 129 -156 149 -156 5 0 6 24 3 54 -5 49 -4 55 18
67 13 7 62 41 109 76 75 57 89 64 119 59 43 -7 71 -33 131 -123 80 -118 84
-127 64 -168 -17 -37 -38 -57 -96 -89 l-33 -19 25 -8 c14 -4 66 -7 115 -8 76
0 99 4 150 25 33 15 97 40 142 56 91 33 96 47 32 77 -25 12 -35 24 -37 44 -7
58 42 77 71 27 15 -26 24 -30 59 -30 27 0 45 -6 54 -17 12 -16 13 -15 14 13 0
43 -20 66 -65 73 -36 6 -41 10 -61 61 -22 55 -22 55 -74 61 -89 12 -119 68
-53 99 18 8 33 18 33 21 0 4 -20 29 -44 56 -39 43 -49 49 -75 45 -70 -10 -98
17 -70 69 11 22 2 32 -98 101 -59 41 -74 43 -338 52 -95 3 -146 1 -160 -6z
m534 -243 c37 -18 45 -51 20 -76 -10 -10 -25 -16 -32 -13 -8 3 -25 -11 -41
-36 -31 -47 -49 -48 -80 -7 l-21 28 33 27 c18 15 32 30 32 34 0 4 4 18 10 32
11 30 37 33 79 11z m-270 -6 c32 -11 33 -13 26 -58 -3 -25 -14 -62 -23 -81
-16 -32 -20 -35 -60 -34 -24 0 -47 6 -52 13 -12 20 20 134 44 153 25 21 25 21
65 7z m384 -111 c44 -23 0 -92 -88 -139 l-44 -23 -25 27 c-14 16 -26 30 -26
33 0 3 25 32 56 65 59 61 72 65 127 37z m132 -199 c3 -4 3 -24 -1 -44 l-7 -38
-60 6 c-35 3 -67 1 -77 -5 -20 -13 -54 -3 -45 12 4 6 2 17 -5 25 -8 9 -8 20
-2 32 9 15 23 18 100 18 50 0 93 -3 97 -6z"/>
<path d="M134855 5928 c-11 -7 -48 -34 -83 -61 l-63 -50 -28 27 c-35 34 -95
37 -111 5 -16 -28 -6 -60 41 -134 22 -35 47 -85 56 -111 9 -26 28 -66 43 -89
15 -22 43 -66 61 -99 31 -53 129 -156 149 -156 5 0 6 24 3 54 -5 49 -4 55 18
67 13 7 62 41 109 76 75 57 89 64 119 59 43 -7 71 -33 131 -123 80 -118 84
-127 64 -168 -17 -37 -38 -57 -96 -89 l-33 -19 25 -8 c14 -4 66 -7 115 -8 76
0 99 4 150 25 33 15 97 40 142 56 91 33 96 47 32 77 -25 12 -35 24 -37 44 -7
58 42 77 71 27 15 -26 24 -30 59 -30 27 0 45 -6 54 -17 12 -16 13 -15 14 13 0
43 -20 66 -65 73 -36 6 -41 10 -61 61 -22 55 -22 55 -74 61 -89 12 -119 68
-53 99 18 8 33 18 33 21 0 4 -20 29 -44 56 -39 43 -49 49 -75 45 -70 -10 -98
17 -70 69 11 22 2 32 -98 101 -59 41 -74 43 -338 52 -95 3 -146 1 -160 -6z
m534 -243 c37 -18 45 -51 20 -76 -10 -10 -25 -16 -32 -13 -8 3 -25 -11 -41
-36 -31 -47 -49 -48 -80 -7 l-21 28 33 27 c18 15 32 30 32 34 0 4 4 18 10 32
11 30 37 33 79 11z m-270 -6 c32 -11 33 -13 26 -58 -3 -25 -14 -62 -23 -81
-16 -32 -20 -35 -60 -34 -24 0 -47 6 -52 13 -12 20 20 134 44 153 25 21 25 21
65 7z m384 -111 c44 -23 0 -92 -88 -139 l-44 -23 -25 27 c-14 16 -26 30 -26
33 0 3 25 32 56 65 59 61 72 65 127 37z m132 -199 c3 -4 3 -24 -1 -44 l-7 -38
-60 6 c-35 3 -67 1 -77 -5 -20 -13 -54 -3 -45 12 4 6 2 17 -5 25 -8 9 -8 20
-2 32 9 15 23 18 100 18 50 0 93 -3 97 -6z"/>
<path d="M150985 5928 c-11 -7 -48 -34 -83 -61 l-63 -50 -28 27 c-35 34 -95
37 -111 5 -16 -28 -6 -60 41 -134 22 -35 47 -85 56 -111 9 -26 28 -66 43 -89
15 -22 43 -66 61 -99 31 -53 129 -156 149 -156 5 0 6 24 3 54 -5 49 -4 55 18
67 13 7 62 41 109 76 75 57 89 64 119 59 43 -7 71 -33 131 -123 80 -118 84
-127 64 -168 -17 -37 -38 -57 -96 -89 l-33 -19 25 -8 c14 -4 66 -7 115 -8 76
0 99 4 150 25 33 15 97 40 142 56 91 33 96 47 32 77 -25 12 -35 24 -37 44 -7
58 42 77 71 27 15 -26 24 -30 59 -30 27 0 45 -6 54 -17 12 -16 13 -15 14 13 0
43 -20 66 -65 73 -36 6 -41 10 -61 61 -22 55 -22 55 -74 61 -89 12 -119 68
-53 99 18 8 33 18 33 21 0 4 -20 29 -44 56 -39 43 -49 49 -75 45 -70 -10 -98
17 -70 69 11 22 2 32 -98 101 -59 41 -74 43 -338 52 -95 3 -146 1 -160 -6z
m534 -243 c37 -18 45 -51 20 -76 -10 -10 -25 -16 -32 -13 -8 3 -25 -11 -41
-36 -31 -47 -49 -48 -80 -7 l-21 28 33 27 c18 15 32 30 32 34 0 4 4 18 10 32
11 30 37 33 79 11z m-270 -6 c32 -11 33 -13 26 -58 -3 -25 -14 -62 -23 -81
-16 -32 -20 -35 -60 -34 -24 0 -47 6 -52 13 -12 20 20 134 44 153 25 21 25 21
65 7z m384 -111 c44 -23 0 -92 -88 -139 l-44 -23 -25 27 c-14 16 -26 30 -26
33 0 3 25 32 56 65 59 61 72 65 127 37z m132 -199 c3 -4 3 -24 -1 -44 l-7 -38
-60 6 c-35 3 -67 1 -77 -5 -20 -13 -54 -3 -45 12 4 6 2 17 -5 25 -8 9 -8 20
-2 32 9 15 23 18 100 18 50 0 93 -3 97 -6z"/>
<path d="M54275 5899 c-77 -16 -164 -34 -193 -40 -49 -10 -57 -16 -118 -90
l-66 -79 -28 20 c-35 25 -72 26 -93 2 -31 -34 -20 -61 51 -136 38 -39 79 -87
91 -108 12 -20 63 -76 114 -124 71 -68 109 -96 172 -125 152 -71 197 -82 325
-80 157 2 251 27 334 91 33 25 100 72 148 103 129 85 150 123 95 170 -15 14
-30 17 -57 12 -35 -6 -37 -4 -70 47 -51 78 -166 188 -247 237 -97 58 -263 131
-293 130 -14 -1 -88 -14 -165 -30z"/>
<path d="M68819 5920 c-9 -5 -22 -23 -29 -39 l-12 -29 -86 29 c-47 16 -96 29
-109 29 -13 0 -108 -26 -210 -57 l-187 -58 -54 -65 c-113 -137 -167 -257 -184
-416 -11 -99 -12 -104 -39 -113 -37 -13 -51 -40 -36 -72 16 -31 76 -47 181
-48 43 -1 117 -6 165 -12 78 -11 93 -10 163 9 127 35 240 95 304 160 94 97
140 174 169 286 14 54 25 124 25 155 0 31 7 81 15 111 8 30 15 67 15 81 0 46
-50 73 -91 49z"/>
<path d="M37975 5782 c-104 -31 -196 -61 -203 -65 -7 -5 -35 -43 -64 -85 -28
-42 -52 -78 -53 -80 -1 -2 -19 7 -38 18 -42 25 -70 20 -93 -14 -22 -35 -5 -65
70 -125 36 -28 75 -68 87 -88 29 -46 209 -190 276 -219 90 -40 223 -74 291
-74 151 0 331 52 388 111 16 17 76 68 134 114 112 88 143 127 130 160 -14 36
-37 48 -82 42 -42 -6 -44 -5 -86 49 -96 121 -253 220 -452 284 -52 16 -99 30
-105 29 -5 0 -95 -26 -200 -57z"/>
<path d="M22020 5755 c-80 -18 -171 -38 -203 -45 -55 -11 -60 -15 -114 -83
-31 -40 -60 -76 -64 -81 -4 -5 -23 1 -43 13 -53 33 -106 11 -106 -44 0 -10 33
-52 73 -94 40 -42 86 -95 101 -118 16 -24 67 -77 115 -119 90 -81 159 -119
306 -169 75 -26 87 -27 195 -21 150 8 259 40 321 94 24 21 80 62 124 92 143
95 170 135 124 181 -17 17 -29 20 -60 16 -38 -5 -40 -4 -83 57 -98 137 -239
240 -433 316 -56 22 -103 39 -105 39 -2 -1 -68 -16 -148 -34z"/>
<path d="M72121 5630 c-7 -21 -7 -48 0 -86 13 -72 77 -155 193 -253 109 -91
153 -151 111 -151 -9 0 -20 -12 -26 -27 -9 -24 -5 -31 38 -75 26 -26 55 -48
65 -48 9 0 29 12 43 26 l25 25 108 -93 c276 -241 312 -262 385 -229 l40 18
-56 26 c-31 14 -78 46 -104 70 -26 25 -77 68 -112 96 -194 155 -666 643 -677
700 -8 39 -19 39 -33 1z"/>
<path d="M5097 5567 c-35 -31 -64 -96 -49 -111 11 -12 70 -5 82 9 17 21 41 19
47 -4 5 -19 56 -36 74 -25 5 3 9 22 9 42 -1 29 -10 47 -39 80 -47 51 -72 53
-124 9z"/>
<path d="M52632 5577 c-6 -7 -15 -24 -21 -39 l-10 -26 -83 24 c-46 13 -94 24
-108 24 -14 0 -79 -20 -145 -45 -284 -108 -250 -89 -306 -171 -111 -165 -149
-274 -149 -428 0 -77 -3 -96 -14 -96 -8 0 -27 -11 -43 -24 -25 -21 -26 -26
-15 -50 6 -15 23 -31 36 -36 13 -5 115 -10 227 -11 186 -1 209 0 263 20 99 35
219 107 267 158 127 137 179 263 184 453 2 52 6 125 10 162 6 49 4 72 -5 83
-15 18 -73 20 -88 2z"/>
<path d="M93370 5496 c0 -223 -42 -548 -99 -775 -230 -906 -770 -1419 -1473
-1399 -130 3 -166 -6 -62 -17 201 -22 480 33 679 135 133 68 216 130 340 255
280 280 468 671 575 1191 44 215 79 674 52 674 -8 0 -12 -22 -12 -64z"/>
<path d="M20380 5417 c-13 -7 -28 -26 -33 -43 l-9 -31 -102 25 -102 25 -184
-72 c-102 -40 -193 -80 -203 -89 -26 -23 -113 -162 -142 -228 -36 -81 -55
-173 -55 -275 0 -86 0 -87 -30 -99 -50 -21 -52 -82 -3 -101 13 -5 113 -9 222
-9 171 0 206 3 255 20 94 32 218 102 266 150 47 47 133 171 151 217 22 59 41
172 40 248 0 44 5 108 11 142 13 77 6 106 -27 121 -31 14 -25 14 -55 -1z"/>
<path d="M86365 5340 c-9 -10 -15 -26 -12 -34 5 -11 -4 -18 -31 -26 -57 -15
-102 -47 -114 -80 -6 -20 -17 -30 -30 -30 -37 0 -79 -34 -101 -81 -19 -43 -23
-46 -44 -36 -16 7 -26 7 -37 -2 -33 -28 -28 -49 23 -111 28 -33 69 -87 91
-119 68 -101 129 -131 151 -74 6 15 8 35 6 44 -4 13 4 18 33 23 43 7 85 36
105 76 11 22 23 28 60 32 51 6 90 35 99 73 6 24 7 24 37 7 29 -17 31 -16 50 7
29 35 24 55 -35 139 -54 76 -195 212 -220 212 -7 0 -21 -9 -31 -20z"/>
<path d="M36401 5331 c-12 -12 -21 -30 -21 -41 0 -25 -17 -25 -122 -5 -91 17
-73 22 -299 -86 l-167 -81 -50 -92 c-28 -50 -63 -127 -79 -171 -24 -71 -27
-94 -28 -210 l0 -131 -34 -30 c-32 -29 -33 -32 -20 -60 l14 -29 95 0 c193 1
331 16 399 43 110 44 232 131 285 204 81 114 114 198 127 324 9 81 9 123 1
154 -7 27 -7 63 -1 107 12 83 -2 117 -48 121 -22 2 -38 -3 -52 -17z"/>
<path d="M102472 5278 c-7 -7 -12 -22 -12 -34 0 -17 -8 -24 -32 -29 -45 -9
-107 -51 -118 -79 -5 -15 -20 -25 -41 -30 -43 -8 -102 -71 -95 -101 8 -30 -1
-36 -30 -23 -20 9 -28 8 -40 -3 -29 -30 -21 -63 28 -120 26 -30 67 -83 91
-119 26 -40 57 -73 80 -85 34 -19 37 -19 53 -3 10 10 18 33 18 53 1 31 4 35
29 35 41 0 82 25 106 64 17 28 29 35 65 40 52 8 91 36 100 70 6 24 7 24 37 9
28 -14 32 -14 50 3 23 21 25 76 4 94 -8 7 -30 38 -49 69 -38 61 -186 201 -215
201 -9 0 -22 -5 -29 -12z"/>
<path d="M118602 5278 c-7 -7 -12 -22 -12 -34 0 -17 -8 -24 -32 -29 -45 -9
-107 -51 -118 -79 -5 -15 -20 -25 -41 -30 -43 -8 -102 -71 -95 -101 8 -30 -1
-36 -30 -23 -20 9 -28 8 -40 -3 -29 -30 -21 -63 28 -120 26 -30 67 -83 91
-119 26 -40 57 -73 80 -85 34 -19 37 -19 53 -3 10 10 18 33 18 53 1 31 4 35
29 35 41 0 82 25 106 64 17 28 29 35 65 40 52 8 91 36 100 70 6 24 7 24 37 9
28 -14 32 -14 50 3 23 21 25 76 4 94 -8 7 -30 38 -49 69 -38 61 -186 201 -215
201 -9 0 -22 -5 -29 -12z"/>
<path d="M134732 5278 c-7 -7 -12 -22 -12 -34 0 -17 -8 -24 -32 -29 -45 -9
-107 -51 -118 -79 -5 -15 -20 -25 -41 -30 -43 -8 -102 -71 -95 -101 8 -30 -1
-36 -30 -23 -20 9 -28 8 -40 -3 -29 -30 -21 -63 28 -120 26 -30 67 -83 91
-119 26 -40 57 -73 80 -85 34 -19 37 -19 53 -3 10 10 18 33 18 53 1 31 4 35
29 35 41 0 82 25 106 64 17 28 29 35 65 40 52 8 91 36 100 70 6 24 7 24 37 9
28 -14 32 -14 50 3 23 21 25 76 4 94 -8 7 -30 38 -49 69 -38 61 -186 201 -215
201 -9 0 -22 -5 -29 -12z"/>
<path d="M150862 5278 c-7 -7 -12 -22 -12 -34 0 -17 -8 -24 -32 -29 -45 -9
-107 -51 -118 -79 -5 -15 -20 -25 -41 -30 -43 -8 -102 -71 -95 -101 8 -30 -1
-36 -30 -23 -20 9 -28 8 -40 -3 -29 -30 -21 -63 28 -120 26 -30 67 -83 91
-119 26 -40 57 -73 80 -85 34 -19 37 -19 53 -3 10 10 18 33 18 53 1 31 4 35
29 35 41 0 82 25 106 64 17 28 29 35 65 40 52 8 91 36 100 70 6 24 7 24 37 9
28 -14 32 -14 50 3 23 21 25 76 4 94 -8 7 -30 38 -49 69 -38 61 -186 201 -215
201 -9 0 -22 -5 -29 -12z"/>
<path d="M88370 5245 c-7 -18 -9 -52 -6 -85 9 -75 53 -138 199 -280 112 -110
134 -140 102 -140 -19 0 -38 -36 -31 -58 4 -10 26 -37 50 -61 34 -33 49 -42
65 -36 12 3 21 12 21 20 0 7 10 15 23 19 17 4 34 -7 82 -53 136 -132 305 -269
340 -275 34 -7 105 10 105 24 0 4 -22 16 -48 28 -27 12 -69 41 -93 64 -24 23
-75 68 -114 102 -93 80 -375 362 -456 455 -183 213 -209 245 -209 260 0 9 -4
23 -10 31 -7 11 -11 8 -20 -15z"/>
<path d="M3715 5109 c-77 -10 -150 -21 -162 -24 -35 -8 -188 -160 -239 -237
-48 -71 -89 -172 -100 -245 -6 -38 -9 -43 -48 -55 -37 -12 -41 -16 -44 -49 -3
-35 -1 -37 45 -56 26 -11 84 -28 128 -37 44 -10 109 -27 145 -39 87 -29 200
-26 329 8 118 32 158 55 258 149 68 64 85 87 126 173 26 54 51 123 56 153 5
30 21 80 35 110 43 92 33 140 -31 140 -24 0 -38 -7 -54 -30 l-23 -30 -82 45
c-96 53 -114 54 -339 24z"/>
<path d="M5600 5023 c-8 -4 -45 -30 -82 -60 -37 -29 -71 -53 -77 -53 -5 0 -18
12 -29 27 -35 48 -112 27 -112 -32 0 -12 20 -53 45 -92 25 -39 52 -93 60 -120
22 -74 149 -259 214 -311 41 -33 59 -42 75 -37 88 29 126 13 166 -66 l29 -56
70 -11 c114 -19 238 -15 291 9 l45 21 -30 12 c-60 22 -75 36 -75 65 0 31 14
41 57 41 38 0 101 -39 108 -67 4 -19 10 -23 23 -18 9 4 37 13 62 21 76 24 145
66 148 92 6 37 -22 69 -66 77 -37 6 -40 9 -71 84 -63 155 -153 266 -312 386
-86 65 -104 74 -151 79 -85 8 -372 15 -388 9z m651 -412 c21 -16 21 -21 10
-49 -24 -57 -70 -79 -133 -62 -49 14 -53 33 -16 76 49 56 98 68 139 35z m-496
-78 c19 -9 35 -20 35 -24 0 -20 -61 -140 -74 -145 -24 -9 -86 15 -86 34 0 9
10 42 22 74 18 47 37 68 65 77 1 1 18 -7 38 -16z m271 -41 c33 -27 37 -60 9
-78 -13 -9 -29 -13 -35 -9 -7 4 -28 -9 -50 -30 l-38 -37 -21 21 c-31 31 -28
67 7 79 18 6 34 22 42 41 15 36 51 42 86 13z m98 -144 c17 -28 -8 -64 -66 -91
-77 -37 -108 -43 -108 -23 0 9 -6 26 -12 37 -11 18 -10 23 7 35 11 8 40 30 65
48 41 31 48 33 74 22 16 -6 34 -19 40 -28z"/>
<path d="M69529 4970 c-9 -23 -17 -30 -37 -30 -50 0 -101 -20 -126 -50 -19
-23 -33 -30 -62 -30 -29 0 -44 -8 -74 -37 -20 -21 -39 -45 -42 -53 -4 -12 -8
-13 -19 -2 -20 19 -57 14 -70 -9 -9 -18 -4 -36 36 -118 26 -53 59 -120 73
-149 15 -30 37 -63 51 -73 21 -17 27 -18 45 -6 12 8 25 28 31 45 9 30 12 32
58 32 43 0 54 5 84 35 31 31 41 35 88 35 55 0 105 27 105 56 0 19 7 18 37 -6
30 -23 57 -14 75 26 9 20 7 33 -14 77 -14 28 -31 67 -38 85 -7 18 -34 60 -59
92 -25 33 -54 71 -64 85 -26 36 -65 34 -78 -5z"/>
<path d="M109957 4668 c-13 -439 -111 -836 -299 -1208 -230 -458 -552 -727
-978 -816 -61 -13 -131 -18 -247 -19 -119 0 -163 -3 -163 -12 0 -30 258 -29
416 2 307 59 585 237 799 510 297 379 484 954 502 1543 5 167 4 192 -9 192
-13 0 -16 -31 -21 -192z"/>
<path d="M126087 4668 c-13 -439 -111 -836 -299 -1208 -230 -458 -552 -727
-978 -816 -61 -13 -131 -18 -247 -19 -119 0 -163 -3 -163 -12 0 -30 258 -29
416 2 307 59 585 237 799 510 297 379 484 954 502 1543 5 167 4 192 -9 192
-13 0 -16 -31 -21 -192z"/>
<path d="M142217 4668 c-13 -439 -111 -836 -299 -1208 -230 -458 -552 -727
-978 -816 -61 -13 -131 -18 -247 -19 -119 0 -163 -3 -163 -12 0 -30 258 -29
416 2 307 59 585 237 799 510 297 379 484 954 502 1543 5 167 4 192 -9 192
-13 0 -16 -31 -21 -192z"/>
<path d="M158347 4668 c-13 -439 -111 -836 -299 -1208 -230 -458 -552 -727
-978 -816 -61 -13 -131 -18 -247 -19 -119 0 -163 -3 -163 -12 0 -30 258 -29
416 2 307 59 585 237 799 510 297 379 484 954 502 1543 5 167 4 192 -9 192
-13 0 -16 -31 -21 -192z"/>
<path d="M72058 4823 c-20 -3 -28 -10 -28 -24 0 -12 -10 -23 -25 -29 -14 -5
-25 -16 -25 -23 0 -8 -11 -26 -24 -40 -23 -24 -25 -25 -62 -12 -22 8 -50 14
-63 15 -86 1 -188 -165 -161 -261 6 -19 10 -46 10 -60 0 -30 18 -41 100 -59
125 -28 290 57 290 148 0 16 -7 49 -15 73 -15 40 -14 45 2 56 9 7 25 13 35 13
9 0 22 9 28 19 5 11 20 21 32 23 13 2 24 11 27 23 2 11 8 23 14 26 17 12 -78
123 -101 118 -4 -1 -19 -4 -34 -6z"/>
<path d="M91024 4802 c13 -22 149 -35 305 -29 85 3 158 10 163 15 4 4 -79 8
-184 8 -106 -1 -215 3 -242 8 -34 6 -47 5 -42 -2z"/>
<path d="M88260 4405 c-5 -14 -16 -25 -25 -25 -8 0 -21 -12 -28 -27 -6 -16
-21 -35 -32 -44 -17 -15 -24 -15 -58 -3 -66 23 -93 18 -142 -27 -76 -70 -96
-133 -80 -248 8 -51 10 -54 53 -74 93 -40 229 -17 302 52 34 32 40 44 40 77
-1 21 -7 56 -14 76 -15 42 -6 58 31 58 12 0 27 8 32 19 6 10 21 21 35 25 14 3
26 16 30 31 4 14 11 25 17 25 13 0 -34 67 -65 92 -12 10 -36 18 -54 18 -26 0
-35 -5 -42 -25z"/>
<path d="M44855 4181 c-139 -135 -220 -200 -346 -276 -76 -46 -82 -48 -221
-66 -79 -11 -237 -28 -353 -39 -385 -37 -497 -52 -482 -68 12 -11 33 -11 133
2 65 9 216 25 334 36 118 11 248 25 288 30 100 14 106 12 42 -11 -131 -47
-354 -79 -557 -79 -87 0 -114 -3 -110 -12 3 -10 47 -13 178 -12 279 3 459 42
674 149 158 79 271 162 432 318 115 112 122 117 133 97 10 -18 19 -21 69 -18
56 2 57 2 103 -45 l46 -48 82 3 83 3 58 -81 c67 -94 156 -179 231 -222 115
-66 315 -112 487 -112 171 0 469 56 711 134 65 21 113 29 201 33 105 5 125 3
208 -21 51 -14 148 -53 216 -86 68 -33 150 -67 182 -76 88 -25 335 -29 529
-10 89 9 167 16 173 16 6 0 11 7 11 15 0 18 7 18 -160 0 -177 -19 -424 -19
-515 0 -39 8 -128 43 -205 79 -172 82 -252 107 -366 113 -110 7 -192 -6 -337
-53 -253 -82 -568 -126 -755 -105 -293 32 -451 116 -589 314 -30 42 -64 82
-74 88 -12 6 -47 7 -90 3 l-71 -7 -48 48 c-48 47 -49 48 -100 43 -47 -5 -53
-3 -62 18 -6 13 -16 25 -22 27 -6 3 -70 -52 -141 -122z"/>
<path d="M28702 4165 c-117 -119 -249 -224 -362 -290 -57 -33 -80 -40 -195
-56 -71 -10 -227 -28 -345 -39 -118 -11 -377 -40 -575 -65 -198 -24 -416 -50
-485 -57 -166 -17 -597 -17 -720 0 -118 17 -301 57 -376 82 -69 24 -75 24 -68
5 11 -28 242 -87 454 -116 122 -17 523 -17 695 -1 72 7 290 33 485 57 195 25
432 52 525 60 94 8 224 22 289 30 66 8 121 13 123 11 6 -5 -170 -55 -257 -71
-50 -10 -163 -19 -272 -22 -158 -5 -188 -8 -188 -21 0 -13 25 -14 188 -9 465
13 765 143 1097 475 l111 110 21 -24 c19 -21 27 -23 67 -18 44 6 48 5 96 -40
l51 -48 81 4 81 3 58 -81 c160 -224 355 -320 676 -331 105 -4 172 -1 255 11
161 25 327 62 443 100 141 47 221 60 329 53 116 -7 168 -23 346 -107 163 -76
199 -87 340 -100 99 -9 232 -4 473 21 91 9 117 15 117 27 0 12 -9 13 -47 8
-27 -3 -131 -13 -233 -22 -304 -26 -427 -9 -622 84 -205 100 -321 129 -459
119 -83 -7 -210 -36 -287 -66 -66 -26 -317 -78 -447 -92 -221 -24 -449 8 -610
84 -87 42 -180 126 -252 230 -30 42 -63 82 -73 87 -11 6 -48 7 -90 4 l-71 -7
-49 48 c-48 47 -49 48 -100 42 -47 -6 -52 -4 -62 18 -6 14 -18 25 -27 25 -9
-1 -67 -52 -129 -115z"/>
<path d="M52999 4191 c-12 -17 -20 -19 -81 -14 -61 5 -73 3 -99 -16 -24 -18
-33 -20 -50 -11 -31 17 -96 2 -134 -31 l-33 -29 -14 22 c-11 16 -20 20 -40 15
-34 -9 -41 -33 -29 -89 6 -25 15 -84 20 -131 18 -160 45 -206 98 -172 14 10
28 26 30 36 6 22 8 23 35 8 32 -17 85 -13 124 10 32 19 37 20 64 6 45 -23 94
-19 129 11 22 18 31 21 31 11 0 -24 36 -50 60 -42 38 12 49 43 38 115 -15 109
-25 152 -55 235 -25 70 -32 80 -55 83 -18 2 -31 -3 -39 -17z"/>
<path d="M5312 4188 c-7 -7 -12 -19 -12 -28 0 -11 -17 -19 -62 -27 -48 -9 -69
-19 -89 -41 -17 -18 -40 -31 -65 -35 -47 -8 -84 -34 -104 -73 -8 -16 -16 -31
-17 -33 -2 -2 -11 3 -21 12 -24 22 -35 21 -55 -1 -19 -21 -22 -57 -6 -67 5 -4
37 -61 70 -128 62 -127 91 -167 120 -167 22 0 49 37 49 67 0 19 4 21 33 16 39
-6 80 12 116 51 20 22 33 26 76 26 55 0 105 27 105 56 0 18 14 18 30 -1 23
-27 59 -18 77 19 15 32 15 36 -3 68 -11 18 -28 55 -38 81 -10 27 -36 69 -58
95 -22 25 -52 63 -65 84 -26 39 -58 49 -81 26z"/>
<path d="M45086 4004 c-99 -19 -156 -51 -281 -154 -60 -50 -136 -108 -168
-130 -72 -49 -197 -97 -307 -120 -58 -12 -85 -22 -85 -31 0 -17 32 -15 138 12
160 40 260 96 436 243 58 48 125 98 151 111 46 23 176 55 225 55 16 0 25 6 25
15 0 19 -38 18 -134 -1z"/>
<path d="M28965 3989 c-130 -19 -180 -46 -359 -193 -69 -57 -150 -113 -197
-136 -75 -38 -207 -81 -292 -95 -51 -8 -44 -31 9 -26 64 5 204 49 289 91 71
34 154 94 305 221 79 66 161 98 297 114 39 5 50 10 46 21 -6 15 -11 16 -98 3z"/>
<path d="M95295 3928 c-16 -29 -65 -106 -108 -172 -539 -806 -1489 -1453
-2590 -1765 -523 -148 -979 -212 -1529 -215 -152 -1 -280 -5 -285 -10 -14 -15
689 1 852 19 1479 164 2790 869 3522 1893 63 89 183 281 183 295 0 21 -20 1
-45 -45z"/>
<path d="M104174 3941 c11 -100 105 -174 302 -237 61 -20 126 -45 144 -55 31
-19 31 -21 15 -39 -32 -36 -16 -61 59 -92 53 -21 72 -25 88 -17 10 6 17 16 15
22 -2 7 2 20 10 29 13 15 19 15 56 2 23 -9 128 -41 233 -73 218 -67 256 -68
299 -15 l23 29 -66 6 c-83 7 -334 87 -569 181 -66 26 -124 48 -129 48 -7 0
-90 37 -309 138 -73 33 -131 68 -148 86 l-28 31 5 -44z"/>
<path d="M120304 3941 c11 -100 105 -174 302 -237 61 -20 126 -45 144 -55 31
-19 31 -21 15 -39 -32 -36 -16 -61 59 -92 53 -21 72 -25 88 -17 10 6 17 16 15
22 -2 7 2 20 10 29 13 15 19 15 56 2 23 -9 128 -41 233 -73 218 -67 256 -68
299 -15 l23 29 -66 6 c-83 7 -334 87 -569 181 -66 26 -124 48 -129 48 -7 0
-90 37 -309 138 -73 33 -131 68 -148 86 l-28 31 5 -44z"/>
<path d="M136434 3941 c11 -100 105 -174 302 -237 61 -20 126 -45 144 -55 31
-19 31 -21 15 -39 -32 -36 -16 -61 59 -92 53 -21 72 -25 88 -17 10 6 17 16 15
22 -2 7 2 20 10 29 13 15 19 15 56 2 23 -9 128 -41 233 -73 218 -67 256 -68
299 -15 l23 29 -66 6 c-83 7 -334 87 -569 181 -66 26 -124 48 -129 48 -7 0
-90 37 -309 138 -73 33 -131 68 -148 86 l-28 31 5 -44z"/>
<path d="M152564 3941 c11 -100 105 -174 302 -237 61 -20 126 -45 144 -55 31
-19 31 -21 15 -39 -32 -36 -16 -61 59 -92 53 -21 72 -25 88 -17 10 6 17 16 15
22 -2 7 2 20 10 29 13 15 19 15 56 2 23 -9 128 -41 233 -73 218 -67 256 -68
299 -15 l23 29 -66 6 c-83 7 -334 87 -569 181 -66 26 -124 48 -129 48 -7 0
-90 37 -309 138 -73 33 -131 68 -148 86 l-28 31 5 -44z"/>
<path d="M61185 3955 c-100 -18 -169 -55 -292 -158 -201 -167 -289 -210 -536
-262 -37 -8 -29 -31 9 -27 62 7 163 36 254 73 71 30 120 59 194 117 53 42 128
101 164 130 78 61 145 89 254 104 53 8 78 15 78 25 0 16 -30 16 -125 -2z"/>
<path d="M112175 3888 c-80 -259 -149 -429 -254 -633 -200 -387 -454 -730
-790 -1065 -723 -723 -1701 -1248 -2724 -1463 -124 -26 -133 -30 -123 -45 12
-20 435 84 709 174 1420 467 2600 1489 3087 2675 51 125 120 327 120 354 0 18
-19 20 -25 3z"/>
<path d="M128305 3888 c-80 -259 -149 -429 -254 -633 -200 -387 -454 -730
-790 -1065 -723 -723 -1701 -1248 -2724 -1463 -124 -26 -133 -30 -123 -45 12
-20 435 84 709 174 1420 467 2600 1489 3087 2675 51 125 120 327 120 354 0 18
-19 20 -25 3z"/>
<path d="M144435 3888 c-80 -259 -149 -429 -254 -633 -200 -387 -454 -730
-790 -1065 -723 -723 -1701 -1248 -2724 -1463 -124 -26 -133 -30 -123 -45 12
-20 435 84 709 174 1420 467 2600 1489 3087 2675 51 125 120 327 120 354 0 18
-19 20 -25 3z"/>
<path d="M160565 3888 c-80 -259 -149 -429 -254 -633 -200 -387 -454 -730
-790 -1065 -723 -723 -1701 -1248 -2724 -1463 -124 -26 -133 -30 -123 -45 12
-20 435 84 709 174 1420 467 2600 1489 3087 2675 51 125 120 327 120 354 0 18
-19 20 -25 3z"/>
<path d="M36921 3861 c-17 -17 -21 -18 -79 -3 -56 15 -63 15 -97 -1 -28 -13
-41 -15 -57 -6 -30 16 -105 5 -139 -20 -35 -26 -35 -26 -42 -1 -3 13 -13 20
-29 20 -50 0 -52 -8 -50 -157 3 -156 8 -198 28 -230 19 -30 40 -29 74 5 25 26
31 27 52 16 32 -18 109 -17 136 2 32 22 42 10 35 -44 -7 -58 14 -105 56 -126
l28 -15 7 -343 7 -343 27 -44 c73 -120 249 -121 309 -2 12 24 24 48 25 52 2 5
24 6 51 3 l47 -7 0 -49 c0 -84 45 -149 130 -187 54 -25 98 -26 148 -6 75 32
121 102 122 186 0 44 2 47 31 53 66 13 83 8 104 -30 39 -72 159 -108 234 -70
41 22 88 80 100 123 7 23 11 162 11 347 l0 309 35 38 c42 47 45 82 13 139
l-23 40 -145 0 c-99 0 -150 -4 -158 -12 -9 -9 -18 -9 -37 0 -15 7 -69 12 -128
11 -56 -1 -93 -3 -82 -6 24 -6 65 -42 65 -58 0 -6 -11 -22 -24 -34 -28 -26
-50 -20 -85 25 -13 17 -32 27 -49 28 -21 1 -27 6 -26 24 0 19 -4 22 -39 22
-24 0 -51 -8 -70 -22 -28 -20 -45 -23 -127 -23 -52 -1 -99 -2 -105 -4 -25 -8
-54 1 -76 23 -14 14 -39 26 -59 28 l-35 3 3 69 c2 41 -4 90 -13 122 -8 30 -20
77 -25 106 -14 69 -41 87 -79 49z m862 -457 c11 -4 14 -15 10 -38 -5 -29 -1
-37 31 -61 30 -23 36 -34 34 -58 -7 -71 -118 -44 -118 27 0 19 -7 39 -15 46
-20 16 -19 49 2 72 17 19 31 22 56 12z"/>
<path d="M84846 3848 c-26 -36 -21 -111 9 -147 14 -16 34 -33 44 -36 17 -5 19
-27 23 -348 5 -368 6 -374 60 -424 99 -92 270 -54 294 65 6 31 9 34 37 28 16
-3 40 -6 53 -6 23 0 24 -4 24 -58 0 -49 5 -66 29 -99 33 -46 71 -75 120 -91
126 -43 251 56 251 198 0 35 2 38 38 44 62 10 68 8 95 -33 66 -100 206 -115
283 -29 56 60 57 69 62 418 l5 325 28 33 c42 48 46 76 18 133 l-24 49 -717 0
-717 0 -15 -22z"/>
<path d="M30887 3812 c-21 -52 -36 -62 -107 -72 -82 -12 -106 -29 -124 -90
-17 -57 -48 -105 -78 -121 -17 -9 -25 -5 -53 25 -18 20 -41 36 -52 36 -24 0
-122 -59 -172 -102 -107 -94 -419 -267 -691 -382 -97 -41 -133 -66 -96 -66 23
0 213 82 381 166 160 79 331 182 405 243 66 55 133 99 162 106 20 5 30 0 52
-29 15 -20 36 -36 47 -36 32 0 95 73 119 138 24 65 45 82 106 82 55 0 98 25
120 71 l20 41 25 -36 c45 -64 237 -271 318 -344 262 -237 495 -352 714 -352
58 0 77 3 77 14 0 10 -26 15 -102 19 -163 9 -294 59 -468 178 -140 96 -368
317 -502 487 -58 73 -79 78 -101 24z"/>
<path d="M68887 3836 c-9 -9 -21 -35 -27 -57 -9 -33 -8 -46 7 -77 10 -20 32
-46 49 -57 l32 -20 4 -340 c3 -292 6 -344 20 -370 47 -87 155 -127 241 -91 41
17 86 69 94 108 6 28 8 30 42 24 20 -3 44 -6 55 -6 16 0 17 -5 12 -44 -6 -35
-2 -54 13 -84 43 -85 152 -144 233 -127 89 19 152 99 150 190 -1 51 0 53 30
59 67 13 83 8 115 -37 36 -52 84 -77 147 -77 62 0 120 31 153 82 26 39 28 48
36 222 4 100 6 251 3 336 l-6 155 34 33 c44 43 50 75 23 135 l-22 47 -606 0
c-333 0 -653 3 -710 6 -90 6 -107 4 -122 -10z"/>
<path d="M41540 3795 c-45 -21 -68 -42 -90 -85 -20 -40 -122 -385 -140 -475
-17 -81 -14 -228 5 -295 37 -132 45 -170 55 -250 20 -165 -11 -248 -122 -336
-167 -131 -218 -200 -218 -296 0 -63 12 -112 47 -191 l26 -58 136 -69 c162
-82 246 -132 283 -168 l28 -26 -23 -24 c-38 -41 -156 -107 -316 -178 -173 -76
-273 -138 -343 -210 -68 -71 -74 -92 -42 -167 98 -236 104 -351 28 -505 -65
-132 -203 -253 -436 -384 -60 -33 -108 -64 -108 -69 0 -5 461 -8 1148 -7
l1147 2 -775 7 c-426 3 -928 7 -1114 8 l-339 1 108 65 c321 193 445 354 445
580 0 94 -17 168 -66 282 -21 48 -33 90 -30 101 10 31 126 136 196 176 36 21
126 65 199 98 74 32 162 74 196 92 62 35 155 111 155 127 0 4 -14 24 -31 43
-34 39 -125 94 -304 184 -93 46 -124 67 -134 89 -54 115 -66 225 -32 291 23
44 76 97 185 184 106 84 129 127 134 254 5 102 -7 186 -43 314 -49 177 -43
259 41 553 61 214 86 271 127 301 44 32 128 27 267 -16 63 -20 162 -45 220
-57 104 -21 281 -44 287 -37 12 11 -36 28 -108 37 -125 15 -265 45 -393 84
-143 43 -209 51 -256 30z"/>
<path d="M100950 3779 c-34 -54 -23 -114 29 -160 39 -35 41 -40 42 -95 0 -33
4 -90 8 -129 5 -38 5 -75 0 -81 -4 -5 -5 -103 -1 -216 8 -229 8 -229 84 -291
92 -74 247 -33 280 75 10 33 15 38 32 34 12 -3 31 -6 44 -6 20 0 22 -5 22 -53
0 -66 35 -125 100 -168 140 -94 310 -7 310 158 l0 50 52 7 c44 6 53 4 61 -11
6 -10 27 -34 47 -55 91 -92 240 -64 296 56 23 50 24 55 24 373 0 298 1 323 18
335 54 39 65 93 31 158 l-21 40 -292 0 c-160 0 -483 3 -718 7 l-426 6 -22 -34z"/>
<path d="M117080 3779 c-34 -54 -23 -114 29 -160 39 -35 41 -40 42 -95 0 -33
4 -90 8 -129 5 -38 5 -75 0 -81 -4 -5 -5 -103 -1 -216 8 -229 8 -229 84 -291
92 -74 247 -33 280 75 10 33 15 38 32 34 12 -3 31 -6 44 -6 20 0 22 -5 22 -53
0 -66 35 -125 100 -168 140 -94 310 -7 310 158 l0 50 52 7 c44 6 53 4 61 -11
6 -10 27 -34 47 -55 91 -92 240 -64 296 56 23 50 24 55 24 373 0 298 1 323 18
335 54 39 65 93 31 158 l-21 40 -292 0 c-160 0 -483 3 -718 7 l-426 6 -22 -34z"/>
<path d="M133210 3779 c-34 -54 -23 -114 29 -160 39 -35 41 -40 42 -95 0 -33
4 -90 8 -129 5 -38 5 -75 0 -81 -4 -5 -5 -103 -1 -216 8 -229 8 -229 84 -291
92 -74 247 -33 280 75 10 33 15 38 32 34 12 -3 31 -6 44 -6 20 0 22 -5 22 -53
0 -66 35 -125 100 -168 140 -94 310 -7 310 158 l0 50 52 7 c44 6 53 4 61 -11
6 -10 27 -34 47 -55 91 -92 240 -64 296 56 23 50 24 55 24 373 0 298 1 323 18
335 54 39 65 93 31 158 l-21 40 -292 0 c-160 0 -483 3 -718 7 l-426 6 -22 -34z"/>
<path d="M149340 3779 c-34 -54 -23 -114 29 -160 39 -35 41 -40 42 -95 0 -33
4 -90 8 -129 5 -38 5 -75 0 -81 -4 -5 -5 -103 -1 -216 8 -229 8 -229 84 -291
92 -74 247 -33 280 75 10 33 15 38 32 34 12 -3 31 -6 44 -6 20 0 22 -5 22 -53
0 -66 35 -125 100 -168 140 -94 310 -7 310 158 l0 50 52 7 c44 6 53 4 61 -11
6 -10 27 -34 47 -55 91 -92 240 -64 296 56 23 50 24 55 24 373 0 298 1 323 18
335 54 39 65 93 31 158 l-21 40 -292 0 c-160 0 -483 3 -718 7 l-426 6 -22 -34z"/>
<path d="M20323 3740 c-13 -5 -23 -13 -24 -17 0 -4 -2 -35 -3 -68 -1 -33 -6
-109 -10 -170 -8 -100 -7 -112 10 -133 17 -20 23 -22 46 -13 15 6 33 19 39 29
12 19 13 19 47 -4 37 -26 75 -30 117 -14 22 9 38 5 89 -20 l63 -31 6 -136 c4
-75 7 -224 7 -332 0 -169 3 -201 19 -236 22 -48 54 -79 103 -100 96 -40 210
13 233 108 8 28 20 31 80 18 28 -6 29 -9 27 -48 -4 -53 24 -110 79 -156 133
-115 319 -32 319 142 0 54 9 61 82 61 31 0 40 -5 53 -29 24 -47 79 -83 135
-89 65 -6 93 2 136 41 72 62 74 73 74 431 l0 319 35 38 c40 45 45 81 18 140
l-18 38 -262 1 c-145 0 -263 -3 -263 -6 0 -3 9 -17 20 -31 27 -35 25 -50 -11
-68 -23 -12 -44 -15 -87 -9 -82 10 -105 20 -94 40 5 9 7 25 5 35 -6 20 12 26
87 32 25 2 1 4 -52 5 l-97 2 -6 -57 c-3 -32 -10 -81 -16 -109 -9 -46 -14 -53
-49 -69 -35 -16 -46 -16 -99 -5 -34 7 -79 10 -104 6 -39 -6 -48 -3 -76 19 -22
19 -31 35 -31 57 0 17 -5 59 -12 94 -9 48 -16 64 -28 64 -19 0 -40 75 -40 144
0 23 -5 47 -12 54 -17 17 -48 15 -69 -4 -15 -14 -20 -14 -46 -1 -48 25 -99 31
-132 14 -26 -13 -31 -13 -44 0 -21 22 -110 20 -144 -2 -26 -17 -27 -17 -45 9
-21 28 -23 29 -55 16z m1390 -358 c35 -31 59 -81 52 -111 -7 -32 -36 -45 -59
-27 -34 26 -76 90 -76 117 0 47 41 57 83 21z m-225 -102 c19 0 72 -51 71 -68
0 -10 -13 -27 -29 -40 l-28 -22 -40 45 c-22 25 -48 45 -60 45 -23 0 -38 28
-22 44 5 5 10 18 10 27 0 29 33 27 62 -3 14 -15 31 -28 36 -28z m116 -116 c13
-5 15 -14 10 -41 -6 -30 -2 -39 25 -67 41 -42 36 -81 -12 -90 -43 -9 -77 24
-77 75 0 21 -4 41 -10 44 -5 3 -10 19 -10 35 0 39 34 59 74 44z"/>
<path d="M64513 3645 c0 -33 2 -45 4 -27 2 18 2 45 0 60 -2 15 -4 0 -4 -33z"/>
<path d="M52864 3595 c-12 -19 -19 -47 -19 -78 0 -42 4 -53 31 -77 17 -15 37
-29 43 -31 8 -3 13 -99 17 -334 6 -367 10 -392 70 -444 92 -82 236 -54 280 53
20 48 25 50 84 40 34 -6 35 -7 32 -49 -9 -104 99 -208 214 -207 107 1 184 81
184 191 0 55 -2 53 82 65 30 4 38 1 43 -14 18 -57 97 -110 164 -110 77 0 138
41 172 115 17 36 19 70 19 359 l0 319 35 38 c40 45 46 87 18 143 l-18 36 -401
0 c-220 0 -543 3 -716 7 l-315 6 -19 -28z"/>
<path d="M32241 3018 c-7 -270 -9 -582 -5 -708 3 -124 10 -695 14 -1270 7
-1043 7 -1041 8 708 1 963 1 1752 -1 1752 -2 0 -9 -217 -16 -482z"/>
<path d="M104418 3179 c-10 -5 -18 -21 -18 -35 0 -14 -7 -32 -16 -41 -8 -9
-13 -22 -9 -31 3 -8 0 -27 -7 -42 -10 -24 -19 -29 -69 -34 -47 -6 -62 -12 -82
-36 -51 -60 -62 -226 -19 -273 11 -12 27 -37 36 -54 15 -30 21 -33 59 -33 110
1 218 63 263 151 38 76 32 110 -34 181 -21 23 -23 30 -12 43 7 8 18 15 25 15
14 0 28 27 20 40 -3 5 3 15 13 22 10 7 21 29 24 49 6 35 5 36 -46 62 -55 28
-99 34 -128 16z"/>
<path d="M120548 3179 c-10 -5 -18 -21 -18 -35 0 -14 -7 -32 -16 -41 -8 -9
-13 -22 -9 -31 3 -8 0 -27 -7 -42 -10 -24 -19 -29 -69 -34 -47 -6 -62 -12 -82
-36 -51 -60 -62 -226 -19 -273 11 -12 27 -37 36 -54 15 -30 21 -33 59 -33 110
1 218 63 263 151 38 76 32 110 -34 181 -21 23 -23 30 -12 43 7 8 18 15 25 15
14 0 28 27 20 40 -3 5 3 15 13 22 10 7 21 29 24 49 6 35 5 36 -46 62 -55 28
-99 34 -128 16z"/>
<path d="M136678 3179 c-10 -5 -18 -21 -18 -35 0 -14 -7 -32 -16 -41 -8 -9
-13 -22 -9 -31 3 -8 0 -27 -7 -42 -10 -24 -19 -29 -69 -34 -47 -6 -62 -12 -82
-36 -51 -60 -62 -226 -19 -273 11 -12 27 -37 36 -54 15 -30 21 -33 59 -33 110
1 218 63 263 151 38 76 32 110 -34 181 -21 23 -23 30 -12 43 7 8 18 15 25 15
14 0 28 27 20 40 -3 5 3 15 13 22 10 7 21 29 24 49 6 35 5 36 -46 62 -55 28
-99 34 -128 16z"/>
<path d="M152808 3179 c-10 -5 -18 -21 -18 -35 0 -14 -7 -32 -16 -41 -8 -9
-13 -22 -9 -31 3 -8 0 -27 -7 -42 -10 -24 -19 -29 -69 -34 -47 -6 -62 -12 -82
-36 -51 -60 -62 -226 -19 -273 11 -12 27 -37 36 -54 15 -30 21 -33 59 -33 110
1 218 63 263 151 38 76 32 110 -34 181 -21 23 -23 30 -12 43 7 8 18 15 25 15
14 0 28 27 20 40 -3 5 3 15 13 22 10 7 21 29 24 49 6 35 5 36 -46 62 -55 28
-99 34 -128 16z"/>
<path d="M75976 3173 c-4 -4 -15 -26 -25 -49 -20 -44 -23 -46 -123 -59 -61 -8
-92 -34 -108 -89 -13 -48 -72 -126 -96 -126 -7 0 -21 12 -31 26 -39 60 -94 49
-215 -44 -169 -130 -395 -254 -688 -378 -88 -37 -160 -71 -160 -75 0 -21 28
-13 176 50 292 125 512 244 663 361 91 70 152 103 175 94 9 -3 16 -9 16 -13 0
-16 42 -51 60 -51 36 0 98 67 121 131 12 32 27 63 34 69 6 5 41 14 77 19 85
12 106 24 126 72 l17 40 40 -53 c72 -95 347 -362 460 -446 208 -156 413 -236
588 -230 48 2 81 7 80 13 -2 6 -51 13 -110 16 -67 4 -135 15 -178 29 -108 34
-249 111 -370 202 -118 89 -331 295 -434 421 -60 73 -78 86 -95 70z"/>
<path d="M16010 3044 c-134 -147 -381 -382 -542 -516 -698 -583 -1384 -872
-2147 -907 -460 -21 -911 38 -1616 209 -857 208 -1118 257 -1496 281 -369 23
-726 -25 -1049 -142 -93 -34 -360 -159 -360 -168 0 -4 48 -30 108 -60 234
-116 347 -196 340 -242 -4 -33 -49 -59 -200 -119 -259 -103 -414 -198 -510
-311 l-39 -47 29 -58 c44 -87 81 -196 93 -274 35 -229 -102 -406 -495 -636
-76 -45 -86 -54 -62 -54 47 0 303 164 417 267 59 53 126 152 150 220 17 49 20
75 16 163 -5 111 -27 190 -88 312 l-28 56 40 46 c91 103 228 186 452 276 168
66 223 95 243 125 44 68 -31 139 -291 276 l-119 63 99 48 c323 154 699 238
1071 238 346 0 718 -59 1394 -221 778 -187 999 -230 1354 -264 206 -19 545
-19 733 0 691 73 1334 364 1963 888 263 219 660 614 660 657 0 11 -1 20 -2 20
-2 -1 -55 -57 -118 -126z"/>
<path d="M27523 3118 c-5 -7 -15 -27 -22 -44 -14 -36 -47 -54 -97 -54 -55 0
-99 -23 -117 -63 -9 -19 -17 -41 -17 -49 0 -20 -47 -86 -71 -99 -18 -9 -25 -6
-54 25 -18 20 -39 36 -46 36 -30 -1 -99 -41 -194 -115 -120 -93 -231 -159
-427 -255 -98 -49 -145 -77 -141 -86 13 -35 426 191 608 333 81 64 138 95 158
87 8 -3 20 -16 27 -30 40 -73 134 -12 174 113 18 55 45 73 108 73 53 0 93 25
115 70 l20 42 19 -30 c38 -59 231 -267 339 -365 250 -225 479 -337 692 -337
67 0 83 3 83 15 0 12 -15 15 -77 15 -215 1 -429 105 -685 334 -85 77 -277 283
-331 357 -30 40 -48 48 -64 27z"/>
<path d="M59757 3062 c-21 -52 -36 -62 -107 -72 -82 -12 -105 -28 -126 -92
-18 -56 -42 -93 -75 -116 -19 -13 -23 -11 -54 22 -18 20 -40 36 -49 36 -29 0
-87 -35 -205 -124 -171 -127 -395 -246 -748 -396 -25 -11 -31 -30 -9 -30 23 0
228 91 395 174 181 91 280 152 417 256 127 97 147 103 186 56 16 -20 36 -36
45 -36 40 0 111 84 126 150 11 48 29 60 102 71 74 10 97 24 124 77 l17 33 25
-35 c45 -64 229 -263 314 -340 256 -234 469 -342 693 -354 86 -4 102 -3 102
10 0 12 -21 16 -102 21 -167 9 -314 67 -491 195 -133 95 -360 318 -480 470
-57 73 -78 78 -100 24z"/>
<path d="M3995 2891 c-32 -62 -14 -138 40 -171 l32 -20 5 -338 c4 -327 5 -339
27 -377 76 -137 277 -130 326 10 7 22 19 39 27 38 7 -1 30 -4 51 -8 l37 -6 0
-51 c0 -149 176 -249 306 -173 53 31 94 107 94 176 l0 46 53 6 c41 4 54 2 62
-10 28 -45 80 -93 112 -104 86 -28 184 15 224 98 23 47 23 57 27 373 l4 325
28 30 c42 45 47 78 19 133 l-24 47 -717 3 -717 3 -16 -30z"/>
<path d="M43071 2783 c-194 -146 -323 -215 -758 -408 -33 -15 -44 -35 -20 -35
23 0 266 108 419 187 155 79 320 182 403 252 28 23 71 52 97 65 26 13 44 26
41 30 -19 19 -63 -3 -182 -91z"/>
<path d="M30167 2822 c-21 -52 -36 -62 -107 -72 -82 -12 -103 -27 -128 -97
-13 -34 -36 -73 -57 -93 l-35 -34 -34 37 c-18 20 -41 37 -50 37 -29 0 -87 -35
-205 -123 -169 -127 -356 -228 -656 -357 -100 -43 -139 -70 -102 -70 21 0 228
89 374 161 172 85 292 158 418 254 148 113 177 122 205 69 19 -35 53 -40 90
-14 32 22 74 88 83 130 11 48 29 60 102 71 74 10 97 24 124 77 l17 33 30 -43
c58 -81 251 -284 359 -377 244 -211 459 -311 668 -311 62 0 77 3 77 15 0 12
-15 15 -78 15 -261 0 -560 180 -872 524 -60 67 -124 141 -141 164 -39 53 -62
54 -82 4z"/>
<path d="M43291 2823 c17 -22 31 -33 43 -33 5 0 -1 11 -14 25 -27 28 -50 34
-29 8z"/>
<path d="M43980 2822 c0 -13 29 -46 80 -91 262 -231 465 -332 674 -335 64 -1
100 3 103 10 2 7 -31 13 -99 17 -163 9 -284 55 -464 175 -49 34 -125 94 -170
134 -135 123 -124 114 -124 90z"/>
<path d="M25193 2788 c16 -66 28 -199 22 -250 -10 -82 -40 -134 -115 -196
-149 -124 -171 -145 -197 -190 -24 -41 -28 -57 -28 -127 1 -69 6 -91 35 -159
l35 -78 183 -97 c170 -89 262 -149 262 -171 0 -18 -130 -101 -226 -146 -331
-153 -421 -208 -484 -296 -17 -22 -30 -53 -30 -69 0 -15 16 -64 35 -109 108
-252 77 -430 -104 -611 -94 -93 -185 -159 -332 -238 -81 -44 -90 -51 -62 -51
65 0 291 147 414 269 99 98 142 173 166 285 22 109 7 205 -59 364 l-39 94 20
31 c52 84 156 154 373 252 160 72 316 162 348 201 35 42 -43 106 -280 228
l-168 86 -27 68 c-16 39 -30 95 -33 134 -8 112 10 137 218 310 78 65 105 111
119 199 12 76 -1 214 -25 260 -17 35 -28 38 -21 7z"/>
<path d="M78597 2662 c-10 -10 -17 -23 -17 -29 0 -6 -9 -22 -20 -36 -17 -21
-32 -27 -86 -32 -81 -9 -116 -35 -134 -101 -8 -28 -29 -63 -52 -88 l-39 -40
-35 37 c-59 62 -74 56 -297 -106 -140 -101 -398 -233 -701 -358 -56 -23 -84
-49 -54 -49 25 0 308 124 466 204 139 71 249 139 420 261 89 64 107 66 148 21
18 -20 37 -36 42 -36 19 0 77 47 99 79 13 19 28 51 33 73 13 46 39 64 105 73
78 10 103 23 122 66 10 21 20 39 23 39 3 0 16 -17 30 -37 42 -62 350 -366 440
-435 209 -160 383 -236 576 -254 78 -7 128 0 122 18 -3 8 -25 11 -59 9 -182
-7 -404 83 -626 254 -102 79 -332 307 -417 413 -32 39 -62 72 -66 72 -4 0 -14
-8 -23 -18z"/>
<path d="M46215 2609 c-23 -51 -45 -65 -114 -72 -66 -8 -94 -25 -110 -69 -24
-67 -59 -123 -85 -138 -25 -14 -27 -14 -52 18 -46 58 -87 46 -239 -73 -142
-111 -393 -250 -640 -355 -140 -59 -159 -70 -147 -82 21 -21 490 201 667 316
50 32 111 75 136 96 67 56 140 100 165 100 14 0 31 -12 44 -30 30 -42 64 -40
110 8 20 22 46 65 58 100 21 56 26 62 60 72 20 5 49 10 64 10 44 0 77 21 95
61 10 21 20 39 23 39 3 0 24 -24 45 -52 68 -90 375 -392 470 -461 113 -83 266
-161 369 -187 93 -23 260 -28 254 -7 -3 8 -40 14 -114 19 -126 7 -198 28 -326
95 -115 61 -239 155 -371 282 -107 104 -257 270 -292 324 -25 39 -49 34 -70
-14z"/>
<path d="M62323 2588 c-6 -7 -18 -30 -28 -51 -18 -39 -23 -41 -109 -52 -68 -9
-92 -28 -112 -88 -19 -61 -56 -113 -84 -122 -15 -5 -27 2 -46 24 -46 55 -101
37 -250 -84 -113 -93 -396 -246 -661 -360 -66 -29 -113 -54 -113 -63 0 -17 13
-13 160 50 272 118 528 263 673 381 104 85 143 95 177 47 27 -38 58 -39 100
-4 32 27 70 91 70 118 0 33 44 66 95 72 78 9 104 23 127 67 l20 41 20 -24
c135 -170 369 -402 496 -493 117 -84 220 -140 311 -170 129 -43 311 -55 311
-21 0 11 -19 14 -87 14 -116 0 -197 21 -328 85 -130 65 -245 149 -388 285
-107 102 -267 279 -300 331 -20 31 -38 37 -54 17z"/>
<path d="M70798 2358 c-13 -10 -17 -35 -20 -128 -4 -122 -23 -190 -73 -264
-13 -19 -27 -56 -31 -83 -4 -26 -15 -72 -25 -102 l-19 -54 148 6 c295 13 544
36 569 53 31 20 26 34 -23 59 -31 16 -55 19 -116 18 -69 -3 -79 -1 -88 17 -9
16 -8 22 5 26 9 4 15 18 15 37 0 34 46 121 60 112 4 -3 24 14 44 37 48 56 49
97 4 131 -125 94 -399 176 -450 135z"/>
<path d="M86863 2180 c-26 -11 -25 -6 -23 -125 2 -99 -20 -175 -80 -280 -17
-29 -30 -66 -30 -82 0 -16 -9 -55 -19 -86 l-20 -57 92 0 c51 0 209 9 351 20
228 17 262 22 279 39 11 10 16 24 13 30 -16 26 -82 43 -157 42 -60 -1 -79 2
-89 15 -12 14 -12 17 3 25 10 6 17 22 17 41 0 35 38 108 56 108 6 0 28 18 48
40 68 75 44 121 -99 190 -147 71 -287 104 -342 80z"/>
<path d="M67721 2155 c-35 -8 -72 -22 -82 -31 -25 -23 -24 -75 2 -108 20 -25
21 -35 15 -114 -9 -120 -31 -217 -63 -282 l-28 -55 -147 -5 c-132 -4 -150 -7
-168 -26 -26 -26 -19 -69 13 -78 12 -3 178 -6 370 -6 334 0 348 1 367 20 11
11 20 30 20 43 0 12 15 97 34 189 19 91 37 196 41 232 4 36 14 71 21 77 19 15
18 79 -1 106 -9 13 -39 29 -67 38 -65 19 -238 19 -327 0z"/>
<path d="M83965 2154 c-11 -3 -44 -10 -72 -15 -29 -6 -60 -17 -68 -25 -22 -23
-19 -86 6 -118 19 -24 20 -35 15 -94 -11 -107 -36 -234 -55 -277 -32 -74 -36
-75 -190 -75 -131 0 -139 -1 -159 -23 -27 -29 -28 -63 -3 -77 26 -13 715 -14
740 0 14 7 23 35 36 107 9 54 28 147 41 207 13 60 24 131 24 158 0 35 6 58 20
75 37 48 20 109 -38 138 -28 14 -66 19 -157 21 -66 2 -129 1 -140 -2z"/>
<path d="M22518 2139 c-15 -8 -18 -25 -18 -100 0 -77 -4 -98 -29 -154 -16 -35
-40 -79 -54 -97 -13 -18 -28 -50 -31 -71 -4 -21 -16 -58 -26 -82 l-19 -45 52
-1 c183 -2 636 20 660 33 10 5 17 17 15 26 -6 30 -58 47 -147 48 -66 1 -86 5
-93 18 -6 12 -5 18 6 22 9 3 16 15 16 27 0 25 48 109 59 103 5 -3 27 12 50 33
73 68 52 105 -100 175 -134 62 -294 93 -341 65z"/>
<path d="M38658 2139 c-15 -8 -18 -25 -18 -95 0 -94 -27 -178 -80 -244 -15
-20 -32 -59 -39 -88 -6 -29 -18 -66 -26 -82 -19 -37 -19 -37 10 -44 37 -9 663
22 687 35 59 32 -38 82 -143 74 -56 -5 -68 -3 -82 13 -17 19 -17 20 3 25 14 4
20 13 20 34 0 28 44 105 58 101 24 -7 92 68 92 101 0 21 -48 55 -135 97 -143
68 -299 101 -347 73z"/>
<path d="M54795 2143 c-34 -9 -38 -20 -40 -110 -2 -78 -6 -97 -37 -163 -19
-41 -45 -84 -56 -94 -14 -12 -22 -31 -22 -50 0 -17 -11 -57 -24 -88 l-24 -58
117 1 c208 1 574 24 599 38 54 29 -10 64 -128 69 -80 4 -110 13 -110 33 0 5 7
9 15 9 9 0 15 9 15 22 0 28 47 108 64 108 7 0 29 16 49 35 54 52 51 84 -11
123 -116 75 -337 143 -407 125z"/>
<path d="M102952 2108 c-8 -8 -12 -48 -12 -113 0 -114 -28 -220 -75 -281 -14
-18 -25 -43 -25 -56 0 -21 -10 -66 -36 -157 l-7 -24 189 6 c286 11 524 33 542
51 22 22 7 45 -45 68 -38 17 -59 20 -115 15 -60 -5 -69 -4 -78 14 -9 15 -7 19
5 19 10 0 15 10 15 28 1 44 36 109 68 126 35 18 68 60 77 99 14 52 -77 115
-257 178 -118 41 -221 52 -246 27z"/>
<path d="M119082 2108 c-8 -8 -12 -48 -12 -113 0 -114 -28 -220 -75 -281 -14
-18 -25 -43 -25 -56 0 -21 -10 -66 -36 -157 l-7 -24 189 6 c286 11 524 33 542
51 22 22 7 45 -45 68 -38 17 -59 20 -115 15 -60 -5 -69 -4 -78 14 -9 15 -7 19
5 19 10 0 15 10 15 28 1 44 36 109 68 126 35 18 68 60 77 99 14 52 -77 115
-257 178 -118 41 -221 52 -246 27z"/>
<path d="M135212 2108 c-8 -8 -12 -48 -12 -113 0 -114 -28 -220 -75 -281 -14
-18 -25 -43 -25 -56 0 -21 -10 -66 -36 -157 l-7 -24 189 6 c286 11 524 33 542
51 22 22 7 45 -45 68 -38 17 -59 20 -115 15 -60 -5 -69 -4 -78 14 -9 15 -7 19
5 19 10 0 15 10 15 28 1 44 36 109 68 126 35 18 68 60 77 99 14 52 -77 115
-257 178 -118 41 -221 52 -246 27z"/>
<path d="M151342 2108 c-8 -8 -12 -48 -12 -113 0 -114 -28 -220 -75 -281 -14
-18 -25 -43 -25 -56 0 -21 -10 -66 -36 -157 l-7 -24 189 6 c286 11 524 33 542
51 22 22 7 45 -45 68 -38 17 -59 20 -115 15 -60 -5 -69 -4 -78 14 -9 15 -7 19
5 19 10 0 15 10 15 28 1 44 36 109 68 126 35 18 68 60 77 99 14 52 -77 115
-257 178 -118 41 -221 52 -246 27z"/>
<path d="M6257 2090 c-79 -13 -123 -35 -138 -72 -10 -26 -10 -35 2 -57 8 -14
25 -30 37 -36 16 -7 22 -18 22 -44 0 -26 45 -268 75 -408 9 -38 56 -42 395
-35 l315 7 3 29 c3 22 -3 34 -20 47 -20 15 -38 17 -133 13 -81 -4 -117 -2
-135 8 -33 18 -66 101 -85 219 -19 121 -19 178 1 219 24 47 10 81 -40 98 -51
16 -226 23 -299 12z"/>
<path d="M100004 2073 c-32 -7 -65 -21 -71 -30 -19 -25 -16 -63 8 -102 20 -33
20 -40 10 -161 -13 -157 -26 -220 -55 -262 l-22 -33 -123 -8 c-91 -5 -129 -12
-147 -25 -29 -21 -30 -46 -3 -73 18 -18 28 -20 97 -14 42 3 185 10 317 15 132
5 252 13 267 19 20 7 28 19 32 43 22 136 56 399 56 428 0 27 5 38 22 45 31 14
44 65 27 101 -27 56 -69 69 -220 70 -79 0 -160 -5 -195 -13z"/>
<path d="M116134 2073 c-32 -7 -65 -21 -71 -30 -19 -25 -16 -63 8 -102 20 -33
20 -40 10 -161 -13 -157 -26 -220 -55 -262 l-22 -33 -123 -8 c-91 -5 -129 -12
-147 -25 -29 -21 -30 -46 -3 -73 18 -18 28 -20 97 -14 42 3 185 10 317 15 132
5 252 13 267 19 20 7 28 19 32 43 22 136 56 399 56 428 0 27 5 38 22 45 31 14
44 65 27 101 -27 56 -69 69 -220 70 -79 0 -160 -5 -195 -13z"/>
<path d="M132264 2073 c-32 -7 -65 -21 -71 -30 -19 -25 -16 -63 8 -102 20 -33
20 -40 10 -161 -13 -157 -26 -220 -55 -262 l-22 -33 -123 -8 c-91 -5 -129 -12
-147 -25 -29 -21 -30 -46 -3 -73 18 -18 28 -20 97 -14 42 3 185 10 317 15 132
5 252 13 267 19 20 7 28 19 32 43 22 136 56 399 56 428 0 27 5 38 22 45 31 14
44 65 27 101 -27 56 -69 69 -220 70 -79 0 -160 -5 -195 -13z"/>
<path d="M148394 2073 c-32 -7 -65 -21 -71 -30 -19 -25 -16 -63 8 -102 20 -33
20 -40 10 -161 -13 -157 -26 -220 -55 -262 l-22 -33 -123 -8 c-91 -5 -129 -12
-147 -25 -29 -21 -30 -46 -3 -73 18 -18 28 -20 97 -14 42 3 185 10 317 15 132
5 252 13 267 19 20 7 28 19 32 43 22 136 56 399 56 428 0 27 5 38 22 45 31 14
44 65 27 101 -27 56 -69 69 -220 70 -79 0 -160 -5 -195 -13z"/>
<path d="M19363 2050 c-64 -15 -77 -44 -47 -102 28 -54 -7 -276 -56 -355 l-20
-33 -123 0 c-107 0 -126 -2 -140 -18 -18 -20 -23 -57 -9 -66 5 -3 149 -6 321
-7 225 -1 316 2 326 11 8 6 19 37 25 68 6 31 22 107 36 169 13 62 24 127 24
145 0 26 6 37 30 50 24 14 30 24 30 52 0 44 -32 70 -101 85 -56 12 -247 13
-296 1z"/>
<path d="M35508 2051 c-20 -4 -44 -13 -52 -21 -20 -16 -20 -59 -1 -87 28 -40
-20 -309 -64 -365 -18 -22 -25 -23 -140 -23 -110 0 -122 -2 -142 -21 -17 -18
-19 -25 -10 -43 11 -20 19 -21 234 -23 388 -5 405 -4 420 12 14 14 76 292 85
376 3 32 9 44 28 52 30 14 42 58 23 90 -22 39 -80 54 -219 58 -69 1 -142 -1
-162 -5z"/>
<path d="M51657 2050 c-100 -12 -125 -41 -91 -105 13 -24 14 -46 9 -109 -9
-101 -39 -219 -65 -257 l-21 -29 -123 0 c-106 0 -125 -2 -139 -18 -22 -25 -21
-49 2 -62 31 -16 612 -14 635 3 17 13 70 236 84 360 6 48 11 60 32 70 20 10
26 21 28 54 3 46 -14 65 -78 83 -50 14 -196 20 -273 10z"/>
<path d="M3215 2015 c-72 -20 -243 -107 -292 -150 -24 -20 -43 -45 -43 -56 0
-24 67 -99 89 -99 22 -1 71 -72 71 -105 0 -18 6 -29 19 -32 17 -4 18 -8 8 -24
-10 -15 -24 -19 -74 -19 -68 0 -149 -28 -160 -56 -4 -11 1 -22 13 -31 16 -13
66 -14 329 -9 171 4 327 10 347 13 l37 5 -24 47 c-13 26 -27 65 -31 87 -4 22
-22 56 -40 78 -18 21 -47 72 -64 112 -24 59 -30 87 -30 148 0 66 -3 77 -22 90
-27 19 -65 19 -133 1z"/>
<path d="M11318 1698 l-44 -63 -55 -1 c-29 0 -60 -1 -66 -2 -7 -1 -28 -33 -47
-70 -36 -72 -81 -132 -98 -132 -6 0 -23 11 -40 25 -65 55 -110 42 -243 -71
-148 -125 -291 -206 -622 -354 -90 -40 -163 -76 -163 -81 0 -23 37 -10 251 89
268 124 396 196 504 284 172 142 199 156 238 120 33 -30 66 -44 87 -37 29 9
78 70 113 141 l31 63 56 -6 c55 -5 56 -5 89 32 18 21 37 48 43 61 15 32 20 30
43 -13 36 -67 144 -206 223 -287 225 -231 480 -365 771 -406 50 -7 78 -7 85 0
5 5 8 12 5 14 -2 3 -51 12 -107 20 -356 53 -693 282 -917 621 -42 63 -80 115
-85 115 -5 0 -28 -28 -52 -62z"/>
<path d="M27476 1753 c-4 -4 -15 -26 -25 -49 -20 -44 -23 -45 -121 -59 -25 -3
-52 -11 -61 -18 -18 -14 -43 -60 -52 -97 -8 -32 -64 -100 -82 -100 -8 0 -22
12 -32 26 -23 36 -57 47 -96 30 -18 -7 -80 -49 -139 -94 -59 -44 -144 -103
-190 -130 -105 -63 -349 -185 -495 -247 -106 -45 -124 -57 -105 -69 12 -7 277
110 445 196 144 75 289 167 403 257 34 26 76 53 93 59 28 10 34 9 49 -9 34
-41 44 -49 64 -49 33 0 102 79 117 133 18 61 38 78 108 86 76 9 101 24 122 73
l17 41 20 -31 c37 -58 247 -284 348 -374 249 -221 472 -328 683 -328 67 0 83
3 83 15 0 12 -16 15 -83 15 -210 0 -431 110 -688 341 -79 71 -267 276 -320
348 -30 39 -47 49 -63 34z"/>
<path d="M79352 1479 c-34 -63 -53 -76 -127 -87 -80 -13 -107 -35 -125 -102
-6 -22 -28 -59 -51 -82 l-40 -42 -35 38 c-32 35 -39 38 -72 32 -21 -3 -67 -27
-107 -56 -251 -179 -391 -258 -690 -386 -173 -75 -224 -104 -181 -104 9 0 78
27 155 59 302 130 519 248 676 367 85 65 134 94 159 94 9 0 25 -13 37 -30 12
-16 28 -31 36 -34 39 -16 123 66 144 141 15 55 37 70 116 79 68 7 108 34 119
81 4 12 9 23 13 23 3 0 22 -22 41 -48 57 -76 338 -354 430 -424 180 -137 341
-216 500 -244 101 -17 191 -16 198 4 3 9 -14 12 -60 12 -202 1 -403 84 -625
256 -102 79 -332 306 -417 412 -32 39 -62 72 -68 72 -5 0 -17 -14 -26 -31z"/>
<path d="M14698 1462 c-8 -9 -30 -39 -48 -65 -32 -48 -32 -49 -84 -47 -28 2
-57 2 -63 1 -7 0 -26 -27 -42 -58 -41 -82 -88 -143 -109 -143 -10 0 -29 11
-41 24 -51 54 -109 38 -231 -63 -161 -136 -277 -203 -605 -351 -189 -86 -207
-96 -184 -105 15 -6 383 158 509 227 105 58 193 117 275 185 144 121 166 129
218 84 19 -17 44 -31 55 -31 34 0 78 46 120 128 l41 79 56 -5 c63 -5 72 0 120
71 l33 48 32 -55 c51 -90 161 -225 256 -316 201 -190 433 -312 678 -355 110
-19 136 -19 136 -1 0 9 -18 16 -57 21 -389 46 -737 276 -976 647 -31 47 -60
89 -65 92 -5 3 -16 -2 -24 -12z"/>
<path d="M46955 1439 c-24 -52 -45 -65 -117 -74 -71 -8 -93 -25 -117 -92 -23
-64 -55 -110 -83 -119 -16 -5 -26 1 -45 25 -45 57 -87 44 -238 -74 -142 -111
-393 -250 -640 -355 -140 -59 -159 -70 -147 -82 21 -21 490 201 667 316 50 32
111 75 136 96 66 55 140 100 164 100 12 0 31 -13 43 -30 32 -42 66 -40 112 8
20 22 46 65 58 100 21 56 26 62 60 72 20 5 49 10 64 10 44 0 77 21 95 61 10
21 21 37 24 36 3 -1 34 -36 68 -77 86 -104 291 -309 381 -383 210 -170 405
-256 592 -260 47 -1 90 1 93 5 18 18 -13 28 -88 28 -45 0 -111 7 -147 16 -90
21 -247 99 -355 175 -100 71 -366 329 -470 457 -37 45 -72 82 -79 82 -7 0 -21
-18 -31 -41z"/>
<path d="M30806 1438 c-9 -12 -16 -28 -16 -35 0 -29 -38 -51 -99 -58 -78 -9
-113 -36 -131 -101 -8 -28 -29 -63 -53 -88 l-39 -41 -30 38 c-47 58 -93 47
-218 -53 -152 -122 -397 -259 -672 -376 -76 -33 -138 -65 -138 -71 0 -19 9
-17 132 36 286 124 468 221 618 331 161 118 194 140 214 140 11 0 34 -16 52
-35 36 -39 51 -39 97 4 31 28 67 91 67 116 0 33 45 63 106 70 73 9 101 26 121
73 l15 36 21 -29 c70 -97 307 -341 422 -434 147 -120 313 -212 440 -245 76
-19 195 -31 230 -22 41 11 25 31 -23 28 -108 -8 -277 37 -410 110 -165 90
-398 298 -584 521 -50 59 -94 107 -99 107 -4 0 -15 -10 -23 -22z"/>
<path d="M63063 1418 c-6 -7 -18 -30 -28 -51 -18 -38 -23 -41 -104 -52 -72
-10 -97 -28 -116 -87 -21 -63 -57 -114 -86 -123 -17 -6 -27 0 -46 24 -44 56
-100 37 -249 -84 -113 -92 -409 -254 -649 -355 -133 -56 -139 -60 -127 -72 22
-22 508 209 683 325 52 34 120 84 152 110 104 85 143 95 177 47 50 -70 126
-11 181 137 12 34 52 53 112 53 45 0 84 26 98 65 7 19 16 35 19 35 3 0 24 -24
45 -52 66 -88 395 -409 480 -470 105 -74 232 -141 320 -168 87 -26 205 -42
257 -34 65 11 38 28 -48 31 -44 1 -112 9 -150 18 -93 21 -249 98 -359 176
-100 71 -366 329 -470 457 -37 45 -70 82 -75 82 -4 0 -12 -6 -17 -12z"/>
<path d="M64507 778 c-10 -513 -9 -778 3 -778 7 0 10 195 10 565 0 311 -2 565
-3 565 -2 0 -7 -159 -10 -352z"/>
<path d="M76275 1041 c-26 -53 -32 -56 -110 -67 -81 -11 -101 -26 -126 -94
-15 -41 -35 -72 -61 -96 l-40 -36 -30 36 c-47 57 -92 46 -221 -53 -36 -28
-101 -74 -144 -102 -98 -64 -408 -219 -570 -284 -68 -28 -123 -56 -123 -62 0
-20 14 -16 144 38 293 123 531 251 686 368 95 72 143 101 165 101 10 0 33 -16
50 -34 25 -27 37 -34 55 -29 38 10 96 78 119 142 24 65 28 68 109 77 69 8 96
23 120 69 l18 36 73 -85 c99 -116 320 -328 414 -399 202 -152 365 -223 558
-242 71 -8 132 1 127 17 -2 5 -46 11 -98 13 -208 7 -413 102 -646 298 -101 85
-315 303 -377 385 -22 28 -46 52 -53 52 -8 0 -25 -22 -39 -49z"/>
<path d="M43992 1048 c-5 -7 -17 -29 -25 -50 -16 -38 -21 -40 -119 -53 -57 -7
-92 -39 -107 -99 -11 -47 -67 -116 -93 -116 -8 0 -20 11 -27 24 -34 63 -83 51
-216 -49 -55 -42 -139 -101 -188 -131 -103 -64 -356 -192 -514 -259 -69 -29
-113 -53 -113 -62 0 -19 13 -14 177 58 275 121 469 229 610 337 160 123 187
133 223 82 31 -44 64 -40 115 13 26 27 46 61 54 90 17 60 37 76 102 84 74 8
104 26 125 73 17 39 18 39 33 17 32 -48 203 -237 287 -317 276 -265 515 -390
746 -390 72 0 88 3 88 15 0 12 -16 15 -83 15 -207 0 -422 103 -663 318 -101
90 -304 308 -350 376 -26 38 -44 45 -62 24z"/>
<path d="M27819 995 c-23 -53 -35 -60 -111 -69 -72 -9 -102 -33 -123 -97 -20
-59 -68 -119 -96 -119 -10 0 -19 4 -19 8 0 5 -9 18 -20 30 -42 45 -80 29 -258
-105 -146 -110 -435 -265 -679 -364 -46 -18 -83 -39 -83 -46 0 -19 10 -17 127
33 283 120 529 255 684 375 146 113 164 119 201 69 32 -44 66 -40 116 14 23
25 44 57 48 73 18 75 55 103 139 103 39 0 71 22 93 66 l18 35 54 -68 c87 -108
347 -363 443 -435 118 -87 220 -145 321 -179 137 -48 316 -62 316 -26 0 8 -26
12 -83 13 -45 1 -113 9 -152 18 -156 37 -368 168 -556 345 -87 81 -266 278
-308 339 -30 43 -48 40 -72 -13z"/>
<path d="M11664 973 c-39 -57 -41 -58 -89 -59 -28 -1 -57 -2 -65 -3 -9 -1 -33
-34 -54 -73 -42 -81 -81 -128 -106 -128 -9 0 -27 11 -39 24 -52 56 -104 39
-241 -76 -144 -120 -267 -192 -567 -328 -192 -87 -223 -104 -210 -116 16 -16
522 227 652 313 50 33 119 86 155 118 109 96 142 107 195 65 21 -16 47 -30 59
-30 30 0 78 52 123 134 l38 70 56 -3 c52 -2 58 0 85 31 16 18 37 45 47 58 16
24 18 24 30 7 6 -11 32 -50 57 -87 214 -325 552 -555 904 -615 109 -18 126
-19 126 -2 0 10 -26 18 -85 26 -379 53 -746 309 -961 670 -22 36 -43 61 -53
61 -10 0 -35 -26 -57 -57z"/>
<path d="M60086 1003 c-4 -4 -15 -26 -26 -50 -19 -44 -24 -47 -112 -58 -62 -8
-93 -34 -113 -96 -19 -56 -68 -119 -94 -119 -9 0 -24 14 -33 30 -14 25 -23 30
-56 30 -32 0 -54 -10 -113 -55 -236 -174 -461 -301 -756 -425 -62 -26 -103
-49 -103 -57 0 -18 13 -14 160 49 275 119 490 242 709 403 86 65 118 70 144
25 27 -45 61 -40 114 15 28 29 47 60 54 89 15 60 33 74 113 85 75 11 100 27
116 77 l11 33 62 -77 c89 -110 318 -338 418 -415 210 -162 391 -237 571 -237
72 0 88 3 88 15 0 12 -16 15 -83 15 -203 0 -401 93 -640 299 -107 93 -286 281
-360 378 -38 51 -55 62 -71 46z"/>
</g>
</svg>
