<?xml version="1.0" encoding="UTF-8" standalone="no"?>
<!-- Created with Inkscape (http://www.inkscape.org/) -->

<svg
   width="800px"
   height="800px"
   viewBox="0 0 800 800"
   version="1.1"
   id="SVGRoot"
   sodipodi:docname="colgate.svg"
   inkscape:version="1.1.2 (0a00cf5339, 2022-02-04)"
   xmlns:inkscape="http://www.inkscape.org/namespaces/inkscape"
   xmlns:sodipodi="http://sodipodi.sourceforge.net/DTD/sodipodi-0.dtd"
   xmlns="http://www.w3.org/2000/svg"
   xmlns:svg="http://www.w3.org/2000/svg">
  <sodipodi:namedview
     id="namedview1227"
     pagecolor="#505050"
     bordercolor="#eeeeee"
     borderopacity="1"
     inkscape:pageshadow="0"
     inkscape:pageopacity="0"
     inkscape:pagecheckerboard="0"
     inkscape:document-units="px"
     showgrid="false"
     inkscape:zoom="0.5"
     inkscape:cx="396"
     inkscape:cy="496"
     inkscape:window-width="1920"
     inkscape:window-height="1020"
     inkscape:window-x="0"
     inkscape:window-y="0"
     inkscape:window-maximized="1"
     inkscape:current-layer="layer2"
     inkscape:snap-global="true"
     showguides="false" />
  <defs
     id="defs1222">
    <linearGradient
       id="linearGradient1997"
       inkscape:swatch="solid">
      <stop
         style="stop-color:#ff54c4;stop-opacity:1;"
         offset="0"
         id="stop1995" />
    </linearGradient>
  </defs>
  <g
     inkscape:groupmode="layer"
     id="layer2"
     inkscape:label="Capa 2">
    <path
       style="fill:#ffb698;fill-opacity:1;fill-rule:evenodd;stroke:none;stroke-width:0.0425893;stroke-linecap:round;stroke-linejoin:round;stroke-miterlimit:4;stroke-dasharray:none;stroke-opacity:1"
       d=""
       id="path201103" />
    <path
       style="fill:#ffb698;fill-opacity:1;fill-rule:evenodd;stroke:none;stroke-width:0.0425893;stroke-linecap:round;stroke-linejoin:round;stroke-miterlimit:4;stroke-dasharray:none;stroke-opacity:1"
       d=""
       id="path201142" />
    <path
       style="fill:#ffb698;fill-opacity:1;fill-rule:evenodd;stroke:none;stroke-width:0.0425893;stroke-linecap:round;stroke-linejoin:round;stroke-miterlimit:4;stroke-dasharray:none;stroke-opacity:1"
       d=""
       id="path201181" />
    <path
       style="fill:#ffb698;fill-opacity:1;fill-rule:evenodd;stroke:none;stroke-width:0.0425893;stroke-linecap:round;stroke-linejoin:round;stroke-miterlimit:4;stroke-dasharray:none;stroke-opacity:1"
       d=""
       id="path201220" />
    <path
       style="fill:#ffb698;fill-opacity:1;fill-rule:evenodd;stroke:none;stroke-width:0.0425893;stroke-linecap:round;stroke-linejoin:round;stroke-miterlimit:4;stroke-dasharray:none;stroke-opacity:1"
       d=""
       id="path201259" />
    <path
       style="fill:#ffb698;fill-opacity:1;fill-rule:evenodd;stroke:none;stroke-width:0.0425893;stroke-linecap:round;stroke-linejoin:round;stroke-miterlimit:4;stroke-dasharray:none;stroke-opacity:1"
       d=""
       id="path201337" />
    <path
       style="fill:#ffb698;fill-opacity:1;fill-rule:evenodd;stroke:none;stroke-width:0.0425893;stroke-linecap:round;stroke-linejoin:round;stroke-miterlimit:4;stroke-dasharray:none;stroke-opacity:1"
       d=""
       id="path201454" />
    <path
       style="fill:#ffb698;fill-opacity:1;fill-rule:evenodd;stroke:none;stroke-width:0.0425893;stroke-linecap:round;stroke-linejoin:round;stroke-miterlimit:4;stroke-dasharray:none;stroke-opacity:1"
       d=""
       id="path201571" />
    <path
       style="fill:#fab69b;fill-opacity:1;fill-rule:evenodd;stroke:none;stroke-width:0.0106473;stroke-linecap:round;stroke-linejoin:round;stroke-miterlimit:4;stroke-dasharray:none;stroke-opacity:1;paint-order:stroke fill markers"
       d="m 1361.4812,973.54868 c -0.01,-0.005 -0.052,-0.0286 -0.096,-0.0532 -0.071,-0.0395 -0.079,-0.0464 -0.072,-0.0601 0.01,-0.0134 0,-0.0177 -0.03,-0.0323 -0.021,-0.009 -0.043,-0.0168 -0.048,-0.0168 -0.024,0 -0.1043,-0.043 -0.1844,-0.0983 -0.1431,-0.0988 -0.1753,-0.12766 -0.2229,-0.19954 -0.012,-0.0186 -0.025,-0.0376 -0.029,-0.0422 -0.012,-0.0141 -0.073,-0.1464 -0.092,-0.1973 -0.01,-0.0266 -0.025,-0.0943 -0.035,-0.15064 -0.018,-0.10906 -0.015,-0.10394 -0.09,-0.18233 -0.012,-0.013 -0.023,-0.0258 -0.023,-0.0284 0,-0.003 -0.015,-0.0185 -0.034,-0.0354 -0.034,-0.0305 -0.034,-0.0306 -0.066,-0.0192 -0.037,0.013 -0.1172,0.0147 -0.1655,0.003 -0.031,-0.007 -0.053,-0.004 -0.1089,0.0173 -0.012,0.004 -0.033,0.004 -0.055,-0.002 -0.029,-0.007 -0.049,-0.0221 -0.104,-0.08 -0.037,-0.039 -0.088,-0.0939 -0.1117,-0.12196 l -0.044,-0.0511 h 0.069 c 0.057,0 0.076,0.004 0.1114,0.0205 0.023,0.0113 0.046,0.0205 0.05,0.0205 0,0 0.018,0.006 0.031,0.0123 0.017,0.009 0.037,0.0109 0.073,0.007 0.038,-0.004 0.064,-4.4e-4 0.1147,0.0141 0.042,0.0122 0.088,0.019 0.1285,0.0192 l 0.063,2.9e-4 0.031,0.0368 c 0.017,0.0203 0.043,0.0492 0.058,0.0643 0.015,0.0151 0.027,0.0306 0.027,0.0344 0,0.004 0.01,0.01 0.012,0.0137 0.01,0.004 0.02,0.018 0.031,0.0318 0.01,0.0138 0.039,0.048 0.063,0.0761 0.029,0.0325 0.052,0.0695 0.064,0.10169 0.046,0.12086 0.1471,0.30859 0.1668,0.30859 0,0 0.01,0.004 0.01,0.008 0,0.005 0.01,0.0149 0.014,0.023 0.01,0.008 0.029,0.0329 0.047,0.0549 0.018,0.022 0.043,0.0494 0.057,0.0609 0.013,0.0115 0.03,0.0274 0.037,0.0352 0.01,0.008 0.017,0.0143 0.023,0.0143 0.01,0 0.01,0.003 0.01,0.007 0,0.004 0.012,0.0135 0.027,0.0211 0.1142,0.0594 0.1615,0.0901 0.2212,0.14363 0.098,0.0879 0.097,0.0864 0.094,0.1632 0,0.0621 0,0.0647 -0.019,0.0565 z"
       id="path45335" />
    <path
       style="fill:#fab69b;fill-opacity:1;fill-rule:evenodd;stroke:none;stroke-width:0.0106473;stroke-linecap:round;stroke-linejoin:round;stroke-miterlimit:4;stroke-dasharray:none;stroke-opacity:1;paint-order:stroke fill markers"
       d="m 1361.5816,973.59716 c -0.072,-0.035 -0.086,-0.0452 -0.08,-0.0552 0.013,-0.0205 0.01,-0.10009 -0.01,-0.12899 -0.028,-0.0515 -0.1634,-0.15836 -0.2765,-0.21817 -0.066,-0.0349 -0.1111,-0.0719 -0.1669,-0.13675 -0.029,-0.0334 -0.068,-0.0792 -0.088,-0.10169 -0.037,-0.0428 -0.1146,-0.18539 -0.1581,-0.291 -0.023,-0.0564 -0.078,-0.13396 -0.1475,-0.20861 -0.012,-0.0135 -0.05,-0.0559 -0.083,-0.0942 l -0.06,-0.0696 -0.074,-0.005 c -0.041,-0.003 -0.095,-0.0111 -0.119,-0.0184 -0.024,-0.007 -0.073,-0.0133 -0.1075,-0.0133 -0.053,0 -0.074,-0.005 -0.1357,-0.0292 -0.04,-0.0161 -0.076,-0.0327 -0.081,-0.0369 0,-0.004 -0.013,-0.008 -0.019,-0.008 -0.01,0 -0.015,-0.004 -0.021,-0.008 -0.022,-0.0182 -0.093,-0.066 -0.1081,-0.0729 -0.018,-0.008 -0.1004,-0.0975 -0.1477,-0.16047 -0.017,-0.0225 -0.048,-0.0595 -0.069,-0.0821 -0.021,-0.0226 -0.043,-0.0494 -0.048,-0.0594 -0.01,-0.01 -0.016,-0.0182 -0.024,-0.0183 -0.01,-3e-5 -0.025,-0.007 -0.039,-0.0163 -0.014,-0.009 -0.031,-0.0163 -0.038,-0.0163 -0.012,-5e-5 -0.067,-0.0492 -0.061,-0.0551 0,-10e-4 0.024,0.008 0.051,0.0216 0.055,0.0274 0.1361,0.0579 0.1692,0.0639 0.015,0.003 0.029,0.0144 0.04,0.0339 0.019,0.0321 0.093,0.1076 0.1051,0.1076 0,0 0.01,0.005 0.014,0.0106 0.01,0.0102 0.068,0.0494 0.068,0.0432 0,-0.002 -0.014,-0.0168 -0.031,-0.0337 -0.017,-0.0169 -0.039,-0.0419 -0.049,-0.0557 -0.035,-0.0473 -0.018,-0.0413 0.033,0.0118 0.066,0.0687 0.1168,0.10769 0.1577,0.12129 0.018,0.006 0.044,0.0196 0.059,0.0304 0.014,0.0107 0.029,0.0195 0.031,0.0195 0,0 0.011,0.005 0.017,0.0121 0.01,0.007 0.028,0.0162 0.046,0.0213 0.019,0.005 0.038,0.012 0.043,0.0155 0,0.003 0.025,0.009 0.045,0.0116 0.02,0.003 0.072,0.0161 0.1147,0.0292 0.043,0.0131 0.095,0.0262 0.1166,0.029 0.036,0.005 0.044,0.011 0.1074,0.0763 0.1174,0.12203 0.1527,0.15972 0.1527,0.16316 0,0.002 0.016,0.0189 0.035,0.0379 0.086,0.0855 0.1286,0.13548 0.147,0.17333 0.019,0.0395 0.034,0.0685 0.049,0.0941 0,0.007 0.014,0.027 0.023,0.045 0.01,0.018 0.026,0.0475 0.037,0.0655 0.011,0.018 0.023,0.0383 0.026,0.0451 0,0.011 0.032,0.0422 0.08,0.0937 0.029,0.0304 0.1043,0.0908 0.1679,0.13396 0.065,0.0444 0.1536,0.12143 0.2764,0.24152 0.058,0.057 0.076,0.0791 0.076,0.096 0,0.0121 0.01,0.0419 0.015,0.0662 0.012,0.0346 0.028,0.12246 0.023,0.122 -5e-4,-5e-5 -0.041,-0.0194 -0.089,-0.043 z"
       id="path45374" />
    <path
       style="fill:#fab69b;fill-opacity:1;fill-rule:evenodd;stroke:none;stroke-width:0.0106473;stroke-linecap:round;stroke-linejoin:round;stroke-miterlimit:4;stroke-dasharray:none;stroke-opacity:1;paint-order:stroke fill markers"
       d="m 1361.5078,972.52518 c -0.017,-0.0176 -0.031,-0.0349 -0.031,-0.0385 0,-0.004 -0.012,-0.0153 -0.027,-0.0261 -0.029,-0.0214 -0.064,-0.0524 -0.1149,-0.10012 -0.018,-0.0169 -0.036,-0.0307 -0.04,-0.0307 0,0 -0.01,-0.005 -0.01,-0.011 0,-0.0149 -0.1024,-0.12985 -0.2478,-0.27826 -0.021,-0.0218 -0.039,-0.041 -0.039,-0.0425 0,-0.002 -0.016,-0.0188 -0.035,-0.0383 -0.019,-0.0196 -0.061,-0.0646 -0.092,-0.10003 -0.078,-0.0881 -0.1187,-0.12724 -0.1456,-0.14122 -0.012,-0.007 -0.021,-0.015 -0.018,-0.0188 0,-0.004 -7e-4,-0.009 -0.01,-0.0113 -0.01,-0.002 -0.02,-0.0161 -0.03,-0.0305 l -0.019,-0.0262 0.018,0.006 c 0.01,0.003 0.023,0.002 0.03,-0.004 0.01,-0.008 0.019,-0.004 0.05,0.0197 0.1727,0.13453 0.6562,0.62616 0.7575,0.77021 0.036,0.0517 0.039,0.0574 0.026,0.0668 -0.013,0.01 -0.013,0.0119 -10e-5,0.0398 0.018,0.0372 0.01,0.036 -0.029,-0.005 z"
       id="path45413" />
    <path
       style="fill:#fab69b;fill-opacity:1;fill-rule:evenodd;stroke:none;stroke-width:0.0106473;stroke-linecap:round;stroke-linejoin:round;stroke-miterlimit:4;stroke-dasharray:none;stroke-opacity:1;paint-order:stroke fill markers"
       d="m 1362.1865,972.41917 c -0.052,-0.0483 -0.1115,-0.12052 -0.1115,-0.13473 0,-0.005 -0.024,-0.0339 -0.047,-0.0588 -0.01,-0.0107 -0.018,-0.0216 -0.018,-0.0243 0,-0.0155 -0.1335,-0.15787 -0.202,-0.21547 -0.051,-0.0433 -0.2009,-0.12464 -0.23,-0.12534 -0.01,-1.3e-4 -0.01,-0.005 -0.01,-0.0115 0,-0.006 0,-0.0103 -0.01,-0.009 -0.014,0.003 -0.035,-0.015 -0.156,-0.13255 -0.1,-0.0973 -0.1153,-0.11579 -0.1371,-0.16381 -0.028,-0.0623 -0.054,-0.10393 -0.083,-0.13254 -0.042,-0.0415 -0.1418,-0.11892 -0.1625,-0.12552 -0.01,-0.003 -0.016,-0.009 -0.016,-0.0128 0,-0.004 -0.01,-0.008 -0.014,-0.008 -0.01,-10e-5 -0.024,-0.007 -0.035,-0.0162 -0.011,-0.009 -0.026,-0.0162 -0.033,-0.0165 -0.01,-2.4e-4 -0.019,-0.006 -0.028,-0.0125 -0.01,-0.007 -0.021,-0.012 -0.028,-0.012 -0.01,0 -0.031,-0.009 -0.054,-0.0204 -0.023,-0.0112 -0.052,-0.0213 -0.064,-0.0223 -0.032,-0.003 -0.023,-0.0166 0.019,-0.0292 0.092,-0.0274 0.2346,0.0278 0.409,0.15858 0.1256,0.0942 0.1656,0.12876 0.4053,0.35019 0.2946,0.2721 0.3517,0.32838 0.3364,0.33151 -0.017,0.004 -0.017,0.005 0.013,0.0581 0.047,0.0825 0.1675,0.23974 0.2655,0.34489 0.043,0.0459 0.076,0.098 0.062,0.098 0,0 -0.035,-0.0261 -0.07,-0.0581 z"
       id="path45491" />
    <path
       style="fill:#fab69b;fill-opacity:1;fill-rule:evenodd;stroke:none;stroke-width:0.0106473;stroke-linecap:round;stroke-linejoin:round;stroke-miterlimit:4;stroke-dasharray:none;stroke-opacity:1;paint-order:stroke fill markers"
       d="m 1361.8652,972.53055 c -0.019,-0.0111 -0.04,-0.0296 -0.047,-0.0411 -0.01,-0.0115 -0.017,-0.0187 -0.022,-0.0161 0,0.003 -0.01,5.4e-4 -0.01,-0.005 0,-0.005 -0.01,-0.0196 -0.018,-0.032 -0.01,-0.0123 -0.03,-0.0367 -0.043,-0.0542 -0.029,-0.0374 -0.1338,-0.14281 -0.1421,-0.14281 0,0 -0.012,-0.006 -0.02,-0.0143 -0.027,-0.0277 -0.044,-0.043 -0.05,-0.043 0,0 -0.023,-0.012 -0.045,-0.0266 -0.059,-0.0398 -0.069,-0.0463 -0.091,-0.0556 -0.032,-0.0136 -0.1,-0.0742 -0.094,-0.0837 0,-0.005 0,-0.006 0,-0.004 -0.01,0.005 -0.038,-0.0214 -0.031,-0.0282 0,-0.002 -0.011,-0.0198 -0.029,-0.0393 -0.018,-0.0195 -0.032,-0.0367 -0.032,-0.0382 0,-10e-4 -0.01,-0.0112 -0.018,-0.0216 -0.038,-0.0393 -0.1043,-0.11719 -0.1043,-0.12303 -10e-5,-0.008 -0.03,-0.0433 -0.068,-0.081 -0.017,-0.0167 -0.031,-0.0344 -0.031,-0.0392 0,-0.005 0,-0.009 -0.01,-0.009 0,0 -0.026,-0.0184 -0.05,-0.041 -0.024,-0.0225 -0.047,-0.0409 -0.051,-0.0409 0,0 -0.011,-0.007 -0.016,-0.0164 0,-0.009 -0.014,-0.0164 -0.021,-0.0164 -0.01,0 -0.012,-0.003 -0.012,-0.006 -10e-5,-0.003 -0.018,-0.0172 -0.041,-0.0307 -0.022,-0.0135 -0.039,-0.0283 -0.038,-0.0328 0,-0.005 0.018,-0.0131 0.037,-0.0192 0.019,-0.006 0.034,-0.0155 0.034,-0.0209 0,-0.005 -0.017,-0.0225 -0.039,-0.0377 -0.064,-0.0457 0,-0.0401 0.065,0.006 0.012,0.008 0.033,0.0216 0.047,0.0305 0.014,0.009 0.026,0.019 0.026,0.0225 0,0.004 0,0.006 0.01,0.006 0.011,0 0.092,0.0819 0.142,0.14233 0.018,0.022 0.036,0.0441 0.041,0.0492 0.023,0.0266 0.085,0.11003 0.094,0.12787 0.012,0.023 0.1049,0.13364 0.1158,0.13787 0,10e-4 0.01,0.007 0.01,0.0125 0,0.009 0.03,0.0281 0.074,0.046 0.019,0.008 0.052,0.0285 0.1484,0.0935 0.1261,0.0848 0.338,0.27427 0.378,0.33791 0.011,0.0173 0.032,0.0549 0.048,0.0835 l 0.028,0.052 -0.019,0.0156 c -0.026,0.0212 -0.064,0.0195 -0.1044,-0.005 z"
       id="path45530" />
    <path
       style="fill:#fab69b;fill-opacity:1;fill-rule:evenodd;stroke:none;stroke-width:0.0322749;stroke-linecap:round;stroke-linejoin:round;stroke-miterlimit:4;stroke-dasharray:none;stroke-opacity:1;paint-order:stroke fill markers"
       d="m 1353.986,970.85732 c -0.065,-0.004 -0.1179,-0.0176 -0.1179,-0.0299 0,-0.0123 0.042,-0.0405 0.093,-0.0628 0.051,-0.0223 0.1125,-0.0507 0.1362,-0.0632 0.024,-0.0125 0.059,-0.0227 0.078,-0.0227 0.019,0 0.067,-0.0167 0.1058,-0.0371 0.039,-0.0204 0.096,-0.0372 0.127,-0.0372 0.031,-9e-5 0.056,-0.011 0.056,-0.0242 0,-0.0132 0.016,-0.0178 0.036,-0.0102 0.02,0.008 0.062,-0.004 0.092,-0.0256 0.08,-0.0562 0.1188,-0.0474 0.049,0.011 -0.032,0.0268 -0.052,0.0488 -0.043,0.0488 0.05,0 -0.074,0.11899 -0.1524,0.14542 -0.052,0.0174 -0.116,0.0412 -0.1433,0.0528 -0.1066,0.0454 -0.2035,0.0622 -0.3166,0.0549 z"
       id="path45842" />
    <path
       style="fill:#fab69b;fill-opacity:1;fill-rule:evenodd;stroke:none;stroke-width:0.0322749;stroke-linecap:round;stroke-linejoin:round;stroke-miterlimit:4;stroke-dasharray:none;stroke-opacity:1;paint-order:stroke fill markers"
       d="m 1354.7091,970.53903 c 0.01,-0.0372 0.034,-0.0751 0.054,-0.0842 0.02,-0.009 0.062,-0.0305 0.095,-0.0474 0.1726,-0.0902 0.4389,-0.14577 0.6177,-0.12891 0.062,0.006 0.029,0.049 -0.05,0.0653 -0.1343,0.0277 -0.2767,0.0797 -0.4435,0.16177 -0.087,0.0429 -0.1885,0.0832 -0.225,0.0895 -0.062,0.0107 -0.065,0.007 -0.048,-0.0561 z"
       id="path45881" />
    <g
       id="g75288"
       transform="translate(-1.7960025,2.9101867)">
      <g
         id="g74478"
         transform="translate(-20.028639,-176.98541)" />
    </g>
    <g
       id="g81608"
       transform="translate(963.9802,28.38168)" />
    <circle
       id="path49211"
       style="fill:#c8e0e5;stroke:#ba0000"
       cx="225.97897"
       cy="161.1573"
       r="0" />
    <g
       id="g133694">
      <g
         id="g109005"
         transform="matrix(1.2732556,0,0,1.1013336,-86.453231,33.676283)"
         style="stroke-width:0.844467">
        <path
           style="fill:#f9f9f9;fill-opacity:1;stroke:none;stroke-width:0;stroke-linecap:butt;stroke-linejoin:miter;stroke-miterlimit:4;stroke-dasharray:none;stroke-opacity:1"
           d="m 317.19234,124.56223 c 77.87765,8.24876 41.88657,8.95614 114.42724,1.20106 l 42.88185,8.01529 0.78634,0.40968 c 0.37387,0.52112 0.74657,1.04255 1.11808,1.56429 0.0493,0.0689 0.14785,0.13164 0.14754,0.20705 -2.02959,199.07131 17.16237,493.17596 19.4511,525.22231 l -237.95835,0.48607 c 10.30931,-28.83406 13.16314,-391.74397 15.68852,-524.8202 0.009,-0.36998 -0.21283,-0.74285 -0.002,-1.08851 0.15915,-0.26093 0.31868,-0.52165 0.47858,-0.78213 8.84708,-4.8443 29.06825,-7.60376 42.98111,-10.41491 z"
           id="path16280"
           sodipodi:nodetypes="ccccsccccsccc" />
        <path
           style="fill:#f9f9f9;fill-opacity:1;stroke:#000000;stroke-width:0.0844467;stroke-linecap:butt;stroke-linejoin:miter;stroke-miterlimit:4;stroke-dasharray:none;stroke-opacity:1"
           d="m 317.06734,124.24206 c 69.40301,8.52705 55.35503,7.96556 114.55224,1.52123 l 43.66819,8.42497 c 3.73084,2.36023 -2.49642,4.39525 -14.76487,6.02534 -18.9985,2.52429 -25.08496,6.53266 -85.52622,6.72178 -38.3653,0.12014 -77.0329,-3.3703 -93.25669,-6.82712 -6.42568,-1.36913 -9.39045,-3.07024 -7.52876,-5.13112 1.25482,-2.78099 28.95524,-7.80629 42.85611,-10.73508 z"
           id="path18181"
           sodipodi:nodetypes="cccssscc" />
      </g>
      <g
         id="g35654"
         style="stroke-width:0.431656"
         transform="matrix(2.4424606,0,0,2.1973382,-477.81877,-358.63005)">
        <g
           id="g35628"
           style="stroke-width:0.431656">
          <path
             style="fill:#fff2f2;fill-opacity:1;fill-rule:evenodd;stroke:#000000;stroke-width:0;stroke-linecap:square;stroke-linejoin:round;stroke-miterlimit:4;stroke-dasharray:none;paint-order:markers fill stroke"
             id="path2498"
             sodipodi:type="arc"
             sodipodi:cx="356.58859"
             sodipodi:cy="174.85603"
             sodipodi:rx="30.844976"
             sodipodi:ry="3.0282733"
             sodipodi:start="6.1987812"
             sodipodi:end="6.17775"
             sodipodi:open="true"
             sodipodi:arc-type="chord"
             d="m 387.32376,174.60074 a 30.844976,3.0282733 0 0 1 -27.97325,3.2714 30.844976,3.0282733 0 0 1 -33.46805,-2.7291 30.844976,3.0282733 0 0 1 27.62133,-3.3001 30.844976,3.0282733 0 0 1 33.75849,2.6944 z" />
          <path
             style="fill:none;stroke:#000000;stroke-width:0.129497;stroke-linecap:round;stroke-linejoin:miter;stroke-miterlimit:4;stroke-dasharray:none;stroke-opacity:1"
             d="m 325.39982,174.09809 c 19.53558,-4.09609 45.73228,-3.06824 61.95628,-0.0806"
             id="path2066"
             sodipodi:nodetypes="cc" />
          <g
             id="g32172"
             transform="translate(-60.749233,-9.9482168)"
             style="fill:#e9e9e9;fill-opacity:1;stroke-width:0.431656">
            <path
               style="fill:#e9e9e9;fill-opacity:1;stroke:#000000;stroke-width:0;stroke-linecap:butt;stroke-linejoin:miter;stroke-miterlimit:4;stroke-dasharray:none;stroke-opacity:1"
               d="m 416.75967,183.34223 -3.29275,2.42917 -0.20202,5.93735 c 3.33212,0.6278 4.39002,0.47668 7.1271,0.1104 l -0.11384,-6.02013 z"
               id="path27039"
               sodipodi:nodetypes="cccccc" />
            <path
               style="fill:#e9e9e9;fill-opacity:1;stroke:#000000;stroke-width:0.0215828;stroke-linecap:round;stroke-linejoin:miter;stroke-miterlimit:4;stroke-dasharray:none;stroke-opacity:1"
               d="m 413.47638,185.78298 c 2.27112,0.28525 4.50105,0.14773 6.77502,0.0317"
               id="path31902"
               sodipodi:nodetypes="cc" />
          </g>
          <path
             style="fill:#fff2f2;fill-opacity:1;stroke:#000000;stroke-width:0;stroke-linecap:butt;stroke-linejoin:miter;stroke-miterlimit:4;stroke-dasharray:none;stroke-opacity:1"
             d="m 325.36743,174.05271 c -0.0587,22.24262 -0.15578,44.519 0.11776,66.4702 9.22231,3.75656 41.69102,6.65786 59.75238,1.04831 2.19073,-22.93202 0.92808,-45.03016 2.25942,-67.54186 -19.7099,3.01168 -44.77582,2.87176 -62.1296,0.0233 z"
             id="path1100"
             sodipodi:nodetypes="cccccc" />
          <path
             style="fill:none;stroke:#bfbfbf;stroke-width:0.215828;stroke-linecap:butt;stroke-linejoin:miter;stroke-miterlimit:4;stroke-dasharray:none;stroke-opacity:1"
             d="m 328.41335,174.46805 c 0.27835,22.97535 0.4475,45.64597 -0.63598,66.80246"
             id="path4646"
             sodipodi:nodetypes="cc" />
          <path
             style="fill:none;stroke:#bfbfbf;stroke-width:0.215828;stroke-linecap:butt;stroke-linejoin:miter;stroke-miterlimit:4;stroke-dasharray:none;stroke-opacity:1"
             d="m 371.16622,175.87957 c 0.27835,23.35092 0.46323,46.57498 -0.62025,68.07731"
             id="path4646-3"
             sodipodi:nodetypes="cc" />
          <path
             style="fill:none;stroke:#bfbfbf;stroke-width:0.215828;stroke-linecap:butt;stroke-linejoin:miter;stroke-miterlimit:4;stroke-dasharray:none;stroke-opacity:1"
             d="m 378.75823,175.41623 c 0.27835,23.23062 0.46323,46.33503 -0.62025,67.72658"
             id="path4646-6"
             sodipodi:nodetypes="cc" />
          <path
             style="fill:none;stroke:#bfbfbf;stroke-width:0.215828;stroke-linecap:butt;stroke-linejoin:miter;stroke-miterlimit:4;stroke-dasharray:none;stroke-opacity:1"
             d="m 383.08767,174.74574 c 0.27835,22.97535 0.46323,46.15761 -0.62025,67.3141"
             id="path4646-7"
             sodipodi:nodetypes="cc" />
          <path
             style="fill:none;stroke:#bfbfbf;stroke-width:0.215828;stroke-linecap:butt;stroke-linejoin:miter;stroke-miterlimit:4;stroke-dasharray:none;stroke-opacity:1"
             d="m 374.85844,175.75561 c 0.27835,23.29751 0.54607,46.64628 -0.53741,68.09943"
             id="path4646-5"
             sodipodi:nodetypes="cc" />
          <path
             style="fill:none;stroke:#bfbfbf;stroke-width:0.215828;stroke-linecap:butt;stroke-linejoin:miter;stroke-miterlimit:4;stroke-dasharray:none;stroke-opacity:1"
             d="m 338.37229,175.48763 c 0.27835,23.35092 0.49638,46.36089 -0.5871,67.86322"
             id="path4646-3-3"
             sodipodi:nodetypes="cc" />
          <path
             style="fill:none;stroke:#bfbfbf;stroke-width:0.215828;stroke-linecap:butt;stroke-linejoin:miter;stroke-miterlimit:4;stroke-dasharray:none;stroke-opacity:1"
             d="m 331.8341,174.89427 c 0.27835,23.23062 0.51327,45.81227 -0.57021,67.20382"
             id="path4646-6-6"
             sodipodi:nodetypes="cc" />
          <path
             style="fill:none;stroke:#bfbfbf;stroke-width:0.215828;stroke-linecap:butt;stroke-linejoin:miter;stroke-miterlimit:4;stroke-dasharray:none;stroke-opacity:1"
             d="m 335.33725,175.47499 c 0.27835,22.97535 0.43237,45.9842 -0.65111,67.14069"
             id="path4646-7-26"
             sodipodi:nodetypes="cc" />
          <path
             style="fill:none;stroke:#bfbfbf;stroke-width:0.215828;stroke-linecap:butt;stroke-linejoin:miter;stroke-miterlimit:4;stroke-dasharray:none;stroke-opacity:1"
             d="m 346.69198,176.19679 c 0.27835,23.23062 0.45117,46.63191 -0.63231,68.02346"
             id="path4646-6-5"
             sodipodi:nodetypes="cc" />
          <path
             style="fill:none;stroke:#bfbfbf;stroke-width:0.215828;stroke-linecap:butt;stroke-linejoin:miter;stroke-miterlimit:4;stroke-dasharray:none;stroke-opacity:1"
             d="m 351.00985,176.46063 c 0.27835,23.53923 0.53586,46.65765 -0.54762,68.33338"
             id="path4646-7-6"
             sodipodi:nodetypes="cc" />
          <path
             style="fill:none;stroke:#bfbfbf;stroke-width:0.215828;stroke-linecap:butt;stroke-linejoin:miter;stroke-miterlimit:4;stroke-dasharray:none;stroke-opacity:1"
             d="m 342.37436,176.09352 c 0.27835,23.29751 0.37096,46.17242 -0.71252,67.62557"
             id="path4646-5-2"
             sodipodi:nodetypes="cc" />
          <path
             style="fill:none;stroke:#bfbfbf;stroke-width:0.215828;stroke-linecap:butt;stroke-linejoin:miter;stroke-miterlimit:4;stroke-dasharray:none;stroke-opacity:1"
             d="m 354.761,176.44727 c 0.27835,23.35092 0.46323,46.57498 -0.62025,68.07731"
             id="path4646-3-9"
             sodipodi:nodetypes="cc" />
          <path
             style="fill:none;stroke:#bfbfbf;stroke-width:0.215828;stroke-linecap:butt;stroke-linejoin:miter;stroke-miterlimit:4;stroke-dasharray:none;stroke-opacity:1"
             d="m 362.93569,176.41634 c 0.27835,23.64855 0.35667,46.7438 -0.72681,68.5202"
             id="path4646-6-1"
             sodipodi:nodetypes="cc" />
          <path
             style="fill:none;stroke:#bfbfbf;stroke-width:0.215828;stroke-linecap:butt;stroke-linejoin:miter;stroke-miterlimit:4;stroke-dasharray:none;stroke-opacity:1"
             d="m 366.95796,176.21799 c 0.27835,23.29966 0.55518,46.76234 -0.5283,68.21747"
             id="path4646-7-2"
             sodipodi:nodetypes="cc" />
          <path
             style="fill:none;stroke:#bfbfbf;stroke-width:0.215828;stroke-linecap:butt;stroke-linejoin:miter;stroke-miterlimit:4;stroke-dasharray:none;stroke-opacity:1"
             d="m 359.03297,176.73769 c 0.27835,23.29751 0.46323,46.46843 -0.62025,67.92158"
             id="path4646-5-7"
             sodipodi:nodetypes="cc" />
          <path
             style="fill:none;stroke:#000000;stroke-width:0.172663;stroke-linecap:round;stroke-linejoin:miter;stroke-miterlimit:4;stroke-dasharray:none;stroke-opacity:1"
             d="m 325.44786,174.13903 c 22.90697,3.23788 40.44478,3.25092 61.87014,-0.0528"
             id="path6984"
             sodipodi:nodetypes="cc" />
        </g>
        <path
           style="fill:#f9f9f9;fill-opacity:1;stroke:#000000;stroke-width:0.0431656;stroke-linecap:butt;stroke-linejoin:miter;stroke-miterlimit:4;stroke-dasharray:none;stroke-opacity:1"
           d="m 325.49111,236.32718 c -0.10781,1.57729 -0.0494,3.55193 0.0597,4.4039 21.15266,5.6469 42.086,5.73118 60.07444,0.7809 -0.26811,-1.58446 -0.21343,-2.81693 0.0129,-4.40139 -20.02165,4.82419 -42.28556,2.07383 -60.14704,-0.78341 z"
           id="path9740"
           sodipodi:nodetypes="ccccc" />
      </g>
      <path
         style="fill:#f0b0b0;stroke:#000000;stroke-width:1px;stroke-linecap:butt;stroke-linejoin:miter;stroke-opacity:1;fill-opacity:1"
         d="m 271.44556,210.90973 c 72.73429,10.93608 159.71566,11.78579 237.30255,2.06861 -11.27509,175.93493 -6.4688,374.04758 11.9519,527.64928 -82.24507,-7.08027 -185.09982,-5.78412 -253.43432,1.11054 13.08464,-193.57612 15.61544,-341.69648 4.17987,-530.82843 z"
         id="path109097"
         sodipodi:nodetypes="ccccc" />
      <path
         style="fill:#a3e1d7;stroke:#000000;stroke-width:1px;stroke-linecap:butt;stroke-linejoin:miter;stroke-opacity:1;fill-opacity:1"
         d="m 278.23685,523.03388 c 15.80416,-1.11347 19.56071,-0.35745 27.20288,4.49521 13.37093,9.82591 16.34143,14.10175 17.82895,29.27163 0.18928,47.18565 18.90379,72.34666 57.21239,80.65237 49.63048,9.56171 80.03077,54.68746 83.32246,100.10465 -66.8926,-3.67292 -130.24598,-1.36858 -196.53784,4.18042 4.44783,-62.30293 8.78229,-145.75204 10.97116,-218.70428 z"
         id="path110272"
         sodipodi:nodetypes="ccccccc" />
      <text
         xml:space="preserve"
         style="font-size:64.6237px;line-height:1.25;font-family:C059;-inkscape-font-specification:'C059, Normal';stroke-width:1"
         x="327.62814"
         y="284.6275"
         id="text121586"
         transform="scale(0.86254656,1.1593577)"><tspan
           sodipodi:role="line"
           x="327.62814"
           y="284.6275"
           id="tspan121592"
           style="stroke-width:1">CREMA</tspan></text>
      <text
         xml:space="preserve"
         style="font-size:49.95px;line-height:1.25;font-family:C059;-inkscape-font-specification:'C059, Normal';stroke-width:1"
         x="337.73697"
         y="344.49738"
         id="text129630"
         transform="scale(0.8730589,1.1453981)"><tspan
           sodipodi:role="line"
           id="tspan129628"
           x="337.73697"
           y="344.49738"
           style="stroke-width:1">DENTAL</tspan></text>
    </g>
  </g>
  <g
     inkscape:label="Capa 1"
     inkscape:groupmode="layer"
     id="layer1" />
</svg>
