<?xml version="1.0" encoding="UTF-8" standalone="no"?>
<!-- Created with Inkscape (http://www.inkscape.org/) -->

<svg
   width="800px"
   height="800px"
   viewBox="0 0 800 800"
   version="1.1"
   id="SVGRoot"
   sodipodi:docname="Desodorante.svg"
   inkscape:version="1.1.2 (0a00cf5339, 2022-02-04)"
   xmlns:inkscape="http://www.inkscape.org/namespaces/inkscape"
   xmlns:sodipodi="http://sodipodi.sourceforge.net/DTD/sodipodi-0.dtd"
   xmlns="http://www.w3.org/2000/svg"
   xmlns:svg="http://www.w3.org/2000/svg">
  <sodipodi:namedview
     id="namedview1227"
     pagecolor="#505050"
     bordercolor="#eeeeee"
     borderopacity="1"
     inkscape:pageshadow="0"
     inkscape:pageopacity="0"
     inkscape:pagecheckerboard="0"
     inkscape:document-units="px"
     showgrid="false"
     inkscape:zoom="0.5"
     inkscape:cx="486"
     inkscape:cy="366"
     inkscape:window-width="1920"
     inkscape:window-height="1020"
     inkscape:window-x="0"
     inkscape:window-y="0"
     inkscape:window-maximized="1"
     inkscape:current-layer="layer2"
     inkscape:snap-global="false"
     showguides="false"
     inkscape:snap-bbox="true" />
  <defs
     id="defs1222">
    <linearGradient
       id="linearGradient1997"
       inkscape:swatch="solid">
      <stop
         style="stop-color:#ff54c4;stop-opacity:1;"
         offset="0"
         id="stop1995" />
    </linearGradient>
  </defs>
  <g
     inkscape:groupmode="layer"
     id="layer2"
     inkscape:label="Capa 2">
    <path
       style="fill:#ffb698;fill-opacity:1;fill-rule:evenodd;stroke:none;stroke-width:0.0425893;stroke-linecap:round;stroke-linejoin:round;stroke-miterlimit:4;stroke-dasharray:none;stroke-opacity:1"
       d=""
       id="path201103" />
    <path
       style="fill:#ffb698;fill-opacity:1;fill-rule:evenodd;stroke:none;stroke-width:0.0425893;stroke-linecap:round;stroke-linejoin:round;stroke-miterlimit:4;stroke-dasharray:none;stroke-opacity:1"
       d=""
       id="path201142" />
    <path
       style="fill:#ffb698;fill-opacity:1;fill-rule:evenodd;stroke:none;stroke-width:0.0425893;stroke-linecap:round;stroke-linejoin:round;stroke-miterlimit:4;stroke-dasharray:none;stroke-opacity:1"
       d=""
       id="path201181" />
    <path
       style="fill:#ffb698;fill-opacity:1;fill-rule:evenodd;stroke:none;stroke-width:0.0425893;stroke-linecap:round;stroke-linejoin:round;stroke-miterlimit:4;stroke-dasharray:none;stroke-opacity:1"
       d=""
       id="path201220" />
    <path
       style="fill:#ffb698;fill-opacity:1;fill-rule:evenodd;stroke:none;stroke-width:0.0425893;stroke-linecap:round;stroke-linejoin:round;stroke-miterlimit:4;stroke-dasharray:none;stroke-opacity:1"
       d=""
       id="path201259" />
    <path
       style="fill:#ffb698;fill-opacity:1;fill-rule:evenodd;stroke:none;stroke-width:0.0425893;stroke-linecap:round;stroke-linejoin:round;stroke-miterlimit:4;stroke-dasharray:none;stroke-opacity:1"
       d=""
       id="path201337" />
    <path
       style="fill:#ffb698;fill-opacity:1;fill-rule:evenodd;stroke:none;stroke-width:0.0425893;stroke-linecap:round;stroke-linejoin:round;stroke-miterlimit:4;stroke-dasharray:none;stroke-opacity:1"
       d=""
       id="path201454" />
    <path
       style="fill:#ffb698;fill-opacity:1;fill-rule:evenodd;stroke:none;stroke-width:0.0425893;stroke-linecap:round;stroke-linejoin:round;stroke-miterlimit:4;stroke-dasharray:none;stroke-opacity:1"
       d=""
       id="path201571" />
    <path
       style="fill:#fab69b;fill-opacity:1;fill-rule:evenodd;stroke:none;stroke-width:0.0106473;stroke-linecap:round;stroke-linejoin:round;stroke-miterlimit:4;stroke-dasharray:none;stroke-opacity:1;paint-order:stroke fill markers"
       d="m 1361.4812,973.54868 c -0.01,-0.005 -0.052,-0.0286 -0.096,-0.0532 -0.071,-0.0395 -0.079,-0.0464 -0.072,-0.0601 0.01,-0.0134 0,-0.0177 -0.03,-0.0323 -0.021,-0.009 -0.043,-0.0168 -0.048,-0.0168 -0.024,0 -0.1043,-0.043 -0.1844,-0.0983 -0.1431,-0.0988 -0.1753,-0.12766 -0.2229,-0.19954 -0.012,-0.0186 -0.025,-0.0376 -0.029,-0.0422 -0.012,-0.0141 -0.073,-0.1464 -0.092,-0.1973 -0.01,-0.0266 -0.025,-0.0943 -0.035,-0.15064 -0.018,-0.10906 -0.015,-0.10394 -0.09,-0.18233 -0.012,-0.013 -0.023,-0.0258 -0.023,-0.0284 0,-0.003 -0.015,-0.0185 -0.034,-0.0354 -0.034,-0.0305 -0.034,-0.0306 -0.066,-0.0192 -0.037,0.013 -0.1172,0.0147 -0.1655,0.003 -0.031,-0.007 -0.053,-0.004 -0.1089,0.0173 -0.012,0.004 -0.033,0.004 -0.055,-0.002 -0.029,-0.007 -0.049,-0.0221 -0.104,-0.08 -0.037,-0.039 -0.088,-0.0939 -0.1117,-0.12196 l -0.044,-0.0511 h 0.069 c 0.057,0 0.076,0.004 0.1114,0.0205 0.023,0.0113 0.046,0.0205 0.05,0.0205 0,0 0.018,0.006 0.031,0.0123 0.017,0.009 0.037,0.0109 0.073,0.007 0.038,-0.004 0.064,-4.4e-4 0.1147,0.0141 0.042,0.0122 0.088,0.019 0.1285,0.0192 l 0.063,2.9e-4 0.031,0.0368 c 0.017,0.0203 0.043,0.0492 0.058,0.0643 0.015,0.0151 0.027,0.0306 0.027,0.0344 0,0.004 0.01,0.01 0.012,0.0137 0.01,0.004 0.02,0.018 0.031,0.0318 0.01,0.0138 0.039,0.048 0.063,0.0761 0.029,0.0325 0.052,0.0695 0.064,0.10169 0.046,0.12086 0.1471,0.30859 0.1668,0.30859 0,0 0.01,0.004 0.01,0.008 0,0.005 0.01,0.0149 0.014,0.023 0.01,0.008 0.029,0.0329 0.047,0.0549 0.018,0.022 0.043,0.0494 0.057,0.0609 0.013,0.0115 0.03,0.0274 0.037,0.0352 0.01,0.008 0.017,0.0143 0.023,0.0143 0.01,0 0.01,0.003 0.01,0.007 0,0.004 0.012,0.0135 0.027,0.0211 0.1142,0.0594 0.1615,0.0901 0.2212,0.14363 0.098,0.0879 0.097,0.0864 0.094,0.1632 0,0.0621 0,0.0647 -0.019,0.0565 z"
       id="path45335" />
    <path
       style="fill:#fab69b;fill-opacity:1;fill-rule:evenodd;stroke:none;stroke-width:0.0106473;stroke-linecap:round;stroke-linejoin:round;stroke-miterlimit:4;stroke-dasharray:none;stroke-opacity:1;paint-order:stroke fill markers"
       d="m 1361.5816,973.59716 c -0.072,-0.035 -0.086,-0.0452 -0.08,-0.0552 0.013,-0.0205 0.01,-0.10009 -0.01,-0.12899 -0.028,-0.0515 -0.1634,-0.15836 -0.2765,-0.21817 -0.066,-0.0349 -0.1111,-0.0719 -0.1669,-0.13675 -0.029,-0.0334 -0.068,-0.0792 -0.088,-0.10169 -0.037,-0.0428 -0.1146,-0.18539 -0.1581,-0.291 -0.023,-0.0564 -0.078,-0.13396 -0.1475,-0.20861 -0.012,-0.0135 -0.05,-0.0559 -0.083,-0.0942 l -0.06,-0.0696 -0.074,-0.005 c -0.041,-0.003 -0.095,-0.0111 -0.119,-0.0184 -0.024,-0.007 -0.073,-0.0133 -0.1075,-0.0133 -0.053,0 -0.074,-0.005 -0.1357,-0.0292 -0.04,-0.0161 -0.076,-0.0327 -0.081,-0.0369 0,-0.004 -0.013,-0.008 -0.019,-0.008 -0.01,0 -0.015,-0.004 -0.021,-0.008 -0.022,-0.0182 -0.093,-0.066 -0.1081,-0.0729 -0.018,-0.008 -0.1004,-0.0975 -0.1477,-0.16047 -0.017,-0.0225 -0.048,-0.0595 -0.069,-0.0821 -0.021,-0.0226 -0.043,-0.0494 -0.048,-0.0594 -0.01,-0.01 -0.016,-0.0182 -0.024,-0.0183 -0.01,-3e-5 -0.025,-0.007 -0.039,-0.0163 -0.014,-0.009 -0.031,-0.0163 -0.038,-0.0163 -0.012,-5e-5 -0.067,-0.0492 -0.061,-0.0551 0,-10e-4 0.024,0.008 0.051,0.0216 0.055,0.0274 0.1361,0.0579 0.1692,0.0639 0.015,0.003 0.029,0.0144 0.04,0.0339 0.019,0.0321 0.093,0.1076 0.1051,0.1076 0,0 0.01,0.005 0.014,0.0106 0.01,0.0102 0.068,0.0494 0.068,0.0432 0,-0.002 -0.014,-0.0168 -0.031,-0.0337 -0.017,-0.0169 -0.039,-0.0419 -0.049,-0.0557 -0.035,-0.0473 -0.018,-0.0413 0.033,0.0118 0.066,0.0687 0.1168,0.10769 0.1577,0.12129 0.018,0.006 0.044,0.0196 0.059,0.0304 0.014,0.0107 0.029,0.0195 0.031,0.0195 0,0 0.011,0.005 0.017,0.0121 0.01,0.007 0.028,0.0162 0.046,0.0213 0.019,0.005 0.038,0.012 0.043,0.0155 0,0.003 0.025,0.009 0.045,0.0116 0.02,0.003 0.072,0.0161 0.1147,0.0292 0.043,0.0131 0.095,0.0262 0.1166,0.029 0.036,0.005 0.044,0.011 0.1074,0.0763 0.1174,0.12203 0.1527,0.15972 0.1527,0.16316 0,0.002 0.016,0.0189 0.035,0.0379 0.086,0.0855 0.1286,0.13548 0.147,0.17333 0.019,0.0395 0.034,0.0685 0.049,0.0941 0,0.007 0.014,0.027 0.023,0.045 0.01,0.018 0.026,0.0475 0.037,0.0655 0.011,0.018 0.023,0.0383 0.026,0.0451 0,0.011 0.032,0.0422 0.08,0.0937 0.029,0.0304 0.1043,0.0908 0.1679,0.13396 0.065,0.0444 0.1536,0.12143 0.2764,0.24152 0.058,0.057 0.076,0.0791 0.076,0.096 0,0.0121 0.01,0.0419 0.015,0.0662 0.012,0.0346 0.028,0.12246 0.023,0.122 -5e-4,-5e-5 -0.041,-0.0194 -0.089,-0.043 z"
       id="path45374" />
    <path
       style="fill:#fab69b;fill-opacity:1;fill-rule:evenodd;stroke:none;stroke-width:0.0106473;stroke-linecap:round;stroke-linejoin:round;stroke-miterlimit:4;stroke-dasharray:none;stroke-opacity:1;paint-order:stroke fill markers"
       d="m 1361.5078,972.52518 c -0.017,-0.0176 -0.031,-0.0349 -0.031,-0.0385 0,-0.004 -0.012,-0.0153 -0.027,-0.0261 -0.029,-0.0214 -0.064,-0.0524 -0.1149,-0.10012 -0.018,-0.0169 -0.036,-0.0307 -0.04,-0.0307 0,0 -0.01,-0.005 -0.01,-0.011 0,-0.0149 -0.1024,-0.12985 -0.2478,-0.27826 -0.021,-0.0218 -0.039,-0.041 -0.039,-0.0425 0,-0.002 -0.016,-0.0188 -0.035,-0.0383 -0.019,-0.0196 -0.061,-0.0646 -0.092,-0.10003 -0.078,-0.0881 -0.1187,-0.12724 -0.1456,-0.14122 -0.012,-0.007 -0.021,-0.015 -0.018,-0.0188 0,-0.004 -7e-4,-0.009 -0.01,-0.0113 -0.01,-0.002 -0.02,-0.0161 -0.03,-0.0305 l -0.019,-0.0262 0.018,0.006 c 0.01,0.003 0.023,0.002 0.03,-0.004 0.01,-0.008 0.019,-0.004 0.05,0.0197 0.1727,0.13453 0.6562,0.62616 0.7575,0.77021 0.036,0.0517 0.039,0.0574 0.026,0.0668 -0.013,0.01 -0.013,0.0119 -10e-5,0.0398 0.018,0.0372 0.01,0.036 -0.029,-0.005 z"
       id="path45413" />
    <path
       style="fill:#fab69b;fill-opacity:1;fill-rule:evenodd;stroke:none;stroke-width:0.0106473;stroke-linecap:round;stroke-linejoin:round;stroke-miterlimit:4;stroke-dasharray:none;stroke-opacity:1;paint-order:stroke fill markers"
       d="m 1362.1865,972.41917 c -0.052,-0.0483 -0.1115,-0.12052 -0.1115,-0.13473 0,-0.005 -0.024,-0.0339 -0.047,-0.0588 -0.01,-0.0107 -0.018,-0.0216 -0.018,-0.0243 0,-0.0155 -0.1335,-0.15787 -0.202,-0.21547 -0.051,-0.0433 -0.2009,-0.12464 -0.23,-0.12534 -0.01,-1.3e-4 -0.01,-0.005 -0.01,-0.0115 0,-0.006 0,-0.0103 -0.01,-0.009 -0.014,0.003 -0.035,-0.015 -0.156,-0.13255 -0.1,-0.0973 -0.1153,-0.11579 -0.1371,-0.16381 -0.028,-0.0623 -0.054,-0.10393 -0.083,-0.13254 -0.042,-0.0415 -0.1418,-0.11892 -0.1625,-0.12552 -0.01,-0.003 -0.016,-0.009 -0.016,-0.0128 0,-0.004 -0.01,-0.008 -0.014,-0.008 -0.01,-10e-5 -0.024,-0.007 -0.035,-0.0162 -0.011,-0.009 -0.026,-0.0162 -0.033,-0.0165 -0.01,-2.4e-4 -0.019,-0.006 -0.028,-0.0125 -0.01,-0.007 -0.021,-0.012 -0.028,-0.012 -0.01,0 -0.031,-0.009 -0.054,-0.0204 -0.023,-0.0112 -0.052,-0.0213 -0.064,-0.0223 -0.032,-0.003 -0.023,-0.0166 0.019,-0.0292 0.092,-0.0274 0.2346,0.0278 0.409,0.15858 0.1256,0.0942 0.1656,0.12876 0.4053,0.35019 0.2946,0.2721 0.3517,0.32838 0.3364,0.33151 -0.017,0.004 -0.017,0.005 0.013,0.0581 0.047,0.0825 0.1675,0.23974 0.2655,0.34489 0.043,0.0459 0.076,0.098 0.062,0.098 0,0 -0.035,-0.0261 -0.07,-0.0581 z"
       id="path45491" />
    <path
       style="fill:#fab69b;fill-opacity:1;fill-rule:evenodd;stroke:none;stroke-width:0.0106473;stroke-linecap:round;stroke-linejoin:round;stroke-miterlimit:4;stroke-dasharray:none;stroke-opacity:1;paint-order:stroke fill markers"
       d="m 1361.8652,972.53055 c -0.019,-0.0111 -0.04,-0.0296 -0.047,-0.0411 -0.01,-0.0115 -0.017,-0.0187 -0.022,-0.0161 0,0.003 -0.01,5.4e-4 -0.01,-0.005 0,-0.005 -0.01,-0.0196 -0.018,-0.032 -0.01,-0.0123 -0.03,-0.0367 -0.043,-0.0542 -0.029,-0.0374 -0.1338,-0.14281 -0.1421,-0.14281 0,0 -0.012,-0.006 -0.02,-0.0143 -0.027,-0.0277 -0.044,-0.043 -0.05,-0.043 0,0 -0.023,-0.012 -0.045,-0.0266 -0.059,-0.0398 -0.069,-0.0463 -0.091,-0.0556 -0.032,-0.0136 -0.1,-0.0742 -0.094,-0.0837 0,-0.005 0,-0.006 0,-0.004 -0.01,0.005 -0.038,-0.0214 -0.031,-0.0282 0,-0.002 -0.011,-0.0198 -0.029,-0.0393 -0.018,-0.0195 -0.032,-0.0367 -0.032,-0.0382 0,-10e-4 -0.01,-0.0112 -0.018,-0.0216 -0.038,-0.0393 -0.1043,-0.11719 -0.1043,-0.12303 -10e-5,-0.008 -0.03,-0.0433 -0.068,-0.081 -0.017,-0.0167 -0.031,-0.0344 -0.031,-0.0392 0,-0.005 0,-0.009 -0.01,-0.009 0,0 -0.026,-0.0184 -0.05,-0.041 -0.024,-0.0225 -0.047,-0.0409 -0.051,-0.0409 0,0 -0.011,-0.007 -0.016,-0.0164 0,-0.009 -0.014,-0.0164 -0.021,-0.0164 -0.01,0 -0.012,-0.003 -0.012,-0.006 -10e-5,-0.003 -0.018,-0.0172 -0.041,-0.0307 -0.022,-0.0135 -0.039,-0.0283 -0.038,-0.0328 0,-0.005 0.018,-0.0131 0.037,-0.0192 0.019,-0.006 0.034,-0.0155 0.034,-0.0209 0,-0.005 -0.017,-0.0225 -0.039,-0.0377 -0.064,-0.0457 0,-0.0401 0.065,0.006 0.012,0.008 0.033,0.0216 0.047,0.0305 0.014,0.009 0.026,0.019 0.026,0.0225 0,0.004 0,0.006 0.01,0.006 0.011,0 0.092,0.0819 0.142,0.14233 0.018,0.022 0.036,0.0441 0.041,0.0492 0.023,0.0266 0.085,0.11003 0.094,0.12787 0.012,0.023 0.1049,0.13364 0.1158,0.13787 0,10e-4 0.01,0.007 0.01,0.0125 0,0.009 0.03,0.0281 0.074,0.046 0.019,0.008 0.052,0.0285 0.1484,0.0935 0.1261,0.0848 0.338,0.27427 0.378,0.33791 0.011,0.0173 0.032,0.0549 0.048,0.0835 l 0.028,0.052 -0.019,0.0156 c -0.026,0.0212 -0.064,0.0195 -0.1044,-0.005 z"
       id="path45530" />
    <path
       style="fill:#fab69b;fill-opacity:1;fill-rule:evenodd;stroke:none;stroke-width:0.0322749;stroke-linecap:round;stroke-linejoin:round;stroke-miterlimit:4;stroke-dasharray:none;stroke-opacity:1;paint-order:stroke fill markers"
       d="m 1353.986,970.85732 c -0.065,-0.004 -0.1179,-0.0176 -0.1179,-0.0299 0,-0.0123 0.042,-0.0405 0.093,-0.0628 0.051,-0.0223 0.1125,-0.0507 0.1362,-0.0632 0.024,-0.0125 0.059,-0.0227 0.078,-0.0227 0.019,0 0.067,-0.0167 0.1058,-0.0371 0.039,-0.0204 0.096,-0.0372 0.127,-0.0372 0.031,-9e-5 0.056,-0.011 0.056,-0.0242 0,-0.0132 0.016,-0.0178 0.036,-0.0102 0.02,0.008 0.062,-0.004 0.092,-0.0256 0.08,-0.0562 0.1188,-0.0474 0.049,0.011 -0.032,0.0268 -0.052,0.0488 -0.043,0.0488 0.05,0 -0.074,0.11899 -0.1524,0.14542 -0.052,0.0174 -0.116,0.0412 -0.1433,0.0528 -0.1066,0.0454 -0.2035,0.0622 -0.3166,0.0549 z"
       id="path45842" />
    <path
       style="fill:#fab69b;fill-opacity:1;fill-rule:evenodd;stroke:none;stroke-width:0.0322749;stroke-linecap:round;stroke-linejoin:round;stroke-miterlimit:4;stroke-dasharray:none;stroke-opacity:1;paint-order:stroke fill markers"
       d="m 1354.7091,970.53903 c 0.01,-0.0372 0.034,-0.0751 0.054,-0.0842 0.02,-0.009 0.062,-0.0305 0.095,-0.0474 0.1726,-0.0902 0.4389,-0.14577 0.6177,-0.12891 0.062,0.006 0.029,0.049 -0.05,0.0653 -0.1343,0.0277 -0.2767,0.0797 -0.4435,0.16177 -0.087,0.0429 -0.1885,0.0832 -0.225,0.0895 -0.062,0.0107 -0.065,0.007 -0.048,-0.0561 z"
       id="path45881" />
    <g
       id="g75288"
       transform="translate(-1.7960025,2.9101867)">
      <g
         id="g74478"
         transform="translate(-20.028639,-176.98541)" />
    </g>
    <g
       id="g81608"
       transform="translate(963.9802,28.38168)" />
    <circle
       id="path49211"
       style="fill:#c8e0e5;stroke:#ba0000"
       cx="225.97897"
       cy="161.1573"
       r="0" />
    <g
       id="g103087"
       transform="matrix(1.7288206,0,0,1.6722828,-225.85587,-233.92778)"
       style="stroke-width:0.588126">
      <path
         style="fill:#010101;fill-opacity:1;fill-rule:nonzero;stroke:#f9f9f9;stroke-width:0;stroke-linecap:round;stroke-linejoin:round;stroke-miterlimit:4;stroke-dasharray:none;stroke-opacity:1;paint-order:markers fill stroke"
         id="path93902"
         sodipodi:type="arc"
         sodipodi:cx="367.40872"
         sodipodi:cy="603.88062"
         sodipodi:rx="96.61393"
         sodipodi:ry="13.438507"
         sodipodi:start="6.1987812"
         sodipodi:end="6.17775"
         sodipodi:open="true"
         sodipodi:arc-type="chord"
         d="m 463.67871,602.7477 a 96.61393,13.438507 0 0 1 -87.619,14.51744 96.61393,13.438507 0 0 1 -104.83001,-12.11086 96.61393,13.438507 0 0 1 86.51666,-14.6448 96.61393,13.438507 0 0 1 105.73978,11.95687 z" />
      <rect
         style="fill:#010101;fill-opacity:1;fill-rule:nonzero;stroke:#f9f9f9;stroke-width:0;stroke-linecap:round;stroke-linejoin:round;stroke-miterlimit:4;stroke-dasharray:none;stroke-opacity:1;paint-order:markers fill stroke"
         id="rect87737"
         width="193.18698"
         height="326.05307"
         x="270.81949"
         y="278.2446" />
      <g
         id="g87713"
         style="stroke-width:0.588126">
        <g
           id="g87120"
           style="stroke-width:0.588126">
          <rect
             style="fill:#010101;fill-opacity:1;fill-rule:nonzero;stroke:#f9e5e5;stroke-width:0;stroke-linecap:round;stroke-linejoin:round;stroke-miterlimit:4;stroke-dasharray:none;stroke-opacity:1;paint-order:markers fill stroke"
             id="rect86528"
             width="193.1263"
             height="114.37266"
             x="270.81949"
             y="163.87195"
             ry="0" />
          <path
             style="fill:#010101;fill-opacity:1;fill-rule:nonzero;stroke:#f9e5e5;stroke-width:0;stroke-linecap:round;stroke-linejoin:round;stroke-miterlimit:4;stroke-dasharray:none;stroke-opacity:1;paint-order:markers fill stroke"
             id="path86147-5"
             sodipodi:type="arc"
             sodipodi:cx="367.34793"
             sodipodi:cy="277.92749"
             sodipodi:rx="96.583504"
             sodipodi:ry="25.399517"
             sodipodi:start="6.1987812"
             sodipodi:end="6.17775"
             sodipodi:open="true"
             sodipodi:arc-type="chord"
             d="m 463.58761,275.78621 a 96.583504,25.399517 0 0 1 -87.59142,27.43877 96.583504,25.399517 0 0 1 -104.79699,-22.89019 96.583504,25.399517 0 0 1 86.48941,-27.67947 96.583504,25.399517 0 0 1 105.70648,22.59912 z" />
          <path
             style="fill:#010101;fill-opacity:1;stroke:#000000;stroke-width:0;stroke-linecap:butt;stroke-linejoin:miter;stroke-miterlimit:4;stroke-dasharray:none;stroke-opacity:1"
             d="m 273.01999,156.53939 -2.2005,7.33256 c 7.53885,11.44087 155.31087,17.06939 193.12629,0 l -2.07893,-7.29655 c -5.26889,7.20853 -177.39624,18.15576 -188.84686,-0.036 z"
             id="path83041"
             sodipodi:nodetypes="cccccc" />
          <path
             style="fill:#010101;fill-opacity:1;fill-rule:nonzero;stroke:#f9e5e5;stroke-width:0.117625;stroke-linecap:round;stroke-linejoin:round;stroke-miterlimit:4;stroke-dasharray:none;stroke-opacity:1;paint-order:markers fill stroke"
             id="path83006"
             sodipodi:type="arc"
             sodipodi:cx="367.48248"
             sodipodi:cy="156.13068"
             sodipodi:rx="94.543396"
             sodipodi:ry="12.302917"
             sodipodi:start="6.1987812"
             sodipodi:end="6.17775"
             sodipodi:open="true"
             sodipodi:arc-type="chord"
             d="m 461.68931,155.09349 a 94.543396,12.302917 0 0 1 -85.74124,13.29068 94.543396,12.302917 0 0 1 -102.5834,-11.08746 94.543396,12.302917 0 0 1 84.66252,-13.40727 94.543396,12.302917 0 0 1 103.47367,10.94648 z" />
        </g>
        <path
           style="fill:none;stroke:#f9f9f9;stroke-width:0.117625;stroke-linecap:butt;stroke-linejoin:miter;stroke-miterlimit:4;stroke-dasharray:none;stroke-opacity:1"
           d="m 270.81949,163.87195 5.6528,2.49169 c 60.93151,15.20066 148.97109,11.65305 180.62895,0.24822 l 6.84454,-2.73991"
           id="path87155"
           sodipodi:nodetypes="cccc" />
      </g>
      <path
         style="fill:none;fill-opacity:1;stroke:#f9f9f9;stroke-width:0.294063;stroke-linecap:butt;stroke-linejoin:miter;stroke-miterlimit:4;stroke-dasharray:none;stroke-opacity:1"
         d="m 271.00537,278.21777 c 0.94292,6.13838 7.91571,10.79336 17.799,14.3036 2.67238,0.94914 5.57922,1.73543 8.59386,2.60304 47.29573,11.06522 103.14365,11.34808 146.47741,-1.95483 9.22341,-2.73092 17.10246,-6.92154 20.07016,-14.92498"
         id="path87861"
         sodipodi:nodetypes="csccc" />
      <path
         style="fill:none;fill-opacity:1;stroke:#f9f9f9;stroke-width:0.294063;stroke-linecap:butt;stroke-linejoin:miter;stroke-miterlimit:4;stroke-dasharray:none;stroke-opacity:1"
         d="m 270.81355,270.43751 c 0.94292,6.13838 7.91571,10.79336 17.799,14.3036 2.67238,0.94914 5.57922,1.73543 8.59386,2.60304 47.29573,11.06522 103.14365,11.34808 146.47741,-1.95483 9.22341,-2.73092 17.10246,-6.92154 20.07016,-14.92498"
         id="path87861-4"
         sodipodi:nodetypes="csccc" />
      <text
         xml:space="preserve"
         style="font-size:37.1847px;line-height:0.45;font-family:C059;-inkscape-font-specification:'C059, Normal';stroke-width:0.588126"
         x="596.11163"
         y="53.583885"
         id="text95126"
         transform="matrix(0.54204712,0.48192821,-0.89586683,1.0483526,0,0)"><tspan
           sodipodi:role="line"
           id="tspan95124"
           x="596.11163"
           y="53.583885"
           style="font-size:37.1847px;fill:#92f9f3;fill-opacity:1;stroke:none;stroke-width:0.588126;stroke-opacity:1">DESODORANTE</tspan></text>
    </g>
  </g>
  <g
     inkscape:label="Capa 1"
     inkscape:groupmode="layer"
     id="layer1" />
</svg>
