<?xml version="1.0" encoding="UTF-8" standalone="no"?>
<!-- Created with Inkscape (http://www.inkscape.org/) -->

<svg
   width="936.45593"
   height="1013.1918"
   viewBox="0 0 936.45593 1013.1918"
   version="1.1"
   id="SVGRoot"
   sodipodi:docname="1.svg"
   inkscape:version="1.1.2 (0a00cf5339, 2022-02-04)"
   inkscape:export-filename="/home/ciro/Desktop/david/Enemi/DefensaEnemigo/1.png"
   inkscape:export-xdpi="96"
   inkscape:export-ydpi="96"
   xmlns:inkscape="http://www.inkscape.org/namespaces/inkscape"
   xmlns:sodipodi="http://sodipodi.sourceforge.net/DTD/sodipodi-0.dtd"
   xmlns="http://www.w3.org/2000/svg"
   xmlns:svg="http://www.w3.org/2000/svg">
  <sodipodi:namedview
     id="namedview1048"
     pagecolor="#505050"
     bordercolor="#eeeeee"
     borderopacity="1"
     inkscape:pageshadow="0"
     inkscape:pageopacity="0"
     inkscape:pagecheckerboard="0"
     inkscape:document-units="px"
     showgrid="false"
     inkscape:zoom="0.5"
     inkscape:cx="214"
     inkscape:cy="460"
     inkscape:window-width="1920"
     inkscape:window-height="1020"
     inkscape:window-x="0"
     inkscape:window-y="0"
     inkscape:window-maximized="1"
     inkscape:current-layer="layer1"
     inkscape:snap-global="false"
     inkscape:snap-bbox="true" />
  <defs
     id="defs1043" />
  <g
     inkscape:label="Capa 1"
     inkscape:groupmode="layer"
     id="layer1"
     transform="translate(63.662844,173.88232)">
    <path
       style="fill:none;fill-opacity:1;stroke:none;stroke-width:6.8;stroke-linecap:butt;stroke-linejoin:miter;stroke-miterlimit:4;stroke-dasharray:none;stroke-opacity:1"
       d="M 8.2549086,425.70097 -37.093531,320.40881 C -94.039136,147.47773 -40.757455,50.643057 -5.5924753,2.9101282 134.71852,-212.17819 641.60886,-252.89074 831.33739,14.245372 c 68.10555,90.458648 41.93678,286.028508 -24.9226,414.570838 59.31864,148.31852 -83.39324,217.16512 -236.27264,221.84204 32.87792,3.93968 70.30616,47.03513 50.27506,91.8436 33.66229,71.42392 -45.39805,89.3594 -72.65529,39.2158 -14.75587,72.72803 -68.68571,51.49053 -89.47604,14.7867 -9.12871,53.68646 -76.17464,59.0191 -84.31672,-1.01789 -7.84956,55.86967 -88.95645,57.84632 -88.06467,-10.11254 -56.24754,66.59199 -96.68286,9.41555 -83.88374,-30.46334 C 169.4123,722.92191 197.28387,654.77024 234.34968,649.75386 122.00213,655.13912 -70.334783,589.42426 8.2549086,425.70097 Z"
       id="path1214"
       sodipodi:nodetypes="cccccccccccccc" />
    <path
       style="fill:#b24559;fill-opacity:1;stroke:none;stroke-width:0.999999px;stroke-linecap:butt;stroke-linejoin:miter;stroke-opacity:1"
       d="m 334.55524,506.80366 30.62742,104.77238 39.80956,66.56501 v 0 0 c 56.33363,3.35393 133.44447,-16.41608 175.03863,-30.05316 159.87375,-17.64491 279.42015,-64.257 227.21347,-221.47064 l 5.18218,-23.45745 -91.3036,-50.79453 c 2.97174,8.08409 3.05176,53.94274 4.45518,61.90167 21.82403,123.76618 -138.6094,225.58114 -252.12766,93.39852 z"
       id="path32552"
       sodipodi:nodetypes="cccccccccscc" />
    <path
       style="fill:#b24559;fill-opacity:1;stroke:none;stroke-width:0.0999999;stroke-linecap:butt;stroke-linejoin:miter;stroke-miterlimit:4;stroke-dasharray:none;stroke-opacity:1"
       d="M 87.486184,375.36784 C 145.33547,454.97896 253.84897,509.88389 345.67135,514.01902 l 132.13369,0.41657 C 580.9904,490.1537 648.5287,459.20746 719.04598,390.17424 l 88.19853,36.44307 C 866.63062,300.80843 906.42198,134.75603 832.9619,15.326632 622.14846,-247.7733 170.78828,-221.87752 -6.4725856,5.6406142 -76.865238,105.91223 -77.004709,202.9525 -35.467939,322.37798 L 9.0423279,425.58529 C -61.606908,606.24287 126.50448,646.11212 234.34968,649.75386 l 44.73297,-5.22643 94.2453,-33.74169 -37.89181,-96.83561 C 161.06414,684.08671 71.612274,487.07181 87.486184,375.36784 Z"
       id="path19107"
       sodipodi:nodetypes="cccccccccccccc" />
    <path
       style="fill:#b24559;fill-opacity:1;stroke:none;stroke-width:0.999999px;stroke-linecap:butt;stroke-linejoin:miter;stroke-opacity:1"
       d="m 234.34968,649.75386 c -44.63363,21.37479 -55.75837,58.47584 -32.32893,105.15672 -9.02333,68.95753 49.70597,78.50234 83.88374,30.46334 3.83008,64.55704 70.64081,67.97191 88.06467,10.11254 12.77711,59.92596 67.19344,56.58455 84.31678,1.01789 26.38585,50.65354 79.42273,44.25446 89.47594,-14.7867 34.3656,52.6322 101.63294,24.54639 72.65539,-39.2158 7.43948,-49.76405 -7.30146,-80.81083 -50.27512,-91.8436 l -165.14993,27.4828 c 59.5933,34.03083 46.21084,73.31573 -14.72939,67.69618 -35.44444,-12.38427 -29.42443,-44.90357 14.72939,-67.69618 l -35.18857,-75.77037 -92.07069,38.88351 -43.31532,8.2105 z"
       id="path25980"
       sodipodi:nodetypes="ccccccccccccccc" />
    <path
       style="fill:none;fill-opacity:1;stroke:#000000;stroke-width:9;stroke-linecap:butt;stroke-linejoin:miter;stroke-miterlimit:4;stroke-dasharray:none;stroke-opacity:1"
       d="M 477.80504,514.43559 C 579.4956,507.51367 660.83911,436.76493 719.04598,390.17424 l 5.78716,37.97473 c 5.51031,172.83206 -193.94669,179.01389 -247.0281,86.28662 z"
       id="path9545"
       sodipodi:nodetypes="cccc" />
    <path
       style="fill:#000000;fill-opacity:0;stroke:#000000;stroke-width:9;stroke-linecap:butt;stroke-linejoin:miter;stroke-miterlimit:4;stroke-dasharray:none;stroke-opacity:1"
       d="M 90.855484,382.51254 C 167.62982,455.33205 233.3393,505.80187 335.43614,513.95013 183.72712,666.66258 59.823149,515.31418 90.855484,382.51254 Z"
       id="path11943"
       sodipodi:nodetypes="ccc" />
    <path
       style="fill:none;stroke:none;stroke-width:6.5;stroke-linecap:butt;stroke-linejoin:miter;stroke-miterlimit:4;stroke-dasharray:none;stroke-opacity:1"
       d="m 404.99222,678.14105 c -35.89661,25.31641 -57.62421,46.73078 -14.72939,67.69618 9.34045,3.46666 20.03175,2.62079 28.91902,-0.25726 49.29816,-16.11527 14.47854,-46.01682 -8.46762,-67.01955 -2.37862,-1.9601 -3.52866,-1.90504 -5.72201,-0.41937 z"
       id="path6673"
       sodipodi:nodetypes="ccccc" />
    <path
       style="fill:#e5ebeb;fill-opacity:1;stroke:#000000;stroke-width:1px;stroke-linecap:butt;stroke-linejoin:miter;stroke-opacity:1"
       d="m 370.38354,-172.40128 39.21492,67.44284 -12.68777,52.428375 -96.96464,12.977337 91.00102,3.939726 -10.1986,57.354549 61.59883,131.200223 -38.01283,-137.404174 26.99934,-106.945425 102.55363,12.912895 63.77362,32.289459 -57.6549,-55.583865 -109.54706,-9.34796 -36.99769,-62.23576 c -8.05493,0.25976 -16.04067,0.44355 -23.07787,0.97178 z"
       id="path43451"
       sodipodi:nodetypes="ccccccccccccccc" />
  </g>
</svg>
