<svg xmlns="http://www.w3.org/2000/svg" width="1613" height="995"><path d="M842.103 522.919c171.545-19.836 200.073-197.775 281.688-288.309 11.41-8.897 24.634-5.643 26.222 14.295-.076 10.402 3.627 36.654 12.777 13.02l4.804-12.411c4.79-15.306 6.034-18.745 21.664-6.756 14.42 14.619 19.05 9.667 32.607-.312 16.315-12.037 26.255-21.906 25.12-46.035.473-19.838 14.37-17.79 19.084-13.326 33.942 12.618 32.324 54.204 41.005 85.867l19.61 93.3-21.605 71.482 25.295 72.498 13.82 24.64-84.845 4.662-141.982 20.037-128.598-29.48-52.993 20-53.992-21.441z" style="fill:#fc6c34;fill-opacity:1;stroke:#000;stroke-width:2.652;stroke-linecap:butt;stroke-linejoin:miter;stroke-miterlimit:4;stroke-dasharray:none;stroke-opacity:1" transform="matrix(-1 0 0 1 1276.337 122.449)"/><path d="m521.408 290.269 16.965.041.546-17.967 10.875-.055-.785 18.135 14.34.604.478-19.978 15.045.293 5.484-4.234 5.604-4.038-.127-14.832 7.034-7.018 5.014-4.68.702-9.797 4.517-1.226-.494-9.556 2.076-1.284-.256-9.76-1.504-15.982-12.618-14.288-21.73-7.644-24.779.099-30.027.154-24.353 9.675-15.144 8.626-6.397 5.647.789 14.243.25 10.376.997 11.356 5.97 7.288 10.104 8.94c.603 2.834.33 5.608.13 8.46l-5.936 1.91c-6.773 7.804 2.478 16.977 9.546 20.38l1.181 7.294-.25 7.425c6.794 4.298 13.554 3.173 21.232 2.595l-.108-17.523 5.732-.118z" style="fill:#ebe7db;fill-opacity:1;stroke:#ebe7db;stroke-width:1px;stroke-linecap:butt;stroke-linejoin:miter;stroke-opacity:1" transform="rotate(9.112 -95.42 3895.661)"/><path d="m529.473 210.566.102 17.741c2.018 5.834 2.346 5.727 11.136 5.747l14.12-.583c3.286-.13 5.808-.493 6.553-3.287l1.144-2.598 6.274-.878.778-5.864c1.714-2.279 2.294-7.711 2.517-12.415zM482.07 233.83c4.96 4.632 12.28 3.767 18.598 3.506l13.262-1.62-.64-10.37-2.785-2.906-.24-9.753-18.272-.473c-4.467.284-7.565 1.894-10.539 3.551-.061 6.435-.923 11.84.616 18.064z" style="fill:#102c3b;fill-opacity:1;stroke:#000;stroke-width:1px;stroke-linecap:butt;stroke-linejoin:miter;stroke-opacity:1" transform="rotate(9.112 -95.42 3895.661)"/><path d="M545.255 219.628a6.99 6.424 0 0 1-6.339 6.94 6.99 6.424 0 0 1-7.584-5.79 6.99 6.424 0 0 1 6.26-7 6.99 6.424 0 0 1 7.65 5.715zm-54.585 4.278a6.99 6.424 0 0 1-6.34 6.94 6.99 6.424 0 0 1-7.583-5.79 6.99 6.424 0 0 1 6.259-7 6.99 6.424 0 0 1 7.65 5.715z" style="fill:#5fbf46;fill-opacity:1;stroke:none;stroke-width:.1;stroke-linecap:round;stroke-linejoin:round;stroke-miterlimit:4;stroke-dasharray:none;stroke-opacity:1;paint-order:stroke markers fill" transform="rotate(9.112 -95.42 3895.661)"/><path d="m509.506 247.45 2.282-1.927 2.078-2.043 2.623-1.634 1.089-1.927 5.06.293.688 2.128 2.479 1.773 1.957 2.07 1.45 2.1.486 6.297-6.777-.094-1.608-2.877-2.522-1.296-2.296 1.521s-.789 2.86-1.193 2.858c-.932-.006-5.835-.078-5.835-.078-.22-2.91-.151-4.26.039-7.163z" style="fill:#102c3b;fill-opacity:1;stroke:#000;stroke-width:1px;stroke-linecap:butt;stroke-linejoin:miter;stroke-opacity:1" transform="rotate(9.112 -95.42 3895.661)"/><path d="M32.614 698.42c1.283 3.943 5.735-33.325 6.547-44.808.604-9.8-3.984-27.557 2.453-34.688 5.119-.58 9.233-2.048 7.216-8.935-1.967-5.382-4.785-3.658-7.535-2.5-6.265 5.768-13.422.787-20.257.142-3.884-.32-6.345.785-6.748 5.405 1.585 9.354 7.16 4.696 12.12 3.927 2.191 22.602.95 51.55-1.762 71.574l-3.949 19.388 12.633 11.82zm321.226-7.493c-.324 3.97 16.065-29.413 21.473-38.95 4.528-8.181 7.897-23.366 17.08-26.645 5.257 1.78 9.144.178 9.93-6.659.23-5.516-5.855-6.294-9.02-6.52-8.466 2.18-8.917-1.177-15.368-4.779-3.685-2.006-5.222-3.58-7.472.224-2.2 8.77-3.242 4.329 3.418 12.604-5.124 21.263-14.6 40.044-26.84 55.418l-11.662 14.957 7.655 15.818z" style="fill:#ebe7db;fill-opacity:1;stroke:#a6b4b5;stroke-width:.1;stroke-linecap:butt;stroke-linejoin:miter;stroke-miterlimit:4;stroke-dasharray:none;stroke-opacity:.939781" transform="matrix(-1 0 0 1 1276.337 122.449)"/><path d="M294.316 560.82c-2.568-3.303 31.263 12.982 41.363 18.505 17.32 7.29 35.169 20.73 36.55 16.44 9.167-7.008 18.533.666 6.979 8.768-8.452 2.507 5.639 4.193 2.237 10.706.112 4.079-3.166 7.525-7.274 5.372-6.932-6.524-6.476-10.43-5.348-13.542-3.97-3.394-16.28-9.834-21.815-11.788-11.647-4.11-20.842-10.215-29.628-14.28-6.928-3.205-13.94-4.365-19.368-7.615l-30.977-11.327-2.082-14.19zM83.494 578.327c-17.475 7.69-37.523 18.415-39.009 14.032-9.457-7.074-21.535 2.75-9.629 10.916 8.644 2.467-.061 6.927 3.522 13.565-.036 4.184 3.597 4.258 7.734 2 6.926-6.776 6.155-7.357 4.949-10.535 3.973-3.53 16.37-10.286 21.963-12.357 11.767-4.358 21.003-10.733 29.861-15.01 17.086-6.955 32.95-13.184 50.844-20.046l1.848-14.578c-23.55 12.295-48.816 19.062-72.083 32.013Z" style="fill:#ebe7db;fill-opacity:1;stroke:#a7b5b5;stroke-width:.1;stroke-linecap:butt;stroke-linejoin:miter;stroke-miterlimit:4;stroke-dasharray:none;stroke-opacity:1" transform="matrix(-1 0 0 1 1276.337 122.449)"/><path d="M24.852 454.682c-10.548 16.452-21.571 36.93-25.318 34.087-12.066-.558-16.805 14.61-2.033 14.69 8.765-2.858 3.867 5.867 10.678 9.411 2.337 3.544 5.477 1.533 7.726-2.731 2.07-9.66 1.085-9.708-1.742-11.696 1.39-5.24 8.137-18.008 11.733-22.945 7.566-10.388 11.834-21.029 16.967-29.688 4.047-6.827 9.386-11.962 12.116-17.941l19.89-27.967-6.675-13.33-16.335 26.461c-10.414 13.338-19.13 26.238-27.007 41.649z" style="fill:#ebe7db;fill-opacity:1;stroke:#a7b5b5;stroke-width:.05;stroke-linecap:butt;stroke-linejoin:miter;stroke-miterlimit:4;stroke-dasharray:none;stroke-opacity:1" transform="matrix(-1 0 0 1 1276.337 122.449)"/><path d="m326.99 688.892-.445-10.567c.056-2.579 1.81-3.97 4.633-4.457 11.014-1.903 37.157 8.516 44.365 15.136 2.857 2.624 1.611 6.811-2.511 10.408l-4.551 3.706-17.552-7.714-10.918-2.78z" style="fill:#b24559;fill-opacity:1;stroke:none;stroke-width:1px;stroke-linecap:butt;stroke-linejoin:miter;stroke-opacity:1" transform="matrix(-1 0 0 1 1276.337 122.449)"/><path d="m327.093 687.56-.295 6.237c-3.26 6.656-4.658 13.814-11.016 19.297-.38 8.744-2.525 10.994-5.124 17.316l10.377.25c20.47-.498 38.357-1.854 58.814-2.737 7.621-2.695 3.588-5.77-.281-6.932l-5.697-1.82-13.094.574-2.726-3.97s2.386-.003 3.51-.553c-.302-6.293 1.658-7.636 5.614-13.039l-18.32-7.935z" style="fill:#000;fill-opacity:1;stroke:none;stroke-width:1px;stroke-linecap:butt;stroke-linejoin:miter;stroke-opacity:1" transform="matrix(-1 0 0 1 1276.337 122.449)"/><path d="M9.965 695.564c-.899 8.212-1.79 27.155-7.554 35.178-1.434 2.201-2.782 2.896-5.353 2.834l-20.706-.139c-1.33 1.399-2.645 2.435-3.934 2.92-.037 5.508.84 5.37 4.426 5.88 18.222-.1 36.41.022 54.657.457 8.083-.635 8.131-1.575 8.804-5.828 1.532-9.968 3.87-19.567 6.266-30.162l.491-8.942-17.144-1.059-16.263-.122z" style="fill:#000;fill-opacity:1;stroke:none;stroke-width:.999997px;stroke-linecap:butt;stroke-linejoin:miter;stroke-opacity:1" transform="matrix(-1 0 0 1 1276.337 122.449)"/><path d="M45.783 699.55c8.655-.319 9.392-9.521 4.419-13.01-7.314-4.942-28.756-4.8-39.666-2.218-7.682 2.109-3.249 13.394 1.804 13.284 12.118-.867 23.75-.074 33.443 1.944z" style="fill:#b24559;fill-opacity:1;stroke:none;stroke-width:.999997px;stroke-linecap:butt;stroke-linejoin:miter;stroke-opacity:1" transform="matrix(-1 0 0 1 1276.337 122.449)"/><path d="m515.735 531.778.74 58.157c28.229 16.183 92.27 17.174 123.968-.33l1.274-57.631c-43.234-1.153-84.801-.802-125.982-.196z" style="fill:#042434;fill-opacity:1;stroke:none;stroke-width:1px;stroke-linecap:butt;stroke-linejoin:miter;stroke-opacity:1" transform="translate(483.958 138.048)"/><path d="M512.587 531.565c-.551 22.996-.42 45.166.255 65.423 4.803 20.254 29.22 22.124 36.58 3.615.912-16.868.477-35.114 1.118-53.575l-.107-16.078zm49.111 1.278c-.552 26.928-.261 53.04-1.408 76.76 4.803 23.715 33.48 21.99 40.84.317-1.145-19.752-2.12-37.353-1.48-58.97l-.106-18.826zm48.201-1.929c-.552 22.996.041 49.793.716 70.05 4.803 20.253 31.813 17.497 36.119-1.011.912-16.869.477-35.115 1.117-53.576l-.106-16.078z" style="fill:#b24559;fill-opacity:1;stroke:none;stroke-width:1px;stroke-linecap:butt;stroke-linejoin:miter;stroke-opacity:1" transform="translate(483.958 138.048)"/><path d="m509.631 511.463-1.151 3.443c-6.103 6.952-2.627 14.336 7.468 20.036 41.44-2.748 83.366-2.786 127.226-1.382 17.148-1.881 15.35-17.615 9.493-22.537-49.289.297-96.864 1.05-143.036.44z" style="fill:#042434;fill-opacity:1;stroke:none;stroke-width:1px;stroke-linecap:butt;stroke-linejoin:miter;stroke-opacity:1" transform="translate(483.958 138.048)"/><path d="M220.795 512.176c-.519 3.408-1.158 5.892-3.85 8.004-.53.484-1.06.598-1.744.74-3.62.41-6.986-.012-9.555-2.523l-1.876-3.492c-.366-3.47 1.351-5.722 3.91-8.174.58-.415 2.103-1.317 2.86-1.354 3.622-.135 4.654.415 8.125 2.036.83 1.481 2.042 2.626 2.13 4.763z" style="fill:#e9eadd;fill-opacity:1;stroke:none;stroke-width:.1;stroke-linecap:butt;stroke-linejoin:miter;stroke-miterlimit:4;stroke-dasharray:none;stroke-opacity:1" transform="matrix(-1 0 0 1 1276.337 122.449)"/><path d="M217.745 488.384c2.248 2.388 3.72 4.284 3.61 7.175.03.61-.22.995-.547 1.49-1.988 2.405-4.443 4.152-7.972 4.15l-3.83-1.013c-2.858-1.899-3.47-4.295-3.7-7.314.054-.598.338-2.056.79-2.53 2.196-2.238 3.268-2.518 6.696-3.595 1.647.41 3.282.386 4.954 1.637z" style="fill:#e9eadd;fill-opacity:1;stroke:none;stroke-width:.0999999;stroke-linecap:butt;stroke-linejoin:miter;stroke-miterlimit:4;stroke-dasharray:none;stroke-opacity:1" transform="matrix(-1 0 0 1 1276.337 122.449)"/><path d="M353.497 419.182c11.986 11.674 27.372 24.466 24.066 27.047-3.161 9.862 8.995 16.508 12.34 4.326-.545-7.752 5.967-2.136 10.563-7.121 3.604-1.291 3.819-6.104.605-8.729-7.952-3.45-9.483-.788-11.84 1.188-4.255-2.092-11.366-10.532-14.868-14.391-7.367-8.12-17.458-14.482-23.86-20.28-11.235-11.591-22.21-20.935-33.614-33.209l-13.087 3.108c17.811 15.122 31.406 33.373 49.695 48.061z" style="fill:#ebe7db;fill-opacity:1;stroke:#a7b5b5;stroke-width:.0999998;stroke-linecap:butt;stroke-linejoin:miter;stroke-miterlimit:4;stroke-dasharray:none;stroke-opacity:1" transform="matrix(-1 0 0 1 1276.337 122.449)"/><path d="M554.381 444.531c21.692-3.283 34.916-8.748 55.937-8.748 4.671.147 4.618 10.244-1.167 10.733-10.668-1.596-19.808.072-30.166 2.166-13.487 2.75-17.235 2.24-25.275 6.369-2.943.583-5.557.477-6.857-2.4-1.473-5.804 2.79-5.869 7.528-8.12zm-9.301-26.234c21.693-3.283 34.917-8.748 55.938-8.748 4.671.147 4.618 10.244-1.167 10.733-10.668-1.596-19.808.072-30.166 2.166-13.487 2.75-17.235 2.24-25.275 6.369-2.943.583-5.558.477-6.857-2.4-1.473-5.804 2.79-5.869 7.528-8.12zm-8.912-23.924c28.577-4.621 45.838-10.9 73.68-12.2 6.193-.143 6.594 9.947-1.046 10.794-14.203-.934-26.23 1.297-39.853 4.03-17.735 3.58-22.722 3.304-33.18 7.926-3.869.765-7.337.82-9.193-1.973-2.222-5.707 3.422-6.035 9.592-8.577zm-15.018-25.485c34.59-6.166 55.39-13.378 89.174-16.183 7.52-.476 8.27 9.594-.988 10.853-17.276-.167-31.827 2.714-48.3 6.183-21.449 4.54-27.514 4.532-40.095 9.72-4.68.974-8.891 1.217-11.218-1.477-2.848-5.588 3.998-6.22 11.427-9.096zm-15.808-26.038c45.494-8.568 72.667-17.22 117.268-22.375 9.936-1 11.459 9.004-.737 10.906-22.893 1.038-42.015 4.93-63.654 9.542-28.172 6.028-36.206 6.443-52.598 12.5-6.148 1.3-11.713 1.836-14.937-.692-4.066-5.382 4.97-6.491 14.658-9.88z" style="fill:#ebe7db;fill-opacity:1;stroke:none;stroke-width:.1;stroke-linecap:butt;stroke-linejoin:miter;stroke-miterlimit:4;stroke-dasharray:none;stroke-opacity:1" transform="rotate(20.537 425.146 1871.52)"/><path d="M547.258 336.2c1.001-3.476 2.113-6.763 2.27-11.696l10.92-2.136c.835 2.684.027 6.124 4 9.434 1.217 8.328 1.779 16.821 6.063 24.355l2.63 12.863 2.361 14.239 1.122 12.814 1.183 13.868 1.83 10.334c1.817 11.305 4.584 24.021 6.741 33.349-6.03 7.884-8.828 8.503-16.01 1.243-.755-17.369-.32-21.922-5.679-45.64l-3.055-16.543c-.532-8.688-3.123-17.375-7.282-26.063-.671-10.614-3.888-20.395-7.094-30.42z" style="fill:#ebe7db;fill-opacity:1;stroke:none;stroke-width:.1;stroke-linecap:butt;stroke-linejoin:miter;stroke-miterlimit:4;stroke-dasharray:none;stroke-opacity:1" transform="rotate(20.537 425.146 1871.52)"/><path d="m618.73 292.286 17.603-12.627c1.3-1.147 3.276-1.706 5.008-2.002l37.713.06c.815-.18 2.753.602 3.939 1.373 22.755 14.862 33.118 26.646 38.867 50.934l-17.973 8.798-16.71 5.534c-2.775 1.265-5.846 1.724-8.633 1.78-35.448-6.192-50.46-22.547-59.814-53.85Z" style="fill:#b24559;fill-opacity:1;stroke:none;stroke-width:1px;stroke-linecap:butt;stroke-linejoin:miter;stroke-opacity:1" transform="rotate(20.537 425.146 1871.52)"/><path d="m610.602 295.62-1.445-2.904c-.887-1.76-.66-4.153.852-6.193 1.076-1.316 2.042-1.591 3.225-1.911 4.062-.462 4.996-.166 7.771 3.5l2.258 3.735 4.439 8.05c.903 1.306 1.384 2.718 1.85 4.21l1.645 5.274c.325 1.424 1.106 2.812 1.804 3.892 1.438 2.217 3.244 4.251 4.809 6.405 1.538 3.015 4.21 4.999 6.695 6.638 7.78 5.12 16.604 8.775 24.852 11.199 3.56 1.39 6.82 1.503 10.307 1.135 9.935-1.06 17.369-3.468 25.597-8.368l8.018-2.517c2.698-.74 6.371-1.345 9.3-1.32 5.604.062 8.671 1.43 7.723 7.358-.131 1.547-2.26 2.67-3.566 3.46-4.954 2.828-8.456 4.12-14.052 5.805l-2.09.742-3.962 1.408c-2.243.648-4.33 1.599-6.415 2.625l-3.812 1.878c-1.918.663-4.016 1.735-5.884 2.047-1.125.185-2.292.31-3.44.36l-7.372.32c-2.314.31-4.538.057-6.826-.235l-6.809-.87-6.869-1.076c-4.282-.88-6.702-2.25-9.484-3.682l-7.406-4.658-6.65-4.787c-2.776-2.195-5.012-4.029-6.953-7.04l-6.255-9.706-3.996-7.267c-.23-.78-.959-2.113-1.121-3.173-.308-2.125-.568-4.241-1.843-6.524z" style="fill:#042434;fill-opacity:1;stroke:none;stroke-width:1px;stroke-linecap:butt;stroke-linejoin:miter;stroke-opacity:1" transform="rotate(20.537 425.146 1871.52)"/><g style="stroke-width:.942799"><path d="m618.73 292.286 17.603-12.627c1.3-1.147 3.276-1.706 5.008-2.002l37.713.06c.815-.18 2.753.602 3.939 1.373 22.755 14.862 33.118 26.646 38.867 50.934l-17.973 8.798-16.71 5.534c-2.775 1.265-5.846 1.724-8.633 1.78-35.448-6.192-50.46-22.547-59.814-53.85Z" style="fill:#b24559;fill-opacity:1;stroke:none;stroke-width:.942799px;stroke-linecap:butt;stroke-linejoin:miter;stroke-opacity:1" transform="matrix(-1.00913 -.20678 -.33982 1.04521 1761.59 267.85)"/><path d="m610.602 295.62-1.445-2.904c-.887-1.76-.66-4.153.852-6.193 1.076-1.316 2.042-1.591 3.225-1.911 4.062-.462 4.996-.166 7.771 3.5l2.258 3.735 4.439 8.05c.903 1.306 1.384 2.718 1.85 4.21l1.645 5.274c.325 1.424 1.106 2.812 1.804 3.892 1.438 2.217 3.244 4.251 4.809 6.405 1.538 3.015 4.21 4.999 6.695 6.638 7.78 5.12 16.604 8.775 24.852 11.199 3.56 1.39 6.82 1.503 10.307 1.135 9.935-1.06 17.369-3.468 25.597-8.368l8.018-2.517c2.698-.74 6.371-1.345 9.3-1.32 5.604.062 8.671 1.43 7.723 7.358-.131 1.547-2.26 2.67-3.566 3.46-4.954 2.828-8.456 4.12-14.052 5.805l-2.09.742-3.962 1.408c-2.243.648-4.33 1.599-6.415 2.625l-3.812 1.878c-1.918.663-4.016 1.735-5.884 2.047-1.125.185-2.292.31-3.44.36l-7.372.32c-2.314.31-4.538.057-6.826-.235l-6.809-.87-6.869-1.076c-4.282-.88-6.702-2.25-9.484-3.682l-7.406-4.658-6.65-4.787c-2.776-2.195-5.012-4.029-6.953-7.04l-6.255-9.706-3.996-7.267c-.23-.78-.959-2.113-1.121-3.173-.308-2.125-.568-4.241-1.843-6.524z" style="fill:#042434;fill-opacity:1;stroke:none;stroke-width:.942799px;stroke-linecap:butt;stroke-linejoin:miter;stroke-opacity:1" transform="matrix(-1.00913 -.20678 -.33982 1.04521 1761.59 267.85)"/></g><path d="M513.654 380.623c-1-4.146 24.751 24.264 31.825 33.583 13.046 13.94 27.264 31.683 30.353 28.236 11.34-2.753 18.548 10.67 5.057 13.718-.47.09-.955.058-1.4.016-6.817-.452-2.965 5.293-6.268 9.746-.555.836-.782 1.515-1.73 2.28-2.079 1.833-6.825-.381-8.545-2.356-.503-.582-.714-1.298-.977-1.95-3.116-7.898-.181-6.113 1.549-9.376-2.267-4.807-11.01-15.893-15.338-19.996-9.106-8.633-15.093-18.125-21.558-25.54-5.097-5.846-11.132-9.815-14.815-15.087l-24.055-23.331 4.031-14.13z" style="fill:#ebe7db;fill-opacity:1;stroke:#91b5b5;stroke-width:.1;stroke-linecap:butt;stroke-linejoin:miter;stroke-miterlimit:4;stroke-dasharray:none;stroke-opacity:.712066" transform="rotate(-41.262 1157.114 -386.345)"/><path d="M426.616 318.996c-2.28-7.408-1.967-6.971 2.68-12.632 4.473-3.368 8.374-7.297 12.276-11.282 4.33-4.298 11.528-4.817 14.449-1.537 3.243 3.86 6.807 8.016 11.076 13.208 5.49 4.468 6.863 5.553 2.522 12.656-4.481 14.195-17.383 13.095-20.43 17.726-.918 2.055-9.251.595-10.684-3.848-2.162-6.724-10.128-9.557-11.89-14.291z" style="fill:#ebe7db;fill-opacity:1;stroke:none;stroke-width:1px;stroke-linecap:butt;stroke-linejoin:miter;stroke-opacity:1" transform="rotate(-41.262 1157.114 -386.345)"/><path d="m457.247 277.198 7.617-.618.248 1.624 2.446 1.92c-.137 4.039-.063 8.068.086 12.102.22 1.211-1.082 2.365-1.729 2.897l-5.878.109c-2.172-.61-3.287-2.063-3.58-4.002-.575-4.283-.197-8.65-.064-12.97-.017-.9-.055-.988.854-1.062z" style="fill:#ebe7db;fill-opacity:1;stroke:none;stroke-width:.3;stroke-linecap:butt;stroke-linejoin:miter;stroke-miterlimit:4;stroke-dasharray:none;stroke-opacity:1" transform="rotate(-41.262 1157.114 -386.345)"/><path d="m430.649 277.497-1.326-2.117c-.554-.701-.43-.825-.005-1.543l1.528-2.581c.394-.805 1.296-.794 2.11-1.03l1.932-.559c1.075-.455 2.158-.041 3.263.15l1.495.259c1.45.028 1.086 1.148 1.21 2.374l.608 5.94c1.605 1.229 3.281 2.434 3.886 3.984.419.921-.247 1.774-.663 2.474-.638.852-1.531 1.57-2.545 2.227-.867.702-1.604.757-2.711.85-1.403.218-1.478.226-1.92-1.037l-1.548-4.419c-.202-.774-.572-1.459-.942-2.16l-.615-1.167c-.333-.883-.627-.667-1.483-.544-1.464.373-1.527.092-2.274-1.101z" style="fill:#ebe7db;fill-opacity:1;stroke:none;stroke-width:.1;stroke-linecap:butt;stroke-linejoin:miter;stroke-miterlimit:4;stroke-dasharray:none;stroke-opacity:1" transform="rotate(-41.262 1157.114 -386.345)"/><path d="M415.108 251.891c.004 2.533.127 4.77.333 6.807 1.457 2.958 2.914 4.053 5.751 5.304 1.469.561 2.65.79 3.94 1.145 1.043.114 2.244.232 3.28-.066l1.152-.616c.851-.64.636-1.633.577-2.573-.955-4.594-1.38-6.442-5.28-10.33-3.057-2.407-9.872-1.937-9.753.33zm6.809 38.639 3.967 4.136c.88 1.134 2.127 1.656 3.357 2.334 1.214.85 1.201.453 1.557-.67.646-1.867 1.218-2.201 3.2-2.321 1.077.014 1.036-.057.873-1.126l-.244-1.6c-.285-1.79-.787-2.633-1.843-3.735-5.24-5.685-3.863-8.588-6.204-9.035-9.024-.682-10.128.954-8.501 6.31.526 2.3 2.277 3.855 3.838 5.707zm-27.09-13.893 1.714-1.907c.827-1.205 1.34-1.349 2.696-1.489l4.727-.488c2.166-.188 3.62-.305 5.332.662 1.711.942 3.254 1.78 3.643 3.86-.058 7.467-9.578 5.249-15.216 4.589-1.028-.048-2.264-.571-2.766-1.183l-.552-1.544c-.64-1.317-.492-1.484.422-2.5zm7.153 19.863-.43 5.475c-.302 1.5.084 1.519 1.298 1.79 4.706 1.007 7.082.848 9.188.554 1.49-.054 1.679.254 2.42 1.43l.801 1.27c.476.937.587.915 1.554.743l1.417-.252c1.384-.153 1.305-.197 1.047-1.48-.396-1.432-.419-1.533.812-2.194l.924-.497c1.088-.502 1.15-.498.776-1.571l-.562-1.612c-.229-1.853-.492-1.8-2.019-1.543-4.405.625-6.533-.657-10.49-3.333l-4.42.051c-1.602.026-2.19-.45-2.316 1.17zm-11.466 8.683-2.194 1.985c-1.083 1.279-1.626 1.138-3.186.959l-3.45-.398c-1.38.003-1.426-.328-1.944-1.507l-1.367-3.109c-.765-1.307-.424-1.49.48-2.575l1.924-2.303c.707-1.171 1.616-.591 2.815-.37l4.409.815c2.64.735 4.228-2.12 6-3.873.645-.769.747-.723 1.612-.362l1.002.418c1.606.574 2.164.572 2.248 2.195l.118 2.24c.317 1.857.066 2.294-1.193 3.515l-1.273 1.235c-.731.942-1.213.768-2.33.675l-1.017-.084c-1.254-.224-1.77-.258-2.654.544z" style="fill:#ebe7db;fill-opacity:1;stroke:none;stroke-width:1px;stroke-linecap:butt;stroke-linejoin:miter;stroke-opacity:1" transform="rotate(-41.262 1157.114 -386.345)"/><path d="M460.895 351.458c-3.129 8.058 5.2 13.656 11.95 14.211 1.286 8.208 5.072 12.297 11.942 13.506 2.663.563 4.382.027 5.55-1.212l4.673-4.456c1.33-1.542 3.045-2.507 4.743-3.58l4.159-2.628c1.066-.506 5.577-2.296 6.253-3.129 3.745-10.598-5.402-19.738-10.044-19.063.977-8.178-7.95-12.659-13.113-14.74l-5.275 3.027-10.357 6.92-7.093 7.197z" style="fill:#b24559;fill-opacity:1;stroke:none;stroke-width:1px;stroke-linecap:butt;stroke-linejoin:miter;stroke-opacity:1" transform="rotate(-41.262 1157.114 -386.345)"/><path d="M451.673 348.23c.321 9.987 8.685 3.592 13.491-.254 6.801-6.843 12.766-11.615 19.96-16.619 5.286-2.66 1.762-11.52-4.65-6.583-3.697 2.997-7.119 4.38-12.541 6.799-2.372 1.279-4.081 3.251-6.468 5.284-2.186 2.548-4.516 4.732-7.444 6.717-1.95 1.074-2.534 2.008-2.348 4.656zm33.37 35.588c.321 9.987 8.685 3.592 13.491-.254 5.738-5.773 10.88-10.073 16.67-14.28 5.474-1.442 2.786-12.083-3.54-7.312-2.95 1.975-6.012 3.248-10.361 5.189-2.372 1.279-4.081 3.251-6.468 5.284-2.186 2.548-4.516 4.732-7.444 6.717-1.95 1.074-2.534 2.008-2.348 4.656z" style="fill:#062332;fill-opacity:1;stroke:#062332;stroke-width:1px;stroke-linecap:butt;stroke-linejoin:miter;stroke-opacity:1" transform="rotate(-41.262 1157.114 -386.345)"/><path d="m190.206 338.966 2.448 2.713 1.879 3.77c.912 2.106.914 2.44.553 4.214-.235 4.576-3.949 6.81-7.16 8.413-1.69.541-3.471.542-5.495-.914-4.96-3.468-7.441-7.687-6.01-13.022.441-2.205 1.31-2.694 3.25-3.73l3.521-1.878c3.12-.597 4.786-.383 7.014.434z" style="fill:#ebe9db;fill-opacity:1;stroke:none;stroke-width:1px;stroke-linecap:butt;stroke-linejoin:miter;stroke-opacity:1" transform="matrix(-1 0 0 1 1276.337 122.449)"/><path d="m563.019 108.198 6.691 3.037 3.603-1.981 1.66-5.142c7.191.813 9.054-4.311 9.023-8.03-2.177-9.137-2.037-17.722-2.38-27.044-5.662 6.498-19.896 16.005-22.392 23.1-.408 2.691-.18 5.18 3.762 8.003l-.597 4.012z" style="fill:#2045b3;fill-opacity:1;stroke:none;stroke-width:1px;stroke-linecap:butt;stroke-linejoin:miter;stroke-opacity:1" transform="rotate(14.195 248.286 2581.219)"/><path d="m472.107 212.929-7.24-6.644c-2.65-12.66-4.134-25.465-5.627-38.294 7.501-20.51 10.89-30.305 22.715-43.022 4.416-5.398 9.262-8.629 15.07-11.351 11.105-5.193 23.02-9.179 34.233-11.778 28.596-7.682 60.052 16.812 73.237 31.847l7.403 10.919c1.91 2.93 3.631 8.046 3.979 12.405.984 12.33 2.23 25.719-1.216 35.5l-5.473 9.619-45.475 1.18-39.979 4.855-33.368 3.535z" style="fill:#b24559;fill-opacity:1;stroke:none;stroke-width:1px;stroke-linecap:butt;stroke-linejoin:miter;stroke-opacity:1" transform="rotate(14.195 248.286 2581.219)"/><path d="M452.83 295.456c51.009-6.204 101.08-16.818 151.235-27.716 6.414-.92 9.17-2.405 11.46-2.544 7.489 1.22 9.853 7.741 5.965 13.31-2.554 5.018-7.516 4.257-12.635 5.06l-43.247 6.783-36.657 5.495-38.353 7.38-34.516 8.548c-9.29 2.228-15.476-5.93-11.324-11.603 1.962-2.417 4.368-4.263 8.072-4.713z" style="fill:#052435;fill-opacity:1;stroke:#052435;stroke-width:1px;stroke-linecap:butt;stroke-linejoin:miter;stroke-opacity:1" transform="rotate(20.623 646.502 1918.878)"/><g style="stroke:none;stroke-width:1.14384;stroke-opacity:1"><path d="M451.583 543.324c4.26.23-30.331 16.773-41.285 20.885-17.09 8.511-38.16 17.057-35.741 21.003-.607 11.654-15.532 14.72-14.591.92.048-.477.217-.932.385-1.346 2.384-6.403-4.224-4.355-7.545-8.795-.642-.77-1.228-1.182-1.689-2.31-1.162-2.516 2.318-6.43 4.702-7.514.702-.315 1.448-.312 2.147-.377 8.46-.726 5.91 1.575 8.542 4.166 5.254-.796 18.378-6 23.549-8.974 10.877-6.255 21.686-9.275 30.64-13.348 7.06-3.21 12.59-7.858 18.696-9.878l29.24-16.373 12.385 7.907z" style="fill:#ebe7db;fill-opacity:1;stroke:none;stroke-width:.114384;stroke-linecap:butt;stroke-linejoin:miter;stroke-miterlimit:4;stroke-dasharray:none;stroke-opacity:1" transform="matrix(-.16787 .82873 -.88907 -.16384 1411.996 231.184)"/><g style="stroke:none;stroke-width:1.14384;stroke-opacity:1"><path d="M468.632 521.383c17.308-8.06 20.919-8.784 18.605-12.792.913-11.634 15.913-14.306 14.61-.536-.06.475-.241.925-.42 1.335-2.552 6.338 4.107 4.465 7.31 8.99.622.788 1.198 1.214 1.628 2.353 1.096 2.547-2.485 6.368-4.898 7.388-.709.297-1.455.275-2.156.321-8.476.503-5.866-1.73-8.429-4.39-5.274.658-8.617 2.401-13.864 5.238z" style="fill:#ebe7db;fill-opacity:1;stroke:none;stroke-width:.114384;stroke-linecap:butt;stroke-linejoin:miter;stroke-miterlimit:4;stroke-dasharray:none;stroke-opacity:1" transform="matrix(-.16787 .82873 -.88907 -.16384 1411.996 231.184)"/></g></g><path d="m454.219 307.646 1.199-.633c2.103-.96 1.766-1.91.506-3.403l-3.936-4.665c-1.636-2.347-3.08-1.415-4.411-.33l-.658.53c-1.993 1.266-2.437.849-3.633.252l-3.442-1.154c-1.986-.201-3.079 1.503-3.333 2.852-.366.973-.57 2.005-.262 3.223.324 1.29 1.919 2.847 3.013 3.545 2.75 2.048 4.415 2.075 7.612 1.713l2.548-.289c1.976.072 3.178-.663 4.797-1.64z" style="fill:#e9e8dc;fill-opacity:1;stroke:none;stroke-width:1px;stroke-linecap:butt;stroke-linejoin:miter;stroke-opacity:1" transform="matrix(-1 0 0 1 1276.337 122.449)"/><g style="stroke-width:.96452"><path d="M247.397 586.234c27.884-6.67 45.183-17.784 69.234-31.97L94.888 167.433c-15.04-6.415-32.051-12.581-47.089-13.314-3.877-.43-4.25-.5-5.58 2.922-4.1 11.299-16.284 38.32-12.853 47.368z" style="fill:#e7e7e7;fill-opacity:1;stroke:#e6e8e6;stroke-width:.96452px;stroke-linecap:butt;stroke-linejoin:miter;stroke-opacity:1" transform="matrix(.56172 -.87835 .86897 .55485 136.168 328.093)"/><g style="stroke-width:.96452"><path d="m284.665 572.148-36.266 17.1L28.602 201.794c1.865-16.696 9.049-31.984 15.322-47.514z" style="fill:#cfcfcf;fill-opacity:1;stroke:#cfcfcf;stroke-width:.96452px;stroke-linecap:butt;stroke-linejoin:miter;stroke-opacity:1" transform="matrix(.56172 -.87835 .86897 .55485 136.168 328.093)"/><path d="m156.984 351.34-2.975 14.742 119.199 212.256 21.484-11.035-121.125-209.874Z" style="fill:#b3b3b3;fill-opacity:1;stroke:#b2b2b2;stroke-width:.96452px;stroke-linecap:butt;stroke-linejoin:miter;stroke-opacity:1" transform="matrix(.56172 -.87835 .86897 .55485 136.168 328.093)"/></g><g style="stroke-width:.96452"><g style="stroke-width:.96452"><path d="M242.943 705.164c-1.065-2.804-.282-3.895 1.274-5.504.92-.863.675-2.493-.296-3.87-.74-1.079-.447-1.812.204-2.492l1.102-1.184c.413-.434.504-1.336-.112-2.3l-1.563-2.063c-.958-.995-.504-1.182.27-2.18l.77-.993c.524-.856.183-1.528-.426-2.367l-2.105-2.492c-1.13-1.219-.616-1.735.15-3.022l1.412-2.293c.605-.967.392-1.738-.241-2.48l-1.046-1.283c-.635-.493-.75-1.102-.018-2.05l.922-1.211c.534-.664.595-1.747.219-2.514l-.74-1.208c-.17-.387-.241-.788.077-1.462l1.205-2.553c.532-.876.161-1.494-.596-2.347l-.99-1.033c-.533-.508-.385-1.083.09-1.694l1.24-2.01c.434-.937.23-1.598-.244-2.685l-.59-1.35c-.351-.573-.223-1.257.227-1.847l1.33-2.16c.27-.36.012-1.46-.281-1.877l-.742-.84c-.498-.518-.25-1.03.072-1.412l.837-1.055c.317-.498-.14-.955-.548-1.383l-1.631-1.795c-1.028-1.418-1.38-1.423-2.998-1.207l-3.627.483-2.387-.01-5.119 5.634 1.347 1.082.041 2.983.483 3.478-.898 1.973.797 2.794-.171 1.665 1.479 2.564-1.715 3.155.938 2.96-.74 3.041 1.209 3.99-1.139 1.968 1.813 5.21c-.306 6.088-2.532 9.884-1.471 11.085 1.335 4.069.543 7.354.543 7.354 2.051 2.335-.377 6.97-1.87 9.281 10.878 13.442 8.168 12.44 14.253-.474z" style="fill:#042434;fill-opacity:1;stroke:none;stroke-width:.096452;stroke-linecap:butt;stroke-linejoin:miter;stroke-miterlimit:4;stroke-dasharray:none;stroke-opacity:1" transform="matrix(.0419 -1.03845 1.03387 .03122 128.842 621.028)"/><path d="M228.69 705.639c1.267-2.804.336-3.895-1.513-5.505-1.092-.863-.801-2.493.353-3.869.88-1.08.531-1.812-.243-2.492 0 0-1.907-2.521-1.175-3.485l1.856-2.063c1.137-.995.598-1.181-.32-2.18l-.916-.993c-.622-.856-.217-1.528.506-2.367l2.5-2.492c1.343-1.218.732-1.735-.177-3.022l-1.678-2.292c-.718-.968-.465-1.738.287-2.48l1.242-1.284c.755-.493.89-1.102.022-2.05l-1.095-1.211c-.634-.664-.707-1.747-.26-2.514l.877-1.208c.204-.386.288-.788-.09-1.462l-1.432-2.553c-.632-.876-.19-1.494.709-2.346l1.175-1.034c.633-.508.458-1.083-.107-1.694l-1.472-2.01c-.516-.936-.273-1.598.29-2.685l.699-1.35c.418-.573.265-1.257-.268-1.847l-1.581-2.16c-.32-.359-.013-1.46.335-1.876l.88-.841c.592-.518.297-1.03-.085-1.411l-.993-1.056c-.378-.498.165-.954.65-1.383l1.938-1.795c1.22-1.418 1.638-1.422 3.56-1.207-3.06 18.222 3.146 80.737-4.473 70.217z" style="fill:#042434;fill-opacity:1;stroke:none;stroke-width:.096452;stroke-linecap:butt;stroke-linejoin:miter;stroke-miterlimit:4;stroke-dasharray:none;stroke-opacity:1" transform="matrix(.0419 -1.03845 1.03387 .03122 128.842 621.028)"/></g><path d="M309.156 646.433c-1.62 4.16-.863 6.018.555 9.148l3.037 4.545c.86 1.818 2.072 2.609 3.7 3.635l6.857 4.322c1.512 1.304 3.379 1.705 5.056 1.968 3.522.547 8.39.882 13.075-.006 1.347-2.474.085-3.237 5.576-10.63-.232-1.966 1.25-6.805.3-10.995-1.521-6.708-4.336-14.145-9.645-15.529-1.86-.31-4.986-.37-7.388-.364-8.448.286-16.444 3.992-21.123 13.906zm-87.186-53.462 9.593-.931c2.237-.588 7.664-2.455 9.62-3.697 4.71-2.993 10.646-4.191 14.998-6.13 9.983-4.447 19.532-8.743 26.551-12.7 8.002-4.51 15.033-6.73 21.16-10.937 4.285-2.943 11.027-5.644 15.305-8.896 2.485-1.888 11.653-6.435 13.939-8.09 0 .738 4.563-6.665 4.563-6.665 2.974 6.802-1.11 12.032-4.53 17.898l-11.729 8.203c-9.652 4.607-18.163 6.634-26.546 13.14l-12.563 6.003c-13.123 5.652-23.103 10.381-37 15.653l-9.398 3.669c-10.04-.057-7.065-.352-13.962-6.52z" style="fill:#b24559;fill-opacity:1;stroke:none;stroke-width:.96452px;stroke-linecap:butt;stroke-linejoin:miter;stroke-opacity:1" transform="matrix(.56172 -.87835 .86897 .55485 136.168 328.093)"/></g></g><path d="M324.983 627.448c-7.712.778-13.413 2.204-15.743-4.694-1.235-4.894-3.301-11.174-7.775-14.297-3.362-5.09.56-12.628 4.35-14.846 4.422-2.42 9.198-5.098 15.129-8.261 5.46-4.504 6.794-5.637 12.905.016 13.036 7.187 9.419 19.62 13.36 23.52 1.834 1.303-1.236 9.186-5.875 9.717-7.018.796-11.363 8.05-16.35 8.845z" style="fill:#ebe7db;fill-opacity:1;stroke:none;stroke-width:1px;stroke-linecap:butt;stroke-linejoin:miter;stroke-opacity:1" transform="rotate(-55.596 378.756 24.045)"/><g style="stroke-width:2.652;stroke-miterlimit:4;stroke-dasharray:none"><path d="M493.339 890.699c50.375-25.086 73.121-50.607 54.459-92.508-5.038-10.307-5.795-10.81 1.999-19.276 18.444-19.864 51.148-22.633 68.634-41.04 1.208-6.6-25.309-18.063-44.757-28.287-15.637-30.99-4.53-38.066 16.97-54.668 13.53-9.696 11.673-28.618 7.536-47.363-9.333-24.573-4.385-40.156 3.196-64.757 6.057-19.3 5.732-39.203 38.1-27.244 67.176 22.084 135.048 4.995 207.412-2.13 63.37-4.012 122.785-22.145 179.743-8.81 36.815 18.08 71.708 12.494 109.255 3.164 34.034-13.249 51.098-9.65 77.86 3.726 24.653 15.745 61.958 8.119 91.985 5.696 6.963 137.002-1.235 243.959-1.451 379.396z" style="fill:#fc6c34;fill-opacity:1;stroke:#000;stroke-width:2.652;stroke-linecap:butt;stroke-linejoin:miter;stroke-miterlimit:4;stroke-dasharray:none;stroke-opacity:1" transform="matrix(-1 0 0 1 1278.035 124.656)"/><path d="M691.379 656.296c29.939-12.193 63.096-27.83 83.214-45.492 10.254-7.373 14.175-9.45 17.81-3.075 1.935 4.101 4.28 3.725 7.76.68 3.142-2.777 6.027-6.751 6.663-10.924 1.794-5.918 2.923-8.008 10.767-8.79 5.539-.537 9.455.103 11.997-6.274 2.92-9.637 3.891-3.73 8.066 1.214 29.515 34.945 66.713 71.093 107.455 66.943" style="fill:#fcb543;fill-opacity:1;stroke:#000;stroke-width:2.652;stroke-linecap:round;stroke-linejoin:miter;stroke-miterlimit:4;stroke-dasharray:none;stroke-opacity:1" transform="matrix(-1 0 0 1 1278.035 124.656)"/><path d="M946.204 706.729c29.939-12.193 63.097-27.83 83.214-45.492 10.254-7.373 14.175-9.45 17.81-3.075 1.935 4.101 4.28 3.725 7.76.68 3.142-2.777 6.027-6.751 6.663-10.924 1.795-5.918 2.923-8.008 10.767-8.79 5.54-.537 9.455.103 11.997-6.274 2.92-9.637 3.891-3.73 8.066 1.214 29.515 34.945 66.714 71.093 107.455 66.943M722.467 865.678c29.939-12.193 63.097-27.83 83.214-45.492 10.255-7.373 14.175-9.449 17.81-3.075 1.935 4.101 4.28 3.725 7.761.68 3.141-2.777 6.026-6.75 6.663-10.924 1.794-5.917 2.922-8.008 10.766-8.789 5.54-.538 9.455.102 11.997-6.275 2.92-9.637 3.892-3.73 8.066 1.215 29.516 34.944 66.714 71.092 107.455 66.943" style="fill:#bc323c;fill-opacity:1;stroke:#000;stroke-width:2.652;stroke-linecap:round;stroke-linejoin:miter;stroke-miterlimit:4;stroke-dasharray:none;stroke-opacity:1" transform="matrix(-1 0 0 1 1278.035 124.656)"/><path d="M1020.12 823.78c29.939-12.193 63.096-27.83 83.214-45.491 10.254-7.374 14.175-9.45 17.81-3.075 1.935 4.1 4.28 3.724 7.76.68 3.142-2.778 6.027-6.751 6.663-10.924 1.794-5.918 2.923-8.008 10.767-8.79 5.539-.538 9.455.103 11.997-6.275 2.92-9.636 3.891-3.73 8.066 1.215 29.515 34.945 66.713 71.092 107.455 66.943" style="fill:#fcb543;fill-opacity:1;stroke:#000;stroke-width:2.652;stroke-linecap:round;stroke-linejoin:miter;stroke-miterlimit:4;stroke-dasharray:none;stroke-opacity:1" transform="matrix(-1 0 0 1 1278.035 124.656)"/><path d="M1095.399 515.844c-11.536 1.468-23.054 1.47-33.3-.073-22.107-3.327-39.689-9.929-53.704-30.554-7.402-11.558-7.094-11.21-15.85-9.99-6.569 1.056-7.658 1.426-12.032-3.416-4.477-4.966-4.742-6.214-10.063-5.284-5.375 1.39-5.833 1.148-7.732-2.39-1.541-3.716-2.207-1.974-4.662.66-42.435 46.447-79.569 58.959-137.122 56.76" style="fill:#bc3243;fill-opacity:1;stroke:#000;stroke-width:2.652;stroke-linecap:butt;stroke-linejoin:miter;stroke-miterlimit:4;stroke-dasharray:none;stroke-opacity:1" transform="matrix(-1 0 0 1 1278.035 124.656)"/><path d="M886.66 534.542c15.773-2.193 25.714-6.061 37.56-12.076 7.58-4.835 15.709-11.845 23.202-18.227 10.77-9.48 19.43-12.357 36.96-13.488" style="fill:#bc323c;fill-opacity:1;stroke:#000;stroke-width:2.652;stroke-linecap:butt;stroke-linejoin:miter;stroke-miterlimit:4;stroke-dasharray:none;stroke-opacity:1" transform="matrix(-1 0 0 1 1278.035 124.656)"/></g><path d="M1022.628 493.334h63.621v42.75h-63.621z" style="fill:#fc6c34;fill-opacity:1;stroke:none;stroke-width:2.652;stroke-linecap:square;stroke-miterlimit:4;stroke-dasharray:none" transform="matrix(-1 0 0 1 1276.337 122.449)"/><path d="M1098.833 491.352h50.469v40.382h-50.469zm91.665-1.588h31.498v47.843h-31.498zm55.87 11.544h38.819v26.391h-38.819z" style="fill:#39f7ff;stroke:#39f7ff;stroke-width:2.652;stroke-linecap:square;stroke-miterlimit:4;stroke-dasharray:none" transform="matrix(-1 0 0 1 1276.337 122.449)"/><path d="M1064.443 487.223h237.893v72.931h-237.893z" style="fill:#fc6c34;fill-opacity:1;stroke:none;stroke-width:2.65876;stroke-linecap:square;stroke-miterlimit:4;stroke-dasharray:none" transform="matrix(-1 0 0 1 1276.337 122.449)"/></svg>