<svg xmlns="http://www.w3.org/2000/svg" width="1613" height="995"><path d="M513.009 899.466c-50.443-25.083-73.219-50.603-54.532-92.501 5.045-10.306 5.803-10.81-2.002-19.274-18.468-19.863-51.215-22.632-68.725-41.038-1.21-6.598 25.342-18.062 44.817-28.284 15.657-30.988 4.536-38.064-16.994-54.664-13.547-9.696-11.688-28.617-7.545-47.36 9.345-24.572 4.39-40.153-3.2-64.752-6.066-19.3-5.74-39.201-38.15-27.242-67.266 22.082-135.23 4.994-207.69-2.13-63.452-4.012-122.947-22.143-179.981-8.81-36.864 18.078-71.804 12.493-109.4 3.164-34.08-13.248-51.166-9.649-77.963 3.725-20.713 13.21-50.344 9.968-77.106 7.152-.618 20.899 1.073 66.398-.64 85.436-1.199 99.599-13.08 186.098-12.91 292.477z" style="fill:#fcb433;fill-opacity:1;stroke:#000;stroke-width:2.652;stroke-linecap:butt;stroke-linejoin:miter;stroke-miterlimit:4;stroke-dasharray:none;stroke-opacity:1" transform="translate(269.771 104.785)"/><path d="m521.408 290.269 16.965.041.546-17.967 10.875-.055-.785 18.135 14.34.604.478-19.978 15.045.293 5.484-4.234 5.604-4.038-.127-14.832 7.034-7.018 5.014-4.68.702-9.797 4.517-1.226-.494-9.556 2.076-1.284-.256-9.76-1.504-15.982-12.618-14.288-21.73-7.644-24.779.099-30.027.154-24.353 9.675-15.144 8.626-6.397 5.647.789 14.243.25 10.376.997 11.356 5.97 7.288 10.104 8.94c.603 2.834.33 5.608.13 8.46l-5.936 1.91c-6.773 7.804 2.478 16.977 9.546 20.38l1.181 7.294-.25 7.425c6.794 4.298 13.554 3.173 21.232 2.595l-.108-17.523 5.732-.118z" style="fill:#ebe7db;fill-opacity:1;stroke:#ebe7db;stroke-width:1px;stroke-linecap:butt;stroke-linejoin:miter;stroke-opacity:1" transform="translate(533.335 111.797)"/><path d="m529.473 210.566.102 17.741c2.018 5.834 2.346 5.727 11.136 5.747l14.12-.583c3.286-.13 5.808-.493 6.553-3.287l1.144-2.598 6.274-.878.778-5.864c1.714-2.279 2.294-7.711 2.517-12.415zM482.07 233.83c4.96 4.632 12.28 3.767 18.598 3.506l13.262-1.62-.64-10.37-2.785-2.906-.24-9.753-18.272-.473c-4.467.284-7.565 1.894-10.539 3.551-.061 6.435-.923 11.84.616 18.064z" style="fill:#102c3b;fill-opacity:1;stroke:#000;stroke-width:1px;stroke-linecap:butt;stroke-linejoin:miter;stroke-opacity:1" transform="translate(533.335 111.797)"/><path d="M545.255 219.628a6.99 6.424 0 0 1-6.339 6.94 6.99 6.424 0 0 1-7.584-5.79 6.99 6.424 0 0 1 6.26-7 6.99 6.424 0 0 1 7.65 5.715zm-54.585 4.278a6.99 6.424 0 0 1-6.34 6.94 6.99 6.424 0 0 1-7.583-5.79 6.99 6.424 0 0 1 6.259-7 6.99 6.424 0 0 1 7.65 5.715z" style="fill:#5fbf46;fill-opacity:1;stroke:none;stroke-width:.1;stroke-linecap:round;stroke-linejoin:round;stroke-miterlimit:4;stroke-dasharray:none;stroke-opacity:1;paint-order:stroke markers fill" transform="translate(533.335 111.797)"/><path d="m509.506 247.45 2.282-1.927 2.078-2.043 2.623-1.634 1.089-1.927 5.06.293.688 2.128 2.479 1.773 1.957 2.07 1.45 2.1.486 6.297-6.777-.094-1.608-2.877-2.522-1.296-2.296 1.521s-.789 2.86-1.193 2.858c-.932-.006-5.835-.078-5.835-.078-.22-2.91-.151-4.26.039-7.163z" style="fill:#102c3b;fill-opacity:1;stroke:#000;stroke-width:1px;stroke-linecap:butt;stroke-linejoin:miter;stroke-opacity:1" transform="translate(533.335 111.797)"/><path d="M327.34 550.931c-2.909-3.007 32.483 9.53 43.12 13.929 18.005 5.377 37.203 16.811 38.111 12.396 8.357-7.957 18.498-1.34 7.886 7.963-8.132 3.405 6.059 3.56 3.38 10.402.552 4.043-2.334 7.822-6.65 6.126-7.597-5.737-7.566-9.669-6.78-12.885-4.314-2.945-17.247-8.019-22.96-9.363-12.023-2.827-21.824-7.904-30.998-10.996-7.233-2.438-14.33-2.835-20.077-5.48l-32.02-7.914-3.602-13.882z" style="fill:#ebe7db;fill-opacity:1;stroke:#a7b5b5;stroke-width:.1;stroke-linecap:butt;stroke-linejoin:miter;stroke-miterlimit:4;stroke-dasharray:none;stroke-opacity:1" transform="matrix(-1 0 0 1 1351.89 112.49)"/><path d="M192.621 407.91c4.656 18.98 11.902 41.078 7.26 41.835-8.718 8.36-.99 22.246 9.245 11.595 3.968-8.321 6.917 1.24 14.179-1.254 4.178.748 4.884-2.913 3.343-7.481-5.574-8.157-6.288-7.476-9.677-6.797-2.84-4.618-7.444-18.304-8.544-24.312-2.315-12.641-7.087-23.066-9.826-32.752-2.16-7.638-2.202-15.045-4.654-21.144l-6.564-33.684-14.26-4.348 7.922 30.072c2.491 16.737 5.835 31.942 11.576 48.27z" style="fill:#ebe7db;fill-opacity:1;stroke:#a7b5b5;stroke-width:.05;stroke-linecap:butt;stroke-linejoin:miter;stroke-miterlimit:4;stroke-dasharray:none;stroke-opacity:1" transform="matrix(-1 0 0 1 1351.89 112.49)"/><path d="M414.907 685.461c1.206 4.305 3.814-37.412 5.236-49.624 1.116-10.43-1.51-27.752 5.811-34.913 5.582-.255 8.6-3.51 6.735-11.014-1.88-5.892-7.853-4.248-10.892-3.207-7.07 5.717-8.767 2.37-16.155 1.193-4.2-.619-6.231-1.65-6.886 3.257 1.28 10.108-1.38 5.862 7.978 11.866 3.298 24.42 1.594 47.994-3.986 69.104l-5.198 20.436 13.152 13.53z" style="fill:#ebe7db;fill-opacity:1;stroke:#a6b4b5;stroke-width:.1;stroke-linecap:butt;stroke-linejoin:miter;stroke-miterlimit:4;stroke-dasharray:none;stroke-opacity:.939781" transform="matrix(-1 0 0 1 1351.89 112.49)"/><path d="M365.188 561.529c18.46 6.416 39.837 15.806 40.875 10.986 8.804-8.495 22.038.743 10.876 10.65-8.468 3.506.794 7.373-2.124 14.807.478 4.454-3.184 4.902-7.6 2.916-7.71-6.515-6.992-7.21-6.109-10.719-4.385-3.356-17.617-9.295-23.484-10.933-12.343-3.448-22.343-9.3-31.74-12.957-17.99-5.673-34.666-10.699-53.462-16.19l-3.404-15.342c25.078 10.705 51.308 15.348 76.172 26.782z" style="fill:#ebe7db;fill-opacity:1;stroke:#a7b5b5;stroke-width:.1;stroke-linecap:butt;stroke-linejoin:miter;stroke-miterlimit:4;stroke-dasharray:none;stroke-opacity:1" transform="matrix(-1 0 0 1 1351.89 112.49)"/><path d="m383.857 695.812-.825-11.89c-.035-2.906 1.682-4.503 4.505-5.103 11.021-2.341 37.713 8.922 45.205 16.247 2.97 2.904 1.865 7.641-2.157 11.765l-4.45 4.255-17.946-8.37-11.09-2.936z" style="fill:#204554;fill-opacity:1;stroke:none;stroke-width:1px;stroke-linecap:butt;stroke-linejoin:miter;stroke-opacity:1" transform="matrix(-1 0 0 1 1351.89 112.49)"/><path d="m383.913 694.311-.075 7.028c-3.044 7.553-4.197 15.639-10.403 21.927-.072 9.853-2.15 12.425-4.542 19.592l10.456.094c20.59-.929 38.55-2.776 59.114-4.138 7.577-3.172 3.407-6.562-.53-7.802l-5.8-1.947-13.161.882-2.887-4.42s2.402-.048 3.514-.687c-.528-7.08 1.398-8.628 5.188-14.783l-18.726-8.606z" style="fill:#000;fill-opacity:1;stroke:none;stroke-width:1px;stroke-linecap:butt;stroke-linejoin:miter;stroke-opacity:1" transform="matrix(-1 0 0 1 1351.89 112.49)"/><path d="M107.755 685.774c1.784 4.004 2.584-35.599 2.233-47.741-.394-10.354-7.166-28.514-1.06-36.682 5.396-1.152 9.627-3.13 6.747-10.147-2.667-5.443-5.488-3.334-8.297-1.826-6.068 6.72-14.226 2.247-21.58 2.294-4.176.075-6.682 1.497-6.623 6.39 2.68 9.654 8.132 4.172 13.338 2.84 4.73 23.5 6.473 54.025 5.702 75.339l-2.156 20.775 14.72 11.072z" style="fill:#ebe7db;fill-opacity:1;stroke:#a6b4b5;stroke-width:.0999996;stroke-linecap:butt;stroke-linejoin:miter;stroke-miterlimit:4;stroke-dasharray:none;stroke-opacity:.939781" transform="matrix(-1 0 0 1 1351.89 112.49)"/><path d="M191.276 547.392c2.75-3.316-31.966 11.67-42.368 16.839-17.714 6.569-36.3 19.582-37.441 14.974-8.774-7.968-18.561-.485-7.462 8.787 8.308 3.182-5.87 4.055-2.83 11.133-.339 4.289 2.747 8.127 6.972 6.123 7.29-6.427 7.051-10.569 6.096-13.92 4.157-3.32 16.817-9.314 22.458-11.017 11.868-3.582 21.397-9.424 30.404-13.142 7.102-2.932 14.175-3.705 19.78-6.78l31.59-9.945 2.868-14.812z" style="fill:#ebe7db;fill-opacity:1;stroke:#a7b5b5;stroke-width:.0999996;stroke-linecap:butt;stroke-linejoin:miter;stroke-miterlimit:4;stroke-dasharray:none;stroke-opacity:1" transform="matrix(-1 0 0 1 1351.89 112.49)"/><path d="M85.393 697.909c-.479 9.656-.322 31.865-6.01 41.559-1.405 2.652-2.805 3.537-5.556 3.602l-22.137.947c-1.34 1.707-2.685 2.99-4.034 3.626.283 6.446 1.213 6.238 5.076 6.642 19.468-1.091 38.914-1.923 58.44-2.39 8.6-1.177 8.597-2.28 9.067-7.291 1.053-11.744 2.989-23.099 4.93-35.622v-10.488l-18.384-.321-17.388.728z" style="fill:#000;fill-opacity:1;stroke:none;stroke-width:.999996px;stroke-linecap:butt;stroke-linejoin:miter;stroke-opacity:1" transform="matrix(-1 0 0 1 1351.89 112.49)"/><path d="M123.906 700.654c9.231-.836 9.48-11.642 3.96-15.457-8.106-5.39-31.013-4.076-42.521-.471-8.087 2.878-2.688 15.843 2.706 15.444 12.9-1.663 25.379-1.358 35.855.484z" style="fill:#204554;fill-opacity:1;stroke:none;stroke-width:.999996px;stroke-linecap:butt;stroke-linejoin:miter;stroke-opacity:1" transform="matrix(-1 0 0 1 1351.89 112.49)"/><path d="m515.735 531.778.74 58.157c28.229 16.183 92.27 17.174 123.968-.33l1.274-57.631c-43.234-1.153-84.801-.802-125.982-.196z" style="fill:#042434;fill-opacity:1;stroke:none;stroke-width:1px;stroke-linecap:butt;stroke-linejoin:miter;stroke-opacity:1" transform="translate(512.62 111.62)"/><path d="M512.587 531.565c-.551 22.996-.42 45.166.255 65.423 4.803 20.254 29.22 22.124 36.58 3.615.912-16.868.477-35.114 1.118-53.575l-.107-16.078zm49.111 1.278c-.552 26.928-.261 53.04-1.408 76.76 4.803 23.715 33.48 21.99 40.84.317-1.145-19.752-2.12-37.353-1.48-58.97l-.106-18.826zm48.201-1.929c-.552 22.996.041 49.793.716 70.05 4.803 20.253 31.813 17.497 36.119-1.011.912-16.869.477-35.115 1.117-53.576l-.106-16.078z" style="fill:#204554;fill-opacity:1;stroke:none;stroke-width:1px;stroke-linecap:butt;stroke-linejoin:miter;stroke-opacity:1" transform="translate(512.62 111.62)"/><path d="m509.631 511.463-1.151 3.443c-6.103 6.952-2.627 14.336 7.468 20.036 41.44-2.748 83.366-2.786 127.226-1.382 17.148-1.881 15.35-17.615 9.493-22.537-49.289.297-96.864 1.05-143.036.44z" style="fill:#042434;fill-opacity:1;stroke:none;stroke-width:1px;stroke-linecap:butt;stroke-linejoin:miter;stroke-opacity:1" transform="translate(512.62 111.62)"/><path d="M266.818 489.144c2.847 1.944 4.809 3.597 5.546 6.938.206.687.08 1.214-.089 1.893-1.2 3.44-3.038 6.29-6.414 7.517l-3.96.178c-3.287-1.174-4.572-3.698-5.673-7.067-.122-.701-.275-2.465.02-3.164 1.447-3.322 2.39-4.014 5.355-6.44 1.695-.106 3.252-.701 5.215.145zm-.506-22.131c2.847 1.944 4.808 3.597 5.546 6.938.206.687.08 1.214-.089 1.893-1.2 3.44-3.039 6.29-6.414 7.517l-3.96.178c-3.287-1.174-4.572-3.698-5.673-7.067-.122-.701-.276-2.465.02-3.164 1.446-3.322 2.39-4.014 5.355-6.44 1.695-.106 3.251-.701 5.215.145z" style="fill:#e9eadd;fill-opacity:1;stroke:none;stroke-width:.1;stroke-linecap:butt;stroke-linejoin:miter;stroke-miterlimit:4;stroke-dasharray:none;stroke-opacity:1" transform="matrix(-1 0 0 1 1351.89 112.49)"/><path d="M356.7 451.494c-4.311 18.6-7.731 41.077-12.13 39.641-11.33 3.335-10.698 18.891 2.972 14.25 7.153-5.444 5.51 4.198 12.972 5.304 3.328 2.536 8.089-.33 8.758-4.995-1.277-9.605-4.728-9.335-7.996-10.272-.445-5.296 3.57-17.295 5.262-23.014 3.559-12.033 3.849-25.484 5.73-35.14 4.666-17.847 7.317-34.019 12.542-52.458l-10.566-10.212c-4.262 26.221-13.978 50.507-17.545 76.896z" style="fill:#ebe7db;fill-opacity:1;stroke:#a7b5b5;stroke-width:.1;stroke-linecap:butt;stroke-linejoin:miter;stroke-miterlimit:4;stroke-dasharray:none;stroke-opacity:1" transform="matrix(-1 0 0 1 1351.89 112.49)"/><path d="M554.381 444.531c21.692-3.283 34.916-8.748 55.937-8.748 4.671.147 4.618 10.244-1.167 10.733-10.668-1.596-19.808.072-30.166 2.166-13.487 2.75-17.235 2.24-25.275 6.369-2.943.583-5.557.477-6.857-2.4-1.473-5.804 2.79-5.869 7.528-8.12zm-9.301-26.234c21.693-3.283 34.917-8.748 55.938-8.748 4.671.147 4.618 10.244-1.167 10.733-10.668-1.596-19.808.072-30.166 2.166-13.487 2.75-17.235 2.24-25.275 6.369-2.943.583-5.558.477-6.857-2.4-1.473-5.804 2.79-5.869 7.528-8.12zm-8.912-23.924c28.577-4.621 45.838-10.9 73.68-12.2 6.193-.143 6.594 9.947-1.046 10.794-14.203-.934-26.23 1.297-39.853 4.03-17.735 3.58-22.722 3.304-33.18 7.926-3.869.765-7.337.82-9.193-1.973-2.222-5.707 3.422-6.035 9.592-8.577zm-15.018-25.485c34.59-6.166 55.39-13.378 89.174-16.183 7.52-.476 8.27 9.594-.988 10.853-17.276-.167-31.827 2.714-48.3 6.183-21.449 4.54-27.514 4.532-40.095 9.72-4.68.974-8.891 1.217-11.218-1.477-2.848-5.588 3.998-6.22 11.427-9.096zm-15.808-26.038c45.494-8.568 72.667-17.22 117.268-22.375 9.936-1 11.459 9.004-.737 10.906-22.893 1.038-42.015 4.93-63.654 9.542-28.172 6.028-36.206 6.443-52.598 12.5-6.148 1.3-11.713 1.836-14.937-.692-4.066-5.382 4.97-6.491 14.658-9.88z" style="fill:#ebe7db;fill-opacity:1;stroke:none;stroke-width:.1;stroke-linecap:butt;stroke-linejoin:miter;stroke-miterlimit:4;stroke-dasharray:none;stroke-opacity:1" transform="rotate(6.929 -97.388 4692.766)"/><path d="M547.258 336.2c1.001-3.476 2.113-6.763 2.27-11.696l10.92-2.136c.835 2.684.027 6.124 4 9.434 1.217 8.328 1.779 16.821 6.063 24.355l2.63 12.863 2.361 14.239 1.122 12.814 1.183 13.868 1.83 10.334c1.817 11.305 4.584 24.021 6.741 33.349-6.03 7.884-8.828 8.503-16.01 1.243-.755-17.369-.32-21.922-5.679-45.64l-3.055-16.543c-.532-8.688-3.123-17.375-7.282-26.063-.671-10.614-3.888-20.395-7.094-30.42z" style="fill:#ebe7db;fill-opacity:1;stroke:none;stroke-width:.1;stroke-linecap:butt;stroke-linejoin:miter;stroke-miterlimit:4;stroke-dasharray:none;stroke-opacity:1" transform="rotate(6.929 -97.388 4692.766)"/><path d="m618.73 292.286 17.603-12.627c1.3-1.147 3.276-1.706 5.008-2.002l37.713.06c.815-.18 2.753.602 3.939 1.373 22.755 14.862 33.118 26.646 38.867 50.934l-17.973 8.798-16.71 5.534c-2.775 1.265-5.846 1.724-8.633 1.78-35.448-6.192-50.46-22.547-59.814-53.85Z" style="fill:#204554;fill-opacity:1;stroke:none;stroke-width:1px;stroke-linecap:butt;stroke-linejoin:miter;stroke-opacity:1" transform="rotate(6.929 -97.388 4692.766)"/><path d="m610.602 295.62-1.445-2.904c-.887-1.76-.66-4.153.852-6.193 1.076-1.316 2.042-1.591 3.225-1.911 4.062-.462 4.996-.166 7.771 3.5l2.258 3.735 4.439 8.05c.903 1.306 1.384 2.718 1.85 4.21l1.645 5.274c.325 1.424 1.106 2.812 1.804 3.892 1.438 2.217 3.244 4.251 4.809 6.405 1.538 3.015 4.21 4.999 6.695 6.638 7.78 5.12 16.604 8.775 24.852 11.199 3.56 1.39 6.82 1.503 10.307 1.135 9.935-1.06 17.369-3.468 25.597-8.368l8.018-2.517c2.698-.74 6.371-1.345 9.3-1.32 5.604.062 8.671 1.43 7.723 7.358-.131 1.547-2.26 2.67-3.566 3.46-4.954 2.828-8.456 4.12-14.052 5.805l-2.09.742-3.962 1.408c-2.243.648-4.33 1.599-6.415 2.625l-3.812 1.878c-1.918.663-4.016 1.735-5.884 2.047-1.125.185-2.292.31-3.44.36l-7.372.32c-2.314.31-4.538.057-6.826-.235l-6.809-.87-6.869-1.076c-4.282-.88-6.702-2.25-9.484-3.682l-7.406-4.658-6.65-4.787c-2.776-2.195-5.012-4.029-6.953-7.04l-6.255-9.706-3.996-7.267c-.23-.78-.959-2.113-1.121-3.173-.308-2.125-.568-4.241-1.843-6.524z" style="fill:#042434;fill-opacity:1;stroke:none;stroke-width:1px;stroke-linecap:butt;stroke-linejoin:miter;stroke-opacity:1" transform="rotate(6.929 -97.388 4692.766)"/><g style="stroke-width:.942799"><path d="m618.73 292.286 17.603-12.627c1.3-1.147 3.276-1.706 5.008-2.002l37.713.06c.815-.18 2.753.602 3.939 1.373 22.755 14.862 33.118 26.646 38.867 50.934l-17.973 8.798-16.71 5.534c-2.775 1.265-5.846 1.724-8.633 1.78-35.448-6.192-50.46-22.547-59.814-53.85Z" style="fill:#204554;fill-opacity:1;stroke:none;stroke-width:.942799px;stroke-linecap:butt;stroke-linejoin:miter;stroke-opacity:1" transform="matrix(-1.02945 .03645 -.08437 1.09582 1683.33 82.086)"/><path d="m610.602 295.62-1.445-2.904c-.887-1.76-.66-4.153.852-6.193 1.076-1.316 2.042-1.591 3.225-1.911 4.062-.462 4.996-.166 7.771 3.5l2.258 3.735 4.439 8.05c.903 1.306 1.384 2.718 1.85 4.21l1.645 5.274c.325 1.424 1.106 2.812 1.804 3.892 1.438 2.217 3.244 4.251 4.809 6.405 1.538 3.015 4.21 4.999 6.695 6.638 7.78 5.12 16.604 8.775 24.852 11.199 3.56 1.39 6.82 1.503 10.307 1.135 9.935-1.06 17.369-3.468 25.597-8.368l8.018-2.517c2.698-.74 6.371-1.345 9.3-1.32 5.604.062 8.671 1.43 7.723 7.358-.131 1.547-2.26 2.67-3.566 3.46-4.954 2.828-8.456 4.12-14.052 5.805l-2.09.742-3.962 1.408c-2.243.648-4.33 1.599-6.415 2.625l-3.812 1.878c-1.918.663-4.016 1.735-5.884 2.047-1.125.185-2.292.31-3.44.36l-7.372.32c-2.314.31-4.538.057-6.826-.235l-6.809-.87-6.869-1.076c-4.282-.88-6.702-2.25-9.484-3.682l-7.406-4.658-6.65-4.787c-2.776-2.195-5.012-4.029-6.953-7.04l-6.255-9.706-3.996-7.267c-.23-.78-.959-2.113-1.121-3.173-.308-2.125-.568-4.241-1.843-6.524z" style="fill:#042434;fill-opacity:1;stroke:none;stroke-width:.942799px;stroke-linecap:butt;stroke-linejoin:miter;stroke-opacity:1" transform="matrix(-1.02945 .03645 -.08437 1.09582 1683.33 82.086)"/></g><path d="M513.654 380.623c-1-4.146 24.751 24.264 31.825 33.583 13.046 13.94 27.264 31.683 30.353 28.236 11.34-2.753 18.548 10.67 5.057 13.718-.47.09-.955.058-1.4.016-6.817-.452-2.965 5.293-6.268 9.746-.555.836-.782 1.515-1.73 2.28-2.079 1.833-6.825-.381-8.545-2.356-.503-.582-.714-1.298-.977-1.95-3.116-7.898-.181-6.113 1.549-9.376-2.267-4.807-11.01-15.893-15.338-19.996-9.106-8.633-15.093-18.125-21.558-25.54-5.097-5.846-11.132-9.815-14.815-15.087l-24.055-23.331 4.031-14.13z" style="fill:#ebe7db;fill-opacity:1;stroke:#91b5b5;stroke-width:.1;stroke-linecap:butt;stroke-linejoin:miter;stroke-miterlimit:4;stroke-dasharray:none;stroke-opacity:.712066" transform="rotate(-13.079 1410.043 -1902.143)"/><path d="M426.616 318.996c-2.28-7.408-1.967-6.971 2.68-12.632 4.473-3.368 8.374-7.297 12.276-11.282 4.33-4.298 11.528-4.817 14.449-1.537 3.243 3.86 6.807 8.016 11.076 13.208 5.49 4.468 6.863 5.553 2.522 12.656-4.481 14.195-17.383 13.095-20.43 17.726-.918 2.055-9.251.595-10.684-3.848-2.162-6.724-10.128-9.557-11.89-14.291z" style="fill:#ebe7db;fill-opacity:1;stroke:none;stroke-width:1px;stroke-linecap:butt;stroke-linejoin:miter;stroke-opacity:1" transform="rotate(-13.079 1410.043 -1902.143)"/><path d="m457.247 277.198 7.617-.618.248 1.624 2.446 1.92c-.137 4.039-.063 8.068.086 12.102.22 1.211-1.082 2.365-1.729 2.897l-5.878.109c-2.172-.61-3.287-2.063-3.58-4.002-.575-4.283-.197-8.65-.064-12.97-.017-.9-.055-.988.854-1.062z" style="fill:#ebe7db;fill-opacity:1;stroke:none;stroke-width:.3;stroke-linecap:butt;stroke-linejoin:miter;stroke-miterlimit:4;stroke-dasharray:none;stroke-opacity:1" transform="rotate(-13.079 1410.043 -1902.143)"/><path d="m430.649 277.497-1.326-2.117c-.554-.701-.43-.825-.005-1.543l1.528-2.581c.394-.805 1.296-.794 2.11-1.03l1.932-.559c1.075-.455 2.158-.041 3.263.15l1.495.259c1.45.028 1.086 1.148 1.21 2.374l.608 5.94c1.605 1.229 3.281 2.434 3.886 3.984.419.921-.247 1.774-.663 2.474-.638.852-1.531 1.57-2.545 2.227-.867.702-1.604.757-2.711.85-1.403.218-1.478.226-1.92-1.037l-1.548-4.419c-.202-.774-.572-1.459-.942-2.16l-.615-1.167c-.333-.883-.627-.667-1.483-.544-1.464.373-1.527.092-2.274-1.101z" style="fill:#ebe7db;fill-opacity:1;stroke:none;stroke-width:.1;stroke-linecap:butt;stroke-linejoin:miter;stroke-miterlimit:4;stroke-dasharray:none;stroke-opacity:1" transform="rotate(-13.079 1410.043 -1902.143)"/><path d="M415.108 251.891c.004 2.533.127 4.77.333 6.807 1.457 2.958 2.914 4.053 5.751 5.304 1.469.561 2.65.79 3.94 1.145 1.043.114 2.244.232 3.28-.066l1.152-.616c.851-.64.636-1.633.577-2.573-.955-4.594-1.38-6.442-5.28-10.33-3.057-2.407-9.872-1.937-9.753.33zm6.809 38.639 3.967 4.136c.88 1.134 2.127 1.656 3.357 2.334 1.214.85 1.201.453 1.557-.67.646-1.867 1.218-2.201 3.2-2.321 1.077.014 1.036-.057.873-1.126l-.244-1.6c-.285-1.79-.787-2.633-1.843-3.735-5.24-5.685-3.863-8.588-6.204-9.035-9.024-.682-10.128.954-8.501 6.31.526 2.3 2.277 3.855 3.838 5.707zm-27.09-13.893 1.714-1.907c.827-1.205 1.34-1.349 2.696-1.489l4.727-.488c2.166-.188 3.62-.305 5.332.662 1.711.942 3.254 1.78 3.643 3.86-.058 7.467-9.578 5.249-15.216 4.589-1.028-.048-2.264-.571-2.766-1.183l-.552-1.544c-.64-1.317-.492-1.484.422-2.5zm7.153 19.863-.43 5.475c-.302 1.5.084 1.519 1.298 1.79 4.706 1.007 7.082.848 9.188.554 1.49-.054 1.679.254 2.42 1.43l.801 1.27c.476.937.587.915 1.554.743l1.417-.252c1.384-.153 1.305-.197 1.047-1.48-.396-1.432-.419-1.533.812-2.194l.924-.497c1.088-.502 1.15-.498.776-1.571l-.562-1.612c-.229-1.853-.492-1.8-2.019-1.543-4.405.625-6.533-.657-10.49-3.333l-4.42.051c-1.602.026-2.19-.45-2.316 1.17zm-11.466 8.683-2.194 1.985c-1.083 1.279-1.626 1.138-3.186.959l-3.45-.398c-1.38.003-1.426-.328-1.944-1.507l-1.367-3.109c-.765-1.307-.424-1.49.48-2.575l1.924-2.303c.707-1.171 1.616-.591 2.815-.37l4.409.815c2.64.735 4.228-2.12 6-3.873.645-.769.747-.723 1.612-.362l1.002.418c1.606.574 2.164.572 2.248 2.195l.118 2.24c.317 1.857.066 2.294-1.193 3.515l-1.273 1.235c-.731.942-1.213.768-2.33.675l-1.017-.084c-1.254-.224-1.77-.258-2.654.544z" style="fill:#ebe7db;fill-opacity:1;stroke:none;stroke-width:1px;stroke-linecap:butt;stroke-linejoin:miter;stroke-opacity:1" transform="rotate(-13.079 1410.043 -1902.143)"/><path d="M460.895 351.458c-3.129 8.058 5.2 13.656 11.95 14.211 1.286 8.208 5.072 12.297 11.942 13.506 2.663.563 4.382.027 5.55-1.212l4.673-4.456c1.33-1.542 3.045-2.507 4.743-3.58l4.159-2.628c1.066-.506 5.577-2.296 6.253-3.129 3.745-10.598-5.402-19.738-10.044-19.063.977-8.178-7.95-12.659-13.113-14.74l-5.275 3.027-10.357 6.92-7.093 7.197z" style="fill:#204554;fill-opacity:1;stroke:none;stroke-width:1px;stroke-linecap:butt;stroke-linejoin:miter;stroke-opacity:1" transform="rotate(-13.079 1410.043 -1902.143)"/><path d="M451.673 348.23c.321 9.987 8.685 3.592 13.491-.254 6.801-6.843 12.766-11.615 19.96-16.619 5.286-2.66 1.762-11.52-4.65-6.583-3.697 2.997-7.119 4.38-12.541 6.799-2.372 1.279-4.081 3.251-6.468 5.284-2.186 2.548-4.516 4.732-7.444 6.717-1.95 1.074-2.534 2.008-2.348 4.656zm33.37 35.588c.321 9.987 8.685 3.592 13.491-.254 5.738-5.773 10.88-10.073 16.67-14.28 5.474-1.442 2.786-12.083-3.54-7.312-2.95 1.975-6.012 3.248-10.361 5.189-2.372 1.279-4.081 3.251-6.468 5.284-2.186 2.548-4.516 4.732-7.444 6.717-1.95 1.074-2.534 2.008-2.348 4.656z" style="fill:#062332;fill-opacity:1;stroke:#062332;stroke-width:1px;stroke-linecap:butt;stroke-linejoin:miter;stroke-opacity:1" transform="rotate(-13.079 1410.043 -1902.143)"/><path d="m285.53 300.917.703 3.587-.33 4.2c-.302 2.274-.471 2.561-1.694 3.896-2.558 3.803-6.89 3.806-10.47 3.527-1.727-.406-3.254-1.322-4.24-3.611-2.468-5.527-2.424-10.42 1.55-14.258 1.513-1.664 2.51-1.636 4.706-1.525l3.986.202c2.981 1.093 4.3 2.135 5.79 3.982z" style="fill:#ebe9db;fill-opacity:1;stroke:none;stroke-width:1px;stroke-linecap:butt;stroke-linejoin:miter;stroke-opacity:1" transform="matrix(-1 0 0 1 1351.89 112.49)"/><path d="m563.019 108.198 6.691 3.037 3.603-1.981 1.66-5.142c7.191.813 9.054-4.311 9.023-8.03-2.177-9.137-2.037-17.722-2.38-27.044-5.662 6.498-19.896 16.005-22.392 23.1-.408 2.691-.18 5.18 3.762 8.003l-.597 4.012z" style="fill:#b24559;fill-opacity:1;stroke:none;stroke-width:1px;stroke-linecap:butt;stroke-linejoin:miter;stroke-opacity:1" transform="translate(530.952 107.446)"/><path d="m472.107 212.929-7.24-6.644c-2.65-12.66-4.134-25.465-5.627-38.294 7.501-20.51 10.89-30.305 22.715-43.022 4.416-5.398 9.262-8.629 15.07-11.351 11.105-5.193 23.02-9.179 34.233-11.778 28.596-7.682 60.052 16.812 73.237 31.847l7.403 10.919c1.91 2.93 3.631 8.046 3.979 12.405.984 12.33 2.23 25.719-1.216 35.5l-5.473 9.619-45.475 1.18-39.979 4.855-33.368 3.535z" style="fill:#204554;fill-opacity:1;stroke:none;stroke-width:1px;stroke-linecap:butt;stroke-linejoin:miter;stroke-opacity:1" transform="translate(530.952 107.446)"/><path d="M359.704 201.508c-51.383-.455-102.328-5.396-153.387-10.61-6.478-.195-9.383-1.363-11.674-1.244-7.305 2.05-8.923 8.795-4.437 13.894 3.1 4.7 7.945 3.389 13.122 3.613l43.735 1.898 37.042 1.357 38.937 3.038 35.256 4.63c9.482 1.175 14.715-7.625 9.954-12.797-2.22-2.183-4.818-3.747-8.548-3.78z" style="fill:#052435;fill-opacity:1;stroke:#052435;stroke-width:1px;stroke-linecap:butt;stroke-linejoin:miter;stroke-opacity:1" transform="matrix(-1 0 0 1 1351.89 112.49)"/><g style="stroke-width:.96452"><path d="M247.397 586.234c27.884-6.67 45.183-17.784 69.234-31.97L94.888 167.433c-15.04-6.415-32.051-12.581-47.089-13.314-3.877-.43-4.25-.5-5.58 2.922-4.1 11.299-16.284 38.32-12.853 47.368z" style="fill:#e7e7e7;fill-opacity:1;stroke:#e6e8e6;stroke-width:.96452px;stroke-linecap:butt;stroke-linejoin:miter;stroke-opacity:1" transform="matrix(1.0385 .09248 -.09072 1.027 543.93 23.454)"/><g style="stroke-width:.96452"><path d="m284.665 572.148-36.266 17.1L28.602 201.794c1.865-16.696 9.049-31.984 15.322-47.514z" style="fill:#cfcfcf;fill-opacity:1;stroke:#cfcfcf;stroke-width:.96452px;stroke-linecap:butt;stroke-linejoin:miter;stroke-opacity:1" transform="matrix(1.0385 .09248 -.09072 1.027 543.93 23.454)"/><path d="m156.984 351.34-2.975 14.742 119.199 212.256 21.484-11.035-121.125-209.874Z" style="fill:#b3b3b3;fill-opacity:1;stroke:#b2b2b2;stroke-width:.96452px;stroke-linecap:butt;stroke-linejoin:miter;stroke-opacity:1" transform="matrix(1.0385 .09248 -.09072 1.027 543.93 23.454)"/></g><g style="stroke-width:.96452"><g style="stroke-width:.96452"><path d="M242.943 705.164c-1.065-2.804-.282-3.895 1.274-5.504.92-.863.675-2.493-.296-3.87-.74-1.079-.447-1.812.204-2.492l1.102-1.184c.413-.434.504-1.336-.112-2.3l-1.563-2.063c-.958-.995-.504-1.182.27-2.18l.77-.993c.524-.856.183-1.528-.426-2.367l-2.105-2.492c-1.13-1.219-.616-1.735.15-3.022l1.412-2.293c.605-.967.392-1.738-.241-2.48l-1.046-1.283c-.635-.493-.75-1.102-.018-2.05l.922-1.211c.534-.664.595-1.747.219-2.514l-.74-1.208c-.17-.387-.241-.788.077-1.462l1.205-2.553c.532-.876.161-1.494-.596-2.347l-.99-1.033c-.533-.508-.385-1.083.09-1.694l1.24-2.01c.434-.937.23-1.598-.244-2.685l-.59-1.35c-.351-.573-.223-1.257.227-1.847l1.33-2.16c.27-.36.012-1.46-.281-1.877l-.742-.84c-.498-.518-.25-1.03.072-1.412l.837-1.055c.317-.498-.14-.955-.548-1.383l-1.631-1.795c-1.028-1.418-1.38-1.423-2.998-1.207l-3.627.483-2.387-.01-5.119 5.634 1.347 1.082.041 2.983.483 3.478-.898 1.973.797 2.794-.171 1.665 1.479 2.564-1.715 3.155.938 2.96-.74 3.041 1.209 3.99-1.139 1.968 1.813 5.21c-.306 6.088-2.532 9.884-1.471 11.085 1.335 4.069.543 7.354.543 7.354 2.051 2.335-.377 6.97-1.87 9.281 10.878 13.442 8.168 12.44 14.253-.474z" style="fill:#042434;fill-opacity:1;stroke:none;stroke-width:.096452;stroke-linecap:butt;stroke-linejoin:miter;stroke-miterlimit:4;stroke-dasharray:none;stroke-opacity:1" transform="matrix(.94038 -.44251 .44987 .93138 280.735 152.267)"/><path d="M228.69 705.639c1.267-2.804.336-3.895-1.513-5.505-1.092-.863-.801-2.493.353-3.869.88-1.08.531-1.812-.243-2.492 0 0-1.907-2.521-1.175-3.485l1.856-2.063c1.137-.995.598-1.181-.32-2.18l-.916-.993c-.622-.856-.217-1.528.506-2.367l2.5-2.492c1.343-1.218.732-1.735-.177-3.022l-1.678-2.292c-.718-.968-.465-1.738.287-2.48l1.242-1.284c.755-.493.89-1.102.022-2.05l-1.095-1.211c-.634-.664-.707-1.747-.26-2.514l.877-1.208c.204-.386.288-.788-.09-1.462l-1.432-2.553c-.632-.876-.19-1.494.709-2.346l1.175-1.034c.633-.508.458-1.083-.107-1.694l-1.472-2.01c-.516-.936-.273-1.598.29-2.685l.699-1.35c.418-.573.265-1.257-.268-1.847l-1.581-2.16c-.32-.359-.013-1.46.335-1.876l.88-.841c.592-.518.297-1.03-.085-1.411l-.993-1.056c-.378-.498.165-.954.65-1.383l1.938-1.795c1.22-1.418 1.638-1.422 3.56-1.207-3.06 18.222 3.146 80.737-4.473 70.217z" style="fill:#042434;fill-opacity:1;stroke:none;stroke-width:.096452;stroke-linecap:butt;stroke-linejoin:miter;stroke-miterlimit:4;stroke-dasharray:none;stroke-opacity:1" transform="matrix(.94038 -.44251 .44987 .93138 280.735 152.267)"/></g><path d="M309.156 646.433c-1.62 4.16-.863 6.018.555 9.148l3.037 4.545c.86 1.818 2.072 2.609 3.7 3.635l6.857 4.322c1.512 1.304 3.379 1.705 5.056 1.968 3.522.547 8.39.882 13.075-.006 1.347-2.474.085-3.237 5.576-10.63-.232-1.966 1.25-6.805.3-10.995-1.521-6.708-4.336-14.145-9.645-15.529-1.86-.31-4.986-.37-7.388-.364-8.448.286-16.444 3.992-21.123 13.906z" style="fill:#204554;fill-opacity:1;stroke:none;stroke-width:.96452px;stroke-linecap:butt;stroke-linejoin:miter;stroke-opacity:1" transform="matrix(1.0385 .09248 -.09072 1.027 543.93 23.454)"/></g></g><path d="M324.983 627.448c-7.712.778-13.413 2.204-15.743-4.694-1.235-4.894-3.301-11.174-7.775-14.297-3.362-5.09.56-12.628 4.35-14.846 4.422-2.42 9.198-5.098 15.129-8.261 5.46-4.504 6.794-5.637 12.905.016 13.036 7.187 9.419 19.62 13.36 23.52 1.834 1.303-1.236 9.186-5.875 9.717-7.018.796-11.363 8.05-16.35 8.845z" style="fill:#ebe7db;fill-opacity:1;stroke:none;stroke-width:1px;stroke-linecap:butt;stroke-linejoin:miter;stroke-opacity:1" transform="rotate(6.894 36.884 4601.094)"/><path d="m336.475 580.168-.302-1.322c-.644-2.22.295-2.583 2.249-2.602l6.103-.06c2.847-.29 3.082 1.413 3.127 3.13l.027.844c.34 2.335.947 2.4 2.18 2.917l3.12 1.857c1.447 1.374.868 3.314.011 4.387-.499.912-1.148 1.74-2.272 2.3-1.19.596-3.41.403-4.653.029-3.346-.75-4.452-1.993-6.263-4.653l-1.443-2.12c-1.342-1.451-1.57-2.842-1.884-4.707z" style="fill:#e9e8dc;fill-opacity:1;stroke:none;stroke-width:1px;stroke-linecap:butt;stroke-linejoin:miter;stroke-opacity:1" transform="rotate(6.894 36.884 4601.094)"/><g style="stroke:none;stroke-opacity:1"><path d="M451.583 543.324c4.26.23-30.331 16.773-41.285 20.885-17.09 8.511-38.16 17.057-35.741 21.003-.607 11.654-15.532 14.72-14.591.92.048-.477.217-.932.385-1.346 2.384-6.403-4.224-4.355-7.545-8.795-.642-.77-1.228-1.182-1.689-2.31-1.162-2.516 2.318-6.43 4.702-7.514.702-.315 1.448-.312 2.147-.377 8.46-.726 5.91 1.575 8.542 4.166 5.254-.796 18.378-6 23.549-8.974 10.877-6.255 21.686-9.275 30.64-13.348 7.06-3.21 12.59-7.858 18.696-9.878l29.24-16.373 12.385 7.907z" style="fill:#ebe7db;fill-opacity:1;stroke:none;stroke-width:.1;stroke-linecap:butt;stroke-linejoin:miter;stroke-miterlimit:4;stroke-dasharray:none;stroke-opacity:1" transform="rotate(15.99 361.368 2317.784)"/><g style="stroke:none;stroke-opacity:1"><path d="M468.632 521.383c17.308-8.06 20.919-8.784 18.605-12.792.913-11.634 15.913-14.306 14.61-.536-.06.475-.241.925-.42 1.335-2.552 6.338 4.107 4.465 7.31 8.99.622.788 1.198 1.214 1.628 2.353 1.096 2.547-2.485 6.368-4.898 7.388-.709.297-1.455.275-2.156.321-8.476.503-5.866-1.73-8.429-4.39-5.274.658-8.617 2.401-13.864 5.238z" style="fill:#ebe7db;fill-opacity:1;stroke:none;stroke-width:.1;stroke-linecap:butt;stroke-linejoin:miter;stroke-miterlimit:4;stroke-dasharray:none;stroke-opacity:1" transform="rotate(15.99 361.368 2317.784)"/></g></g><path d="m521.408 290.269 16.965.041.546-17.967 10.875-.055-.785 18.135 14.34.604.478-19.978 15.045.293 5.484-4.234 5.604-4.038-.127-14.832 7.034-7.018 5.014-4.68.702-9.797 4.517-1.226-.494-9.556 2.076-1.284-.256-9.76-1.504-15.982-12.618-14.288-21.73-7.644-24.779.099-30.027.154-24.353 9.675-15.144 8.626-6.397 5.647.789 14.243.25 10.376.997 11.356 5.97 7.288 10.104 8.94c.603 2.834.33 5.608.13 8.46l-5.936 1.91c-6.773 7.804 2.478 16.977 9.546 20.38l1.181 7.294-.25 7.425c6.794 4.298 13.554 3.173 21.232 2.595l-.108-17.523 5.732-.118z" style="fill:#ebe7db;fill-opacity:1;stroke:#ebe7db;stroke-width:1px;stroke-linecap:butt;stroke-linejoin:miter;stroke-opacity:1" transform="translate(532.246 112.415)"/><path d="m529.473 210.566.102 17.741c2.018 5.834 2.346 5.727 11.136 5.747l14.12-.583c3.286-.13 5.808-.493 6.553-3.287l1.144-2.598 6.274-.878.778-5.864c1.714-2.279 2.294-7.711 2.517-12.415zM482.07 233.83c4.96 4.632 12.28 3.767 18.598 3.506l13.262-1.62-.64-10.37-2.785-2.906-.24-9.753-18.272-.473c-4.467.284-7.565 1.894-10.539 3.551-.061 6.435-.923 11.84.616 18.064z" style="fill:#102c3b;fill-opacity:1;stroke:#000;stroke-width:1px;stroke-linecap:butt;stroke-linejoin:miter;stroke-opacity:1" transform="translate(532.246 112.415)"/><path d="M545.255 219.628a6.99 6.424 0 0 1-6.339 6.94 6.99 6.424 0 0 1-7.584-5.79 6.99 6.424 0 0 1 6.26-7 6.99 6.424 0 0 1 7.65 5.715zm-54.585 4.278a6.99 6.424 0 0 1-6.34 6.94 6.99 6.424 0 0 1-7.583-5.79 6.99 6.424 0 0 1 6.259-7 6.99 6.424 0 0 1 7.65 5.715z" style="fill:#5fbf46;fill-opacity:1;stroke:none;stroke-width:.1;stroke-linecap:round;stroke-linejoin:round;stroke-miterlimit:4;stroke-dasharray:none;stroke-opacity:1;paint-order:stroke markers fill" transform="translate(532.246 112.415)"/><path d="m509.506 247.45 2.282-1.927 2.078-2.043 2.623-1.634 1.089-1.927 5.06.293.688 2.128 2.479 1.773 1.957 2.07 1.45 2.1.486 6.297-6.777-.094-1.608-2.877-2.522-1.296-2.296 1.521s-.789 2.86-1.193 2.858c-.932-.006-5.835-.078-5.835-.078-.22-2.91-.151-4.26.039-7.163z" style="fill:#102c3b;fill-opacity:1;stroke:#000;stroke-width:1px;stroke-linecap:butt;stroke-linejoin:miter;stroke-opacity:1" transform="translate(532.246 112.415)"/><path d="M517.405 551.549c2.91-3.007-32.481 9.529-43.12 13.928-18.004 5.377-37.201 16.812-38.11 12.397-8.357-7.957-18.497-1.34-7.885 7.963 8.131 3.405-6.06 3.559-3.382 10.402-.551 4.043 2.336 7.822 6.652 6.125 7.596-5.737 7.565-9.668 6.78-12.884 4.313-2.945 17.246-8.019 22.96-9.363 12.022-2.828 21.823-7.904 30.997-10.996 7.233-2.438 14.33-2.835 20.077-5.48l32.02-7.914 3.602-13.882z" style="fill:#ebe7db;fill-opacity:1;stroke:#a7b5b5;stroke-width:.1;stroke-linecap:butt;stroke-linejoin:miter;stroke-miterlimit:4;stroke-dasharray:none;stroke-opacity:1" transform="translate(506.055 112.49)"/><path d="M652.125 408.527c-4.655 18.98-11.901 41.08-7.26 41.836 8.718 8.36.99 22.246-9.245 11.595-3.968-8.322-6.917 1.24-14.178-1.254-4.179.748-4.884-2.914-3.344-7.481 5.574-8.157 6.288-7.476 9.677-6.797 2.84-4.618 7.444-18.304 8.545-24.313 2.315-12.64 7.086-23.065 9.825-32.752 2.16-7.637 2.202-15.044 4.654-21.143l6.565-33.684 14.26-4.348-7.923 30.072c-2.49 16.737-5.835 31.942-11.576 48.27z" style="fill:#ebe7db;fill-opacity:1;stroke:#a7b5b5;stroke-width:.05;stroke-linecap:butt;stroke-linejoin:miter;stroke-miterlimit:4;stroke-dasharray:none;stroke-opacity:1" transform="translate(506.055 112.49)"/><path d="M429.84 686.079c-1.207 4.305-3.814-37.412-5.237-49.625-1.116-10.429 1.51-27.751-5.81-34.912-5.583-.255-8.6-3.511-6.736-11.015 1.88-5.891 7.853-4.248 10.892-3.206 7.07 5.717 8.768 2.37 16.155 1.193 4.2-.619 6.232-1.651 6.887 3.257-1.28 10.108 1.38 5.861-7.978 11.866-3.299 24.42-1.594 47.994 3.985 69.103l5.198 20.437-13.152 13.53z" style="fill:#ebe7db;fill-opacity:1;stroke:#a6b4b5;stroke-width:.1;stroke-linecap:butt;stroke-linejoin:miter;stroke-miterlimit:4;stroke-dasharray:none;stroke-opacity:.939781" transform="translate(506.055 112.49)"/><path d="M479.558 562.146c-18.46 6.417-39.837 15.807-40.875 10.987-8.803-8.495-22.037.743-10.876 10.65 8.468 3.505-.793 7.372 2.125 14.807-.478 4.453 3.183 4.901 7.599 2.916 7.71-6.515 6.992-7.211 6.11-10.72 4.384-3.355 17.617-9.294 23.483-10.932 12.343-3.448 22.343-9.3 31.74-12.957 17.99-5.674 34.667-10.7 53.462-16.19l3.405-15.342c-25.079 10.705-51.309 15.348-76.173 26.781z" style="fill:#ebe7db;fill-opacity:1;stroke:#a7b5b5;stroke-width:.1;stroke-linecap:butt;stroke-linejoin:miter;stroke-miterlimit:4;stroke-dasharray:none;stroke-opacity:1" transform="translate(506.055 112.49)"/><path d="m460.89 696.43.824-11.89c.035-2.906-1.682-4.504-4.505-5.103-11.02-2.341-37.712 8.922-45.205 16.247-2.97 2.903-1.864 7.64 2.158 11.764l4.45 4.256 17.945-8.371 11.09-2.936z" style="fill:#b24559;fill-opacity:1;stroke:none;stroke-width:1px;stroke-linecap:butt;stroke-linejoin:miter;stroke-opacity:1" transform="translate(506.055 112.49)"/><path d="m460.834 694.929.074 7.028c3.045 7.553 4.197 15.638 10.404 21.927.071 9.853 2.15 12.425 4.542 19.591l-10.457.095c-20.59-.929-38.55-2.777-59.114-4.138-7.577-3.173-3.407-6.562.53-7.802l5.8-1.947 13.162.882 2.886-4.421s-2.402-.047-3.513-.686c.528-7.081-1.399-8.628-5.19-14.784l18.727-8.605z" style="fill:#000;fill-opacity:1;stroke:none;stroke-width:1px;stroke-linecap:butt;stroke-linejoin:miter;stroke-opacity:1" transform="translate(506.055 112.49)"/><path d="M736.992 686.392c-1.785 4.004-2.585-35.599-2.234-47.742.395-10.354 7.167-28.513 1.06-36.682-5.396-1.151-9.626-3.129-6.747-10.147 2.667-5.442 5.489-3.333 8.297-1.826 6.069 6.72 14.226 2.248 21.581 2.294 4.175.076 6.682 1.498 6.622 6.391-2.68 9.653-8.131 4.172-13.338 2.84-4.73 23.5-6.472 54.025-5.702 75.339l2.156 20.775-14.72 11.072z" style="fill:#ebe7db;fill-opacity:1;stroke:#a6b4b5;stroke-width:.0999996;stroke-linecap:butt;stroke-linejoin:miter;stroke-miterlimit:4;stroke-dasharray:none;stroke-opacity:.939781" transform="translate(506.055 112.49)"/><path d="M653.47 548.01c-2.75-3.316 31.966 11.67 42.368 16.839 17.714 6.568 36.3 19.581 37.442 14.974 8.773-7.968 18.56-.486 7.462 8.787-8.309 3.181 5.869 4.055 2.83 11.133.338 4.288-2.747 8.127-6.972 6.123-7.29-6.427-7.052-10.57-6.097-13.92-4.156-3.32-16.816-9.315-22.457-11.017-11.869-3.583-21.398-9.424-30.405-13.142-7.102-2.932-14.175-3.706-19.78-6.78l-31.59-9.946-2.868-14.811z" style="fill:#ebe7db;fill-opacity:1;stroke:#a7b5b5;stroke-width:.0999996;stroke-linecap:butt;stroke-linejoin:miter;stroke-miterlimit:4;stroke-dasharray:none;stroke-opacity:1" transform="translate(506.055 112.49)"/><path d="M759.353 698.527c.48 9.655.322 31.864 6.011 41.558 1.404 2.653 2.804 3.538 5.556 3.603l22.136.947c1.34 1.707 2.685 2.99 4.034 3.626-.283 6.446-1.213 6.238-5.075 6.642-19.469-1.091-38.914-1.924-58.44-2.391-8.602-1.177-8.598-2.279-9.068-7.29-1.053-11.744-2.989-23.099-4.929-35.623v-10.488l18.384-.32 17.388.728z" style="fill:#000;fill-opacity:1;stroke:none;stroke-width:.999996px;stroke-linecap:butt;stroke-linejoin:miter;stroke-opacity:1" transform="translate(506.055 112.49)"/><path d="M720.84 701.272c-9.23-.836-9.48-11.642-3.96-15.457 8.107-5.39 31.014-4.076 42.522-.471 8.086 2.878 2.687 15.843-2.707 15.444-12.9-1.663-25.378-1.358-35.855.484z" style="fill:#b24559;fill-opacity:1;stroke:none;stroke-width:.999996px;stroke-linecap:butt;stroke-linejoin:miter;stroke-opacity:1" transform="translate(506.055 112.49)"/><path d="m515.735 531.778.74 58.157c28.229 16.183 92.27 17.174 123.968-.33l1.274-57.631c-43.234-1.153-84.801-.802-125.982-.196z" style="fill:#042434;fill-opacity:1;stroke:none;stroke-width:1px;stroke-linecap:butt;stroke-linejoin:miter;stroke-opacity:1" transform="translate(511.53 112.237)"/><path d="M512.587 531.565c-.551 22.996-.42 45.166.255 65.423 4.803 20.254 29.22 22.124 36.58 3.615.912-16.868.477-35.114 1.118-53.575l-.107-16.078zm49.111 1.278c-.552 26.928-.261 53.04-1.408 76.76 4.803 23.715 33.48 21.99 40.84.317-1.145-19.752-2.12-37.353-1.48-58.97l-.106-18.826zm48.201-1.929c-.552 22.996.041 49.793.716 70.05 4.803 20.253 31.813 17.497 36.119-1.011.912-16.869.477-35.115 1.117-53.576l-.106-16.078z" style="fill:#b24559;fill-opacity:1;stroke:none;stroke-width:1px;stroke-linecap:butt;stroke-linejoin:miter;stroke-opacity:1" transform="translate(511.53 112.237)"/><path d="m509.631 511.463-1.151 3.443c-6.103 6.952-2.627 14.336 7.468 20.036 41.44-2.748 83.366-2.786 127.226-1.382 17.148-1.881 15.35-17.615 9.493-22.537-49.289.297-96.864 1.05-143.036.44z" style="fill:#042434;fill-opacity:1;stroke:none;stroke-width:1px;stroke-linecap:butt;stroke-linejoin:miter;stroke-opacity:1" transform="translate(511.53 112.237)"/><path d="M577.928 489.762c-2.847 1.944-4.808 3.597-5.546 6.938-.206.687-.08 1.213.089 1.892 1.2 3.44 3.039 6.29 6.414 7.518l3.96.177c3.287-1.173 4.572-3.697 5.673-7.066.122-.702.276-2.465-.02-3.164-1.446-3.322-2.39-4.015-5.355-6.44-1.695-.106-3.251-.702-5.215.145zm.506-22.132c-2.846 1.945-4.808 3.598-5.545 6.939-.207.687-.08 1.213.088 1.892 1.2 3.44 3.04 6.29 6.415 7.518l3.96.177c3.287-1.173 4.572-3.697 5.672-7.066.123-.702.276-2.465-.019-3.164-1.447-3.322-2.39-4.015-5.355-6.44-1.695-.106-3.252-.702-5.216.145z" style="fill:#e9eadd;fill-opacity:1;stroke:none;stroke-width:.1;stroke-linecap:butt;stroke-linejoin:miter;stroke-miterlimit:4;stroke-dasharray:none;stroke-opacity:1" transform="translate(506.055 112.49)"/><path d="M488.047 452.111c4.31 18.6 7.73 41.078 12.13 39.642 11.33 3.335 10.698 18.891-2.973 14.25-7.152-5.445-5.51 4.197-12.971 5.304-3.329 2.535-8.09-.33-8.759-4.995 1.277-9.605 4.728-9.335 7.996-10.273.445-5.295-3.57-17.294-5.262-23.013-3.558-12.033-3.848-25.484-5.73-35.14-4.665-17.847-7.317-34.019-12.542-52.458l10.566-10.212c4.262 26.22 13.978 50.506 17.545 76.896z" style="fill:#ebe7db;fill-opacity:1;stroke:#a7b5b5;stroke-width:.1;stroke-linecap:butt;stroke-linejoin:miter;stroke-miterlimit:4;stroke-dasharray:none;stroke-opacity:1" transform="translate(506.055 112.49)"/><path d="M554.381 444.531c21.692-3.283 34.916-8.748 55.937-8.748 4.671.147 4.618 10.244-1.167 10.733-10.668-1.596-19.808.072-30.166 2.166-13.487 2.75-17.235 2.24-25.275 6.369-2.943.583-5.557.477-6.857-2.4-1.473-5.804 2.79-5.869 7.528-8.12zm-9.301-26.234c21.693-3.283 34.917-8.748 55.938-8.748 4.671.147 4.618 10.244-1.167 10.733-10.668-1.596-19.808.072-30.166 2.166-13.487 2.75-17.235 2.24-25.275 6.369-2.943.583-5.558.477-6.857-2.4-1.473-5.804 2.79-5.869 7.528-8.12zm-8.912-23.924c28.577-4.621 45.838-10.9 73.68-12.2 6.193-.143 6.594 9.947-1.046 10.794-14.203-.934-26.23 1.297-39.853 4.03-17.735 3.58-22.722 3.304-33.18 7.926-3.869.765-7.337.82-9.193-1.973-2.222-5.707 3.422-6.035 9.592-8.577zm-15.018-25.485c34.59-6.166 55.39-13.378 89.174-16.183 7.52-.476 8.27 9.594-.988 10.853-17.276-.167-31.827 2.714-48.3 6.183-21.449 4.54-27.514 4.532-40.095 9.72-4.68.974-8.891 1.217-11.218-1.477-2.848-5.588 3.998-6.22 11.427-9.096zm-15.808-26.038c45.494-8.568 72.667-17.22 117.268-22.375 9.936-1 11.459 9.004-.737 10.906-22.893 1.038-42.015 4.93-63.654 9.542-28.172 6.028-36.206 6.443-52.598 12.5-6.148 1.3-11.713 1.836-14.937-.692-4.066-5.382 4.97-6.491 14.658-9.88z" style="fill:#ebe7db;fill-opacity:1;stroke:none;stroke-width:.1;stroke-linecap:butt;stroke-linejoin:miter;stroke-miterlimit:4;stroke-dasharray:none;stroke-opacity:1" transform="rotate(7 -103.034 4684.078)"/><path d="M547.258 336.2c1.001-3.476 2.113-6.763 2.27-11.696l10.92-2.136c.835 2.684.027 6.124 4 9.434 1.217 8.328 1.779 16.821 6.063 24.355l2.63 12.863 2.361 14.239 1.122 12.814 1.183 13.868 1.83 10.334c1.817 11.305 4.584 24.021 6.741 33.349-6.03 7.884-8.828 8.503-16.01 1.243-.755-17.369-.32-21.922-5.679-45.64l-3.055-16.543c-.532-8.688-3.123-17.375-7.282-26.063-.671-10.614-3.888-20.395-7.094-30.42z" style="fill:#ebe7db;fill-opacity:1;stroke:none;stroke-width:.1;stroke-linecap:butt;stroke-linejoin:miter;stroke-miterlimit:4;stroke-dasharray:none;stroke-opacity:1" transform="rotate(7 -103.034 4684.078)"/><path d="m618.73 292.286 17.603-12.627c1.3-1.147 3.276-1.706 5.008-2.002l37.713.06c.815-.18 2.753.602 3.939 1.373 22.755 14.862 33.118 26.646 38.867 50.934l-17.973 8.798-16.71 5.534c-2.775 1.265-5.846 1.724-8.633 1.78-35.448-6.192-50.46-22.547-59.814-53.85Z" style="fill:#b24559;fill-opacity:1;stroke:none;stroke-width:1px;stroke-linecap:butt;stroke-linejoin:miter;stroke-opacity:1" transform="rotate(7 -103.034 4684.078)"/><path d="m610.602 295.62-1.445-2.904c-.887-1.76-.66-4.153.852-6.193 1.076-1.316 2.042-1.591 3.225-1.911 4.062-.462 4.996-.166 7.771 3.5l2.258 3.735 4.439 8.05c.903 1.306 1.384 2.718 1.85 4.21l1.645 5.274c.325 1.424 1.106 2.812 1.804 3.892 1.438 2.217 3.244 4.251 4.809 6.405 1.538 3.015 4.21 4.999 6.695 6.638 7.78 5.12 16.604 8.775 24.852 11.199 3.56 1.39 6.82 1.503 10.307 1.135 9.935-1.06 17.369-3.468 25.597-8.368l8.018-2.517c2.698-.74 6.371-1.345 9.3-1.32 5.604.062 8.671 1.43 7.723 7.358-.131 1.547-2.26 2.67-3.566 3.46-4.954 2.828-8.456 4.12-14.052 5.805l-2.09.742-3.962 1.408c-2.243.648-4.33 1.599-6.415 2.625l-3.812 1.878c-1.918.663-4.016 1.735-5.884 2.047-1.125.185-2.292.31-3.44.36l-7.372.32c-2.314.31-4.538.057-6.826-.235l-6.809-.87-6.869-1.076c-4.282-.88-6.702-2.25-9.484-3.682l-7.406-4.658-6.65-4.787c-2.776-2.195-5.012-4.029-6.953-7.04l-6.255-9.706-3.996-7.267c-.23-.78-.959-2.113-1.121-3.173-.308-2.125-.568-4.241-1.843-6.524z" style="fill:#042434;fill-opacity:1;stroke:none;stroke-width:1px;stroke-linecap:butt;stroke-linejoin:miter;stroke-opacity:1" transform="rotate(7 -103.034 4684.078)"/><g style="stroke-width:.942799"><path d="m618.73 292.286 17.603-12.627c1.3-1.147 3.276-1.706 5.008-2.002l37.713.06c.815-.18 2.753.602 3.939 1.373 22.755 14.862 33.118 26.646 38.867 50.934l-17.973 8.798-16.71 5.534c-2.775 1.265-5.846 1.724-8.633 1.78-35.448-6.192-50.46-22.547-59.814-53.85Z" style="fill:#b24559;fill-opacity:1;stroke:none;stroke-width:.942799px;stroke-linecap:butt;stroke-linejoin:miter;stroke-opacity:1" transform="matrix(-1.02945 .03645 -.08437 1.09582 1682.24 82.704)"/><path d="m610.602 295.62-1.445-2.904c-.887-1.76-.66-4.153.852-6.193 1.076-1.316 2.042-1.591 3.225-1.911 4.062-.462 4.996-.166 7.771 3.5l2.258 3.735 4.439 8.05c.903 1.306 1.384 2.718 1.85 4.21l1.645 5.274c.325 1.424 1.106 2.812 1.804 3.892 1.438 2.217 3.244 4.251 4.809 6.405 1.538 3.015 4.21 4.999 6.695 6.638 7.78 5.12 16.604 8.775 24.852 11.199 3.56 1.39 6.82 1.503 10.307 1.135 9.935-1.06 17.369-3.468 25.597-8.368l8.018-2.517c2.698-.74 6.371-1.345 9.3-1.32 5.604.062 8.671 1.43 7.723 7.358-.131 1.547-2.26 2.67-3.566 3.46-4.954 2.828-8.456 4.12-14.052 5.805l-2.09.742-3.962 1.408c-2.243.648-4.33 1.599-6.415 2.625l-3.812 1.878c-1.918.663-4.016 1.735-5.884 2.047-1.125.185-2.292.31-3.44.36l-7.372.32c-2.314.31-4.538.057-6.826-.235l-6.809-.87-6.869-1.076c-4.282-.88-6.702-2.25-9.484-3.682l-7.406-4.658-6.65-4.787c-2.776-2.195-5.012-4.029-6.953-7.04l-6.255-9.706-3.996-7.267c-.23-.78-.959-2.113-1.121-3.173-.308-2.125-.568-4.241-1.843-6.524z" style="fill:#042434;fill-opacity:1;stroke:none;stroke-width:.942799px;stroke-linecap:butt;stroke-linejoin:miter;stroke-opacity:1" transform="matrix(-1.02945 .03645 -.08437 1.09582 1682.24 82.704)"/></g><path d="M513.654 380.623c-1-4.146 24.751 24.264 31.825 33.583 13.046 13.94 27.264 31.683 30.353 28.236 11.34-2.753 18.548 10.67 5.057 13.718-.47.09-.955.058-1.4.016-6.817-.452-2.965 5.293-6.268 9.746-.555.836-.782 1.515-1.73 2.28-2.079 1.833-6.825-.381-8.545-2.356-.503-.582-.714-1.298-.977-1.95-3.116-7.898-.181-6.113 1.549-9.376-2.267-4.807-11.01-15.893-15.338-19.996-9.106-8.633-15.093-18.125-21.558-25.54-5.097-5.846-11.132-9.815-14.815-15.087l-24.055-23.331 4.031-14.13z" style="fill:#ebe7db;fill-opacity:1;stroke:#91b5b5;stroke-width:.1;stroke-linecap:butt;stroke-linejoin:miter;stroke-miterlimit:4;stroke-dasharray:none;stroke-opacity:.712066" transform="rotate(-13 1412.192 -1897.082)"/><path d="M426.616 318.996c-2.28-7.408-1.967-6.971 2.68-12.632 4.473-3.368 8.374-7.297 12.276-11.282 4.33-4.298 11.528-4.817 14.449-1.537 3.243 3.86 6.807 8.016 11.076 13.208 5.49 4.468 6.863 5.553 2.522 12.656-4.481 14.195-17.383 13.095-20.43 17.726-.918 2.055-9.251.595-10.684-3.848-2.162-6.724-10.128-9.557-11.89-14.291z" style="fill:#ebe7db;fill-opacity:1;stroke:none;stroke-width:1px;stroke-linecap:butt;stroke-linejoin:miter;stroke-opacity:1" transform="rotate(-13 1412.192 -1897.082)"/><path d="m457.247 277.198 7.617-.618.248 1.624 2.446 1.92c-.137 4.039-.063 8.068.086 12.102.22 1.211-1.082 2.365-1.729 2.897l-5.878.109c-2.172-.61-3.287-2.063-3.58-4.002-.575-4.283-.197-8.65-.064-12.97-.017-.9-.055-.988.854-1.062z" style="fill:#ebe7db;fill-opacity:1;stroke:none;stroke-width:.3;stroke-linecap:butt;stroke-linejoin:miter;stroke-miterlimit:4;stroke-dasharray:none;stroke-opacity:1" transform="rotate(-13 1412.192 -1897.082)"/><path d="m430.649 277.497-1.326-2.117c-.554-.701-.43-.825-.005-1.543l1.528-2.581c.394-.805 1.296-.794 2.11-1.03l1.932-.559c1.075-.455 2.158-.041 3.263.15l1.495.259c1.45.028 1.086 1.148 1.21 2.374l.608 5.94c1.605 1.229 3.281 2.434 3.886 3.984.419.921-.247 1.774-.663 2.474-.638.852-1.531 1.57-2.545 2.227-.867.702-1.604.757-2.711.85-1.403.218-1.478.226-1.92-1.037l-1.548-4.419c-.202-.774-.572-1.459-.942-2.16l-.615-1.167c-.333-.883-.627-.667-1.483-.544-1.464.373-1.527.092-2.274-1.101z" style="fill:#ebe7db;fill-opacity:1;stroke:none;stroke-width:.1;stroke-linecap:butt;stroke-linejoin:miter;stroke-miterlimit:4;stroke-dasharray:none;stroke-opacity:1" transform="rotate(-13 1412.192 -1897.082)"/><path d="M415.108 251.891c.004 2.533.127 4.77.333 6.807 1.457 2.958 2.914 4.053 5.751 5.304 1.469.561 2.65.79 3.94 1.145 1.043.114 2.244.232 3.28-.066l1.152-.616c.851-.64.636-1.633.577-2.573-.955-4.594-1.38-6.442-5.28-10.33-3.057-2.407-9.872-1.937-9.753.33zm6.809 38.639 3.967 4.136c.88 1.134 2.127 1.656 3.357 2.334 1.214.85 1.201.453 1.557-.67.646-1.867 1.218-2.201 3.2-2.321 1.077.014 1.036-.057.873-1.126l-.244-1.6c-.285-1.79-.787-2.633-1.843-3.735-5.24-5.685-3.863-8.588-6.204-9.035-9.024-.682-10.128.954-8.501 6.31.526 2.3 2.277 3.855 3.838 5.707zm-27.09-13.893 1.714-1.907c.827-1.205 1.34-1.349 2.696-1.489l4.727-.488c2.166-.188 3.62-.305 5.332.662 1.711.942 3.254 1.78 3.643 3.86-.058 7.467-9.578 5.249-15.216 4.589-1.028-.048-2.264-.571-2.766-1.183l-.552-1.544c-.64-1.317-.492-1.484.422-2.5zm7.153 19.863-.43 5.475c-.302 1.5.084 1.519 1.298 1.79 4.706 1.007 7.082.848 9.188.554 1.49-.054 1.679.254 2.42 1.43l.801 1.27c.476.937.587.915 1.554.743l1.417-.252c1.384-.153 1.305-.197 1.047-1.48-.396-1.432-.419-1.533.812-2.194l.924-.497c1.088-.502 1.15-.498.776-1.571l-.562-1.612c-.229-1.853-.492-1.8-2.019-1.543-4.405.625-6.533-.657-10.49-3.333l-4.42.051c-1.602.026-2.19-.45-2.316 1.17zm-11.466 8.683-2.194 1.985c-1.083 1.279-1.626 1.138-3.186.959l-3.45-.398c-1.38.003-1.426-.328-1.944-1.507l-1.367-3.109c-.765-1.307-.424-1.49.48-2.575l1.924-2.303c.707-1.171 1.616-.591 2.815-.37l4.409.815c2.64.735 4.228-2.12 6-3.873.645-.769.747-.723 1.612-.362l1.002.418c1.606.574 2.164.572 2.248 2.195l.118 2.24c.317 1.857.066 2.294-1.193 3.515l-1.273 1.235c-.731.942-1.213.768-2.33.675l-1.017-.084c-1.254-.224-1.77-.258-2.654.544z" style="fill:#ebe7db;fill-opacity:1;stroke:none;stroke-width:1px;stroke-linecap:butt;stroke-linejoin:miter;stroke-opacity:1" transform="rotate(-13 1412.192 -1897.082)"/><path d="M460.895 351.458c-3.129 8.058 5.2 13.656 11.95 14.211 1.286 8.208 5.072 12.297 11.942 13.506 2.663.563 4.382.027 5.55-1.212l4.673-4.456c1.33-1.542 3.045-2.507 4.743-3.58l4.159-2.628c1.066-.506 5.577-2.296 6.253-3.129 3.745-10.598-5.402-19.738-10.044-19.063.977-8.178-7.95-12.659-13.113-14.74l-5.275 3.027-10.357 6.92-7.093 7.197z" style="fill:#b24559;fill-opacity:1;stroke:none;stroke-width:1px;stroke-linecap:butt;stroke-linejoin:miter;stroke-opacity:1" transform="rotate(-13 1412.192 -1897.082)"/><path d="M451.673 348.23c.321 9.987 8.685 3.592 13.491-.254 6.801-6.843 12.766-11.615 19.96-16.619 5.286-2.66 1.762-11.52-4.65-6.583-3.697 2.997-7.119 4.38-12.541 6.799-2.372 1.279-4.081 3.251-6.468 5.284-2.186 2.548-4.516 4.732-7.444 6.717-1.95 1.074-2.534 2.008-2.348 4.656zm33.37 35.588c.321 9.987 8.685 3.592 13.491-.254 5.738-5.773 10.88-10.073 16.67-14.28 5.474-1.442 2.786-12.083-3.54-7.312-2.95 1.975-6.012 3.248-10.361 5.189-2.372 1.279-4.081 3.251-6.468 5.284-2.186 2.548-4.516 4.732-7.444 6.717-1.95 1.074-2.534 2.008-2.348 4.656z" style="fill:#062332;fill-opacity:1;stroke:#062332;stroke-width:1px;stroke-linecap:butt;stroke-linejoin:miter;stroke-opacity:1" transform="rotate(-13 1412.192 -1897.082)"/><path d="m559.216 301.535-.703 3.586.33 4.2c.302 2.275.472 2.562 1.695 3.896 2.557 3.803 6.89 3.806 10.47 3.528 1.727-.406 3.253-1.322 4.24-3.612 2.467-5.526 2.423-10.42-1.55-14.258-1.514-1.663-2.51-1.635-4.706-1.524l-3.986.201c-2.982 1.094-4.3 2.135-5.79 3.983z" style="fill:#ebe9db;fill-opacity:1;stroke:none;stroke-width:1px;stroke-linecap:butt;stroke-linejoin:miter;stroke-opacity:1" transform="translate(506.055 112.49)"/><path d="m563.019 108.198 6.691 3.037 3.603-1.981 1.66-5.142c7.191.813 9.054-4.311 9.023-8.03-2.177-9.137-2.037-17.722-2.38-27.044-5.662 6.498-19.896 16.005-22.392 23.1-.408 2.691-.18 5.18 3.762 8.003l-.597 4.012z" style="fill:#2045b3;fill-opacity:1;stroke:none;stroke-width:1px;stroke-linecap:butt;stroke-linejoin:miter;stroke-opacity:1" transform="translate(529.863 108.063)"/><path d="m472.107 212.929-7.24-6.644c-2.65-12.66-4.134-25.465-5.627-38.294 7.501-20.51 10.89-30.305 22.715-43.022 4.416-5.398 9.262-8.629 15.07-11.351 11.105-5.193 23.02-9.179 34.233-11.778 28.596-7.682 60.052 16.812 73.237 31.847l7.403 10.919c1.91 2.93 3.631 8.046 3.979 12.405.984 12.33 2.23 25.719-1.216 35.5l-5.473 9.619-45.475 1.18-39.979 4.855-33.368 3.535z" style="fill:#b24559;fill-opacity:1;stroke:none;stroke-width:1px;stroke-linecap:butt;stroke-linejoin:miter;stroke-opacity:1" transform="translate(529.863 108.063)"/><path d="M485.043 202.125c51.383-.454 102.327-5.395 153.387-10.61 6.477-.195 9.383-1.362 11.673-1.243 7.305 2.05 8.924 8.795 4.437 13.893-3.1 4.701-7.945 3.39-13.122 3.614l-43.734 1.898-37.042 1.357-38.938 3.038-35.256 4.63c-9.482 1.175-14.715-7.625-9.954-12.798 2.22-2.182 4.818-3.746 8.549-3.779z" style="fill:#052435;fill-opacity:1;stroke:#052435;stroke-width:1px;stroke-linecap:butt;stroke-linejoin:miter;stroke-opacity:1" transform="translate(506.055 112.49)"/><g style="stroke-width:.96452"><path d="M247.397 586.234c27.884-6.67 45.183-17.784 69.234-31.97L94.888 167.433c-15.04-6.415-32.051-12.581-47.089-13.314-3.877-.43-4.25-.5-5.58 2.922-4.1 11.299-16.284 38.32-12.853 47.368z" style="fill:#e7e7e7;fill-opacity:1;stroke:#e6e8e6;stroke-width:.96452px;stroke-linecap:butt;stroke-linejoin:miter;stroke-opacity:1" transform="matrix(1.0385 .09248 -.09072 1.027 542.841 24.072)"/><g style="stroke-width:.96452"><path d="m284.665 572.148-36.266 17.1L28.602 201.794c1.865-16.696 9.049-31.984 15.322-47.514z" style="fill:#cfcfcf;fill-opacity:1;stroke:#cfcfcf;stroke-width:.96452px;stroke-linecap:butt;stroke-linejoin:miter;stroke-opacity:1" transform="matrix(1.0385 .09248 -.09072 1.027 542.841 24.072)"/><path d="m156.984 351.34-2.975 14.742 119.199 212.256 21.484-11.035-121.125-209.874Z" style="fill:#b3b3b3;fill-opacity:1;stroke:#b2b2b2;stroke-width:.96452px;stroke-linecap:butt;stroke-linejoin:miter;stroke-opacity:1" transform="matrix(1.0385 .09248 -.09072 1.027 542.841 24.072)"/></g><g style="stroke-width:.96452"><g style="stroke-width:.96452"><path d="M242.943 705.164c-1.065-2.804-.282-3.895 1.274-5.504.92-.863.675-2.493-.296-3.87-.74-1.079-.447-1.812.204-2.492l1.102-1.184c.413-.434.504-1.336-.112-2.3l-1.563-2.063c-.958-.995-.504-1.182.27-2.18l.77-.993c.524-.856.183-1.528-.426-2.367l-2.105-2.492c-1.13-1.219-.616-1.735.15-3.022l1.412-2.293c.605-.967.392-1.738-.241-2.48l-1.046-1.283c-.635-.493-.75-1.102-.018-2.05l.922-1.211c.534-.664.595-1.747.219-2.514l-.74-1.208c-.17-.387-.241-.788.077-1.462l1.205-2.553c.532-.876.161-1.494-.596-2.347l-.99-1.033c-.533-.508-.385-1.083.09-1.694l1.24-2.01c.434-.937.23-1.598-.244-2.685l-.59-1.35c-.351-.573-.223-1.257.227-1.847l1.33-2.16c.27-.36.012-1.46-.281-1.877l-.742-.84c-.498-.518-.25-1.03.072-1.412l.837-1.055c.317-.498-.14-.955-.548-1.383l-1.631-1.795c-1.028-1.418-1.38-1.423-2.998-1.207l-3.627.483-2.387-.01-5.119 5.634 1.347 1.082.041 2.983.483 3.478-.898 1.973.797 2.794-.171 1.665 1.479 2.564-1.715 3.155.938 2.96-.74 3.041 1.209 3.99-1.139 1.968 1.813 5.21c-.306 6.088-2.532 9.884-1.471 11.085 1.335 4.069.543 7.354.543 7.354 2.051 2.335-.377 6.97-1.87 9.281 10.878 13.442 8.168 12.44 14.253-.474z" style="fill:#042434;fill-opacity:1;stroke:none;stroke-width:.096452;stroke-linecap:butt;stroke-linejoin:miter;stroke-miterlimit:4;stroke-dasharray:none;stroke-opacity:1" transform="matrix(.94038 -.44251 .44987 .93138 279.645 152.884)"/><path d="M228.69 705.639c1.267-2.804.336-3.895-1.513-5.505-1.092-.863-.801-2.493.353-3.869.88-1.08.531-1.812-.243-2.492 0 0-1.907-2.521-1.175-3.485l1.856-2.063c1.137-.995.598-1.181-.32-2.18l-.916-.993c-.622-.856-.217-1.528.506-2.367l2.5-2.492c1.343-1.218.732-1.735-.177-3.022l-1.678-2.292c-.718-.968-.465-1.738.287-2.48l1.242-1.284c.755-.493.89-1.102.022-2.05l-1.095-1.211c-.634-.664-.707-1.747-.26-2.514l.877-1.208c.204-.386.288-.788-.09-1.462l-1.432-2.553c-.632-.876-.19-1.494.709-2.346l1.175-1.034c.633-.508.458-1.083-.107-1.694l-1.472-2.01c-.516-.936-.273-1.598.29-2.685l.699-1.35c.418-.573.265-1.257-.268-1.847l-1.581-2.16c-.32-.359-.013-1.46.335-1.876l.88-.841c.592-.518.297-1.03-.085-1.411l-.993-1.056c-.378-.498.165-.954.65-1.383l1.938-1.795c1.22-1.418 1.638-1.422 3.56-1.207-3.06 18.222 3.146 80.737-4.473 70.217z" style="fill:#042434;fill-opacity:1;stroke:none;stroke-width:.096452;stroke-linecap:butt;stroke-linejoin:miter;stroke-miterlimit:4;stroke-dasharray:none;stroke-opacity:1" transform="matrix(.94038 -.44251 .44987 .93138 279.645 152.884)"/></g><path d="M309.156 646.433c-1.62 4.16-.863 6.018.555 9.148l3.037 4.545c.86 1.818 2.072 2.609 3.7 3.635l6.857 4.322c1.512 1.304 3.379 1.705 5.056 1.968 3.522.547 8.39.882 13.075-.006 1.347-2.474.085-3.237 5.576-10.63-.232-1.966 1.25-6.805.3-10.995-1.521-6.708-4.336-14.145-9.645-15.529-1.86-.31-4.986-.37-7.388-.364-8.448.286-16.444 3.992-21.123 13.906zm-87.186-53.462 9.593-.931c2.237-.588 7.664-2.455 9.62-3.697 4.71-2.993 10.646-4.191 14.998-6.13 9.983-4.447 19.532-8.743 26.551-12.7 8.002-4.51 15.033-6.73 21.16-10.937 4.285-2.943 11.027-5.644 15.305-8.896 2.485-1.888 11.653-6.435 13.939-8.09 0 .738 4.563-6.665 4.563-6.665 2.974 6.802-1.11 12.032-4.53 17.898l-11.729 8.203c-9.652 4.607-18.163 6.634-26.546 13.14l-12.563 6.003c-13.123 5.652-23.103 10.381-37 15.653l-9.398 3.669c-10.04-.057-7.065-.352-13.962-6.52z" style="fill:#b24559;fill-opacity:1;stroke:none;stroke-width:.96452px;stroke-linecap:butt;stroke-linejoin:miter;stroke-opacity:1" transform="matrix(1.0385 .09248 -.09072 1.027 542.841 24.072)"/></g></g><path d="M324.983 627.448c-7.712.778-13.413 2.204-15.743-4.694-1.235-4.894-3.301-11.174-7.775-14.297-3.362-5.09.56-12.628 4.35-14.846 4.422-2.42 9.198-5.098 15.129-8.261 5.46-4.504 6.794-5.637 12.905.016 13.036 7.187 9.419 19.62 13.36 23.52 1.834 1.303-1.236 9.186-5.875 9.717-7.018.796-11.363 8.05-16.35 8.845z" style="fill:#ebe7db;fill-opacity:1;stroke:none;stroke-width:1px;stroke-linecap:butt;stroke-linejoin:miter;stroke-opacity:1" transform="rotate(7 31.212 4592.36)"/><path d="m336.475 580.168-.302-1.322c-.644-2.22.295-2.583 2.249-2.602l6.103-.06c2.847-.29 3.082 1.413 3.127 3.13l.027.844c.34 2.335.947 2.4 2.18 2.917l3.12 1.857c1.447 1.374.868 3.314.011 4.387-.499.912-1.148 1.74-2.272 2.3-1.19.596-3.41.403-4.653.029-3.346-.75-4.452-1.993-6.263-4.653l-1.443-2.12c-1.342-1.451-1.57-2.842-1.884-4.707z" style="fill:#e9e8dc;fill-opacity:1;stroke:none;stroke-width:1px;stroke-linecap:butt;stroke-linejoin:miter;stroke-opacity:1" transform="rotate(7 31.212 4592.36)"/><g style="stroke:none;stroke-opacity:1"><path d="M451.583 543.324c4.26.23-30.331 16.773-41.285 20.885-17.09 8.511-38.16 17.057-35.741 21.003-.607 11.654-15.532 14.72-14.591.92.048-.477.217-.932.385-1.346 2.384-6.403-4.224-4.355-7.545-8.795-.642-.77-1.228-1.182-1.689-2.31-1.162-2.516 2.318-6.43 4.702-7.514.702-.315 1.448-.312 2.147-.377 8.46-.726 5.91 1.575 8.542 4.166 5.254-.796 18.378-6 23.549-8.974 10.877-6.255 21.686-9.275 30.64-13.348 7.06-3.21 12.59-7.858 18.696-9.878l29.24-16.373 12.385 7.907z" style="fill:#ebe7db;fill-opacity:1;stroke:none;stroke-width:.1;stroke-linecap:butt;stroke-linejoin:miter;stroke-miterlimit:4;stroke-dasharray:none;stroke-opacity:1" transform="rotate(16 358.624 2314.215)"/><g style="stroke:none;stroke-opacity:1"><path d="M468.632 521.383c17.308-8.06 20.919-8.784 18.605-12.792.913-11.634 15.913-14.306 14.61-.536-.06.475-.241.925-.42 1.335-2.552 6.338 4.107 4.465 7.31 8.99.622.788 1.198 1.214 1.628 2.353 1.096 2.547-2.485 6.368-4.898 7.388-.709.297-1.455.275-2.156.321-8.476.503-5.866-1.73-8.429-4.39-5.274.658-8.617 2.401-13.864 5.238z" style="fill:#ebe7db;fill-opacity:1;stroke:none;stroke-width:.1;stroke-linecap:butt;stroke-linejoin:miter;stroke-miterlimit:4;stroke-dasharray:none;stroke-opacity:1" transform="rotate(16 358.624 2314.215)"/></g></g><path d="m305.637 590.81 46.967 141.051-115.807 23.605s-138.263-23.953-143.65-22.999c-5.387.955-162.216-96.923-162.216-96.923l-63.818-92.987-28.09-129.431 34.745-98.777 55.196-81.319 23.353-63.753L64.636 154.35l13.204 26.92-24.336 71.912 9.96 61.017 19.893 105.745 33.377 59.476 48.507 58.439 59.532 26.454 53.019 23.18z" style="fill:#fc5d2c;fill-opacity:1;stroke:none;stroke-width:2.652;stroke-linecap:butt;stroke-linejoin:miter;stroke-miterlimit:4;stroke-dasharray:none;stroke-opacity:1" transform="translate(269.771 104.785)"/><path d="M86.184 197.561C51.117 330.836 97.61 457.651 249.858 535.728l27.774 5.487 33.68 57.28c-39.413 6.51-60.34 3.909-95.659-3.042-17.844-5.698-23.825-8.066-38.945-17.004C23.614 467.136 14.136 237.607 73.907 173.997l18.206-5.068z" style="fill:#fcba3f;fill-opacity:1;stroke:#000;stroke-width:2.652;stroke-linecap:round;stroke-linejoin:round;stroke-miterlimit:4;stroke-dasharray:none;stroke-opacity:1" transform="translate(269.771 104.785)"/><path d="M237.3 741.3c-198.172 1.036-368.314-130.747-381.89-315.49 2.2-18.783 24.88-2.245 39.522 4.304 7.125 3.127 9.08 2.227 11.298-2.783 1.404-11.145-2.063-16.994-7.612-24.771-6.74-9.467 4.777-15.54 12.218-7.641 6.225 7.167 12.976 12.002 19.796 16.537 11.233 6.325 20.86 1.264 14.113-12.445-15.291-21.29-22.565-26.88-1.594-33.41 15.103-8.005 1.471-20.686-12.232-17.212-11.699 2.376-23.39 6.019-32.698 11.02-12.801 6.003-23.063-5.757-21.92-13.304.696-2.714 2.704-4.856 4.408-6.953 23.893-17.001 45.02-27.875 70.581-42.743l13.946-13.48c11.037-11.291-.45-11.817-5.933-13.29-5.773-1.318-9.223-6.575-2.187-8.635 19.214-2.904 24.947-4.462 21.117-16.92-4.312-11.215-3.018-9.068 6.218-14.47 9.429-5.263 19.612-10.563 26.61-17.432 5.694-6.598 1.614-9.022-8.696-14.059-5.59-2.922-11.582-4.81-17.71-7.07-25.015 10.249-27.01-3.63-.208-.117 59.444-35.327 116.723 10.285 162.757 53.362 13.93 7.575 33.221-10.955 65.96-14.03 11.618-.636 18.585-4.525 10.378-14.543-10.643-11.615-17.261-18.836-15.209-27.115 4.45-14.824 7.485-14.25-7.193-20.325-18.296-9.869-4.134-17.207 9.942-13.005 15.409 4.849 29.32-3.216 18.879-14.139-15.657-12.902-32.613-24.325-49.515-35.89-12.397-7.755-2.62-13.915 6.317-8.178 45.953 33.41 100.884 37.92 142.514 57.08 35.203 14.435 58.261.605 25.984-29.694-84.728-76.021-155.502-118.173-238.7-135-136.905-27.501-252.14 16.57-313.384 118.907-88.09 154.185-70.885 320.55-97.408 453.141-11.876 90.237-35.906 277.523-2.126 347.56 167.067 52.139 356.061 1.345 540.272-7.727 0 0-6.65-153.131-6.615-160.04z" style="fill:#fcba3f;fill-opacity:1;stroke:#000;stroke-width:2.652;stroke-linecap:butt;stroke-linejoin:miter;stroke-miterlimit:4;stroke-dasharray:none;stroke-opacity:.760784" transform="translate(269.771 104.785)"/><path d="M164.645 637.6C34.469 650.099-8.188 499.326-5.04 413.827" style="fill:none;stroke:#be3644;stroke-width:2.652;stroke-linecap:round;stroke-linejoin:miter;stroke-miterlimit:4;stroke-dasharray:none;stroke-opacity:1" transform="translate(269.771 104.785)"/><path d="M163.404 830.059c-185.575-35.12-346.815-167.155-389.864-320.343" style="fill:none;stroke:#0e3b3d;stroke-width:2.652;stroke-linecap:round;stroke-linejoin:miter;stroke-miterlimit:4;stroke-dasharray:none;stroke-opacity:1" transform="translate(269.771 104.785)"/><path d="M-316.92 571.848h23.993v22.309h-23.993z" style="fill:#fcba3f;fill-opacity:1;stroke:#fcba3f;stroke-width:6.1;stroke-linecap:square;stroke-miterlimit:4;stroke-dasharray:none;stroke-opacity:1" transform="matrix(-1 0 0 1 269.771 104.785)"/><path d="M-301.45 549.578h23.993v22.309h-23.993z" style="fill:#fcba3f;fill-opacity:1;stroke:#fcba3f;stroke-width:6.1;stroke-linecap:square;stroke-miterlimit:4;stroke-dasharray:none;stroke-opacity:1" transform="matrix(-1 0 0 1 269.771 104.785)"/><path d="M-294.307 545.099h23.993v22.309h-23.993z" style="fill:#fcba3f;fill-opacity:1;stroke:#fcba3f;stroke-width:6.1;stroke-linecap:square;stroke-miterlimit:4;stroke-dasharray:none;stroke-opacity:1" transform="matrix(-1 0 0 1 269.771 104.785)"/><path d="M-240.471 878.388h23.993v22.309h-23.993z" style="fill:#fcb433;fill-opacity:1;stroke:#fcb433;stroke-width:6.1;stroke-linecap:square;stroke-miterlimit:4;stroke-dasharray:none;stroke-opacity:1" transform="scale(-1 1) rotate(.93 -6588.521 -16562.606)"/><path d="M-255.347 856.118h23.993v22.309h-23.993z" style="fill:#fcba3f;fill-opacity:1;stroke:#fcba3f;stroke-width:6.1;stroke-linecap:square;stroke-miterlimit:4;stroke-dasharray:none;stroke-opacity:1" transform="matrix(-1 0 0 1 269.771 104.785)"/><path d="M-252.491 840.886h23.993v22.309h-23.993z" style="fill:#fcb433;fill-opacity:1;stroke:#fcb433;stroke-width:6.1;stroke-linecap:square;stroke-miterlimit:4;stroke-dasharray:none;stroke-opacity:1" transform="matrix(-1 0 0 1 269.771 104.785)"/><path d="M-252.491 821.71h23.993v22.309h-23.993zm.544-26.927h23.993v22.309h-23.993zm.329-27.826h23.993v22.309h-23.993zm1.983-24.67h23.993v22.309h-23.993z" style="fill:#fcba3f;fill-opacity:1;stroke:#fcba3f;stroke-width:6.1;stroke-linecap:square;stroke-miterlimit:4;stroke-dasharray:none;stroke-opacity:1" transform="matrix(-1 0 0 1 269.771 104.785)"/></svg>