<svg xmlns="http://www.w3.org/2000/svg" width="1612.578" height="994.868"><path d="m521.408 290.269 16.965.041.546-17.967 10.875-.055-.785 18.135 14.34.604.478-19.978 15.045.293 5.484-4.234 5.604-4.038-.127-14.832 7.034-7.018 5.014-4.68.702-9.797 4.517-1.226-.494-9.556 2.076-1.284-.256-9.76-1.504-15.982-12.618-14.288-21.73-7.644-24.779.099-30.027.154-24.353 9.675-15.144 8.626-6.397 5.647.789 14.243.25 10.376.997 11.356 5.97 7.288 10.104 8.94c.603 2.834.33 5.608.13 8.46l-5.936 1.91c-6.773 7.804 2.478 16.977 9.546 20.38l1.181 7.294-.25 7.425c6.794 4.298 13.554 3.173 21.232 2.595l-.108-17.523 5.732-.118z" style="fill:#ebe7db;fill-opacity:1;stroke:#ebe7db;stroke-width:1px;stroke-linecap:butt;stroke-linejoin:miter;stroke-opacity:1" transform="rotate(-6.429 2656.393 -4551.551)"/><path d="m529.473 210.566.102 17.741c2.018 5.834 2.346 5.727 11.136 5.747l14.12-.583c3.286-.13 5.808-.493 6.553-3.287l1.144-2.598 6.274-.878.778-5.864c1.714-2.279 2.294-7.711 2.517-12.415zM482.07 233.83c4.96 4.632 12.28 3.767 18.598 3.506l13.262-1.62-.64-10.37-2.785-2.906-.24-9.753-18.272-.473c-4.467.284-7.565 1.894-10.539 3.551-.061 6.435-.923 11.84.616 18.064z" style="fill:#102c3b;fill-opacity:1;stroke:#000;stroke-width:1px;stroke-linecap:butt;stroke-linejoin:miter;stroke-opacity:1" transform="rotate(-6.429 2656.393 -4551.551)"/><path d="M545.255 219.628a6.99 6.424 0 0 1-6.339 6.94 6.99 6.424 0 0 1-7.584-5.79 6.99 6.424 0 0 1 6.26-7 6.99 6.424 0 0 1 7.65 5.715zM490.67 223.906a6.99 6.424 0 0 1-6.34 6.94 6.99 6.424 0 0 1-7.583-5.79 6.99 6.424 0 0 1 6.259-7 6.99 6.424 0 0 1 7.65 5.715z" style="fill:#5fbf46;fill-opacity:1;stroke:none;stroke-width:.1;stroke-linecap:round;stroke-linejoin:round;stroke-miterlimit:4;stroke-dasharray:none;stroke-opacity:1;paint-order:stroke markers fill" transform="rotate(-6.429 2656.393 -4551.551)"/><path d="m509.506 247.45 2.282-1.927 2.078-2.043 2.623-1.634 1.089-1.927 5.06.293.688 2.128 2.479 1.773 1.957 2.07 1.45 2.1.486 6.297-6.777-.094-1.608-2.877-2.522-1.296-2.296 1.521s-.789 2.86-1.193 2.858c-.932-.006-5.835-.078-5.835-.078-.22-2.91-.151-4.26.039-7.163z" style="fill:#102c3b;fill-opacity:1;stroke:#000;stroke-width:1px;stroke-linecap:butt;stroke-linejoin:miter;stroke-opacity:1" transform="rotate(-6.429 2656.393 -4551.551)"/><path d="M315.06 678.951c-1.582 3.874-4.36-33.569-4.617-45.078-.123-9.818 5.727-27.325-.776-34.767-5.441-.834-9.762-2.505-7.24-9.283 2.39-5.278 5.31-3.415 8.189-2.122 6.391 6.072 14.308 1.453 21.65 1.148 4.17-.127 6.742 1.1 6.927 5.734-2.192 9.264-7.906 4.334-13.168 3.32-3.545 22.466-3.757 51.438-1.923 71.573l3.19 19.56-14.135 11.177zM-13.442 690.287c-.82 4.104-6.911-34.514-9.341-45.767-1.98-9.617-.868-25.95-8.66-32.028-5.502.211-8.74-2.577-7.545-9.71 1.348-5.635 7.35-4.585 10.42-3.86 7.425 4.754 8.808 1.503 15.96-.185 4.07-.914 5.977-2.037 7.036 2.478-.4 9.51 1.85 5.345-6.827 11.684-1.17 22.994 2.499 44.798 9.763 63.997L4.197 695.5l-11.765 13.649z" style="fill:#ebe7db;fill-opacity:1;stroke:#a6b4b5;stroke-width:.1;stroke-linecap:butt;stroke-linejoin:miter;stroke-miterlimit:4;stroke-dasharray:none;stroke-opacity:.939781" transform="matrix(-1 0 0 1 1266.758 123.486)"/><path d="M228.657 616.359c-4.165-.406 30.915-13.788 41.869-17.33 17.197-7.57 39.229-11.3 37.06-15.252 1.21-11.475 13.222-13.005 11.166.956-3.988 7.862 6.921-1.215 9.315 5.733 3.04 2.722 3.29 7.47-1.097 8.975-9.503.552-12.027-2.463-13.513-5.421-5.194.552-18.332 5.067-23.555 7.746-10.99 5.635-21.744 8.12-30.735 11.708-7.09 2.83-12.751 7.126-18.843 8.836l-29.516 14.718-11.74-8.24zM35.411 596.889c-17.886-6.679-39.733-12.975-37.74-17.153-1.844-11.665-17.351-13.05-14.515 1.107 4.474 7.796-4.875 4.92-6.937 12.177-2.944 2.973-.392 5.56 4.147 6.827 9.69-.025 9.542-.978 10.894-4.098 5.309.243 18.905 4.047 24.358 6.464 11.472 5.084 22.536 6.958 31.867 10.072 17.095 6.933 32.808 13.533 50.417 21.098l11.492-9.158c-25.45-7.615-48.276-20.389-73.983-27.336Z" style="fill:#ebe7db;fill-opacity:1;stroke:#a7b5b5;stroke-width:.1;stroke-linecap:butt;stroke-linejoin:miter;stroke-miterlimit:4;stroke-dasharray:none;stroke-opacity:1" transform="matrix(-1 0 0 1 1266.758 123.486)"/><path d="M52.392 489.145c4.656 18.98 11.902 41.08 7.26 41.836-8.718 8.36-.99 22.246 9.246 11.595 3.968-8.322 6.916 1.24 14.178-1.254 4.179.748 4.884-2.914 3.344-7.481-5.575-8.157-6.289-7.476-9.677-6.797-2.84-4.618-7.445-18.304-8.545-24.313-2.315-12.64-7.086-23.065-9.825-32.752-2.16-7.637-2.202-15.044-4.654-21.143l-6.565-33.684-14.26-4.348 7.922 30.072c2.491 16.737 5.835 31.942 11.576 48.27z" style="fill:#ebe7db;fill-opacity:1;stroke:#a7b5b5;stroke-width:.05;stroke-linecap:butt;stroke-linejoin:miter;stroke-miterlimit:4;stroke-dasharray:none;stroke-opacity:1" transform="matrix(-1 0 0 1 1266.758 123.486)"/><path d="m17.914 697.428-.197-11.133c-.212-2.707-2.032-4.056-4.855-4.387-11.016-1.294-36.264 11.331-42.999 18.75-2.67 2.941-1.183 7.262 3.114 10.777l4.729 3.604 16.907-9.232 10.638-3.623z" style="fill:#b24559;fill-opacity:1;stroke:none;stroke-width:1px;stroke-linecap:butt;stroke-linejoin:miter;stroke-opacity:1" transform="matrix(-1 0 0 1 1266.758 123.486)"/><path d="m17.732 696.036.668 6.535c3.628 6.785 5.444 14.218 12.07 19.573.904 9.165 3.162 11.392 6.116 17.87l-10.256.927c-20.29.789-38.077.51-58.379.894-7.706-2.344-3.9-5.833-.14-7.304l5.529-2.278 12.994-.235 2.46-4.347s-2.362.15-3.508-.356c-.08-6.633-2.103-7.918-6.345-13.343l17.654-9.513zM337.98 689.376c.96 9.115 1.914 30.142 8.076 39.047 1.533 2.444 2.974 3.215 5.723 3.146l22.137-.153c1.423 1.552 2.829 2.702 4.207 3.24.04 6.114-.899 5.962-4.733 6.527-19.481-.11-38.927.025-58.436.508-8.64-.706-8.693-1.749-9.412-6.47-1.638-11.064-4.137-21.719-6.7-33.48l-.524-9.926 18.329-1.175 17.387-.136z" style="fill:#000;fill-opacity:1;stroke:none;stroke-width:1px;stroke-linecap:butt;stroke-linejoin:miter;stroke-opacity:1" transform="matrix(-1 0 0 1 1266.758 123.486)"/><path d="M299.686 693.8c-9.253-.354-10.042-10.569-4.725-14.441 7.82-5.486 30.744-5.328 42.408-2.462 8.213 2.34 3.474 14.867-1.928 14.745-12.957-.962-25.393-.082-35.755 2.158z" style="fill:#b24559;fill-opacity:1;stroke:none;stroke-width:.999999px;stroke-linecap:butt;stroke-linejoin:miter;stroke-opacity:1" transform="matrix(-1 0 0 1 1266.758 123.486)"/><path d="m515.735 531.778.74 58.157c28.229 16.183 92.27 17.174 123.968-.33l1.274-57.631c-43.234-1.153-84.801-.802-125.982-.196z" style="fill:#042434;fill-opacity:1;stroke:none;stroke-width:1px;stroke-linecap:butt;stroke-linejoin:miter;stroke-opacity:1" transform="translate(531.69 205.362)"/><path d="M512.587 531.565c-.551 22.996-.42 45.166.255 65.423 4.803 20.254 29.22 22.124 36.58 3.615.912-16.868.477-35.114 1.118-53.575l-.107-16.078zM561.698 532.843c-.552 26.928-.261 53.04-1.408 76.76 4.803 23.715 33.48 21.99 40.84.317-1.145-19.752-2.12-37.353-1.48-58.97l-.106-18.826zM609.899 530.914c-.552 22.996.041 49.793.716 70.05 4.803 20.253 31.813 17.497 36.119-1.011.912-16.869.477-35.115 1.117-53.576l-.106-16.078z" style="fill:#b24559;fill-opacity:1;stroke:none;stroke-width:1px;stroke-linecap:butt;stroke-linejoin:miter;stroke-opacity:1" transform="translate(531.69 205.362)"/><path d="m509.631 511.463-1.151 3.443c-6.103 6.952-2.627 14.336 7.468 20.036 41.44-2.748 83.366-2.786 127.226-1.382 17.148-1.881 15.35-17.615 9.493-22.537-49.289.297-96.864 1.05-143.036.44z" style="fill:#042434;fill-opacity:1;stroke:none;stroke-width:1px;stroke-linecap:butt;stroke-linejoin:miter;stroke-opacity:1" transform="translate(531.69 205.362)"/><path d="M156.328 571.512c2.847 1.944 4.808 3.597 5.546 6.938.206.687.08 1.214-.089 1.892-1.2 3.44-3.039 6.29-6.414 7.518l-3.96.178c-3.287-1.174-4.572-3.698-5.673-7.067-.122-.702-.276-2.465.02-3.164 1.447-3.322 2.39-4.014 5.355-6.44 1.695-.106 3.251-.702 5.215.145zM157.626 549.663c2.847 1.944 4.808 3.597 5.546 6.938.206.687.08 1.214-.089 1.892-1.2 3.44-3.039 6.29-6.414 7.518l-3.96.178c-3.287-1.174-4.572-3.698-5.673-7.067-.122-.701-.276-2.465.02-3.164 1.446-3.322 2.39-4.014 5.355-6.44 1.695-.106 3.251-.701 5.215.145z" style="fill:#e9eadd;fill-opacity:1;stroke:none;stroke-width:.1;stroke-linecap:butt;stroke-linejoin:miter;stroke-miterlimit:4;stroke-dasharray:none;stroke-opacity:1" transform="matrix(-1 0 0 1 1266.758 123.486)"/><path d="M327.026 421.71c14.278-8.722 30.481-20.463 32.164-16.62 8.772 5.504 18.22-4.629 7.246-10.885-7.646-1.392-.592-6.31-4.284-11.997-.359-3.812-4.969-5.211-8.308-2.747-5.312 6.85-3.11 8.992-1.78 11.766-3.08 3.604-13.019 8.404-17.624 10.841-9.69 5.128-18.353 13.33-25.556 18.097-14.012 8.016-25.782 16.335-40.497 24.345l-.228 13.45c19.06-13.513 40.11-22.166 58.867-36.25z" style="fill:#ebe7db;fill-opacity:1;stroke:#a7b5b5;stroke-width:.0999998;stroke-linecap:butt;stroke-linejoin:miter;stroke-miterlimit:4;stroke-dasharray:none;stroke-opacity:1" transform="matrix(-1 0 0 1 1266.758 123.486)"/><path d="M554.381 444.531c21.692-3.283 34.916-8.748 55.937-8.748 4.671.147 4.618 10.244-1.167 10.733-10.668-1.596-19.808.072-30.166 2.166-13.487 2.75-17.235 2.24-25.275 6.369-2.943.583-5.557.477-6.857-2.4-1.473-5.804 2.79-5.869 7.528-8.12zM545.08 418.297c21.693-3.283 34.917-8.748 55.938-8.748 4.671.147 4.618 10.244-1.167 10.733-10.668-1.596-19.808.072-30.166 2.166-13.487 2.75-17.235 2.24-25.275 6.369-2.943.583-5.558.477-6.857-2.4-1.473-5.804 2.79-5.869 7.528-8.12zM536.168 394.373c28.577-4.621 45.838-10.9 73.68-12.2 6.193-.143 6.594 9.947-1.046 10.794-14.203-.934-26.23 1.297-39.853 4.03-17.735 3.58-22.722 3.304-33.18 7.926-3.869.765-7.337.82-9.193-1.973-2.222-5.707 3.422-6.035 9.592-8.577zM521.15 368.888c34.59-6.166 55.39-13.378 89.174-16.183 7.52-.476 8.27 9.594-.988 10.853-17.276-.167-31.827 2.714-48.3 6.183-21.449 4.54-27.514 4.532-40.095 9.72-4.68.974-8.891 1.217-11.218-1.477-2.848-5.588 3.998-6.22 11.427-9.096zM505.342 342.85c45.494-8.568 72.667-17.22 117.268-22.375 9.936-1 11.459 9.004-.737 10.906-22.893 1.038-42.015 4.93-63.654 9.542-28.172 6.028-36.206 6.443-52.598 12.5-6.148 1.3-11.713 1.836-14.937-.692-4.066-5.382 4.97-6.491 14.658-9.88z" style="fill:#ebe7db;fill-opacity:1;stroke:none;stroke-width:.1;stroke-linecap:butt;stroke-linejoin:miter;stroke-miterlimit:4;stroke-dasharray:none;stroke-opacity:1" transform="rotate(6.929 -875.423 4937.933)"/><path d="M547.258 336.2c1.001-3.476 2.113-6.763 2.27-11.696l10.92-2.136c.835 2.684.027 6.124 4 9.434 1.217 8.328 1.779 16.821 6.063 24.355l2.63 12.863 2.361 14.239 1.122 12.814 1.183 13.868 1.83 10.334c1.817 11.305 4.584 24.021 6.741 33.349-6.03 7.884-8.828 8.503-16.01 1.243-.755-17.369-.32-21.922-5.679-45.64l-3.055-16.543c-.532-8.688-3.123-17.375-7.282-26.063-.671-10.614-3.888-20.395-7.094-30.42z" style="fill:#ebe7db;fill-opacity:1;stroke:none;stroke-width:.1;stroke-linecap:butt;stroke-linejoin:miter;stroke-miterlimit:4;stroke-dasharray:none;stroke-opacity:1" transform="rotate(6.929 -875.423 4937.933)"/><path d="m618.73 292.286 17.603-12.627c1.3-1.147 3.276-1.706 5.008-2.002l37.713.06c.815-.18 2.753.602 3.939 1.373 22.755 14.862 33.118 26.646 38.867 50.934l-17.973 8.798-16.71 5.534c-2.775 1.265-5.846 1.724-8.633 1.78-35.448-6.192-50.46-22.547-59.814-53.85Z" style="fill:#b24559;fill-opacity:1;stroke:none;stroke-width:1px;stroke-linecap:butt;stroke-linejoin:miter;stroke-opacity:1" transform="rotate(6.929 -875.423 4937.933)"/><path d="m610.602 295.62-1.445-2.904c-.887-1.76-.66-4.153.852-6.193 1.076-1.316 2.042-1.591 3.225-1.911 4.062-.462 4.996-.166 7.771 3.5l2.258 3.735 4.439 8.05c.903 1.306 1.384 2.718 1.85 4.21l1.645 5.274c.325 1.424 1.106 2.812 1.804 3.892 1.438 2.217 3.244 4.251 4.809 6.405 1.538 3.015 4.21 4.999 6.695 6.638 7.78 5.12 16.604 8.775 24.852 11.199 3.56 1.39 6.82 1.503 10.307 1.135 9.935-1.06 17.369-3.468 25.597-8.368l8.018-2.517c2.698-.74 6.371-1.345 9.3-1.32 5.604.062 8.671 1.43 7.723 7.358-.131 1.547-2.26 2.67-3.566 3.46-4.954 2.828-8.456 4.12-14.052 5.805l-2.09.742-3.962 1.408c-2.243.648-4.33 1.599-6.415 2.625l-3.812 1.878c-1.918.663-4.016 1.735-5.884 2.047-1.125.185-2.292.31-3.44.36l-7.372.32c-2.314.31-4.538.057-6.826-.235l-6.809-.87-6.869-1.076c-4.282-.88-6.702-2.25-9.484-3.682l-7.406-4.658-6.65-4.787c-2.776-2.195-5.012-4.029-6.953-7.04l-6.255-9.706-3.996-7.267c-.23-.78-.959-2.113-1.121-3.173-.308-2.125-.568-4.241-1.843-6.524z" style="fill:#042434;fill-opacity:1;stroke:none;stroke-width:1px;stroke-linecap:butt;stroke-linejoin:miter;stroke-opacity:1" transform="rotate(6.929 -875.423 4937.933)"/><g style="stroke-width:.942799"><path d="m618.73 292.286 17.603-12.627c1.3-1.147 3.276-1.706 5.008-2.002l37.713.06c.815-.18 2.753.602 3.939 1.373 22.755 14.862 33.118 26.646 38.867 50.934l-17.973 8.798-16.71 5.534c-2.775 1.265-5.846 1.724-8.633 1.78-35.448-6.192-50.46-22.547-59.814-53.85Z" style="fill:#b24559;fill-opacity:1;stroke:none;stroke-width:.942799px;stroke-linecap:butt;stroke-linejoin:miter;stroke-opacity:1" transform="matrix(-1.02945 .03645 -.08437 1.09582 1707.225 177.744)"/><path d="m610.602 295.62-1.445-2.904c-.887-1.76-.66-4.153.852-6.193 1.076-1.316 2.042-1.591 3.225-1.911 4.062-.462 4.996-.166 7.771 3.5l2.258 3.735 4.439 8.05c.903 1.306 1.384 2.718 1.85 4.21l1.645 5.274c.325 1.424 1.106 2.812 1.804 3.892 1.438 2.217 3.244 4.251 4.809 6.405 1.538 3.015 4.21 4.999 6.695 6.638 7.78 5.12 16.604 8.775 24.852 11.199 3.56 1.39 6.82 1.503 10.307 1.135 9.935-1.06 17.369-3.468 25.597-8.368l8.018-2.517c2.698-.74 6.371-1.345 9.3-1.32 5.604.062 8.671 1.43 7.723 7.358-.131 1.547-2.26 2.67-3.566 3.46-4.954 2.828-8.456 4.12-14.052 5.805l-2.09.742-3.962 1.408c-2.243.648-4.33 1.599-6.415 2.625l-3.812 1.878c-1.918.663-4.016 1.735-5.884 2.047-1.125.185-2.292.31-3.44.36l-7.372.32c-2.314.31-4.538.057-6.826-.235l-6.809-.87-6.869-1.076c-4.282-.88-6.702-2.25-9.484-3.682l-7.406-4.658-6.65-4.787c-2.776-2.195-5.012-4.029-6.953-7.04l-6.255-9.706-3.996-7.267c-.23-.78-.959-2.113-1.121-3.173-.308-2.125-.568-4.241-1.843-6.524z" style="fill:#042434;fill-opacity:1;stroke:none;stroke-width:.942799px;stroke-linecap:butt;stroke-linejoin:miter;stroke-opacity:1" transform="matrix(-1.02945 .03645 -.08437 1.09582 1707.225 177.744)"/></g><path d="M513.654 380.623c-1-4.146 24.751 24.264 31.825 33.583 13.046 13.94 27.264 31.683 30.353 28.236 11.34-2.753 18.548 10.67 5.057 13.718-.47.09-.955.058-1.4.016-6.817-.452-2.965 5.293-6.268 9.746-.555.836-.782 1.515-1.73 2.28-2.079 1.833-6.825-.381-8.545-2.356-.503-.582-.714-1.298-.977-1.95-3.116-7.898-.181-6.113 1.549-9.376-2.267-4.807-11.01-15.893-15.338-19.996-9.106-8.633-15.093-18.125-21.558-25.54-5.097-5.846-11.132-9.815-14.815-15.087l-24.055-23.331 4.031-14.13z" style="fill:#ebe7db;fill-opacity:1;stroke:#91b5b5;stroke-width:.1;stroke-linecap:butt;stroke-linejoin:miter;stroke-miterlimit:4;stroke-dasharray:none;stroke-opacity:.712066" transform="rotate(-22.956 1421.38 -938.579)"/><path d="M426.616 318.996c-2.28-7.408-1.967-6.971 2.68-12.632 4.473-3.368 8.374-7.297 12.276-11.282 4.33-4.298 11.528-4.817 14.449-1.537 3.243 3.86 6.807 8.016 11.076 13.208 5.49 4.468 6.863 5.553 2.522 12.656-4.481 14.195-17.383 13.095-20.43 17.726-.918 2.055-9.251.595-10.684-3.848-2.162-6.724-10.128-9.557-11.89-14.291z" style="fill:#ebe7db;fill-opacity:1;stroke:none;stroke-width:1px;stroke-linecap:butt;stroke-linejoin:miter;stroke-opacity:1" transform="rotate(-22.956 1421.38 -938.579)"/><path d="m457.247 277.198 7.617-.618.248 1.624 2.446 1.92c-.137 4.039-.063 8.068.086 12.102.22 1.211-1.082 2.365-1.729 2.897l-5.878.109c-2.172-.61-3.287-2.063-3.58-4.002-.575-4.283-.197-8.65-.064-12.97-.017-.9-.055-.988.854-1.062z" style="fill:#ebe7db;fill-opacity:1;stroke:none;stroke-width:.3;stroke-linecap:butt;stroke-linejoin:miter;stroke-miterlimit:4;stroke-dasharray:none;stroke-opacity:1" transform="rotate(-22.956 1421.38 -938.579)"/><path d="m430.649 277.497-1.326-2.117c-.554-.701-.43-.825-.005-1.543l1.528-2.581c.394-.805 1.296-.794 2.11-1.03l1.932-.559c1.075-.455 2.158-.041 3.263.15l1.495.259c1.45.028 1.086 1.148 1.21 2.374l.608 5.94c1.605 1.229 3.281 2.434 3.886 3.984.419.921-.247 1.774-.663 2.474-.638.852-1.531 1.57-2.545 2.227-.867.702-1.604.757-2.711.85-1.403.218-1.478.226-1.92-1.037l-1.548-4.419c-.202-.774-.572-1.459-.942-2.16l-.615-1.167c-.333-.883-.627-.667-1.483-.544-1.464.373-1.527.092-2.274-1.101z" style="fill:#ebe7db;fill-opacity:1;stroke:none;stroke-width:.1;stroke-linecap:butt;stroke-linejoin:miter;stroke-miterlimit:4;stroke-dasharray:none;stroke-opacity:1" transform="rotate(-22.956 1421.38 -938.579)"/><path d="M415.108 251.891c.004 2.533.127 4.77.333 6.807 1.457 2.958 2.914 4.053 5.751 5.304 1.469.561 2.65.79 3.94 1.145 1.043.114 2.244.232 3.28-.066l1.152-.616c.851-.64.636-1.633.577-2.573-.955-4.594-1.38-6.442-5.28-10.33-3.057-2.407-9.872-1.937-9.753.33zM421.917 290.53l3.967 4.136c.88 1.134 2.127 1.656 3.357 2.334 1.214.85 1.201.453 1.557-.67.646-1.867 1.218-2.201 3.2-2.321 1.077.014 1.036-.057.873-1.126l-.244-1.6c-.285-1.79-.787-2.633-1.843-3.735-5.24-5.685-3.863-8.588-6.204-9.035-9.024-.682-10.128.954-8.501 6.31.526 2.3 2.277 3.855 3.838 5.707zM394.827 276.637l1.714-1.907c.827-1.205 1.34-1.349 2.696-1.489l4.727-.488c2.166-.188 3.62-.305 5.332.662 1.711.942 3.254 1.78 3.643 3.86-.058 7.467-9.578 5.249-15.216 4.589-1.028-.048-2.264-.571-2.766-1.183l-.552-1.544c-.64-1.317-.492-1.484.422-2.5zM401.98 296.5l-.43 5.475c-.302 1.5.084 1.519 1.298 1.79 4.706 1.007 7.082.848 9.188.554 1.49-.054 1.679.254 2.42 1.43l.801 1.27c.476.937.587.915 1.554.743l1.417-.252c1.384-.153 1.305-.197 1.047-1.48-.396-1.432-.419-1.533.812-2.194l.924-.497c1.088-.502 1.15-.498.776-1.571l-.562-1.612c-.229-1.853-.492-1.8-2.019-1.543-4.405.625-6.533-.657-10.49-3.333l-4.42.051c-1.602.026-2.19-.45-2.316 1.17zM390.514 305.183l-2.194 1.985c-1.083 1.279-1.626 1.138-3.186.959l-3.45-.398c-1.38.003-1.426-.328-1.944-1.507l-1.367-3.109c-.765-1.307-.424-1.49.48-2.575l1.924-2.303c.707-1.171 1.616-.591 2.815-.37l4.409.815c2.64.735 4.228-2.12 6-3.873.645-.769.747-.723 1.612-.362l1.002.418c1.606.574 2.164.572 2.248 2.195l.118 2.24c.317 1.857.066 2.294-1.193 3.515l-1.273 1.235c-.731.942-1.213.768-2.33.675l-1.017-.084c-1.254-.224-1.77-.258-2.654.544z" style="fill:#ebe7db;fill-opacity:1;stroke:none;stroke-width:1px;stroke-linecap:butt;stroke-linejoin:miter;stroke-opacity:1" transform="rotate(-22.956 1421.38 -938.579)"/><path d="M460.895 351.458c-3.129 8.058 5.2 13.656 11.95 14.211 1.286 8.208 5.072 12.297 11.942 13.506 2.663.563 4.382.027 5.55-1.212l4.673-4.456c1.33-1.542 3.045-2.507 4.743-3.58l4.159-2.628c1.066-.506 5.577-2.296 6.253-3.129 3.745-10.598-5.402-19.738-10.044-19.063.977-8.178-7.95-12.659-13.113-14.74l-5.275 3.027-10.357 6.92-7.093 7.197z" style="fill:#b24559;fill-opacity:1;stroke:none;stroke-width:1px;stroke-linecap:butt;stroke-linejoin:miter;stroke-opacity:1" transform="rotate(-22.956 1421.38 -938.579)"/><path d="M451.673 348.23c.321 9.987 8.685 3.592 13.491-.254 6.801-6.843 12.766-11.615 19.96-16.619 5.286-2.66 1.762-11.52-4.65-6.583-3.697 2.997-7.119 4.38-12.541 6.799-2.372 1.279-4.081 3.251-6.468 5.284-2.186 2.548-4.516 4.732-7.444 6.717-1.95 1.074-2.534 2.008-2.348 4.656zM485.043 383.818c.321 9.987 8.685 3.592 13.491-.254 5.738-5.773 10.88-10.073 16.67-14.28 5.474-1.442 2.786-12.083-3.54-7.312-2.95 1.975-6.012 3.248-10.361 5.189-2.372 1.279-4.081 3.251-6.468 5.284-2.186 2.548-4.516 4.732-7.444 6.717-1.95 1.074-2.534 2.008-2.348 4.656z" style="fill:#062332;fill-opacity:1;stroke:#062332;stroke-width:1px;stroke-linecap:butt;stroke-linejoin:miter;stroke-opacity:1" transform="rotate(-22.956 1421.38 -938.579)"/><path d="m177.006 385.349.296 3.642-.798 4.136c-.555 2.227-.755 2.493-2.12 3.683-2.967 3.493-7.273 3.01-10.799 2.333-1.67-.597-3.085-1.678-3.809-4.064-1.833-5.768-1.241-10.626 3.137-13.994 1.69-1.484 2.677-1.345 4.847-.989l3.938.647c2.84 1.42 4.034 2.603 5.308 4.606z" style="fill:#ebe9db;fill-opacity:1;stroke:none;stroke-width:1px;stroke-linecap:butt;stroke-linejoin:miter;stroke-opacity:1" transform="matrix(-1 0 0 1 1266.758 123.486)"/><path d="m563.019 108.198 6.691 3.037 3.603-1.981 1.66-5.142c7.191.813 9.054-4.311 9.023-8.03-2.177-9.137-2.037-17.722-2.38-27.044-5.662 6.498-19.896 16.005-22.392 23.1-.408 2.691-.18 5.18 3.762 8.003l-.597 4.012z" style="fill:#2045b3;fill-opacity:1;stroke:none;stroke-width:1px;stroke-linecap:butt;stroke-linejoin:miter;stroke-opacity:1" transform="rotate(-6.429 2618.839 -4528.157)"/><path d="m472.107 212.929-7.24-6.644c-2.65-12.66-4.134-25.465-5.627-38.294 7.501-20.51 10.89-30.305 22.715-43.022 4.416-5.398 9.262-8.629 15.07-11.351 11.105-5.193 23.02-9.179 34.233-11.778 28.596-7.682 60.052 16.812 73.237 31.847l7.403 10.919c1.91 2.93 3.631 8.046 3.979 12.405.984 12.33 2.23 25.719-1.216 35.5l-5.473 9.619-45.475 1.18-39.979 4.855-33.368 3.535z" style="fill:#b24559;fill-opacity:1;stroke:none;stroke-width:1px;stroke-linecap:butt;stroke-linejoin:miter;stroke-opacity:1" transform="rotate(-6.429 2618.839 -4528.157)"/><path d="M261.843 294.869c-51.01-6.205-101.08-16.819-151.235-27.717-6.415-.919-9.171-2.405-11.461-2.543-7.488 1.22-9.852 7.741-5.965 13.31 2.554 5.018 7.516 4.257 12.636 5.06l43.246 6.782 36.658 5.496 38.352 7.379 34.516 8.548c9.291 2.229 15.476-5.93 11.325-11.603-1.962-2.417-4.369-4.262-8.072-4.712z" style="fill:#052435;fill-opacity:1;stroke:#052435;stroke-width:1px;stroke-linecap:butt;stroke-linejoin:miter;stroke-opacity:1" transform="matrix(-1 0 0 1 1266.758 123.486)"/><g style="stroke:none;stroke-width:1.14384;stroke-opacity:1"><path d="M451.583 543.324c4.26.23-30.331 16.773-41.285 20.885-17.09 8.511-38.16 17.057-35.741 21.003-.607 11.654-15.532 14.72-14.591.92.048-.477.217-.932.385-1.346 2.384-6.403-4.224-4.355-7.545-8.795-.642-.77-1.228-1.182-1.689-2.31-1.162-2.516 2.318-6.43 4.702-7.514.702-.315 1.448-.312 2.147-.377 8.46-.726 5.91 1.575 8.542 4.166 5.254-.796 18.378-6 23.549-8.974 10.877-6.255 21.686-9.275 30.64-13.348 7.06-3.21 12.59-7.858 18.696-9.878l29.24-16.373 12.385 7.907z" style="fill:#ebe7db;fill-opacity:1;stroke:none;stroke-width:.114384;stroke-linecap:butt;stroke-linejoin:miter;stroke-miterlimit:4;stroke-dasharray:none;stroke-opacity:1" transform="matrix(-.11619 .83754 -.89752 -.10842 1419.26 144.444)"/><g style="stroke:none;stroke-width:1.14384;stroke-opacity:1"><path d="M468.632 521.383c17.308-8.06 20.919-8.784 18.605-12.792.913-11.634 15.913-14.306 14.61-.536-.06.475-.241.925-.42 1.335-2.552 6.338 4.107 4.465 7.31 8.99.622.788 1.198 1.214 1.628 2.353 1.096 2.547-2.485 6.368-4.898 7.388-.709.297-1.455.275-2.156.321-8.476.503-5.866-1.73-8.429-4.39-5.274.658-8.617 2.401-13.864 5.238z" style="fill:#ebe7db;fill-opacity:1;stroke:none;stroke-width:.114384;stroke-linecap:butt;stroke-linejoin:miter;stroke-miterlimit:4;stroke-dasharray:none;stroke-opacity:1" transform="matrix(-.11619 .83754 -.89752 -.10842 1419.26 144.444)"/></g></g><path d="m422.75 259.103.853 1.054c1.35 1.877 2.215 1.363 3.437-.162l3.816-4.764c1.986-2.06.792-3.296-.53-4.391l-.647-.544c-1.627-1.71-1.304-2.227-.95-3.516l.467-3.6c-.187-1.986-2.07-2.73-3.443-2.718-1.025-.171-2.077-.172-3.212.366-1.204.568-2.423 2.433-2.896 3.642-1.478 3.094-1.182 4.732-.209 7.8l.776 2.444c.312 1.952 1.266 2.99 2.538 4.389z" style="fill:#e9e8dc;fill-opacity:1;stroke:none;stroke-width:1px;stroke-linecap:butt;stroke-linejoin:miter;stroke-opacity:1" transform="matrix(-1 0 0 1 1266.758 123.486)"/><g style="stroke-width:.96452"><path d="M247.397 586.234c27.884-6.67 45.183-17.784 69.234-31.97L94.888 167.433c-15.04-6.415-32.051-12.581-47.089-13.314-3.877-.43-4.25-.5-5.58 2.922-4.1 11.299-16.284 38.32-12.853 47.368z" style="fill:#e7e7e7;fill-opacity:1;stroke:#e6e8e6;stroke-width:.96452px;stroke-linecap:butt;stroke-linejoin:miter;stroke-opacity:1" transform="matrix(-.89915 -.52778 .52127 -.88952 767.55 1071.254)"/><g style="stroke-width:.96452"><path d="m284.665 572.148-36.266 17.1L28.602 201.794c1.865-16.696 9.049-31.984 15.322-47.514z" style="fill:#cfcfcf;fill-opacity:1;stroke:#cfcfcf;stroke-width:.96452px;stroke-linecap:butt;stroke-linejoin:miter;stroke-opacity:1" transform="matrix(-.89915 -.52778 .52127 -.88952 767.55 1071.254)"/><path d="m156.984 351.34-2.975 14.742 119.199 212.256 21.484-11.035-121.125-209.874Z" style="fill:#b3b3b3;fill-opacity:1;stroke:#b2b2b2;stroke-width:.96452px;stroke-linecap:butt;stroke-linejoin:miter;stroke-opacity:1" transform="matrix(-.89915 -.52778 .52127 -.88952 767.55 1071.254)"/></g><g style="stroke-width:.96452"><g style="stroke-width:.96452"><path d="M242.943 705.164c-1.065-2.804-.282-3.895 1.274-5.504.92-.863.675-2.493-.296-3.87-.74-1.079-.447-1.812.204-2.492l1.102-1.184c.413-.434.504-1.336-.112-2.3l-1.563-2.063c-.958-.995-.504-1.182.27-2.18l.77-.993c.524-.856.183-1.528-.426-2.367l-2.105-2.492c-1.13-1.219-.616-1.735.15-3.022l1.412-2.293c.605-.967.392-1.738-.241-2.48l-1.046-1.283c-.635-.493-.75-1.102-.018-2.05l.922-1.211c.534-.664.595-1.747.219-2.514l-.74-1.208c-.17-.387-.241-.788.077-1.462l1.205-2.553c.532-.876.161-1.494-.596-2.347l-.99-1.033c-.533-.508-.385-1.083.09-1.694l1.24-2.01c.434-.937.23-1.598-.244-2.685l-.59-1.35c-.351-.573-.223-1.257.227-1.847l1.33-2.16c.27-.36.012-1.46-.281-1.877l-.742-.84c-.498-.518-.25-1.03.072-1.412l.837-1.055c.317-.498-.14-.955-.548-1.383l-1.631-1.795c-1.028-1.418-1.38-1.423-2.998-1.207l-3.627.483-2.387-.01-5.119 5.634 1.347 1.082.041 2.983.483 3.478-.898 1.973.797 2.794-.171 1.665 1.479 2.564-1.715 3.155.938 2.96-.74 3.041 1.209 3.99-1.139 1.968 1.813 5.21c-.306 6.088-2.532 9.884-1.471 11.085 1.335 4.069.543 7.354.543 7.354 2.051 2.335-.377 6.97-1.87 9.281 10.878 13.442 8.168 12.44 14.253-.474z" style="fill:#042434;fill-opacity:1;stroke:none;stroke-width:.096452;stroke-linecap:butt;stroke-linejoin:miter;stroke-miterlimit:4;stroke-dasharray:none;stroke-opacity:1" transform="matrix(-1.03929 -.00222 -.00828 -1.0343 1060.552 1067.391)"/><path d="M228.69 705.639c1.267-2.804.336-3.895-1.513-5.505-1.092-.863-.801-2.493.353-3.869.88-1.08.531-1.812-.243-2.492 0 0-1.907-2.521-1.175-3.485l1.856-2.063c1.137-.995.598-1.181-.32-2.18l-.916-.993c-.622-.856-.217-1.528.506-2.367l2.5-2.492c1.343-1.218.732-1.735-.177-3.022l-1.678-2.292c-.718-.968-.465-1.738.287-2.48l1.242-1.284c.755-.493.89-1.102.022-2.05l-1.095-1.211c-.634-.664-.707-1.747-.26-2.514l.877-1.208c.204-.386.288-.788-.09-1.462l-1.432-2.553c-.632-.876-.19-1.494.709-2.346l1.175-1.034c.633-.508.458-1.083-.107-1.694l-1.472-2.01c-.516-.936-.273-1.598.29-2.685l.699-1.35c.418-.573.265-1.257-.268-1.847l-1.581-2.16c-.32-.359-.013-1.46.335-1.876l.88-.841c.592-.518.297-1.03-.085-1.411l-.993-1.056c-.378-.498.165-.954.65-1.383l1.938-1.795c1.22-1.418 1.638-1.422 3.56-1.207-3.06 18.222 3.146 80.737-4.473 70.217z" style="fill:#042434;fill-opacity:1;stroke:none;stroke-width:.096452;stroke-linecap:butt;stroke-linejoin:miter;stroke-miterlimit:4;stroke-dasharray:none;stroke-opacity:1" transform="matrix(-1.03929 -.00222 -.00828 -1.0343 1060.552 1067.391)"/></g><path d="M309.156 646.433c-1.62 4.16-.863 6.018.555 9.148l3.037 4.545c.86 1.818 2.072 2.609 3.7 3.635l6.857 4.322c1.512 1.304 3.379 1.705 5.056 1.968 3.522.547 8.39.882 13.075-.006 1.347-2.474.085-3.237 5.576-10.63-.232-1.966 1.25-6.805.3-10.995-1.521-6.708-4.336-14.145-9.645-15.529-1.86-.31-4.986-.37-7.388-.364-8.448.286-16.444 3.992-21.123 13.906zM221.97 592.971l9.593-.931c2.237-.588 7.664-2.455 9.62-3.697 4.71-2.993 10.646-4.191 14.998-6.13 9.983-4.447 19.532-8.743 26.551-12.7 8.002-4.51 15.033-6.73 21.16-10.937 4.285-2.943 11.027-5.644 15.305-8.896 2.485-1.888 11.653-6.435 13.939-8.09 0 .738 4.563-6.665 4.563-6.665 2.974 6.802-1.11 12.032-4.53 17.898l-11.729 8.203c-9.652 4.607-18.163 6.634-26.546 13.14l-12.563 6.003c-13.123 5.652-23.103 10.381-37 15.653l-9.398 3.669c-10.04-.057-7.065-.352-13.962-6.52z" style="fill:#b24559;fill-opacity:1;stroke:none;stroke-width:.96452px;stroke-linecap:butt;stroke-linejoin:miter;stroke-opacity:1" transform="matrix(-.89915 -.52778 .52127 -.88952 767.55 1071.254)"/></g></g><path d="M324.983 627.448c-7.712.778-13.413 2.204-15.743-4.694-1.235-4.894-3.301-11.174-7.775-14.297-3.362-5.09.56-12.628 4.35-14.846 4.422-2.42 9.198-5.098 15.129-8.261 5.46-4.504 6.794-5.637 12.905.016 13.036 7.187 9.419 19.62 13.36 23.52 1.834 1.303-1.236 9.186-5.875 9.717-7.018.796-11.363 8.05-16.35 8.845z" style="fill:#ebe7db;fill-opacity:1;stroke:none;stroke-width:1px;stroke-linecap:butt;stroke-linejoin:miter;stroke-opacity:1" transform="rotate(-147.784 534.493 421.317)"/><path d="M562.669 704.943c99.947 47.62 4.198 28.592-30.633 78.333 28.235 51.856 7.578 72.297-49.785 104.142l88.614 15.906c302.124-.277 403.104.387 731.17-5.407 35.89-131.667 4.015-331.568-1.626-336.074-301.665 343.097-510.198 17.786-737.74 143.1z" style="fill:#fcb442;fill-opacity:1;stroke:#000;stroke-width:2.652;stroke-linecap:butt;stroke-linejoin:miter;stroke-miterlimit:4;stroke-dasharray:none;stroke-opacity:1" transform="matrix(-1 0 0 1 1266.758 123.486)"/><path d="M962.773 857.5c-47.05-2.635-85.177-33.345-106.608-69.305-4.546-8.258-3.13-6.213-8.667 1.577-4.352 7.127-5.876 6.493-11.786 5.508-5.695-1.316-5.172.505-7.717 5.707-6.664 13.279-11.537 18.238-17.195 11.595-5.923-7.49-15.492 1.595-25.377 10.355-21.416 17.763-49.945 27.83-75.533 40.193" style="fill:#bd3445;fill-opacity:1;stroke:#000;stroke-width:2.652;stroke-linecap:butt;stroke-linejoin:miter;stroke-miterlimit:4;stroke-dasharray:none;stroke-opacity:1" transform="matrix(-1 0 0 1 1266.758 123.486)"/><path d="M1262.28 813.522c-47.05-2.634-85.176-33.344-106.607-69.304-4.546-8.258-3.13-6.213-8.667 1.577-4.352 7.127-5.876 6.493-11.786 5.508-5.696-1.316-5.173.505-7.718 5.707-6.664 13.279-11.536 18.238-17.194 11.595-5.923-7.49-15.493 1.595-25.377 10.355-21.416 17.763-49.946 27.83-75.533 40.193" style="fill:#fc5e3c;fill-opacity:1;stroke:#000;stroke-width:2.652;stroke-linecap:butt;stroke-linejoin:miter;stroke-miterlimit:4;stroke-dasharray:none;stroke-opacity:1" transform="matrix(-1 0 0 1 1266.758 123.486)"/><path d="M927.862 785.263c-47.051-2.634-85.177-33.345-106.608-69.304-4.547-8.258-3.13-6.213-8.667 1.577-4.352 7.127-5.877 6.492-11.787 5.508-5.695-1.316-5.172.504-7.717 5.706-6.664 13.28-11.537 18.239-17.194 11.596-5.923-7.491-15.493 1.594-25.377 10.354-21.416 17.763-49.946 27.83-75.533 40.194" style="fill:#e83b2b;fill-opacity:1;stroke:#000;stroke-width:2.652;stroke-linecap:butt;stroke-linejoin:miter;stroke-miterlimit:4;stroke-dasharray:none;stroke-opacity:1" transform="matrix(-1 0 0 1 1266.758 123.486)"/></svg>