<?xml version="1.0" encoding="UTF-8" standalone="no"?>
<!-- Created with Inkscape (http://www.inkscape.org/) -->

<svg
   width="850.22687"
   height="1416.9791"
   viewBox="0 0 850.22688 1416.9792"
   version="1.1"
   id="SVGRoot"
   sodipodi:docname="AtaqueElectrico.svg"
   inkscape:version="1.1.2 (0a00cf5339, 2022-02-04)"
   inkscape:export-filename="/home/ciro/Desktop/david/Enemi/DefensaEnemigo/21.png"
   inkscape:export-xdpi="96"
   inkscape:export-ydpi="96"
   xmlns:inkscape="http://www.inkscape.org/namespaces/inkscape"
   xmlns:sodipodi="http://sodipodi.sourceforge.net/DTD/sodipodi-0.dtd"
   xmlns="http://www.w3.org/2000/svg"
   xmlns:svg="http://www.w3.org/2000/svg">
  <sodipodi:namedview
     id="namedview1048"
     pagecolor="#505050"
     bordercolor="#eeeeee"
     borderopacity="1"
     inkscape:pageshadow="0"
     inkscape:pageopacity="0"
     inkscape:pagecheckerboard="0"
     inkscape:document-units="px"
     showgrid="false"
     inkscape:zoom="0.1767767"
     inkscape:cx="480.83261"
     inkscape:cy="545.88643"
     inkscape:window-width="1024"
     inkscape:window-height="740"
     inkscape:window-x="1360"
     inkscape:window-y="0"
     inkscape:window-maximized="1"
     inkscape:current-layer="layer1"
     inkscape:snap-global="false" />
  <defs
     id="defs1043" />
  <g
     inkscape:label="Capa 1"
     inkscape:groupmode="layer"
     id="layer1"
     transform="translate(-149.67839,514.47339)">
    <path
       style="fill:#dbffff;fill-opacity:1;stroke:#52f5dd;stroke-width:6.243;stroke-linecap:butt;stroke-linejoin:miter;stroke-opacity:1;stroke-miterlimit:4;stroke-dasharray:none"
       d="m 207.35003,719.92237 c 6.52652,-20.93258 30.1598,-37.29103 43.58053,-61.0201 35.91019,-57.99018 98.28651,-155.91118 89.68868,-217.89399 -1.23911,-8.84346 -3.19112,-19.0356 -5.4794,-29.29313 -2.28826,-10.25752 -7.01584,-25.55619 -8.35905,-32.16839 0.14874,-23.24139 -4.60675,-24.55385 -10.95159,-22.71901 -23.70794,-3.01035 -56.8068,4.46677 -62.62909,-19.17562 40.81832,4.10187 52.09749,15.80636 75.79134,-1.96241 4.55575,-7.35169 16.68605,-3.79746 21.29858,-11.56363 4.61261,-7.76616 4.33638,-16.32328 1.82724,-29.24051 -2.50914,-12.91724 -13.3489,-32.46416 -21.31014,-43.63422 -7.96125,-11.17007 -15.01329,-15.43289 -24.17182,-23.8424 -9.15853,-8.40951 -18.17701,-15.71052 -30.8901,-26.37269 -12.71308,-10.66217 -50.62366,-19.92887 -45.47253,-37.45935 5.15114,-17.53049 28.16921,-0.0175 40.16038,1.71465 11.99117,1.73288 21.75879,7.21897 31.59734,7.8545 9.83854,0.63551 16.92861,0.39065 26.67091,-3.09899 9.74229,-3.48966 20.96227,-10.53782 30.17085,-19.08668 9.20858,-8.54886 17.91586,-18.94162 24.00309,-31.74159 6.08723,-12.79998 8.93922,-31.225967 11.13705,-43.618177 2.19782,-12.39222 4.07409,-16.9512 3.08367,-30.210825 -0.99052,-13.259619 -21.76256,-38.1660506 -12.2155,-47.3693456 9.54707,-9.2032944 19.80274,11.392959 28.36003,16.7396416 8.5572,5.346684 14.92839,10.923831 23.02876,15.20485 8.10046,4.28102 16.57141,8.464114 25.39135,10.33888 8.81995,1.874776 17.97876,3.502773 26.87946,0.777169 8.90071,-2.725603 17.09914,-10.500271 24.28556,-16.936484 7.18652,-6.436223 14.83312,-12.510064 18.69778,-21.1881076 3.86475,-8.678044 2.64042,-21.8666164 3.79404,-27.9493154 1.15362,-6.082699 1.49313,-2.920693 2.13874,-8.728713 0.64571,-5.808012 -5.57011,-23.065687 -0.45925,-26.057091 5.11076,-2.991405 7.14241,4.519502 9.3942,8.344162 2.25169,3.82465 -0.10449,12.549472 3.35786,13.515771 3.46291,0.966307 3.97296,-1.191308 6.30606,-7.783202 2.33302,-6.591893 1.90428,-21.18027 0.67167,-32.061411 -1.23261,-10.881123 -4.83517,-20.360826 -8.20374,-32.412812 -3.36856,-12.05198 -7.36394,-27.73271 -12.19306,-39.79843 -4.82904,-12.06572 -9.90472,-24.20883 -16.3162,-32.46508 -6.41148,-8.25626 -14.26417,-16.91046 -20.22942,-17.19199 -5.96526,-0.28152 -5.99205,5.62634 -9.13015,6.50568 -3.1381,0.87935 -5.43092,3.20784 -8.62465,-0.76765 -3.19383,-3.9755 -2.43611,-6.15874 -0.0763,-22.55843 2.36,-16.3997 15.17291,-53.91134 21.86379,-72.93062 6.69088,-19.01926 15.34028,-29.86511 16.91138,-41.6457 1.57119,-11.78059 -3.68081,-16.85918 -2.92364,-25.28043 0.75717,-8.42122 6.00442,-17.09909 7.29779,-23.84303 1.29346,-6.74394 1.12645,-10.87856 1.34324,-16.07874 0.21669,-5.20017 -3.59381,-12.40356 0,-15.08358 3.59382,-2.68002 9.06251,7.0515 11.4907,6.03251 2.42829,-1.019 -0.73875,2.54684 1.25057,-3.00233 1.98922,-5.54916 8.3847,-21.63185 9.35652,-30.86962 0.97181,-9.23774 -6.12268,-16.75567 -1.89656,-23.01792 4.22622,-6.26225 14.92086,-9.75449 20.97906,-3.66172 6.05811,6.09279 0.42985,20.87063 -0.26582,31.17556 -0.69558,10.30492 -0.44576,19.42324 -3.87871,30.51245 -3.43295,11.08923 -13.17363,21.67592 -17.75601,34.1271 -4.58229,12.45116 -5.12007,28.53388 -9.30265,39.93915 -4.18248,11.40527 -11.55303,18.27288 -14.63475,28.29248 -3.08162,10.01962 -3.55353,21.68727 -3.8373,30.51678 -0.28378,8.82952 1.41385,15.91924 1.34323,22.12106 -0.0707,6.20182 -3.80892,10.42888 -1.2528,14.96854 2.55603,4.53966 10.73511,1.87422 14.3346,5.48409 3.59949,3.60987 5.46776,8.39415 6.00861,13.96557 0.54076,5.57143 -4.58144,6.6393 -3.6782,17.52868 0.90325,10.88938 11.7755,28.40681 17.13198,43.27335 5.35639,14.86655 11.66795,33.86621 14.94821,45.89184 3.28018,12.025617 3.45342,19.979053 5.71451,25.784843 2.261,5.805799 3.60386,6.147051 5.62007,9.592909 2.0162,3.445867 0.81458,12.474775 6.47679,11.082905 5.66231,-1.39187 3.58358,-16.243463 4.05698,-26.398534 0.47339,-10.155075 -1.69084,-23.143323 -2.01472,-34.126773 -0.32388,-10.98343 -0.95981,-23.07739 0,-31.73264 0.95982,-8.65525 -3.89583,-20.3877 4.5005,-19.95635 8.39633,0.43135 3.6489,28.125 5.40505,37.20821 1.75616,9.08321 3.78642,11.19864 4.23097,17.44212 0.44446,6.24348 -5.25935,15.68091 -1.83487,19.355367 3.42457,3.674443 6.96768,-5.356997 11.00391,-2.379847 4.03622,2.977136 0.8957,9.444171 4.35405,19.642961 3.45835,10.198799 13.49137,27.768234 18.72188,39.96158 5.2305,12.193345 8.18419,22.896685 12.89785,33.0030234 4.71357,10.10633599 11.20981,21.5437286 15.12555,27.6034576 3.91583,6.059729 0.67492,10.683841 7.23685,9.566831 6.56192,-1.117011 8.69192,-19.7781116 11.92883,-30.3445096 3.23691,-10.5663964 3.63447,-21.2040594 7.37929,-32.8352614 3.74483,-11.631203 3.51725,-37.282966 15.51939,-36.351862 12.00215,0.931114 10.18198,28.511793 11.85738,40.724809 1.67549,12.213026 -0.60161,23.3336904 -0.27261,31.21998539 0.32909,7.88630401 -0.41255,7.79222101 1.48457,16.05966361 1.89711,8.267433 10.39523,22.564492 12.18637,32.22163 1.79113,9.657135 -2.78399,18.221595 0.21446,24.088685 2.99853,5.86708 2.66721,8.59991 12.65576,8.24827 9.98864,-0.35165 27.88338,-16.82588 38.15905,-28.537907 10.27558,-11.712032 15.07502,-25.950527 22.83067,-39.552495 7.75565,-13.6019686 17.11505,-28.298415 23.6914,-42.066304 6.57635,-13.767879 10.30749,-22.482233 15.99408,-40.111291 5.6866,-17.629049 10.7513,-50.598296 16.53838,-66.008996 5.78708,-15.41071 5.8189,-21.76915 14.20165,-27.56204 8.38265,-5.7929 22.47339,0.69132 30.82236,-1.55437 8.34907,-2.24569 12.98197,-4.15709 18.84562,-9.56202 5.86356,-5.40494 7.98332,-21.72916 14.54739,-22.67025 6.56397,-0.9411 6.68651,12.22634 11.83132,11.19758 5.14482,-1.02875 3.39899,-1.13455 8.2898,-15.89332 4.89091,-14.75876 10.23874,-55.05348 12.40427,-74.91356 2.16554,-19.86006 1.65344,-27.09747 2.33571,-43.74541 0.68237,-16.64792 1.44996,-41.04308 1.60534,-56.14028 0.15575,-15.09718 -0.0698,-23.95677 -0.27522,-34.41706 -0.20478,-10.46027 -4.20705,-20.35936 -0.88333,-28.34081 3.32369,-7.98147 11.94797,-16.37029 17.233,-14.74308 5.28502,1.62722 0.47358,12.38576 4.57986,12.05845 4.10638,-0.32732 -0.0344,-9.05959 3.63541,-14.82197 3.66998,-5.76236 12.46658,-11.61557 19.94678,-15.02646 7.4802,-3.41089 17.1816,-3.24081 24.0715,-4.88632 6.8899,-1.64547 12.0283,-5.01055 17.2906,-4.75655 5.2622,0.254 10.9282,-2.65225 13.1408,4.98478 2.2124,7.63701 -9.1124,17.98359 -15.9361,26.54988 -6.8236,8.5663 -17.6612,14.932 -25.0764,23.87349 -7.4152,8.9415 -14.0291,19.35585 -19.1658,29.34058 -5.1367,9.98475 -8.1187,17.8621 -11.7804,29.9877 -3.66163,12.12562 -7.57634,27.24917 -9.27491,42.80175 -1.69865,15.55258 1.96811,37.05368 -0.24749,49.93002 -2.21568,12.87637 -7.46554,16.38813 -9.4155,26.70693 -1.94996,10.31879 -1.82398,22.56168 -1.28927,34.4996 0.5348,11.93791 4.12647,25.81621 4.70128,36.7918 0.57481,10.9756 5.1597,23.74326 -0.63975,28.77309 -5.79945,5.02984 -10.29556,-5.55317 -17.99287,-5.51075 -7.69721,0.0424 -15.81451,1.83676 -26.58572,8.45692 -10.77122,6.62016 -24.05901,22.6692 -34.63818,34.32834 -10.57918,11.659143 -19.53059,21.67347 -28.87725,35.371839 -9.34674,13.698387 -16.41965,28.102364 -26.53864,46.9018 -10.11909,18.7994374 -24.22499,48.375654 -33.81486,66.114595 -9.58986,17.73894 -16.89817,26.794939 -23.20042,40.653769 -6.30215,13.85882 -10.13192,29.077907 -14.69076,41.929957 -4.55884,12.85206 -9.44509,23.42189 -12.63734,35.19331 -3.19225,11.77142 -4.80875,26.62429 -6.60119,35.09205 -1.79254,8.46777 -6.12185,12.53807 -3.72584,15.8177 2.3959,3.27964 5.29675,0.31335 8.0597,-0.92574 2.76296,-1.2391 4.99251,-3.75471 7.76151,-6.69413 2.76901,-2.93942 6.15143,-7.30776 8.54771,-11.12718 2.39637,-3.81942 2.5859,-12.48531 5.86021,-11.59345 3.27431,0.89184 0.75968,3.52736 0.57351,9.90159 -0.18618,6.37423 -1.75467,19.43727 -3.28455,28.08732 -1.52997,8.65006 -1.86064,16.02361 -5.66231,23.74541 -3.80167,7.72181 -12.10775,12.92005 -17.19618,20.66678 -5.08834,7.74673 -10.10048,17.98619 -13.04691,25.56892 -2.94643,7.58272 -4.46645,13.75439 -5.35202,19.21742 -0.88556,5.46304 -1.17167,8.40063 -0.67148,13.13617 0.5001,4.73554 0.6899,10.3479 3.97864,14.76431 3.28873,4.4164 8.65963,5.87904 15.18016,8.49785 6.52043,2.61882 16.85649,5.23275 23.97061,6.13181 7.11413,0.89906 12.81645,0 18.38888,0 5.57243,0 11.13826,0.97446 15.04525,0 3.90709,-0.97446 5.13077,-7.40153 8.14261,-4.25939 3.01175,3.14214 -3.0111,9.87769 -4.85881,16.90405 -1.8477,7.02636 -6.02963,17.47034 -6.04443,25.30333 -0.0186,7.83299 1.5951,11.67622 4.70129,20.01977 3.10618,8.34354 9.48156,22.20511 15.20631,28.81545 5.72474,6.61034 10.50278,8.93427 16.53298,11.62663 6.03029,2.69236 13.78705,3.6708 19.08343,4.25603 5.29638,0.58523 8.87065,-3.78575 12.48866,0 3.61791,3.78574 4.96245,15.28986 1.68321,19.31712 -3.27924,4.02727 -6.03466,-0.0807 -11.90315,-0.56615 -5.86858,-0.48547 -13.83683,-2.70407 -23.26769,-2.74638 -9.43085,-0.0422 -24.527,-0.55197 -33.05117,3.60172 -8.52417,4.15367 -9.91411,10.16012 -17.00749,16.6855 -7.09347,6.52536 -18.06919,14.62304 -25.72361,22.16781 -7.65432,7.54476 -14.85526,16.55136 -20.26589,22.78403 -5.41054,6.23266 -8.19518,10.16276 -12.28742,14.5025 -4.09223,4.33973 -11.09946,4.76853 -12.16664,11.58064 -1.06719,6.81211 5.94534,13.12779 10.07405,20.18421 4.12871,7.05641 9.58335,15.56985 14.86596,21.86578 5.28252,6.29592 10.2245,10.53248 16.46478,15.92198 6.24038,5.3895 14.67635,11.77982 21.04549,16.17227 6.36915,4.39245 8.68392,6.1207 16.97335,10.44372 8.28943,4.323 24.60451,10.43326 33.08857,14.33049 8.48416,3.89721 11.40585,5.21595 17.92163,8.71053 6.51578,3.49457 14.56739,8.89406 21.0827,12.40389 6.51541,3.50983 17.5957,0.90011 17.92488,8.79456 0.32918,7.89446 -9.60773,9.79172 -18.90367,11.87748 -9.29604,2.08578 -23.28267,-4.7902 -35.07352,-4.66302 -11.79094,0.12728 -23.30621,1.84283 -35.13074,5.44031 -11.82444,3.59746 -26.08386,10.28375 -35.19298,16.32069 -9.10903,6.03694 -15.90254,11.54153 -19.81911,17.76534 -3.91648,6.2238 -4.53195,8.52188 -5.05094,16.15956 -0.51898,7.63768 1.38381,19.70355 4.70129,28.26456 3.31739,8.56101 10.12569,16.13516 14.44253,21.852 4.31674,5.71683 11.49795,8.23066 11.00158,12.78226 -0.49638,4.5516 -3.47128,3.91452 -7.04612,4.8468 -3.57483,0.93226 -9.24942,-1.56879 -13.7302,-1.48181 -4.48069,0.0871 -9.06688,-0.64185 -12.99332,1.91287 -3.92644,2.55472 -7.20586,8.01862 -8.68206,12.60508 -1.4761,4.58647 -0.27317,8.58851 -0.45888,13.23553 -0.18617,4.64702 0.76434,10.9704 -0.6632,14.64567 -1.42753,3.67527 -3.13772,3.09699 -5.85258,6.67745 -2.71485,3.58046 1.16693,6.06738 -9.94528,15.20444 -11.11211,9.13706 -41.16298,17.42029 -62.14557,23.24851 -20.98259,5.82822 -41.75891,12.58018 -63.35576,11.71679 -21.59695,-0.86337 -39.17553,-15.47992 -63.81083,-17.09796 -24.6353,-1.61805 -57.0404,12.12961 -82.01344,10.88038 -24.97304,-1.24922 -50.89724,-6.8327 -66.07582,-15.5434 -15.17868,-8.71071 -19.28115,-16.12156 -25.72798,-26.12375 -6.44684,-10.00218 -12.26444,-19.99325 -12.73293,-32.03292 -0.46849,-12.03966 7.08532,-22.54879 10.71179,-34.91694 3.62647,-12.36815 12.88334,-29.60775 10.99628,-39.30388 -1.88707,-9.69613 -4.28298,-11.67591 -10.86333,-13.32851 -6.58044,-1.6526 -18.92725,5.23389 -22.74996,10.73597 -3.82273,5.50206 3.81109,13.32529 -2.04532,13.72528 -5.85642,0.39998 -6.59365,-13.957 -6.59421,-25.69597 -5.7e-4,-11.73898 6.29742,-26.4522 10.72893,-41.82498 4.43152,-15.3728 11.66924,-37.11521 16.11847,-50.25483 4.44943,-13.13963 13.7089,-20.62994 10.24544,-28.7186 -3.46356,-8.08866 -9.20365,-7.15863 -19.29027,-5.91844 -10.0866,1.24021 -24.39371,13.12103 -36.45202,21.47376 -12.05832,8.35274 -19.49034,15.40128 -35.63977,28.69602 -16.14943,13.29475 -67.58393,72.31652 -61.05741,51.38393 z"
       id="path186960"
       sodipodi:nodetypes="zcczcccczzzzzzzzzzzzzzzzzzzzzzzzzzzzzzzzzzzzzzzzzzzzzzzzzzzzzzzzzzzzzzzzzzzzzzzzzzzzzzzzzzzzzzzzzzzzzzzzzzzzzzzzzzzzzzzzzzzzzzzzzzzzzzzzzzzzzzzzzzzzzzzzzzzzzzzzzzzzzzzzzzzzzzzzzzzzzzzzzzzzzzzzzzzzzzzzzzzzzzzzzzzzzz" />
    <g
       id="g4566"
       transform="matrix(1.5680882,0,0,1.7493935,104.74711,-705.96282)">
      <g
         id="g4553">
        <g
           id="g4416"
           transform="rotate(-179.75617,325.15699,538.33335)">
          <path
             style="fill:#e7e7e7;fill-opacity:1;stroke:#e6e8e6;stroke-width:1px;stroke-linecap:butt;stroke-linejoin:miter;stroke-opacity:1"
             d="m 389.93412,772.27894 c -28.5647,8.73269 -49.91106,7.93931 -78.93213,7.96257 l -1.44976,-461.12504 c 10.20406,-13.62636 22.31012,-28.06845 35.46406,-36.63317 3.26682,-2.42251 3.56557,-2.68218 6.54048,-0.33424 9.56246,7.9033 34.57232,25.55178 36.18695,35.41411 z"
             id="path158284"
             sodipodi:nodetypes="ccccccc" />
          <g
             id="g167135"
             style="stroke-width:0.96452"
             transform="matrix(-0.90007755,0.52619377,0.51970274,0.89043256,307.94275,120.09804)">
            <path
               style="fill:#cfcfcf;fill-opacity:1;stroke:#cfcfcf;stroke-width:0.96452px;stroke-linecap:butt;stroke-linejoin:miter;stroke-opacity:1"
               d="M 284.66467,572.14813 248.39868,589.24746 28.601501,201.79526 c 1.865786,-16.696 9.04953,-31.98457 15.322937,-47.51407 z"
               id="path161312"
               sodipodi:nodetypes="ccccc" />
            <path
               style="fill:#b3b3b3;fill-opacity:1;stroke:#b2b2b2;stroke-width:0.96452px;stroke-linecap:butt;stroke-linejoin:miter;stroke-opacity:1"
               d="M 156.98437,351.34049 154.00885,366.08153 273.20764,578.33789 294.69171,567.3027 173.56692,357.42851 Z"
               id="path161314"
               sodipodi:nodetypes="cccccc" />
          </g>
        </g>
        <g
           id="g158162"
           transform="matrix(1.4898698,-0.0010162,0.01358996,-1.0342929,-60.256133,952.05721)"
           style="stroke-width:0.96452">
          <path
             style="fill:#042434;fill-opacity:1;stroke:none;stroke-width:0.096452;stroke-linecap:butt;stroke-linejoin:miter;stroke-miterlimit:4;stroke-dasharray:none;stroke-opacity:1"
             d="m 242.94324,705.16419 c -1.0657,-2.8037 -0.2824,-3.89483 1.27419,-5.50402 0.91977,-0.86331 0.6749,-2.4931 -0.29671,-3.86937 -0.7404,-1.07935 -0.44717,-1.81245 0.20411,-2.49235 l 1.10204,-1.1843 c 0.41338,-0.43429 0.50434,-1.33652 -0.11196,-2.30019 l -1.56305,-2.06318 c -0.95745,-0.99511 -0.50375,-1.18148 0.27006,-2.17959 l 0.77023,-0.99347 c 0.52411,-0.85612 0.18292,-1.52769 -0.42584,-2.3667 l -2.10551,-2.49205 c -1.12985,-1.21879 -0.61577,-1.73523 0.14982,-3.0221 l 1.41287,-2.29248 c 0.60456,-0.96762 0.39129,-1.738 -0.24178,-2.48005 l -1.04559,-1.28364 c -0.63534,-0.49293 -0.74953,-1.10188 -0.0182,-2.04947 l 0.92181,-1.21159 c 0.53381,-0.66393 0.59541,-1.74685 0.21915,-2.51394 l -0.739,-1.20766 c -0.17162,-0.38669 -0.24209,-0.78827 0.0763,-1.46253 l 1.20504,-2.55233 c 0.53199,-0.87653 0.16075,-1.49411 -0.59653,-2.34698 l -0.98912,-1.03339 c -0.53328,-0.50787 -0.38582,-1.08326 0.0894,-1.69377 l 1.23938,-2.01098 c 0.4345,-0.93581 0.23046,-1.59724 -0.24342,-2.68401 l -0.589,-1.35077 c -0.35193,-0.57248 -0.22351,-1.2563 0.22568,-1.84667 l 1.33121,-2.16 c 0.26899,-0.35888 0.011,-1.46032 -0.2823,-1.87613 l -0.74138,-0.84126 c -0.49805,-0.51758 -0.24958,-1.0297 0.0723,-1.41075 l 0.83616,-1.05539 c 0.31764,-0.49823 -0.13931,-0.95477 -0.54735,-1.38302 l -1.63166,-1.7952 c -1.02809,-1.41778 -1.37915,-1.4226 -2.99717,-1.20719 l -3.62749,0.48294 -2.38644,-0.009 -5.11951,5.63387 1.34707,1.08132 0.0409,2.98323 0.48315,3.47799 -0.89835,1.97325 0.79687,2.79347 -0.17076,1.66536 1.4788,2.56367 -1.71436,3.15475 0.93728,2.96092 -0.74053,3.04088 1.2099,3.99051 -1.13894,1.9669 1.81343,5.21053 c -0.30654,6.08789 -2.53209,9.88342 -1.47182,11.08511 1.33511,4.06845 0.54371,7.35319 0.54371,7.35319 2.05091,2.33519 -0.37747,6.97112 -1.86948,9.28157 10.87691,13.44206 8.16764,12.43957 14.2525,-0.47432 z"
             id="path143292"
             sodipodi:nodetypes="ccccccccccccccccccccccccccccccccccccccccccccccccccccccccc" />
          <path
             d="m 228.69085,705.63851 c 1.26573,-2.8037 0.3354,-3.89483 -1.51336,-5.50402 -1.09242,-0.86331 -0.80158,-2.4931 0.3524,-3.86937 0.87937,-1.07935 0.5311,-1.81245 -0.24242,-2.49235 0,0 -1.90791,-2.52082 -1.17592,-3.48449 l 1.85644,-2.06318 c 1.13716,-0.99511 0.5983,-1.18148 -0.32076,-2.17959 l -0.9148,-0.99347 c -0.62249,-0.85612 -0.21725,-1.52769 0.50577,-2.3667 l 2.50072,-2.49205 c 1.34193,-1.21879 0.73135,-1.73523 -0.17794,-3.0221 l -1.67807,-2.29248 c -0.71804,-0.96762 -0.46474,-1.738 0.28716,-2.48005 l 1.24185,-1.28364 c 0.7546,-0.49293 0.89022,-1.10188 0.0216,-2.04947 l -1.09484,-1.21159 c -0.634,-0.66393 -0.70717,-1.74685 -0.26028,-2.51394 l 0.87771,-1.20766 c 0.20383,-0.38669 0.28753,-0.78827 -0.0906,-1.46253 l -1.43123,-2.55233 c -0.63185,-0.87653 -0.19092,-1.49411 0.7085,-2.34698 l 1.17478,-1.03339 c 0.63338,-0.50787 0.45824,-1.08326 -0.10618,-1.69377 l -1.47202,-2.01098 c -0.51605,-0.93581 -0.27371,-1.59724 0.28912,-2.68401 l 0.69955,-1.35077 c 0.41799,-0.57248 0.26547,-1.2563 -0.26804,-1.84667 l -1.58108,-2.16 c -0.31948,-0.35888 -0.0131,-1.46032 0.33529,-1.87613 l 0.88054,-0.84126 c 0.59153,-0.51758 0.29642,-1.0297 -0.0859,-1.41075 l -0.99311,-1.05539 c -0.37727,-0.49823 0.16546,-0.95477 0.65009,-1.38302 l 1.93792,-1.7952 c 1.22107,-1.41778 1.63802,-1.4226 3.55975,-1.20719 -3.05887,18.22241 3.14611,80.73742 -4.47264,70.21652 z"
             style="fill:#042434;fill-opacity:1;stroke:none;stroke-width:0.096452;stroke-linecap:butt;stroke-linejoin:miter;stroke-miterlimit:4;stroke-dasharray:none;stroke-opacity:1"
             id="path154945"
             sodipodi:nodetypes="ccccccscccccccccccscccccsccccccccccc" />
        </g>
        <path
           style="fill:#915daa;fill-opacity:1;stroke:none;stroke-width:1px;stroke-linecap:butt;stroke-linejoin:miter;stroke-opacity:1"
           d="m 284.45239,218.19058 c -3.62204,-2.84941 -3.90705,-4.90196 -4.25998,-8.43529 l 0.36804,-5.64438 c -0.17229,-2.0718 0.50755,-3.4141 1.43876,-5.18553 l 3.92073,-7.45846 c 0.68244,-1.95737 2.15284,-3.2976 3.52527,-4.41474 2.88458,-2.34182 7.09013,-5.20461 11.76792,-6.8819 2.49863,1.49333 1.76012,2.83737 10.54649,6.52506 0.81404,1.87247 4.66527,5.39855 5.99038,9.62943 2.12076,6.77128 3.45671,14.87407 -0.59935,18.90226 -1.51239,1.25497 -4.29376,2.9563 -6.45831,4.21578 -7.75012,4.19559 -16.8721,5.10829 -26.23981,-1.25201 z"
           id="path128140"
           sodipodi:nodetypes="ccccccccsccc" />
      </g>
      <path
         style="fill:#ad5daa;fill-opacity:1;stroke:none;stroke-width:1px;stroke-linecap:butt;stroke-linejoin:miter;stroke-opacity:1"
         d="m 231.5665,322.63429 c 22.85841,-10.1646 45.20386,-8.64042 67.4875,-10.80734 23.10007,2.14454 54.97352,4.59178 67.7212,9.97465 -0.7371,-3.96589 -3.56553,-17.58825 -8.46906,-20.79055 -23.88218,-15.59648 -88.96239,-20.6171 -115.19388,-0.2629 -3.25907,2.52886 -9.63956,18.54552 -11.54576,21.88614 z"
         id="path134996"
         sodipodi:nodetypes="cccssc" />
    </g>
    <path
       style="fill:#dbffff;fill-opacity:1;stroke:#53e0dd;stroke-width:3.255;stroke-linecap:butt;stroke-linejoin:miter;stroke-miterlimit:4;stroke-dasharray:none;stroke-opacity:1"
       d="m 159.78896,-519.9272 34.58616,35.66559 -8.28179,24.80625 -36.18159,26.48878 -13.87615,25.65338 18.53555,14.49416 4.54305,21.91429 -1.29931,24.98842 v 20.59799 l 0.68701,29.46708 3.92714,26.06652 2.07427,4.24127 15.5507,-21.84202 13.34807,-28.92309 22.73872,-13.54871 31.50052,-6.81927 28.52745,5.84134 8.44251,21.6753 5.15585,38.1273 33.41445,16.60873 33.29672,23.25579 25.95037,16.07844 33.81657,36.99036 9.26409,-9.33176 0.82149,14.97295 -1.28477,12.99274 -42.70954,10.41348 -10.39735,12.42335 c 0,0 9.00237,11.92393 4.39644,11.92393 -4.60592,0 -13.46459,-11.0449 -13.46459,-11.0449 l -19.29904,-0.6271 -8.15743,18.72014 4.72376,15.34229 -17.93926,33.404539 -9.63563,30.044101 1.326,15.608268 4.33035,18.011571 26.47262,3.4585826 16.56543,14.8794454 4.55849,23.81283 -3.8794,32.817081 -10.8132,18.252976 -13.31068,6.331167 -17.14815,-12.485357 -10.21915,-11.008184 -9.94911,23.437888 -8.71507,16.293282 -12.14783,12.32316 0.51815,31.47249 1.56105,32.89884 -6.87345,25.09203 0.19414,33.32191 7.16967,19.0882 1.52565,-15.99857 0.0424,-16.57235 5.75041,-23.92311 3.57525,-28.0066 12.12878,-20.96401 5.8513,-20.73738 1.2598,-20.61343 9.68978,-7.2891 20.48395,3.45214 0.72471,29.6764 8.28447,22.79872 21.25689,16.69383 9.02514,5.62428 -5.68423,13.80368 -5.75041,28.97829 -7.93449,28.53132 7.72681,15.13496 10.46925,23.21491 1.42296,15.34858 12.566,22.81957 16.58809,19.57467 4.13251,20.61321 -0.36241,-31.29911 -10.24744,-27.15557 -11.21272,-28.23367 -4.83326,-31.13719 3.33659,-28.92293 9.3382,-27.32706 7.27306,-21.82637 -18.70348,-6.73375 -14.37393,-15.06966 -5.52438,-19.5207 -1.55664,-24.17849 -0.73836,-20.916918 13.4292,-15.580039 2.46446,-13.369071 -9.26209,-18.037752 8.21488,-18.644154 1.74826,-25.8887262 -15.44701,-4.302587 -20.20036,-14.6852818 -15.35896,-20.518793 3.772,-21.486681 12.40013,-27.377526 3.6984,-10.128711 3.57495,-14.4223 16.67384,6.50478 17.99982,-2.58935 11.84167,-13.13089 -6.68682,-9.92175 v -6.17817 l 21.66865,-2.58182 20.4346,-2.60105 7.16174,-18.23579 c 0,0 -5.63869,-13.39393 -5.63869,-16.61997 0,-3.22603 4.92892,-27.79081 4.92892,-27.79081 l -9.24855,-8.23518 -16.00558,9.69216 -23.54817,-25.23706 -14.19574,-4.89186 -8.67445,-12.74702 -12.76455,-25.77263 -1.54239,-30.28124 3.10033,-21.71984 1.64298,-15.17558 10.08539,-29.24768 49.27461,2.58987 3.73901,15.22609 25.79894,-3.29971 15.83209,7.70373 14.19965,1.84593 13.63587,14.46786 -2.14277,29.77415 -9.32437,32.75927 0.52567,34.51538 11.33887,15.44344 22.9808,15.39875 21.63544,43.97235 13.54954,48.62748 8.50187,-8.3324 -10.98278,-48.90735 -21.82458,-46.41141 -12.24049,-25.28682 -14.39949,-21.10309 3.12169,-43.60799 7.66334,-27.44987 -14.37162,-27.90471 -31.55146,-1.46262 -34.37272,-13.0119 -44.36955,-26.18187 -18.87857,-17.25166 -3.51199,27.42694 -19.72533,36.03365 -8.57909,43.01858 -0.90351,17.89647 -19.38799,-11.42573 -24.96934,-57.46422 -14.16644,-52.26905 -30.32575,20.61266 -21.02495,11.53477 -10.21093,-3.13681 -7.7538,-9.40801 -19.70798,34.59581 -6.36833,14.44497 -4.00917,-34.64104 1.92426,-28.857 v -15.05106 l 16.61858,-14.41197 20.44233,-34.08422 8.22661,0.55562 2.69721,-15.83733 h 7.98594 l 5.13239,-4.78318 -19.78219,-24.25686 -20.99797,-17.05392 z"
       id="path202870" />
    <path
       style="fill:#dbffff;fill-opacity:1;stroke:#53e0dd;stroke-width:3.25537;stroke-linecap:butt;stroke-linejoin:miter;stroke-miterlimit:4;stroke-dasharray:none;stroke-opacity:1"
       d="m 1092.0844,-525.91344 -34.5862,35.66559 8.2818,24.80625 36.1816,26.48878 13.8762,25.65338 -18.5356,14.49416 -4.543,21.91429 1.2993,24.98842 v 20.59799 l -0.687,29.46707 -3.9272,26.06652 -2.0743,4.24127 -15.5507,-21.84202 -13.348,-28.92309 -22.7387,-13.5487 -31.5006,-6.81927 -28.52739,5.84134 -8.4425,21.67529 -5.1559,38.1273 -33.4144,16.60873 -33.2967,23.25579 -25.9504,16.07844 -33.8166,36.99037 -9.2641,-9.33176 -0.8215,14.97295 1.2848,12.99274 42.7095,10.41348 10.3974,12.42335 c 0,0 -9.0024,11.92393 -4.3964,11.92393 4.6059,0 13.4645,-11.0449 13.4645,-11.0449 l 19.2991,-0.6271 8.1574,18.72014 -4.7237,15.34229 17.9392,33.404536 9.6356,30.0441 -1.326,15.60827 -4.3303,18.01157 -26.4726,3.4585802 -16.5655,14.87945 -4.5584,23.8128298 3.8794,32.81708 10.8132,18.25298 13.3106,6.33116 17.1482,-12.48535 10.2191,-11.00819 9.9491,23.43789 8.7151,16.293284 12.1478,12.32316 -0.5181,31.47249 -1.5611,32.89884 6.8735,25.09203 -0.1941,33.32191 -7.1697,19.0882 -1.5257,-15.99857 -0.042,-16.57235 -5.7504,-23.92311 -3.5752,-28.0066 -12.1288,-20.96401 -5.8513,-20.73738 -1.2598,-20.61343 -9.6898,-7.2891 -20.4839,3.45214 -0.7247,29.6764 -8.2845,22.79872 -21.2569,16.69383 -9.0251,5.62428 5.6842,13.80368 5.7504,28.97829 7.9345,28.53132 -7.7268,15.13496 -10.4693,23.21491 -1.4229,15.34858 -12.566,22.81957 -16.5881,19.57467 -4.1325,20.61321 0.3624,-31.29911 10.2474,-27.15557 11.2127,-28.23367 4.8333,-31.13719 -3.3366,-28.92293 -9.3382,-27.32706 -7.2731,-21.82637 18.7035,-6.73375 14.374,-15.06966 5.5243,-19.5207 1.5567,-24.17849 0.7383,-20.916924 -13.4292,-15.58003 -2.4644,-13.36908 9.2621,-18.03775 -8.2149,-18.64415 -1.7483,-25.8887298 15.447,-4.30259 20.2004,-14.6852802 15.359,-20.51879 -3.772,-21.48668 -12.4002,-27.37753 -3.6984,-10.128706 -3.5749,-14.4223 -16.6739,6.50478 -17.9998,-2.58935 -11.8417,-13.13089 6.6869,-9.92175 v -6.17817 l -21.6687,-2.58182 -20.4346,-2.60105 -7.1617,-18.23579 c 0,0 5.6387,-13.39393 5.6387,-16.61997 0,-3.22603 -4.929,-27.79082 -4.929,-27.79082 l 9.2486,-8.23518 16.0056,9.69216 23.5481,-25.23706 14.1958,-4.89186 8.6744,-12.74702 12.7646,-25.77263 1.5424,-30.28124 -3.1004,-21.71983 -1.6429,-15.17558 -10.0854,-29.24768 -49.2746,2.58987 -3.739,15.22609 -25.799,-3.29971 -15.8321,7.70373 -14.1996,1.84593 -13.6359,14.46786 2.1428,29.77414 9.3243,32.75927 -0.5256,34.51538 -11.3389,15.44344 -22.9808,15.39875 -21.6354,43.97236 -13.5496,48.62748 -8.5018,-8.3324 10.9827,-48.90735 21.8246,-46.41142 12.2405,-25.28682 14.3995,-21.10309 -3.1217,-43.60799 -7.6633,-27.44986 14.3716,-27.90471 31.5514,-1.46262 34.3728,-13.0119 44.3695,-26.18187 18.8786,-17.25166 3.512,27.42694 19.7253,36.03365 8.5791,43.01857 0.9035,17.89647 19.388,-11.42573 24.9693,-57.46421 14.1665,-52.26905 30.32569,20.61266 21.025,11.53477 10.2109,-3.13681 7.7538,-9.40801 19.708,34.59581 6.3683,14.44497 4.0092,-34.64104 -1.9243,-28.857 v -15.05106 l -16.6186,-14.41197 -20.4423,-34.08422 -8.2266,0.55562 -2.6972,-15.83733 h -7.9859 l -5.1324,-4.78318 19.7822,-24.25686 20.9979,-17.05392 z"
       id="path202870-0" />
    <path
       style="fill:#dbffff;fill-opacity:1;stroke:#53e0dd;stroke-width:5.72403;stroke-linecap:butt;stroke-linejoin:miter;stroke-miterlimit:4;stroke-dasharray:none;stroke-opacity:1"
       d="m 377.4506,534.73609 c 12.26224,36.56412 20.20332,36.00803 28.54328,38.87841 12.55044,-26.59563 12.05185,-33.99592 -4.11338,-66.00399 35.69829,3.1747 39.38292,37.25425 36.9274,68.37535 41.38316,3.14543 5.69504,-68.12596 2.63895,-74.24897 39.55109,11.82745 35.23362,58.69212 48.67384,83.99639 46.55776,-5.69297 14.26281,-63.98213 5.37195,-78.09103 46.48992,-11.39703 47.24863,80.71381 65.63407,79.13507 33.9044,-5.86967 16.19016,-78.63919 9.61833,-92.14261 41.57575,36.57197 34.39911,47.61121 54.25438,90.69214 20.87594,-51.71393 25.64061,-62.35566 68.60516,-57.06502 -21.60284,18.69801 -39.55913,21.46447 -35.6238,56.67461 33.09177,-0.49827 37.47936,-15.89105 53.24879,-49.71194 11.97963,42.87121 6.17195,55.75959 -3.60801,87.72349 C 652.5328,720.81962 465.75587,742.978 408.64494,637.26124 392.79858,606.89216 382.91347,570.13147 377.4506,534.73609 Z"
       id="path207793"
       sodipodi:nodetypes="cccccccccccccccc" />
    <rect
       style="fill:#dbffff;fill-opacity:1;stroke:none;stroke-width:3.9;stroke-linecap:round;stroke-linejoin:round;stroke-miterlimit:4;stroke-dasharray:none;stroke-opacity:1;paint-order:markers fill stroke"
       id="rect212466"
       width="359.11047"
       height="105.40971"
       x="371.09241"
       y="605.13708" />
  </g>
</svg>
