<?xml version="1.0" encoding="UTF-8" standalone="no"?>
<!-- Created with Inkscape (http://www.inkscape.org/) -->

<svg
   width="1176.162"
   height="1583.5316"
   viewBox="0 0 1176.162 1583.5316"
   version="1.1"
   id="SVGRoot"
   sodipodi:docname="EscudoActuatico.svg"
   inkscape:version="1.1.2 (0a00cf5339, 2022-02-04)"
   inkscape:export-filename="/home/ciro/Desktop/david/Enemi/DefensaEnemigo/21.png"
   inkscape:export-xdpi="96"
   inkscape:export-ydpi="96"
   xmlns:inkscape="http://www.inkscape.org/namespaces/inkscape"
   xmlns:sodipodi="http://sodipodi.sourceforge.net/DTD/sodipodi-0.dtd"
   xmlns="http://www.w3.org/2000/svg"
   xmlns:svg="http://www.w3.org/2000/svg">
  <sodipodi:namedview
     id="namedview1048"
     pagecolor="#505050"
     bordercolor="#eeeeee"
     borderopacity="1"
     inkscape:pageshadow="0"
     inkscape:pageopacity="0"
     inkscape:pagecheckerboard="0"
     inkscape:document-units="px"
     showgrid="false"
     inkscape:zoom="0.1767767"
     inkscape:cx="673.16565"
     inkscape:cy="789.13116"
     inkscape:window-width="1024"
     inkscape:window-height="740"
     inkscape:window-x="1360"
     inkscape:window-y="0"
     inkscape:window-maximized="1"
     inkscape:current-layer="layer1"
     inkscape:snap-global="false" />
  <defs
     id="defs1043" />
  <g
     inkscape:label="Capa 1"
     inkscape:groupmode="layer"
     id="layer1"
     transform="translate(168.71992,156.248)">
    <g
       id="g237890"
       transform="matrix(1.8575655,0,0,1.639949,1143.6604,-501.74709)">
      <path
         style="fill:#c9e3e6;fill-opacity:1;stroke:none;stroke-width:1px;stroke-linecap:butt;stroke-linejoin:miter;stroke-opacity:1"
         d="m -637.58537,397.6332 c 122.27365,-11.51795 189.11806,-50.28969 238.16629,-90.5754 10.7144,-10.67081 16.29981,-12.32254 25.45967,-2.80677 45.49853,42.86809 135.97391,84.15555 236.77888,92.27256 20.49882,-1.41429 17.95122,8.27962 17.97457,24.71884 0.2924,254.4846 -57.79217,522.88902 -253.66827,633.45377 -11.63467,5.3469 -13.50051,6.0761 -25.94708,-1.2384 -209.51589,-123.35852 -266.96098,-436.60486 -254.30047,-637.99804 0.58982,-10.97431 1.91282,-16.54813 15.53641,-17.82656 z"
         id="path223345"
         sodipodi:nodetypes="ccccccccc" />
      <path
         style="fill:#8eb0b7;fill-opacity:1;stroke:none;stroke-width:1px;stroke-linecap:butt;stroke-linejoin:miter;stroke-opacity:1"
         d="m -383.10919,1056.1793 -0.97852,-757.13717 c 0.5341,-1.56829 4.71593,0.76258 6.9169,2.63633 67.75512,57.6819 144.60754,85.70502 240.01906,95.42243 10.30558,-0.10574 16.22539,-1.13739 18.3073,13.25149 2.98686,273.13124 -61.1692,564.28075 -264.26474,645.82692 z"
         id="path236336"
         sodipodi:nodetypes="ccsccc" />
      <g
         id="g236301">
        <path
           style="fill:#c9e3e6;fill-opacity:1;stroke:#2f7889;stroke-width:13.5736;stroke-linecap:butt;stroke-linejoin:miter;stroke-miterlimit:4;stroke-dasharray:none;stroke-opacity:1"
           d="m -575.41509,461.67095 c 92.51908,-8.86655 143.09729,-38.71316 180.20991,-69.72523 8.10711,-8.21443 12.33335,-9.48594 19.26422,-2.16066 34.42672,33 102.88544,64.78322 179.16013,71.03172 15.51055,-1.08872 13.58289,6.37368 13.60055,19.02864 0.22125,195.9031 -43.72879,402.52171 -191.93959,487.63483 -8.80344,4.1161 -10.21522,4.6774 -19.633,-0.9533 -158.53144,-94.96182 -201.99761,-336.0999 -192.41794,-491.13304 0.44628,-8.44806 1.44735,-12.73881 11.75572,-13.72296 z"
           id="path223345-4"
           sodipodi:nodetypes="ccccccccc" />
        <path
           style="fill:#b0bec5;fill-opacity:1;stroke:#b0bec5;stroke-width:1px;stroke-linecap:butt;stroke-linejoin:miter;stroke-opacity:1"
           d="m -383.98904,391.93808 0.90586,572.04048 c 172.0481,-98.74317 192.37816,-338.63095 192.83906,-486.68007 0.11483,-14.50289 -4.16273,-10.91029 -7.65272,-13.51064 -43.26611,7.91017 -139.08961,-26.02331 -186.0922,-71.84977 z"
           id="path232557"
           sodipodi:nodetypes="ccccc" />
      </g>
    </g>
    <path
       style="fill:#385daa;fill-opacity:1;stroke:#0b0000;stroke-width:1px;stroke-linecap:butt;stroke-linejoin:miter;stroke-opacity:1"
       d="m 421.2207,691.00206 c -24.84445,36.22954 -26.9487,9.99451 -37.86047,12.82172 -10.91177,2.82721 -19.34529,6.5651 -27.21044,4.96582 -7.86515,-1.59928 -13.96011,-6.74789 -17.12549,-11.26211 -3.16538,-4.51422 -3.08739,-8.49376 -2.91759,-12.24086 0.1698,-3.7471 2.35623,-5.5997 3.16396,-9.40394 0.80773,-3.80424 1.33625,-9.44104 1.25731,-13.35325 -0.0789,-3.91221 0.0292,-7.18497 -1.34709,-9.97518 -1.3763,-2.79021 -3.37555,-3.9583 -6.06293,-6.10123 -2.68738,-2.14293 -7.87292,-9.03117 -10.19966,-6.36298 -2.32674,2.66819 4.39751,4.71623 5.89887,7.08537 1.50136,2.36914 3.20447,4.7356 3.20949,6.89933 0.005,2.16373 -0.57201,3.40449 -2.24369,4.88225 -1.67168,1.47776 -5.43922,1.61647 -7.63751,2.42784 -2.19829,0.81137 -4.31518,1.13471 -5.56962,2.35073 -1.25444,1.21602 -1.62341,2.59306 -1.85168,4.03232 -0.22827,1.43926 1.45977,2.72157 0.49797,4.27743 -0.9618,1.55586 -4.04416,1.92211 -6.26985,2.27122 -2.22569,0.34911 -4.44096,-0.92724 -6.84434,-0.24899 -2.40338,0.67825 -4.45746,1.72174 -6.77535,4.50194 -2.31789,2.7802 -5.02347,5.98284 -5.35961,12.48134 -0.33614,6.4985 4.58735,15.69683 7.57833,24.30564 2.99098,8.60881 7.26532,17.1862 10.47251,27.28083 3.20719,10.09463 5.43145,23.55906 8.45071,33.27295 3.01926,9.71389 9.10328,16.47272 9.25671,25.04876 0.15343,8.57604 -3.58419,17.9239 -7.74648,23.51706 -4.16229,5.59316 -10.06802,7.58052 -13.99785,9.77246 -3.92983,2.19194 -6.63079,2.9093 -9.11189,3.93975 -2.4811,1.03045 -3.77291,1.5506 -5.75246,2.29217 -1.97955,0.74157 -4.33672,1.30581 -6.12446,2.15046 -1.78774,0.84465 -3.35307,1.93645 -4.59385,2.78552 -1.24078,0.84907 -1.60682,1.37023 -2.89313,2.22292 -1.28631,0.85269 -3.30281,2.34477 -4.88153,2.76674 -1.57872,0.42197 -2.86344,0.40188 -4.19369,0.0282 -1.33025,-0.37368 -2.15369,-1.4399 -3.483,-2.15672 -1.32931,-0.71682 -3.1318,-1.3607 -4.50324,-2.09077 -1.37144,-0.73007 -2.29039,-2.00345 -3.72876,-2.25393 -1.43837,-0.25048 -3.31796,-0.0823 -4.31625,0.86988 -0.99829,0.95222 -0.70312,2.25055 -0.94392,3.75785 -0.2408,1.5073 0.007,3.46962 -0.37348,5.27069 -0.38017,1.80107 -1.0661,3.39137 -1.94992,5.42055 -0.88382,2.02918 -2.4418,4.82772 -3.44708,6.68254 -1.00528,1.85482 -1.64894,3.196 -2.54061,4.46721 -0.89167,1.27121 -1.59235,2.12567 -2.71117,3.17814 -1.11882,1.05247 -2.47484,2.82548 -4.02599,3.03006 -1.55115,0.20458 -3.13076,-0.71601 -4.03376,-1.62477 -0.903,-0.90876 -0.72624,-1.86343 -1.22743,-3.1041 -0.50119,-1.24067 -0.97455,-3.2768 -1.78887,-4.33601 -0.81432,-1.05921 -1.61535,-1.78547 -2.64512,-2.016 -1.02977,-0.23053 -2.10087,0.0381 -2.93922,0.62883 -0.83835,0.59076 -1.28987,1.35718 -1.65564,2.67721 -0.36577,1.32003 -0.23982,3.64547 0.0671,5.07037 0.30692,1.4249 0.93586,2.23911 1.4684,3.36855 0.53254,1.12944 0.75394,2.31611 1.72927,3.40334 0.97533,1.08723 2.50985,2.13248 4.14124,2.70444 1.63139,0.57196 3.83241,0.38774 5.40148,0.51954 1.56907,0.1318 1.7343,0.66121 4.01083,0.28812 2.27653,-0.37309 6.85543,-2.90449 9.058,-3.79335 2.20257,-0.88886 2.82026,-0.90259 4.13001,-1.60446 1.30975,-0.70187 2.41417,-1.93461 3.66758,-2.58156 1.25341,-0.64695 2.54811,-1.3277 3.75085,-1.32528 1.20274,0.002 1.6122,0.16648 3.049,1.09112 1.4368,0.92464 3.35508,3.00998 4.88635,5.03094 1.53127,2.02096 2.29974,4.63733 4.117,7.09162 1.81726,2.45429 4.89057,6.00508 6.89074,7.41571 2.00017,1.41063 2.21278,1.50633 4.19077,1.80359 1.97799,0.29726 5.25829,-0.41133 7.3954,-0.8024 2.13711,-0.39107 3.66441,-0.81476 5.41736,-1.40578 1.75295,-0.59102 3.32209,-1.27237 5.07578,-2.12497 1.75369,-0.8526 3.29001,-2.04809 5.41283,-3.01758 2.12282,-0.96949 4.93653,-2.21877 7.33667,-2.66352 2.40014,-0.44475 5.04407,-0.4693 6.83964,-0.12449 1.79557,0.34481 2.41697,0.51005 3.80727,1.59916 1.3903,1.08911 3.31765,3.64249 3.85912,5.18947 0.54147,1.54698 0.83305,2.21128 0.11431,3.36501 -0.71874,1.15373 -2.61943,1.5505 -4.3676,1.9639 -1.74817,0.4134 -3.93182,0.29433 -5.98426,0.2506 -2.05244,-0.0437 -5.7749,-2.8284 -6.30538,-0.5338 -0.53048,2.2946 5.37362,2.22962 7.27495,2.8211 1.90133,0.59148 1.35663,-0.0571 4.0322,0.958 2.67557,1.01512 8.00469,4.23874 11.48067,6.153 3.47598,1.91426 5.57999,2.99723 9.38617,5.3094 3.80618,2.31217 9.28814,5.77681 13.35661,8.6939 4.06847,2.91709 8.43681,6.38597 11.07766,8.7237 2.64085,2.33773 2.98778,3.29258 5.00944,4.9765 2.02166,1.68392 3.70304,2.76348 7.16718,4.9764 3.46414,2.21292 7.62417,4.65818 13.75154,8.0577 32.12189,15.60109 36.83097,25.91214 56.35935,0.6726 16.60639,-22.26543 34.23543,-44.00996 56.62442,-60.25127 3.34931,-2.40918 5.72642,-3.14773 9.79382,-6.14577 4.0674,-2.99804 10.17514,-9.03276 14.22352,-12.22475 4.04838,-3.19199 7.23647,-5.11733 9.87282,-7.12851 2.63635,-2.01118 8.30969,-5.37413 9.07512,-5.26795 -3.71848,-0.82488 -8.39762,0.25525 -11.57364,0.93766 -3.28803,0.90384 -3.19343,-1.05706 -0.87966,-3.00694 0.99133,-0.87722 2.83031,-2.31449 3.54258,-3.18768 0.71227,-0.87319 0.77649,-1.10403 1.00947,-1.72128 0.23298,-0.61725 0.46664,-1.23143 0.37347,-1.9272 -0.0932,-0.69577 -0.31745,-1.4648 -0.99362,-2.01741 -0.67617,-0.55261 -1.98581,-0.62316 -2.89234,-0.76082 -0.90653,-0.13766 -1.35886,0.042 -2.50836,-0.11089 -2.43043,-0.27507 -4.9067,-0.99197 -6.63579,-2.3663 -2.45292,-3.27448 0.0865,-6.61424 2.05835,-8.88505 1.43089,-1.6288 2.59865,-2.49458 6.05082,-5.18506 3.45217,-2.69048 14.95058,-10.59809 14.93467,-10.5621 -0.0159,0.036 -11.97146,7.47831 -15.90176,9.53234 -3.9639,2.15575 -7.23189,3.54438 -11.57344,4.19501 -2.86108,0.58215 -5.21124,-0.40535 -4.54998,-3.02428 0.0493,-0.67057 2.33123,-5.57273 2.28241,-5.58373 -0.0488,-0.011 -2.84105,5.46527 -4.4664,7.58036 -1.62535,2.11509 -5.57054,6.26992 -8.02702,8.57984 -2.45648,2.30992 -4.75405,4.07337 -6.5385,5.40355 -1.78445,1.33018 -2.34994,2.47222 -4.04679,2.71245 -1.69685,0.24023 -3.80452,-0.67756 -5.15427,-1.64662 -1.34975,-0.96906 -2.07271,-2.41462 -2.70286,-3.67098 -0.63015,-1.25636 -0.81225,-2.70084 -1.12702,-3.707 -0.31477,-1.00616 -0.52777,-1.43696 -0.75058,-2.33319 -0.22281,-0.89623 -0.44056,-1.77543 -0.54136,-3.04236 -0.1008,-1.26693 1.61949,-4.50713 0.0785,-4.53476 -1.54099,-0.0276 -0.23169,3.41997 -0.0874,4.7112 0.14429,1.29123 -0.67223,2.64041 0.73633,2.99437 1.40856,0.35396 2.32189,-2.62493 3.7695,-4.18253 1.44761,-1.5576 3.04535,-3.07746 4.93196,-5.14637 1.88661,-2.06891 4.3356,-4.88141 6.33766,-7.30573 2.00206,-2.42432 3.55178,-4.37528 5.68012,-7.2285 2.12834,-2.85322 4.69642,-6.93367 7.0261,-9.93006 2.32968,-2.99639 4.50556,-4.80546 6.88243,-8.07308 2.37687,-3.26762 4.92364,-7.64626 7.148,-11.61153 2.22436,-3.96527 4.67593,-8.85718 6.18683,-12.16068 1.5109,-3.3035 1.95757,-4.4794 3.07878,-7.54794 1.12121,-3.06854 2.59236,-7.36964 3.52937,-10.89255 0.93701,-3.52291 1.64057,-6.81688 2.13768,-10.20073 0.49711,-3.38385 0.86599,-7.00897 0.8589,-10.06212 -0.007,-3.05315 -0.6607,-4.40362 -0.73718,-8.18711 -0.0765,-3.78349 0.48302,-11.02699 0.71491,-14.4677 0.23189,-3.44071 0.25738,-3.4126 0.52817,-6.18325 0.27079,-2.77065 0.16596,-6.38811 1.1486,-10.4343 0.98264,-4.04619 3.90738,-9.74067 5.1956,-13.52162 1.28822,-3.78095 1.89105,-5.35909 2.71023,-9.08521 0.81918,-3.72612 2.04219,-9.86745 1.90977,-13.27307 -0.13242,-3.40562 -0.77908,-3.72843 -1.54054,-6.86879 -0.76146,-3.14036 -1.85739,-8.65138 -3.1166,-11.94896 -1.25921,-3.29758 -1.54007,-2.7794 -4.03368,-7.85509 -2.49361,-5.07569 -6.90576,-14.79856 -10.66649,-22.72155 -3.76073,-7.92299 -8.03411,-16.92438 -11.90699,-24.81155 -3.87288,-7.88717 -10.47324,-21.33739 -11.31059,-22.51877 -0.83735,-1.18139 -4.28388,-9.20409 -5.77936,-13.19142 -1.49548,-3.98733 -2.10884,-7.33974 -3.34507,-10.63577 -1.23623,-3.29603 -3.04321,-6.19917 -4.0018,-9.1338 -0.95859,-2.93463 -1.59549,-5.99412 -1.85369,-8.348 -0.2582,-2.35388 -0.28651,-3.69724 0,-5.65666 0.28651,-1.95942 1.1943,-3.8109 1.7823,-5.96429 0.588,-2.15339 0.43407,-3.64184 1.72304,-6.95831 1.28897,-3.31647 10.37334,-10.02214 6.78152,-12.45373 -3.59182,-2.43159 -5.24554,6.01649 -7.55386,9.12314 -2.30832,3.10665 -4.52467,6.0765 -6.29663,9.4764 -1.77196,3.3999 -3.49209,7.93621 -4.25209,10.82059 -0.76,2.88438 -0.74573,3.60512 -0.88028,6.20877 -0.13455,2.60365 1.05391,7.61701 0.35211,9.36526 -0.7018,1.74825 -0.0692,1.47621 -1.38681,1.34404 -1.31758,-0.13217 -1.90524,-2.43103 -3.40114,-4.95977 -1.4959,-2.52874 -3.24294,-7.8562 -5.23194,-10.36934 -1.989,-2.51314 -3.69497,-3.74088 -5.82913,-4.9007 -2.13416,-1.15982 -4.33507,-1.10768 -6.65455,-2.03317 -2.31948,-0.92549 -5.29211,-2.11641 -7.18143,-3.58294 -1.88932,-1.46653 -3.09679,-2.9988 -4.13905,-4.78217 -1.04226,-1.78337 -1.62679,-3.81493 -2.04885,-5.71273 -0.42206,-1.8978 -0.60229,-3.07276 -0.52142,-5.57164 0.0809,-2.49888 0.30361,-5.85854 1.48,-9.28797 1.17639,-3.42943 4.46117,-8.30457 5.95134,-10.8196 1.49017,-2.51503 1.47149,-2.63307 2.78806,-4.3796 1.31657,-1.74653 3.13781,-3.17683 5.25946,-5.93664 2.12165,-2.75981 5.43957,-7.82202 7.16268,-10.79507 1.72311,-2.97305 1.62607,-4.92228 3.43413,-6.84995 1.80806,-1.92767 4.74751,-2.68314 7.07587,-4.13385 2.32836,-1.45071 4.58271,-2.91307 6.88756,-4.56858 2.30485,-1.65551 5.65454,-3.92574 6.92121,-5.37262 1.26667,-1.44688 0.99065,-1.67187 1.39741,-2.3989 0.40676,-0.72703 0.83016,-1.20372 1.05118,-1.95791 0.22102,-0.75419 -0.34518,-1.98782 0.19284,-2.48572 0.53802,-0.4979 1.03492,0.0573 1.90514,0 0.87022,-0.0573 2.26528,-0.28377 3.29877,-0.4359 1.03349,-0.15213 1.80378,-0.13587 2.90235,-0.47112 1.09857,-0.33525 2.3541,-0.85658 3.58905,-1.6524 1.23495,-0.79582 2.53755,-1.90441 3.67767,-3.18292 1.14012,-1.27851 2.34193,-3.07746 3.05313,-4.47147 0.7112,-1.39401 1.27662,-2.53603 1.34228,-3.74185 0.0657,-1.20582 0.76679,-1.72808 -0.76345,-3.17995 -1.53024,-1.45187 -6.13109,-1.16218 -9.22919,-1.70876 -3.0981,-0.54658 -6.02101,-1.2103 -9.35889,-1.56973 -3.33788,-0.35943 -7.02163,-0.39062 -10.64099,-0.51499 -3.61936,-0.12437 -7.66229,-0.44486 -11.07324,-0.22527 -3.41095,0.21959 -6.16577,0.67403 -9.32812,1.3995 -3.16235,0.72547 -6.94017,1.88386 -9.58009,2.98546 -2.63992,1.1016 -3.96523,2.0501 -6.29482,3.34579 -2.32959,1.29569 -4.98796,2.60798 -7.66414,4.45584 -2.67618,1.84786 -5.00029,3.7389 -8.2659,6.71168 -3.26561,2.97278 -5.68342,4.16218 -11.09882,11.31371 -5.4154,7.15153 -8.55443,-9.40861 -18.88273,32.9471 -10.3283,42.35571 34.24751,187.17879 9.40306,223.40833 z"
       id="path19925"
       sodipodi:nodetypes="zzzzzzzzzzzzzzzzzzzzzzzzzzzzzzzzzzzzzzzzzzzzzzzzzzzzzzzzzzzzzzzzzzzzzzzzzzzzzzzzzzzzzzccczzzccczzzzzccczscccszzzzzzzzzzzzzzzzzzzzzzzzzzzzzzzzzzzzzzzzzzzzzzzzzzzzzzzzzzzzzzzzzzzzzzzzzzzzzzzzzzzzzzzzzzzz" />
    <path
       style="fill:#385daa;fill-opacity:1;stroke:#130000;stroke-width:1px;stroke-linecap:butt;stroke-linejoin:miter;stroke-opacity:1"
       d="m 381.98354,509.08831 c 4.23604,6.77524 14.18292,21.26686 25.82099,38.0358 11.63807,16.76894 34.12118,44.51311 44.26225,62.39306 11.99844,23.45647 23.92454,51.69344 23.98423,76.50611 0.22125,27.73976 -12.20667,49.8579 -22.88029,60.02405 -52.24103,41.78622 -119.43525,33.89229 -144.38816,-24.90072 -12.12302,-24.17811 -13.68978,-51.8973 -15.50879,-73.70641 -0.31471,-3.75402 3.26469,-8.76234 5.42244,-11.74492 2.15775,-2.98258 5.56207,-6.11115 7.53052,-8.54908 1.96845,-2.43793 2.95212,-3.37564 4.40224,-5.95773 1.45012,-2.58209 3.03666,-6.39891 3.91081,-9.59436 0.87415,-3.19545 1.28728,-6.06356 1.39386,-9.41374 0.10658,-3.35018 0.17739,-7.28795 -0.17523,-10.60955 -0.35262,-3.3216 -1.13699,-6.7863 -1.91441,-9.3178 -0.77742,-2.5315 -2.28739,-4.98283 -3.07256,-6.2197 -0.78517,-1.23687 -0.77031,-1.95386 -2.62993,-2.42903 -1.85962,-0.47517 -4.59762,-0.098 -5.78527,0.83052 -1.18765,0.92854 -0.74403,1.81533 -0.96565,2.95092 -0.22162,1.13559 -0.38833,1.49096 -0.26539,3.82801 0.12294,2.33705 1.18428,7.45322 1.76993,10.04983 0.58565,2.59661 1.25425,3.49068 1.53443,5.55863 0.28018,2.06795 0.19405,4.36705 0,6.75453 -0.19405,2.38748 -0.23161,4.7334 -1.23016,7.51761 -0.99855,2.78421 -3.71204,6.50605 -5.09035,8.75762 -1.37831,2.25157 -1.55755,3.20909 -3.09147,4.80089 -1.53392,1.5918 -4.39296,3.52146 -6.1949,4.32176 -1.80194,0.8003 -2.32752,1.18458 -4.16707,0.96159 -1.83955,-0.22299 -3.97212,-1.32075 -6.10573,-3.08652 -2.13361,-1.76577 -5.24091,-6.03467 -5.96386,-7.74561 -0.72295,-1.71094 -0.0657,-0.27129 -0.19566,-1.35485 -0.12992,-1.08356 0.15136,-3.65758 -0.49247,-5.15556 -0.64383,-1.49798 -1.47065,-2.33731 -3.02399,-3.47146 -1.55334,-1.13415 -4.14359,-2.61043 -6.36904,-2.74664 -2.22545,-0.13621 -4.45679,0.66319 -6.18198,1.81042 -1.72519,1.14723 -3.15939,2.76499 -3.77533,4.6495 -0.61594,1.88451 -0.11382,4.11389 0.29643,5.89899 0.41025,1.7851 0.99669,3.38729 1.98697,4.67893 0.99028,1.29164 2.3965,2.42849 3.68674,2.88614 1.29024,0.45765 2.28791,-0.0326 3.53138,0.0619 1.24347,0.0944 2.57523,0.0494 3.91495,0.52817 1.33972,0.47879 2.53869,1.38916 3.90383,2.40621 1.36514,1.01705 2.83346,2.27568 4.20066,3.74593 1.3672,1.47025 2.58559,2.81234 3.91276,5.08727 1.32717,2.27493 3.04318,5.94405 3.65974,8.6416 0.61656,2.69755 0.52786,4.80691 0.35212,7.20945 -0.17574,2.40254 -0.8472,5.03672 -1.40089,7.09882 -0.55369,2.0621 -1.29857,4.20142 -1.80555,5.27465 -0.50698,1.07323 0.50289,1.33832 -0.81209,1.31622 -1.31498,-0.0221 -1.75954,-3.73415 -3.14803,-5.50833 -1.38849,-1.77418 -3.55304,-3.8309 -5.18988,-4.95156 -1.63684,-1.12066 -2.98381,-1.69744 -4.28119,-2.00922 -1.29738,-0.31178 -1.91079,-0.39834 -3.27488,-0.10773 -1.36409,0.29061 -3.42009,0.74935 -4.57873,2.22698 -1.15864,1.47763 -1.3198,4.0099 -1.2984,6.03672 0.0214,2.02682 0.50309,3.82711 1.38219,5.82511 0.8791,1.998 2.3982,3.66205 3.99136,5.88425 1.59316,2.2222 3.50327,4.82415 5.61052,7.41135 2.10725,2.5872 4.817,5.25802 7.06437,8.06994 2.24737,2.81192 4.40979,5.69029 6.40115,8.78882 1.99136,3.09853 4.02586,7.07801 5.50941,9.78193 1.48355,2.70392 2.39832,4.28018 3.42983,6.41946 1.03151,2.13928 1.61007,3.36138 2.76537,6.39968 1.1553,3.0383 2.8402,8.30616 3.9283,11.90003 1.0881,3.59387 2.05066,6.49574 2.65855,9.63827 0.60789,3.14253 0.96735,6.59321 1.03827,9.14775 0.0709,2.55454 0.24571,4.59695 -0.35212,6.11655 -0.59783,1.5196 -0.81557,2.56832 -2.3428,2.82637 -1.52723,0.25805 -2.59346,-0.9152 -4.81084,-2.9094 -2.21738,-1.9942 -5.35326,-6.8695 -7.4243,-9.77034 -2.07104,-2.90084 -3.51227,-5.1676 -5.07293,-7.57241 -1.56066,-2.40481 -3.0791,-4.99864 -4.30261,-6.84675 -1.22351,-1.84811 -1.80924,-2.66626 -1.50163,-4.10039 0.30761,-1.43413 0.83547,-0.94085 1.60056,-2.02008 1.17329,-2.59665 1.2903,-6.4078 -0.18883,-8.62321 -5.7334,-7.03613 -16.22535,-1.10256 -13.53312,7.08809 1.46167,4.73757 6.26298,4.48521 8.44453,4.37401 0.14639,0.10612 0.53709,0.65807 0.86854,1.62572 1.91931,5.60343 9.00363,23.7514 9.20063,26.21678 2.61626,16.27272 1.26224,39.30685 4.07156,56.16671 9.61007,50.98326 61.58082,67.30104 111.44304,60.34519 44.31528,-3.09271 135.0782,-50.74977 136.30915,-132.28332 2.55905,-39.95734 -15.6546,-86.14198 -40.24024,-131.19157 -6.44818,-11.08601 -33.71223,-61.24882 -44.42485,-76.95555 -2.65473,-2.51346 -5.03467,-4.77488 -6.01082,-8.15097 2.22858,-14.85791 11.73439,-29.97669 20.79246,-39.05675 -3.65285,-1.2393 -3.7607,0.61477 -9.57089,-1.3532 -1.50545,-0.52694 -2.97632,-1.22617 -3.58508,-2.10018 -0.60876,-0.87401 -1.02035,-0.51447 -0.39122,-2.20128 0.62913,-1.68681 4.24701,-3.61588 6.65579,-5.39248 2.40878,-1.7766 5.67753,-3.40849 7.80426,-5.22592 2.12673,-1.81743 3.32389,-3.37376 5.02049,-5.42638 1.6966,-2.05262 3.51209,-4.51643 5.09192,-6.91254 1.57983,-2.39611 3.23908,-5.29121 4.37212,-7.44611 1.13304,-2.1549 0.69973,-3.47074 2.52903,-5.41106 1.8293,-1.94032 6.04544,-3.10225 8.81836,-4.77289 2.77292,-1.67064 6.11172,-3.59954 7.81646,-5.21538 1.70474,-1.61584 0.86573,-2.77715 2.81192,-3.76155 1.94619,-0.9844 4.50497,-0.001 8.3893,-0.0646 3.88433,-0.0636 10.87313,-0.29131 14.91488,-0.37348 4.04175,-0.0822 5.9479,0.0836 9.33479,-0.14583 3.38689,-0.22943 8.12719,-0.71659 10.95309,-1.31686 2.8259,-0.60027 3.48771,-1.06351 6.02219,-1.85601 2.53448,-0.7925 6.22885,-1.69779 9.18049,-2.91197 2.95164,-1.21418 6.19974,-3.51427 8.47179,-4.33929 2.27205,-0.82502 2.93877,-1.122 4.86105,-1.10368 1.92228,0.0183 4.66321,0.88034 6.35812,1.57156 1.69491,0.69122 2.82327,1.06177 3.82014,2.24933 1.86348,4.01579 2.92684,7.34824 0.94363,10.8619 -0.20071,0.8032 -0.97188,1.73542 -0.0829,2.20884 0.88898,0.47342 2.15294,-1.07976 3.09775,-2.25686 0.94481,-1.1771 1.7862,-3.06209 2.08964,-4.78742 0.83937,-7.59534 -4.65864,-19.46417 -13.40433,-19.49497 -2.11363,0.29804 -4.07549,0.42451 -6.08883,0.32236 -1.00541,-0.0523 -1.94913,-0.13439 -2.68551,-0.2752 -1.49867,-0.28658 -2.59741,-0.27617 -3.13713,-1.01895 -0.53972,-0.74278 -0.39783,-0.844 0,-2.21049 0.39783,-1.36649 2.13826,-3.14809 3.39714,-5.33984 2.85722,-4.2864 5.51281,-8.83437 8.91582,-12.42017 1.45684,-1.57226 2.66449,-2.96527 3.87884,-4.82111 1.21435,-1.85584 2.52966,-4.43143 3.29592,-6.31035 0.76626,-1.87892 1.11455,-3.13522 1.46084,-4.84009 0.96093,-3.23548 0.56949,-5.79927 -0.79357,-8.28106 -0.57291,-1.06308 -1.74275,-2.03191 -2.09853,-3.41776 -0.35578,-1.38585 -0.11198,-2.82759 0.21977,-4.56884 0.33175,-1.74125 1.1147,-3.82278 1.95533,-5.73728 0.84063,-1.9145 2.2219,-3.89937 3.10309,-5.69352 0.88119,-1.79415 1.42507,-3.17527 2.21646,-5.04344 0.79139,-1.86817 1.74377,-3.80156 2.51722,-6.1706 0.77345,-2.36904 1.56579,-5.6014 2.00084,-8.04322 0.43505,-2.44182 0.70883,-4.30927 0.71606,-6.55428 0.007,-2.24501 -0.36908,-4.73985 -0.7028,-6.84082 -0.33372,-2.10097 -0.86365,-3.87567 -1.24259,-5.75437 -0.37894,-1.8787 -0.55382,-3.74352 -1.03451,-5.51607 -2.1884,-5.10721 -3.07317,-11.87742 3.54707,-11.36617 13.77837,1.05908 22.46156,9.67737 20.41576,21.05293 -0.30819,1.64113 -0.72402,2.97949 -1.00699,4.18074 -0.28297,1.20125 -1.7409,2.38058 -0.69667,3.02527 1.04423,0.64469 2.13006,-0.93474 3.28207,-2.71391 1.15201,-1.77917 1.85937,-5.66003 2.25096,-8.15362 0.39159,-2.49359 0.20563,-3.87907 0.28192,-6.68034 -1.14113,-14.92241 1.57745,-18.98077 -12.15835,-22.80868 -2.97755,-0.83466 -7.25028,-1.26667 -10.13103,-2.00936 -2.88075,-0.74269 -4.08839,-1.20249 -7.16545,-2.2861 -3.07706,-1.08361 -8.46447,-3.34095 -11.24392,-4.33988 -2.77945,-0.99893 -3.46713,-0.71396 -5.37785,-1.79223 -1.91072,-1.07827 -4.14633,-2.75252 -5.70423,-4.86211 -1.5579,-2.10959 -2.24622,-5.56254 -3.26367,-7.56578 -1.01745,-2.00324 -0.8878,-2.85379 -2.66152,-4.5151 -1.77372,-1.66131 -5.39176,-2.92785 -8.3392,-4.20689 -2.94744,-1.27904 -6.10581,-2.47361 -9.32964,-3.42285 -3.22383,-0.94924 -7.23959,-1.67298 -9.97743,-2.24237 -2.73784,-0.56939 -4.06326,-0.90444 -6.43554,-1.23115 -2.37228,-0.32671 -5.26323,-0.91766 -7.78776,-0.66119 -2.52453,0.25647 -4.7382,1.13897 -7.10589,2.09875 -2.36769,0.95978 -4.75952,1.99524 -7.01346,3.67858 -2.25394,1.68334 -3.70617,3.21692 -6.24271,6.42643 -2.53654,3.20951 -6.36901,9.67619 -8.36751,13.1491 -1.9985,3.47291 -1.896,4.62778 -3.88679,7.50933 -1.99079,2.88155 -4.77864,6.02464 -8.38923,9.34554 -3.61059,3.3209 -9.39284,8.57534 -13.45435,10.1854 -4.06151,1.61006 -6.38622,1.12658 -9.28587,0.99592 -2.89965,-0.13066 -5.8825,-0.1045 -7.92037,-1.58004 -2.03787,-1.47554 -3.2443,-3.71261 -3.45314,-6.1113 -0.20884,-2.39869 1.31875,-3.71142 2.48126,-7.00042 1.16251,-3.289 3.65665,-9.08881 4.48873,-12.73538 0.83208,-3.64657 0.95362,-6.35905 0.97959,-8.88468 0.026,-2.52563 0.2063,-3.64844 -0.55403,-6.19134 -0.76033,-2.5429 -2.41206,-9.35371 -4.58486,-8.55797 -2.1728,0.79574 0.96163,2.24393 0.87144,4.08285 -0.0902,1.83892 -0.75727,4.34133 -2.08521,6.54796 -1.32794,2.20663 -4.12153,4.77067 -6.00492,6.12891 -1.88339,1.35824 -3.32784,2.10877 -4.80991,2.34703 -1.48207,0.23826 -2.48953,0.20274 -3.62126,-0.49251 -1.13173,-0.69525 -1.93681,-2.01492 -2.45125,-3.55087 -0.51444,-1.53595 -0.58298,-3.52218 -0.22786,-5.39929 0.35512,-1.87711 1.30829,-3.95739 2.44888,-5.54132 1.14059,-1.58393 1.96058,-2.06587 4.17929,-3.8064 2.21871,-1.74053 6.78572,-4.61188 9.35153,-6.28406 2.56581,-1.67218 4.50336,-2.2245 6.00978,-3.79709 1.50642,-1.57259 2.34346,-3.45274 2.96271,-5.16834 0.61925,-1.7156 0.94141,-3.27068 0.8548,-4.91252 -0.0866,-1.64184 -0.77381,-3.85293 -1.33733,-4.69153 -0.56352,-0.8386 -0.33519,-1.08418 -0.93135,-0.73053 -0.59616,0.35365 0.56113,1.89408 0.48919,2.93482 -0.0719,1.04074 0.21882,1.65217 -0.98054,3.13423 -1.19936,1.48206 -4.77345,2.76818 -7.10443,4.00461 -6.85952,2.88612 -17.74133,10.50749 -25.20936,6.12506 -1.28456,-0.79373 -1.77936,-1.41939 -2.01001,-2.57658 -0.23065,-1.15719 0.18243,-2.41185 1.01312,-3.67476 0.83069,-1.26291 2.43207,-2.08968 4.10094,-3.29049 1.66887,-1.20081 4.10676,-2.58995 5.95427,-3.82697 1.84751,-1.23702 4.1465,-2.37936 5.13734,-3.58115 0.99084,-1.20179 1.71217,-1.75248 1.24857,-2.81904 -0.4636,-1.06656 -2.04897,-1.12959 -3.67963,-1.27597 -1.63066,-0.14638 -3.73163,0.32961 -5.85786,0.9137 -4.27604,0.60534 -7.48169,3.15829 -10.00674,6.51633 -5.3708,7.48894 -7.57651,16.64204 -10.08243,24.64582 -2.18099,6.94825 -4.55021,13.71537 -7.89107,19.03359 -1.44173,2.25761 -2.73964,5.6634 -5.02777,8.3482 -2.28813,2.6848 -6.06735,5.58488 -8.72519,7.36813 -2.65784,1.78325 -4.45376,2.88107 -6.90186,3.59877 -2.4481,0.7177 -5.0835,0.60627 -7.49277,0.67403 -2.40927,0.0678 -4.14385,-0.27458 -6.93441,-0.23226 -2.79056,0.0423 -6.90007,-0.0914 -9.78705,0.62538 -2.88698,0.71679 -4.42968,1.25141 -7.33238,3.30007 -2.9027,2.04866 -6.35786,6.59105 -9.18971,9.58166 -2.83185,2.99061 -5.46367,5.74251 -7.80959,8.35353 -2.34592,2.61102 -4.43906,5.40171 -6.28983,7.28557 -1.85077,1.88386 -3.37346,2.9272 -4.63559,4.14764 -1.26213,1.22044 -0.98951,3.83683 -2.98282,3.11647 -1.99331,-0.72036 -0.0425,-5.69075 -0.58704,-8.38248 -0.54455,-2.69173 -1.71683,-5.63649 -2.61119,-7.64071 -0.89436,-2.00422 -1.25673,-2.19928 -2.48725,-4.44518 -1.23052,-2.2459 -3.42742,-6.51666 -4.85513,-9.05187 -1.42771,-2.53521 -2.13469,-3.92946 -3.654,-6.18733 -1.51931,-2.25787 -3.9597,-4.84653 -5.54156,-7.27219 -1.58186,-2.42566 -2.55394,-4.95833 -3.97998,-7.2063 -1.42604,-2.24797 -3.11623,-3.83527 -4.5353,-6.27263 -1.41907,-2.43736 -2.43315,-6.5231 -3.81479,-8.35174 -1.38164,-1.82864 -2.21695,-3.22388 -3.47985,-2.96193 -2.01976,1.37505 -1.63845,4.06891 -0.85541,6.56525 0.48229,1.53752 1.11696,3.00011 1.4369,4.03348 1.51844,6.97605 6.06236,14.09301 5.98931,19.7546 -0.0101,2.8609 0.535,6.89227 0,9.58467 -0.535,2.6924 -1.49887,4.16439 -2.63248,6.36249 -1.13361,2.1981 -2.54371,6.17366 -4.22477,6.73876 -1.68106,0.5651 -1.5187,-0.15071 -2.51303,-0.95229 -0.99433,-0.80158 -1.36873,-3.49827 -2.71042,-4.17277 -1.34169,-0.6745 -2.25966,0.45805 -4.02636,0.25439 -1.7667,-0.20366 -4.42548,-0.95307 -6.35388,-1.91436 -1.9284,-0.96129 -3.90853,-2.35931 -5.07602,-3.71846 -1.16749,-1.35915 -1.61266,-2.55108 -2.06191,-3.95267 -0.44925,-1.40159 -0.6939,-2.97141 -0.60827,-4.3303 0.0856,-1.35889 2.27837,-2.81591 0.99592,-3.66376 -1.28245,-0.84785 -3.12335,1.65067 -4.26125,3.36155 -1.1379,1.71088 -1.42731,4.26194 -1.84701,6.64908 -0.4197,2.38714 -0.68467,3.66989 -0.58878,7.61896 0.0959,3.94907 1.14921,11.09879 2.01308,15.93307 0.86387,4.83428 1.71014,7.40208 3.02974,13.05855 1.3196,5.65647 3.44436,15.8958 4.89735,20.87803 1.45299,4.98223 2.20607,6.22217 3.20651,9.14824 1.00044,2.92607 2.30815,5.17286 2.802,8.4056 0.49385,3.23274 0.56941,8.01255 -0.19993,10.75931 -0.76934,2.74676 -1.76578,4.10888 -3.19885,5.48967 -1.43307,1.38079 -3.33499,1.86888 -4.92805,2.6314 -1.59306,0.76252 -2.34243,1.46887 -4.61009,1.96215 -2.26766,0.49328 -8.12303,0.34676 -8.91084,0.2316 -0.78781,-0.11516 -6.93318,0.19095 -9.92345,0.35966 -2.99027,0.16871 -5.27378,0.0475 -8.01666,0.6144 -2.74288,0.56689 -5.87021,1.6022 -8.28877,2.84954 -2.41856,1.24734 -4.81994,2.77672 -6.14988,4.40149 -1.32994,1.62477 -2.95631,3.65079 -2.0637,4.593 0.89261,0.94221 0.95376,-0.33308 2.5675,-0.99062 1.61374,-0.65754 4.65622,-2.54034 7.07835,-3.03965 2.42213,-0.49931 4.66473,-0.22401 7.13494,-0.007 2.47021,0.21701 6.01567,0.56784 7.62344,1.35761 1.60777,0.78977 2.01741,1.20042 2.22467,2.01897 0.20726,0.81855 0.17461,1.01073 -0.68349,1.94547 -0.8581,0.93474 -2.93084,1.3604 -5.06133,2.28026 -2.13049,0.91986 -5.96615,1.89597 -7.73759,3.19751 -1.77144,1.30154 -1.97107,2.62123 -3.08593,3.69855 -1.11486,1.07732 -2.24784,1.35832 -3.5402,2.75378 -1.29236,1.39546 -2.90908,3.94123 -3.82152,5.77715 -0.91244,1.83592 -1.42009,3.72569 -1.78244,5.07003 -0.36235,1.34434 -0.11262,-1.18974 -0.55832,2.92692 -0.4457,4.11666 -0.0424,17.26492 -0.59478,21.85651 -0.55242,4.59159 -0.55234,3.68602 -1.23953,5.75155 -0.68719,2.06553 -1.45412,4.01837 -2.99265,6.52378 -1.53853,2.50541 -4.81814,6.20469 -6.50835,8.19257 -1.69021,1.98788 -2.60757,2.86942 -3.49356,3.84181 -0.88599,0.97239 -0.58016,1.27218 -1.82057,1.99418 -1.24041,0.722 -4.19975,0.49836 -5.7643,1.3095 -1.56455,0.81114 -2.69438,1.85446 -3.46453,3.12058 -0.77015,1.26612 -0.96575,2.50923 -1.06833,4.09183 -0.10258,1.5826 -0.28751,3.62242 0.66397,5.24467 0.95148,1.62225 2.98993,2.97852 4.82556,3.5617 1.83563,0.58318 3.655,0.72296 5.55743,-0.11455 1.90243,-0.83751 3.71097,-3.20392 4.77259,-5.00133 1.06162,-1.79741 1.56616,-3.6713 1.68533,-5.35298 0.11917,-1.68168 -0.95264,-3.19894 -0.73314,-4.44326 0.2195,-1.24432 0.64547,-1.43754 1.50989,-2.68208 0.86442,-1.24454 1.8526,-2.45638 3.88068,-4.5942 2.02808,-2.13782 6.50739,-6.59668 8.50388,-7.98724 1.99649,-1.39056 1.75847,-1.094 2.62327,-1.30844 0.8648,-0.21444 1.61187,-0.15147 2.41382,-0.0566 0.80195,0.0949 1.36653,0.40327 2.34973,0.62245 0.9832,0.21918 1.9192,0.99117 3.55503,0.64591 1.63583,-0.34526 3.39727,-2.0686 5.31237,-3.60132 1.9151,-1.53272 3.8742,-3.84897 6.04917,-5.6824 2.17497,-1.83343 4.556,-3.60807 6.99803,-5.28304 2.44203,-1.67497 5.02438,-3.39405 7.64496,-4.74774 2.62058,-1.35369 5.44975,-2.85511 8.01868,-3.37023 2.56893,-0.51512 4.62262,0.0324 7.02226,0.0147 2.39964,-0.0177 4.5266,-0.59008 7.37488,-0.12449 2.84828,0.46559 6.3775,2.16705 9.36838,3.32385 2.99088,1.1568 5.74259,2.37521 8.57628,3.59742 2.83369,1.22221 6.19603,2.49577 8.42531,3.73472 2.22928,1.23895 3.75313,2.4862 5.03287,3.42303 1.27974,0.93683 2.26155,1.18835 2.69532,2.12032 0.43377,0.93197 0.35617,1.76991 -0.0904,2.73699 -0.44657,0.96708 -1.64194,1.49269 -2.70086,2.45931 -1.05892,0.96662 -3.28314,2.00551 -3.65158,3.3416 -0.36844,1.33609 0.49498,2.05514 0.96749,3.22391 0.47251,1.16877 0.86743,3.03052 1.92681,3.7298 1.05938,0.69928 1.9834,0.21406 3.40902,0.24898 1.42562,0.0349 3.74599,0.14702 5.13669,-0.12294 1.3907,-0.26996 2.11596,-0.8031 3.14686,-1.18281 1.0309,-0.37971 2.22731,-0.70029 3.03811,-1.0962 0.8108,-0.39591 1.28243,-0.98536 1.84782,-1.16414 0.56539,-0.17878 0.97459,-0.40801 1.37222,-0.0691 0.39763,0.33891 0.0848,0.98765 0.19117,1.75042 0.10636,0.76277 -0.0746,1.82641 0.47912,2.81965 0.5537,0.99324 1.42271,1.99657 2.97407,2.61894 1.55136,0.62237 3.63029,0.0171 6.06137,0.24898 2.43108,0.2319 5.5858,0.5868 8.49089,1.27587 2.90509,0.68907 6.518,2.48138 8.86424,2.9044 2.34624,0.42302 3.06387,-0.25787 4.97247,0.19964 1.9086,0.45751 5.48541,2.26763 6.17935,2.83707 0.69394,0.56944 6.94254,2.31075 7.62961,2.80871 0.68707,0.49796 5.77694,2.98465 6.56153,2.98465 0.78458,0 3.59718,0.23265 3.59858,1.11649 10e-4,0.88384 -0.4925,0.35096 -1.46485,0.45958 -0.97235,0.10862 -3.02871,-0.76054 -4.32072,-0.35303 -1.29201,0.40751 -2.64859,0.60589 -2.91937,2.42218 -0.27078,1.81629 2.46674,4.27289 3.97282,6.03445 1.50608,1.76156 3.46412,3.07678 4.9414,4.49636 1.47728,1.41958 3.17471,2.99064 3.93913,3.99699 0.76442,1.00635 -3.2549,-5.0661 0.98114,1.70914 z"
       id="path4601"
       sodipodi:nodetypes="zzccccczzzzzzzzzzzzzzzzzzzzzzzzzzzzzzzzzzzzzzzzzzzzzzzzzzzzzzzzzzzzzzzzzccccsccccccccczzzzzzzzzzzzzzzzzzzzcczzcccszzcczzcczzzzzzzzzzccczzzzcczzzzzzzzzzzzzzzzzzzzzzzzzzzzzzzzzzzzzzzzzzzzcczzzzzzzcccczzzzzzzzzzzzzzzzzzzzzcscczzzzzzzzzzzzzzzzzzzzzzzzzzzzzzzzzzzzzzzzzzzzzzzzzzzzzzzzzzzzzzzzzzzzzzzzzzzzzzzzzzzzzzzzzzzzzzzzzzzzzzzzz" />
    <g
       id="g82063"
       transform="translate(-4.7888508,0.34236565)">
      <g
         id="g78204">
        <path
           style="fill:#fffdfd;fill-opacity:1;stroke:#799bcf;stroke-width:8.7;stroke-linecap:butt;stroke-linejoin:miter;stroke-miterlimit:4;stroke-dasharray:none;stroke-opacity:1"
           d="m 302.53357,815.95055 c 0,0 6.00137,4.20847 8.51729,6.16518 14.65546,11.76433 36.86624,22.59911 53.35988,22.94358 10.34271,-0.02 18.61936,-1.01608 24.76751,-2.35509 26.43507,-4.0287 49.04385,-13.26012 70.70821,-28.95158 13.44896,-9.3534 25.59422,-24.01059 32.655,-36.74752 1.80356,-3.34275 2.94637,-5.78588 4.123,-9.07056 3.44937,-11.87273 6.24942,-25.28353 6.5804,-36.4765 0.0779,-4.31033 -0.34569,-6.99929 -0.7622,-11.63826 -4.35147,-29.36236 -10.46075,-55.20117 -17.2013,-80.12158 -1.41701,-5.26862 -2.94105,-12.0349 -4.5269,-17.54489 -1.58585,-5.50999 -3.32021,-10.50653 -4.9356,-15.51642 -1.61539,-5.00989 -3.22699,-10.30003 -4.753,-14.54386 -1.52601,-4.24383 -3.28564,-8.44259 -4.3014,-10.94333 -5.91352,-12.12032 5.30419,6.70935 8.5374,12.51012 2.93518,5.03151 5.0795,9.1045 7.4407,13.52634 2.3612,4.42184 4.64082,8.74909 6.7342,12.99798 2.09338,4.24889 3.34982,7.18087 5.8391,12.48249 2.48928,5.30162 5.97321,12.05863 9.1064,19.32257 6.55023,14.32778 11.64285,30.29023 15.0151,43.95172 7.15223,33.89245 10.43317,64.28246 -4.7273,90.71269 -2.38622,4.24849 -5.12519,8.8082 -8.7751,13.08524 -6.57894,7.33427 -16.13243,14.68046 -22.3905,19.34443 -4.19477,3.13134 -10.66528,8.07964 -16.024,11.57868 -18.84137,12.09124 -41.44335,21.92437 -62.1054,25.20881 -17.82046,2.39181 -37.44085,1.69185 -53.2472,-2.81698 -21.36497,-7.03891 -29.78331,-14.70447 -39.87817,-25.04735 -2.42113,-2.94766 -9.48761,-11.44485 -9.75612,-12.05591 z"
           id="path62649"
           sodipodi:nodetypes="sccccccccczzzcczzzcccccccccs" />
        <path
           style="fill:#799bcf;fill-opacity:1;stroke:#799bcf;stroke-width:1px;stroke-linecap:butt;stroke-linejoin:miter;stroke-opacity:1"
           d="m 300.91906,780.94202 7.6446,6.57234 7.618,5.21273 c 88.81302,42.32799 139.84778,6.35809 167.9496,-55.06006 l 4.0144,-11.03984 1.5996,2.76526 c 1.59666,23.39477 -18.18249,50.99007 -32.4786,65.34632 -30.00825,26.65628 -65.45135,35.45871 -108.7312,26.11908 -22.4942,-7.55158 -34.96667,-18.9529 -43.0959,-32.42186 z"
           id="path72084"
           sodipodi:nodetypes="cccccccccc" />
      </g>
      <path
         style="fill:#799bcf;fill-opacity:1;stroke:#799bcf;stroke-width:1px;stroke-linecap:butt;stroke-linejoin:miter;stroke-opacity:1"
         d="m 317.66936,759.70087 c 0.85461,0.22682 0.8094,1.94683 1.6269,3.316 3.17974,9.30376 17.8503,18.66669 26.8195,22.14928 1.18192,0.57491 2.14383,0.75611 3.0084,1.27275 0.86457,0.51664 2.41215,0.79592 2.1641,1.7394 -0.24805,0.94348 -1.70659,0.45733 -3.0361,0.49881 -9.4795,-0.42348 -28.6984,-7.05544 -30.5828,-28.97624 z"
         id="path78258"
         sodipodi:nodetypes="ccczzcc" />
    </g>
    <g
       id="g62519"
       transform="translate(-5.3454049,0.03548048)">
      <path
         style="fill:#7e9ecf;fill-opacity:1;stroke:#7e9ecf;stroke-width:1px;stroke-linecap:butt;stroke-linejoin:miter;stroke-opacity:1"
         d="m 366.15696,897.13506 c -3.67624,4.00361 8.88234,11.07497 13.0356,15.49552 4.15326,4.42055 7.88227,7.69527 11.6825,11.14202 3.80023,3.44675 7.40545,7.51293 11.0864,9.5599 3.68095,2.04697 7.62103,2.85016 10.1463,3.1768 2.52527,0.32664 2.65326,0.38623 4.6409,-0.2144 1.98764,-0.60063 4.66422,-3.45814 6.6979,-4.0218 2.03368,-0.56366 2.68394,-0.52928 4.8495,0 2.16556,0.52928 5.02946,3.19333 7.5651,3.9329 2.53564,0.73957 4.57686,1.31785 7.293,0.6447 2.71614,-0.67315 5.3531,-2.72849 7.9507,-5.1417 2.5976,-2.41321 4.57215,-6.01033 7.1218,-9.4148 2.54965,-3.40447 5.82975,-7.36255 8.1686,-11.01729 2.33885,-3.65474 4.28573,-7.32045 5.9121,-10.80769 1.62637,-3.48724 2.82674,-6.38179 3.9162,-10.03067 1.08946,-3.64888 3.13124,-9.70852 2.4955,-11.81969 -0.63574,-2.11117 1.44907,-1.12888 -0.8184,-0.80594 -2.26747,0.32294 -3.97358,7.69695 -6.1492,10.99015 -2.17562,3.2932 -3.68125,6.55402 -6.7766,8.77653 -3.09535,2.22251 -7.44043,4.0582 -11.1318,3.83964 -3.69137,-0.21856 -7.07534,-2.73104 -9.3732,-4.53266 -2.29786,-1.80162 -2.78185,-3.28404 -4.5319,-5.47586 -1.75005,-2.19182 -2.67267,-8.88463 -5.9309,-7.70169 -3.25823,1.18294 0.76406,7.15564 0.4463,11.06829 -0.31776,3.91265 -1.14033,9.08491 -2.5076,12.22129 -1.36727,3.13638 -2.71311,4.91007 -4.6778,6.55484 -1.96469,1.64477 -3.99631,2.76465 -6.6141,3.1382 -2.61779,0.37355 -5.76791,-0.29407 -8.4365,-1.3575 -2.66859,-1.06343 -4.99993,-2.77951 -7.1785,-4.8993 -2.17857,-2.11979 -4.06406,-4.96033 -5.5955,-7.73543 -1.53144,-2.7751 -2.58709,-6.28021 -3.533,-8.78697 -0.94591,-2.50676 0.24358,-6.83167 -2.1987,-6.22838 -2.44228,0.60329 1.01932,5.62427 1.2265,8.39997 0.20718,2.7757 0.0287,6.07982 0.033,8.2114 0.004,2.13158 0.31696,3.1644 0,4.57805 -0.31696,1.41365 -0.26263,2.83702 -1.7567,3.72054 -1.49407,0.88352 -4.38272,0.29331 -6.2882,-0.3878 -1.90548,-0.68111 -2.95702,-2.09607 -4.737,-3.41764 -1.77998,-1.32157 -3.26538,-2.57361 -5.9287,-4.52878 -2.66332,-1.95517 -6.42736,-11.12836 -10.1036,-7.12475 z"
         id="path33436"
         sodipodi:nodetypes="zzzzzzzzzzzzzzzzzzzzzzzzzzzzzzzzzzzzzzzz" />
      <path
         style="fill:#fdfefd;fill-opacity:1;stroke:#897782;stroke-width:1px;stroke-linecap:butt;stroke-linejoin:miter;stroke-opacity:0.753808"
         d="m 427.19526,923.3523 c 5.7438,-3.61644 10.80925,-8.05522 12.8925,-14.48267 0.57489,-1.87635 0.0834,-2.80301 0.70061,-3.5829 0.61725,-0.77989 0.73043,-0.63667 1.4939,-0.48264 3.62764,3.10744 8.3642,4.5484 12.97859,4.71556 0.90312,0.0248 1.08591,-0.24492 1.4814,0 0.39549,0.24492 0.65191,0.35493 0.5836,1.17253 -0.0683,0.8176 -1.05239,1.44322 -2.1243,2.92249 -3.55656,4.96447 -8.14233,10.67133 -12.5817,13.60713 -1.26828,0.76518 -1.81314,0.86972 -2.8306,0.9186 -4.34392,-0.69042 -8.3318,-3.55277 -12.4222,-3.9443 -0.39596,-0.34959 -0.62548,0.17995 -0.1718,-0.8438 z"
         id="path33438"
         sodipodi:nodetypes="cczcczzccccc" />
      <path
         style="fill:#fdfefd;fill-opacity:1;stroke:#897782;stroke-width:1px;stroke-linecap:butt;stroke-linejoin:miter;stroke-opacity:0.753657"
         d="m 397.39386,919.1471 c 0.98358,-1.05567 2.10066,-1.93434 3.2414,-2.80627 3.76204,4.40116 10.48618,7.19574 15.6319,7.46367 l 1.008,0.088 c -1.08484,2.27139 -2.71753,3.18141 -4.88208,3.79636 -5.62002,1.11422 -11.66017,-4.88938 -14.99922,-8.54176 z"
         id="path33440"
         sodipodi:nodetypes="cccccc" />
    </g>
    <g
       id="g105093"
       transform="translate(-5.3947437,-0.51234508)">
      <g
         id="g97395">
        <g
           id="g90878">
          <path
             style="fill:#7d9bd7;fill-opacity:1;stroke:none;stroke-width:1px;stroke-linecap:butt;stroke-linejoin:miter;stroke-opacity:1"
             d="m 331.20586,692.40635 c -0.78508,-5.83406 0.47118,-13.20881 -1.16533,-13.28722 0.17467,2.51357 -0.53914,10.50578 -2.31057,14.6976 -2.45678,7.59406 -6.57096,8.91231 -9.1079,3.30145 -0.47094,-0.79114 -0.48959,-1.7859 -1.1098,-1.74209 -0.62021,0.0438 -0.54251,0.83376 -0.6883,1.51607 -0.14579,0.68231 -0.20114,1.0707 0.013,2.52125 0.21414,1.45055 1.0632,3.84747 1.7826,6.01788 0.7194,2.17041 1.7338,5.00485 2.5671,6.9861 8.79355,15.25616 18.27269,27.42348 30.3922,37.18585 2.17223,2.05791 16.16097,13.42595 17.3085,12.38505 -19.95854,-20.43337 -33.62776,-44.88714 -37.6815,-69.58194 z"
             id="path83034"
             sodipodi:nodetypes="cccczzzzcccc" />
          <path
             style="fill:#7d9bd7;fill-opacity:1;stroke:none;stroke-width:1px;stroke-linecap:butt;stroke-linejoin:miter;stroke-opacity:1"
             d="m 357.67696,722.27654 c 8.18566,1.57409 14.22863,2.92164 20.6659,-0.48677 -2.38328,11.30551 0.3789,24.91263 8.0679,33.2455 -11.47784,-6.00138 -19.3331,-18.56494 -26.5508,-27.93456 l -2.4807,-3.99302 z"
             id="path87107"
             sodipodi:nodetypes="cccccc" />
        </g>
        <path
           style="fill:#7e9dd6;fill-opacity:1;stroke:none;stroke-width:1px;stroke-linecap:butt;stroke-linejoin:miter;stroke-opacity:1"
           d="m 472.45626,528.98085 c 0,0 5.89397,16.43805 9.434,23.91957 17.86511,43.69703 45.75905,53.99056 56.4473,118.00363 0.74293,4.62025 1.34322,9.06697 1.8974,13.67187 0.55418,4.6049 1.4231,13.95349 1.4231,13.95349 2.12729,-16.87957 1.55565,-35.42588 -0.3722,-50.81569 -0.55363,-4.08861 -0.71826,-6.26549 -1.8462,-10.64027 -3.45499,-19.92296 -21.47114,-46.46816 -34.0051,-65.13189 -8.08037,-11.87804 -24.66231,-29.64283 -31.4539,-42.37462 z"
           id="path90913"
           sodipodi:nodetypes="ccczcccccc" />
      </g>
      <path
         style="fill:#fefafa;fill-opacity:1;stroke:#7e9dd4;stroke-width:7.6;stroke-linecap:butt;stroke-linejoin:round;stroke-miterlimit:4;stroke-dasharray:none;stroke-opacity:1"
         d="m 518.44911,332.24385 c 12.43341,15.69551 8.84608,28.81269 11.30575,44.87396 6.49477,26.25141 38.95977,6.37015 55.6735,-43.89918 -24.56776,67.06965 -59.11363,10.67263 -35.4736,-21.57198 -15.53668,17.67971 -41.53153,18.36765 -42.6758,-4.99438 -0.18432,-4.0345 2.731,-16.29998 2.731,-16.29998 0,0 -2.13272,12.21566 -5.2303,16.80027 -12.34046,18.97776 -44.09141,17.04629 -35.191,-2.27233 0,0 -4.95525,9.71298 -3.1906,13.74117 6.53386,17.7881 41.33185,-0.96425 52.05105,13.62245 z"
         id="path97430"
         sodipodi:nodetypes="cccccccccc" />
    </g>
    <path
       style="fill:#fffffd;fill-opacity:1;stroke:#7c9ad4;stroke-width:7.1;stroke-linecap:butt;stroke-linejoin:miter;stroke-miterlimit:4;stroke-dasharray:none;stroke-opacity:1"
       d="m 327.46755,388.87735 c -18.80945,-12.88915 -26.78192,-30.53392 -6.52509,-49.78865 4.22659,-1.1499 15.70977,-0.37095 22.77084,-2.14253 19.05272,-4.64873 9.4971,-24.94222 5.5645,-27.67326 3.04153,9.9576 4.94649,18.63706 -5.94165,25.2081 -9.02391,5.40618 -19.81566,2.57177 -27.53438,-1.13955 -3.07451,-1.50733 -10.56277,-7.41357 -10.56277,-7.41357 0,0 1.81198,4.33054 2.19563,7.10136 2.557,22.10199 -7.8353,24.62476 -26.54272,29.64619 -2.78553,0.71241 -4.63289,0.6252 -4.63289,0.6252 9.35689,11.19813 29.28698,19.16156 40.37335,22.11893 10.98944,1.92916 1.64399,6.36948 -2.81817,12.28749 -1.8392,2.5209 -4.17255,7.16526 -4.17255,7.16526 0,0 6.83786,-1.53249 9.91537,-2.17477 11.83785,-3.29088 23.66504,-3.62091 32.89089,-1.02147 -4.06256,1.5746 -19.1302,-8.38766 -24.98036,-12.79873 z"
       id="path105175"
       sodipodi:nodetypes="cccccccccccccccc" />
  </g>
</svg>
