<?xml version="1.0" encoding="UTF-8" standalone="no"?>
<!-- Created with Inkscape (http://www.inkscape.org/) -->

<svg
   width="297mm"
   height="210mm"
   viewBox="0 0 1122.5197 793.70081"
   version="1.1"
   id="svg1"
   inkscape:version="1.3 (0e150ed6c4, 2023-07-21)"
   sodipodi:docname="dibujo.svg"
   xml:space="preserve"
   xmlns:inkscape="http://www.inkscape.org/namespaces/inkscape"
   xmlns:sodipodi="http://sodipodi.sourceforge.net/DTD/sodipodi-0.dtd"
   xmlns="http://www.w3.org/2000/svg"
   xmlns:svg="http://www.w3.org/2000/svg"><sodipodi:namedview
     id="namedview1"
     pagecolor="#ffffff"
     bordercolor="#000000"
     borderopacity="0.25"
     inkscape:showpageshadow="2"
     inkscape:pageopacity="0.0"
     inkscape:pagecheckerboard="0"
     inkscape:deskcolor="#d1d1d1"
     inkscape:document-units="mm"
     inkscape:zoom="0.93108138"
     inkscape:cx="430.68201"
     inkscape:cy="380.74008"
     inkscape:window-width="1920"
     inkscape:window-height="974"
     inkscape:window-x="-11"
     inkscape:window-y="-11"
     inkscape:window-maximized="1"
     inkscape:current-layer="layer1"
     showgrid="false" /><defs
     id="defs1" /><g
     inkscape:label="Capa 1"
     inkscape:groupmode="layer"
     id="layer1"><rect
       style="opacity:0.43361;fill:#020103;fill-rule:evenodd;stroke-width:0.0982677;stroke-linecap:round;paint-order:markers fill stroke"
       id="rect1"
       width="1020.1218"
       height="611.45398"
       x="51.198975"
       y="81.654366"
       rx="11.869165"
       ry="6.1271234" /><rect
       style="opacity:0.43361;fill:#020103;fill-rule:evenodd;stroke-width:0.0982677;stroke-linecap:round;paint-order:markers fill stroke"
       id="rect2"
       width="430.19962"
       height="331.59912"
       x="82.872475"
       y="111.15768"
       rx="11.869165"
       ry="6.1271234" /><rect
       style="opacity:0.43361;fill:#020103;fill-rule:evenodd;stroke-width:0.0982677;stroke-linecap:round;paint-order:markers fill stroke;fill-opacity:1"
       id="rect3"
       width="430.19962"
       height="331.59912"
       x="604.55847"
       y="111.15768"
       rx="11.869165"
       ry="6.1271234" /><g
       id="g11"
       transform="matrix(-2.6662565,0,0,2.7010487,1489.9207,-87.824522)"
       style="stroke-width:1.40838;stroke-dasharray:none"><path
         style="opacity:1;fill:#ffffff;fill-opacity:1;fill-rule:evenodd;stroke:#020101;stroke-width:1.40838;stroke-linecap:round;stroke-linejoin:round;stroke-dasharray:none;stroke-opacity:1;paint-order:fill markers stroke"
         d="m 202.91434,134.25156 c -3.10303,0.98032 -6.0102,3.27727 -9.40509,-2.91426 -3.03786,-5.54037 3.47872,-20.3195 12.31935,-26.75817 6.03081,-3.71403 8.76592,-0.25715 10.79599,3.31166 l -7.74927,7.48434 -3.84152,12.71675 z"
         id="path1"
         sodipodi:nodetypes="csscccc" /><g
         id="g9"
         style="opacity:1;stroke-width:1.40838;stroke-dasharray:none"><g
           id="g5"
           style="stroke-width:1.40838;stroke-dasharray:none"><path
             style="opacity:1;fill:#ffffff;fill-opacity:1;fill-rule:evenodd;stroke:#020101;stroke-width:1.40838;stroke-linecap:round;stroke-linejoin:round;stroke-dasharray:none;stroke-opacity:1;paint-order:fill markers stroke"
             d="m 199.52843,132.16519 c 0.91739,-6.814 5.62215,-18.65051 12.40721,-23.41447 6.78506,-4.76396 22.07642,-7.86322 23.32635,-9.743665 7.20004,-12.561464 17.05871,-20.581558 21.40376,-6.369653 3.48905,11.412088 -6.66606,16.315528 -14.51961,21.589368 14.47415,6.90584 29.97559,9.80372 45.0553,12.69303 3.71059,0.71096 9.26587,5.224 9.13857,10.59902 -0.22085,9.32517 -5.6512,8.87684 -11.03299,7.61897 -2.68226,-0.62692 1.74541,-0.42218 -21.3822,-3.37197 l -16.67286,-2.99613 4.7304,-8.47786 c 3.91532,4.63911 6.51223,9.75763 12.92615,13.48816 11.45049,7.83729 13.97671,8.55787 18.19592,11.59503 7.71829,5.55595 7.79597,15.86595 1.98806,19.45514 -3.93445,2.43142 -9.78723,-1.83776 -12.69056,-3.83926 -5.57289,-3.73788 -14.79619,-8.77519 -20.74277,-10.7692 -7.90914,-3.00617 -12.82126,-5.97983 -19.67615,-7.40135 l 14.56662,-5.29365 6.93142,15.54884 c 5.25744,8.5048 17.20841,15.81943 12.59874,23.97895 -3.27996,5.80583 -8.12748,1.11408 -12.17706,-2.24729 -7.91654,-6.57115 -14.61604,-13.64774 -23.83862,-18.54695 -9.22258,-4.89921 -19.39356,-11.61335 -24.86909,-17.89041 -5.47553,-6.27706 -6.58398,-9.39065 -5.66659,-16.20465 z"
             id="path2"
             sodipodi:nodetypes="zzsscsssccccsscccccsszzz" /><g
             id="g4"
             style="stroke-width:1.40838;stroke-dasharray:none"><path
               style="opacity:1;fill:#ffffff;fill-opacity:1;fill-rule:evenodd;stroke:none;stroke-width:1.40838;stroke-linecap:round;stroke-linejoin:round;stroke-dasharray:none;stroke-opacity:1;paint-order:fill markers stroke"
               d="m 236.22959,155.84355 c 6.0247,-0.60667 11.79772,1.43285 17.34071,3.57215 l -5.88238,-15.56034 -17.58489,5.33176 -2.41751,5.33177 z"
               id="path3"
               sodipodi:nodetypes="cccccc" /><path
               style="opacity:1;fill:#ffffff;fill-opacity:1;fill-rule:evenodd;stroke:none;stroke-width:1.40838;stroke-linecap:round;stroke-linejoin:round;stroke-dasharray:none;stroke-opacity:1;paint-order:fill markers stroke"
               d="m 262.89173,140.14738 c -7.75396,-0.91002 -11.74306,-0.57544 -16.90702,-0.16387 l -1.16793,-1.98745 5.08148,-8.73452 3.53595,-1.61577 5.2454,6.13524 z"
               id="path4"
               sodipodi:nodetypes="ccccccc" /></g></g><g
           id="g7"
           style="stroke-width:1.40838;stroke-dasharray:none"><path
             style="opacity:1;fill:#eaf2fe;fill-opacity:0.641921;fill-rule:evenodd;stroke:#020101;stroke-width:1.40838;stroke-linecap:round;stroke-dasharray:none;stroke-opacity:1;paint-order:fill markers stroke"
             d="m 212.64833,117.47638 c 3.61786,1.91922 7.30567,2.99004 11.20782,4.13639"
             id="path5"
             sodipodi:nodetypes="cc"
             inkscape:transform-center-x="-5.6174017"
             inkscape:transform-center-y="2.6257713" /><path
             style="fill:#d90707;fill-opacity:1;fill-rule:evenodd;stroke:#020101;stroke-width:1.40838;stroke-linecap:round;stroke-dasharray:none;stroke-opacity:1;paint-order:fill markers stroke"
             d="m 209.58691,124.81858 c 3.52528,2.26984 11.7556,6.83333 15.62161,8.51823"
             id="path6"
             sodipodi:nodetypes="cc"
             inkscape:transform-center-x="-8.218924"
             inkscape:transform-center-y="4.5212725" /><path
             style="fill:#d90707;fill-opacity:1;fill-rule:evenodd;stroke:#020101;stroke-width:1.40838;stroke-linecap:round;stroke-dasharray:none;stroke-opacity:1;paint-order:fill markers stroke"
             d="m 207.48514,131.25709 c 2.06749,2.59849 6.22817,6.18354 9.73255,8.5857"
             id="path7"
             sodipodi:nodetypes="cc"
             inkscape:transform-center-x="-4.8876231"
             inkscape:transform-center-y="4.1457819" /></g></g></g><rect
       style="opacity:0.43361;fill:#020103;fill-rule:evenodd;stroke-width:0.0982677;stroke-linecap:round;paint-order:markers fill stroke"
       id="rect4"
       width="327.20291"
       height="37.681721"
       x="373.88812"
       y="492.14639"
       rx="11.869165"
       ry="6.1271234" /><rect
       style="opacity:0.43361;fill:#020103;fill-rule:evenodd;stroke-width:0.0982677;stroke-linecap:round;paint-order:markers fill stroke"
       id="rect5"
       width="327.20291"
       height="37.681721"
       x="373.88812"
       y="561.4035"
       rx="11.869165"
       ry="6.1271234" /><rect
       style="opacity:0.43361;fill:#020103;fill-rule:evenodd;stroke-width:0.0982677;stroke-linecap:round;paint-order:markers fill stroke"
       id="rect6"
       width="327.20291"
       height="37.681721"
       x="373.88812"
       y="630.66058"
       rx="11.869165"
       ry="6.1271234" /><g
       id="g43"
       transform="matrix(2.6662565,0,0,2.7010487,-347.75717,-94.336047)"
       style="stroke-width:1.40838164;stroke-dasharray:none"><path
         style="opacity:1;fill:#ffffff;fill-opacity:1;fill-rule:evenodd;stroke:#020101;stroke-width:1.40838164;stroke-linecap:round;stroke-linejoin:round;stroke-dasharray:none;stroke-opacity:1;paint-order:fill markers stroke"
         d="m 202.91434,134.25156 c -3.10303,0.98032 -6.0102,3.27727 -9.40509,-2.91426 -3.03786,-5.54037 3.47872,-20.3195 12.31935,-26.75817 6.03081,-3.71403 8.76592,-0.25715 10.79599,3.31166 l -7.74927,7.48434 -3.84152,12.71675 z"
         id="path42"
         sodipodi:nodetypes="csscccc" /><g
         id="g42"
         style="opacity:1;stroke-width:1.40838164;stroke-dasharray:none"><g
           id="g41"
           style="stroke-width:1.40838164;stroke-dasharray:none"><path
             style="opacity:1;fill:#ffffff;fill-opacity:1;fill-rule:evenodd;stroke:#020101;stroke-width:1.40838164;stroke-linecap:round;stroke-linejoin:round;stroke-dasharray:none;stroke-opacity:1;paint-order:fill markers stroke"
             d="m 199.52843,132.16519 c 0.91739,-6.814 5.62215,-18.65051 12.40721,-23.41447 6.78506,-4.76396 22.07642,-7.86322 23.32635,-9.743665 7.20004,-12.561464 17.05871,-20.581558 21.40376,-6.369653 3.48905,11.412088 -6.66606,16.315528 -14.51961,21.589368 14.47415,6.90584 29.97559,9.80372 45.0553,12.69303 3.71059,0.71096 9.26587,5.224 9.13857,10.59902 -0.22085,9.32517 -5.6512,8.87684 -11.03299,7.61897 -2.68226,-0.62692 1.74541,-0.42218 -21.3822,-3.37197 l -16.67286,-2.99613 4.7304,-8.47786 c 3.91532,4.63911 6.51223,9.75763 12.92615,13.48816 11.45049,7.83729 13.97671,8.55787 18.19592,11.59503 7.71829,5.55595 7.79597,15.86595 1.98806,19.45514 -3.93445,2.43142 -9.78723,-1.83776 -12.69056,-3.83926 -5.57289,-3.73788 -14.79619,-8.77519 -20.74277,-10.7692 -7.90914,-3.00617 -12.82126,-5.97983 -19.67615,-7.40135 l 14.56662,-5.29365 6.93142,15.54884 c 5.25744,8.5048 17.20841,15.81943 12.59874,23.97895 -3.27996,5.80583 -8.12748,1.11408 -12.17706,-2.24729 -7.91654,-6.57115 -14.61604,-13.64774 -23.83862,-18.54695 -9.22258,-4.89921 -19.39356,-11.61335 -24.86909,-17.89041 -5.47553,-6.27706 -6.58398,-9.39065 -5.66659,-16.20465 z"
             id="path35"
             sodipodi:nodetypes="zzsscsssccccsscccccsszzz" /><g
             id="g37"
             style="stroke-width:1.40838164;stroke-dasharray:none"><path
               style="opacity:1;fill:#ffffff;fill-opacity:1;fill-rule:evenodd;stroke:none;stroke-width:1.40838164;stroke-linecap:round;stroke-linejoin:round;stroke-dasharray:none;stroke-opacity:1;paint-order:fill markers stroke"
               d="m 236.22959,155.84355 c 6.0247,-0.60667 11.79772,1.43285 17.34071,3.57215 l -5.88238,-15.56034 -17.58489,5.33176 -2.41751,5.33177 z"
               id="path36"
               sodipodi:nodetypes="cccccc" /><path
               style="opacity:1;fill:#ffffff;fill-opacity:1;fill-rule:evenodd;stroke:none;stroke-width:1.40838164;stroke-linecap:round;stroke-linejoin:round;stroke-dasharray:none;stroke-opacity:1;paint-order:fill markers stroke"
               d="m 262.89173,140.14738 c -7.75396,-0.91002 -11.74306,-0.57544 -16.90702,-0.16387 l -1.16793,-1.98745 5.08148,-8.73452 3.53595,-1.61577 5.2454,6.13524 z"
               id="path37"
               sodipodi:nodetypes="ccccccc" /></g></g><g
           id="g40"
           style="stroke-width:1.40838164;stroke-dasharray:none"><path
             style="opacity:1;fill:#eaf2fe;fill-opacity:0.641921;fill-rule:evenodd;stroke:#020101;stroke-width:1.40838164;stroke-linecap:round;stroke-dasharray:none;stroke-opacity:1;paint-order:fill markers stroke"
             d="m 212.64833,117.47638 c 3.61786,1.91922 7.30567,2.99004 11.20782,4.13639"
             id="path38"
             sodipodi:nodetypes="cc"
             inkscape:transform-center-x="-5.6174017"
             inkscape:transform-center-y="2.6257713" /><path
             style="fill:#d90707;fill-opacity:1;fill-rule:evenodd;stroke:#020101;stroke-width:1.40838164;stroke-linecap:round;stroke-dasharray:none;stroke-opacity:1;paint-order:fill markers stroke"
             d="m 209.58691,124.81858 c 3.52528,2.26984 11.7556,6.83333 15.62161,8.51823"
             id="path39"
             sodipodi:nodetypes="cc"
             inkscape:transform-center-x="-8.218924"
             inkscape:transform-center-y="4.5212725" /><path
             style="fill:#d90707;fill-opacity:1;fill-rule:evenodd;stroke:#020101;stroke-width:1.40838164;stroke-linecap:round;stroke-dasharray:none;stroke-opacity:1;paint-order:fill markers stroke"
             d="m 207.48514,131.25709 c 2.06749,2.59849 6.22817,6.18354 9.73255,8.5857"
             id="path40"
             sodipodi:nodetypes="cc"
             inkscape:transform-center-x="-4.8876231"
             inkscape:transform-center-y="4.1457819" /></g></g></g><g
       id="g8"
       transform="matrix(1.1381163,0,0,1,-754.76611,-361.1922)"
       style="stroke-width:0.937362"><path
         id="rect7"
         style="opacity:1;fill:#02b4db;fill-opacity:1;fill-rule:evenodd;stroke-width:0.0921123;stroke-linecap:round;paint-order:markers fill stroke"
         d="m 731.78127,472.78517 c -0.0699,0.26998 -0.15821,0.53624 -0.15821,0.8164 v 74.77149 c 0,3.39442 5.29363,6.12695 11.86914,6.12695 h 303.4629 c 6.5755,0 11.8691,-2.73253 11.8691,-6.12695 v -74.77149 c 0,-0.28016 -0.088,-0.54642 -0.1582,-0.8164 -0.042,0.33434 -0.039,0.77092 -0.1035,1.03515 -0.081,0.33576 -0.1792,0.60742 -0.2871,0.79493 -0.1078,0.1875 -0.2268,0.29101 -0.3515,0.29101 H 732.52345 c -0.12478,0 -0.24369,-0.10351 -0.35156,-0.29101 -0.10786,-0.18751 -0.20568,-0.45917 -0.28711,-0.79493 -0.0641,-0.26423 -0.0611,-0.70081 -0.10351,-1.03515 z" /><path
         id="path8"
         style="opacity:1;fill:#22f110;fill-opacity:1;fill-rule:evenodd;stroke-width:0.0921123;stroke-linecap:round;paint-order:markers fill stroke"
         d="m 731.78127,472.78517 c 0.0424,0.33434 0.0394,0.77092 0.10351,1.03515 0.0814,0.33576 0.17925,0.60742 0.28711,0.79493 0.10787,0.1875 0.22678,0.29101 0.35156,0.29101 h 325.40045 c 0.1247,0 0.2437,-0.10351 0.3515,-0.29101 0.1079,-0.18751 0.2057,-0.45917 0.2871,-0.79493 0.064,-0.26423 0.061,-0.70081 0.1035,-1.03515 -0.7766,-3.00111 -5.6781,-5.31055 -11.7109,-5.31055 H 743.4922 c -6.03279,0 -10.9343,2.30944 -11.71093,5.31055 z" /></g><text
       xml:space="preserve"
       style="font-style:normal;font-variant:normal;font-weight:normal;font-stretch:normal;font-size:21.3333px;font-family:'Cascadia Mono';-inkscape-font-specification:'Cascadia Mono, Normal';font-variant-ligatures:no-contextual;font-variant-caps:normal;font-variant-numeric:normal;font-variant-east-asian:normal;text-align:justify;letter-spacing:0px;word-spacing:0px;opacity:1;fill:#22f110;fill-opacity:1;fill-rule:evenodd;stroke:none;stroke-width:0.377953;stroke-linecap:round;stroke-linejoin:round;stroke-dasharray:none;stroke-opacity:1;paint-order:fill markers stroke"
       x="119.86113"
       y="139.94257"
       id="text10"><tspan
         sodipodi:role="line"
         id="tspan10"
         x="119.86113"
         y="139.94257"
         style="fill:#220d10;fill-opacity:1">Has atacado con ...</tspan></text><g
       id="g12"
       transform="translate(-69.223666,2.65528)"><g
         id="g10"
         transform="matrix(1.1381163,0,0,1,-163.07406,-363.84748)"
         style="stroke-width:0.937362"><path
           id="path9"
           style="opacity:1;fill:#02b4db;fill-opacity:1;fill-rule:evenodd;stroke-width:0.0921123;stroke-linecap:round;paint-order:markers fill stroke"
           d="m 731.78127,472.78517 c -0.0699,0.26998 -0.15821,0.53624 -0.15821,0.8164 v 74.77149 c 0,3.39442 5.29363,6.12695 11.86914,6.12695 h 303.4629 c 6.5755,0 11.8691,-2.73253 11.8691,-6.12695 v -74.77149 c 0,-0.28016 -0.088,-0.54642 -0.1582,-0.8164 -0.042,0.33434 -0.039,0.77092 -0.1035,1.03515 -0.081,0.33576 -0.1792,0.60742 -0.2871,0.79493 -0.1078,0.1875 -0.2268,0.29101 -0.3515,0.29101 H 732.52345 c -0.12478,0 -0.24369,-0.10351 -0.35156,-0.29101 -0.10786,-0.18751 -0.20568,-0.45917 -0.28711,-0.79493 -0.0641,-0.26423 -0.0611,-0.70081 -0.10351,-1.03515 z" /><path
           id="path10"
           style="opacity:1;fill:#22f110;fill-opacity:1;fill-rule:evenodd;stroke-width:0.0921123;stroke-linecap:round;paint-order:markers fill stroke"
           d="m 731.78127,472.78517 c 0.0424,0.33434 0.0394,0.77092 0.10351,1.03515 0.0814,0.33576 0.17925,0.60742 0.28711,0.79493 0.10787,0.1875 0.22678,0.29101 0.35156,0.29101 h 325.40045 c 0.1247,0 0.2437,-0.10351 0.3515,-0.29101 0.1079,-0.18751 0.2057,-0.45917 0.2871,-0.79493 0.064,-0.26423 0.061,-0.70081 0.1035,-1.03515 -0.7766,-3.00111 -5.6781,-5.31055 -11.7109,-5.31055 H 743.4922 c -6.03279,0 -10.9343,2.30944 -11.71093,5.31055 z" /></g><text
         xml:space="preserve"
         style="font-style:normal;font-variant:normal;font-weight:normal;font-stretch:normal;font-size:21.3333px;font-family:'Cascadia Mono';-inkscape-font-specification:'Cascadia Mono, Normal';font-variant-ligatures:no-contextual;font-variant-caps:normal;font-variant-numeric:normal;font-variant-east-asian:normal;text-align:justify;letter-spacing:0px;word-spacing:0px;opacity:1;fill:#22f110;fill-opacity:1;fill-rule:evenodd;stroke:none;stroke-width:0.377953;stroke-linecap:round;stroke-linejoin:round;stroke-dasharray:none;stroke-opacity:1;paint-order:fill markers stroke"
         x="696.57513"
         y="139.94257"
         id="text11"><tspan
           sodipodi:role="line"
           id="tspan11"
           x="696.57513"
           y="139.94257"
           style="fill:#220d10;fill-opacity:1">Se ha defendido con ...</tspan></text></g><rect
       style="opacity:0.987552;fill:#220d10;fill-opacity:0.99;fill-rule:evenodd;stroke-width:3.77953;stroke-linecap:round;stroke-linejoin:round;stroke-dasharray:none;paint-order:fill markers stroke"
       id="rect12"
       width="746.46912"
       height="502.08936"
       x="200.77344"
       y="108.40437"
       rx="6.6772504"
       ry="6.1271234" /><text
       xml:space="preserve"
       style="font-style:normal;font-variant:normal;font-weight:normal;font-stretch:normal;font-size:53.3333px;font-family:'Digital College';-inkscape-font-specification:'Digital College, Normal';font-variant-ligatures:no-contextual;font-variant-caps:normal;font-variant-numeric:normal;font-variant-east-asian:normal;text-align:justify;letter-spacing:0px;word-spacing:0px;fill:#db0d10;fill-opacity:1;fill-rule:evenodd;stroke-width:3.77953;stroke-linecap:round;stroke-linejoin:round;stroke-dasharray:none;paint-order:fill markers stroke"
       x="368.30542"
       y="314.16898"
       id="text12"><tspan
         sodipodi:role="line"
         id="tspan12"
         x="368.30542"
         y="314.16898">GANASTE</tspan></text></g></svg>
