<?xml version="1.0" encoding="UTF-8" standalone="no"?>
<!-- Created with Inkscape (http://www.inkscape.org/) -->

<svg
   width="119.75331mm"
   height="119.25583mm"
   viewBox="0 0 119.75331 119.25583"
   version="1.1"
   id="svg1"
   xml:space="preserve"
   inkscape:version="1.3 (0e150ed6c4, 2023-07-21)"
   sodipodi:docname="papel.svg"
   xmlns:inkscape="http://www.inkscape.org/namespaces/inkscape"
   xmlns:sodipodi="http://sodipodi.sourceforge.net/DTD/sodipodi-0.dtd"
   xmlns="http://www.w3.org/2000/svg"
   xmlns:svg="http://www.w3.org/2000/svg"><sodipodi:namedview
     id="namedview1"
     pagecolor="#ffffff"
     bordercolor="#000000"
     borderopacity="0.25"
     inkscape:showpageshadow="2"
     inkscape:pageopacity="0.0"
     inkscape:pagecheckerboard="0"
     inkscape:deskcolor="#d1d1d1"
     inkscape:document-units="mm"
     inkscape:zoom="0.70710678"
     inkscape:cx="-28.284271"
     inkscape:cy="144.95689"
     inkscape:window-width="1920"
     inkscape:window-height="974"
     inkscape:window-x="-11"
     inkscape:window-y="-11"
     inkscape:window-maximized="1"
     inkscape:current-layer="layer1" /><defs
     id="defs1" /><g
     inkscape:label="Capa 1"
     inkscape:groupmode="layer"
     id="layer1"
     transform="translate(-44.480854,-96.004877)"><g
       id="g43"
       style="opacity:1"
       transform="translate(-141.19113,19.765864)"><path
         style="opacity:1;fill:#ffffff;fill-opacity:1;fill-rule:evenodd;stroke:#020101;stroke-width:2.803;stroke-linecap:round;stroke-linejoin:round;stroke-dasharray:none;stroke-opacity:1;paint-order:fill markers stroke"
         d="m 202.91434,134.25156 c -3.10303,0.98032 -6.0102,3.27727 -9.40509,-2.91426 -3.03786,-5.54037 3.47872,-20.3195 12.31935,-26.75817 6.03081,-3.71403 8.76592,-0.25715 10.79599,3.31166 l -7.74927,7.48434 -3.84152,12.71675 z"
         id="path42"
         sodipodi:nodetypes="csscccc" /><g
         id="g42"
         style="opacity:1"><g
           id="g41"><path
             style="opacity:1;fill:#ffffff;fill-opacity:1;fill-rule:evenodd;stroke:#020101;stroke-width:2.803;stroke-linecap:round;stroke-linejoin:round;stroke-dasharray:none;stroke-opacity:1;paint-order:fill markers stroke"
             d="m 199.52843,132.16519 c 0.91739,-6.814 5.62215,-18.65051 12.40721,-23.41447 6.78506,-4.76396 22.07642,-7.86322 23.32635,-9.743665 7.20004,-12.561464 17.05871,-20.581558 21.40376,-6.369653 3.48905,11.412088 -6.66606,16.315528 -14.51961,21.589368 14.47415,6.90584 29.97559,9.80372 45.0553,12.69303 3.71059,0.71096 9.26587,5.224 9.13857,10.59902 -0.22085,9.32517 -5.6512,8.87684 -11.03299,7.61897 -2.68226,-0.62692 1.74541,-0.42218 -21.3822,-3.37197 l -16.67286,-2.99613 4.7304,-8.47786 c 3.91532,4.63911 6.51223,9.75763 12.92615,13.48816 11.45049,7.83729 13.97671,8.55787 18.19592,11.59503 7.71829,5.55595 7.79597,15.86595 1.98806,19.45514 -3.93445,2.43142 -9.78723,-1.83776 -12.69056,-3.83926 -5.57289,-3.73788 -14.79619,-8.77519 -20.74277,-10.7692 -7.90914,-3.00617 -12.82126,-5.97983 -19.67615,-7.40135 l 14.56662,-5.29365 6.93142,15.54884 c 5.25744,8.5048 17.20841,15.81943 12.59874,23.97895 -3.27996,5.80583 -8.12748,1.11408 -12.17706,-2.24729 -7.91654,-6.57115 -14.61604,-13.64774 -23.83862,-18.54695 -9.22258,-4.89921 -19.39356,-11.61335 -24.86909,-17.89041 -5.47553,-6.27706 -6.58398,-9.39065 -5.66659,-16.20465 z"
             id="path35"
             sodipodi:nodetypes="zzsscsssccccsscccccsszzz" /><g
             id="g37"><path
               style="opacity:1;fill:#ffffff;fill-opacity:1;fill-rule:evenodd;stroke:none;stroke-width:2.803;stroke-linecap:round;stroke-linejoin:round;stroke-dasharray:none;stroke-opacity:1;paint-order:fill markers stroke"
               d="m 236.22959,155.84355 c 6.0247,-0.60667 11.79772,1.43285 17.34071,3.57215 l -5.88238,-15.56034 -17.58489,5.33176 -2.41751,5.33177 z"
               id="path36"
               sodipodi:nodetypes="cccccc" /><path
               style="opacity:1;fill:#ffffff;fill-opacity:1;fill-rule:evenodd;stroke:none;stroke-width:2.803;stroke-linecap:round;stroke-linejoin:round;stroke-dasharray:none;stroke-opacity:1;paint-order:fill markers stroke"
               d="m 262.89173,140.14738 c -7.75396,-0.91002 -11.74306,-0.57544 -16.90702,-0.16387 l -1.16793,-1.98745 5.08148,-8.73452 3.53595,-1.61577 5.2454,6.13524 z"
               id="path37"
               sodipodi:nodetypes="ccccccc" /></g></g><g
           id="g40"><path
             style="opacity:1;fill:#eaf2fe;fill-opacity:0.641921;fill-rule:evenodd;stroke:#020101;stroke-width:2.803;stroke-linecap:round;stroke-dasharray:none;stroke-opacity:1;paint-order:fill markers stroke"
             d="m 212.64833,117.47638 c 3.61786,1.91922 7.30567,2.99004 11.20782,4.13639"
             id="path38"
             sodipodi:nodetypes="cc"
             inkscape:transform-center-x="-5.6174017"
             inkscape:transform-center-y="2.6257713" /><path
             style="fill:#d90707;fill-opacity:1;fill-rule:evenodd;stroke:#020101;stroke-width:2.803;stroke-linecap:round;stroke-dasharray:none;stroke-opacity:1;paint-order:fill markers stroke"
             d="m 209.58691,124.81858 c 3.52528,2.26984 11.7556,6.83333 15.62161,8.51823"
             id="path39"
             sodipodi:nodetypes="cc"
             inkscape:transform-center-x="-8.218924"
             inkscape:transform-center-y="4.5212725" /><path
             style="fill:#d90707;fill-opacity:1;fill-rule:evenodd;stroke:#020101;stroke-width:2.803;stroke-linecap:round;stroke-dasharray:none;stroke-opacity:1;paint-order:fill markers stroke"
             d="m 207.48514,131.25709 c 2.06749,2.59849 6.22817,6.18354 9.73255,8.5857"
             id="path40"
             sodipodi:nodetypes="cc"
             inkscape:transform-center-x="-4.8876231"
             inkscape:transform-center-y="4.1457819" /></g></g></g></g></svg>
