<?xml version="1.0" encoding="UTF-8" standalone="no"?>
<!-- Created with Inkscape (http://www.inkscape.org/) -->

<svg
   width="121.2878mm"
   height="87.665794mm"
   viewBox="0 0 121.2878 87.665794"
   version="1.1"
   id="svg1"
   xml:space="preserve"
   inkscape:version="1.3 (0e150ed6c4, 2023-07-21)"
   sodipodi:docname="tijera.svg"
   xmlns:inkscape="http://www.inkscape.org/namespaces/inkscape"
   xmlns:sodipodi="http://sodipodi.sourceforge.net/DTD/sodipodi-0.dtd"
   xmlns="http://www.w3.org/2000/svg"
   xmlns:svg="http://www.w3.org/2000/svg"><sodipodi:namedview
     id="namedview1"
     pagecolor="#ffffff"
     bordercolor="#000000"
     borderopacity="0.25"
     inkscape:showpageshadow="2"
     inkscape:pageopacity="0.0"
     inkscape:pagecheckerboard="0"
     inkscape:deskcolor="#d1d1d1"
     inkscape:document-units="mm"
     inkscape:zoom="0.65834035"
     inkscape:cx="141.26432"
     inkscape:cy="167.84631"
     inkscape:window-width="1920"
     inkscape:window-height="974"
     inkscape:window-x="-11"
     inkscape:window-y="-11"
     inkscape:window-maximized="1"
     inkscape:current-layer="layer1" /><defs
     id="defs1" /><g
     inkscape:label="Capa 1"
     inkscape:groupmode="layer"
     id="layer1"
     transform="translate(-36.820141,-106.63548)"><g
       id="g11"
       transform="rotate(-5.7399024,93.761344,108.89386)"><path
         style="opacity:1;fill:#ffffff;fill-opacity:1;fill-rule:evenodd;stroke:#000000;stroke-width:2.803;stroke-linecap:round;stroke-dasharray:none;stroke-opacity:1;paint-order:fill markers stroke"
         d="m 49.655232,151.74013 c -5.47287,1.71966 -8.138664,-0.36996 -9.275464,-3.8072 -1.167378,-3.42355 -0.659645,-6.94232 0.317689,-10.33529 1.611828,-5.37732 5.062902,-12.1986 9.963243,-15.42074 0.95267,-0.62641 1.991487,-1.15033 3.075558,-1.55407 2.030888,-0.6933 4.790382,-1.67111 6.389356,0.29004 0.674823,0.90901 1.136676,2.33446 1.765576,4.22116 l -7.967602,10.81317 -2.987849,11.38229 z"
         id="path10"
         sodipodi:nodetypes="cssssscccc" /><g
         id="g10"><g
           id="g7"
           style="opacity:1"><path
             style="opacity:1;fill:#ffffff;fill-opacity:1;fill-rule:evenodd;stroke:#020101;stroke-width:2.90301;stroke-linecap:square;stroke-dasharray:none;stroke-opacity:1;paint-order:fill markers stroke"
             d="m 47.422299,143.23126 c 2.682637,-9.24183 8.453712,-17.00589 15.7494,-21.72533 7.80118,-3.28411 21.204248,-7.11991 32.131153,-1.01279 4.26087,2.38142 6.297418,4.73267 7.905838,8.94671 1.601,4.19462 1.32278,7.93504 1.79131,13.8347 1.55179,10.03956 0.8486,18.64108 0,28.598 l -6.970045,5.40659 c -8.706748,4.85308 -16.770097,5.49441 -24.767304,2.97429 -8.900657,-2.80481 -13.227382,-7.396 -15.686168,-10.0597 -5.283252,-5.72356 -8.411855,-11.93573 -10.227354,-16.76783 -1.508866,-4.01597 -1.067256,-6.1465 0.07317,-10.19464 z"
             id="path2"
             sodipodi:nodetypes="scsscccssss" /><g
             id="g6"
             style="fill:#ffffff;fill-opacity:1;stroke:#020101;stroke-opacity:1"><path
               style="opacity:1;fill:#ffffff;fill-opacity:1;fill-rule:evenodd;stroke:#020101;stroke-width:2.90301;stroke-linecap:square;stroke-dasharray:none;stroke-opacity:1;paint-order:fill markers stroke"
               d="m 85.263299,125.00204 c 5.952184,6.56374 9.53094,9.5385 17.254381,10.91689 7.11009,1.81885 14.33137,2.69949 21.59015,3.41906 5.69478,0.35368 9.53591,0.65546 14.26865,4.15128 4.81017,3.55302 5.49499,7.85365 4.71095,11.01792 -0.82196,3.31733 -2.52331,4.42775 -5.21084,4.97544 -2.90553,0.50331 -5.80253,-0.56969 -8.65913,-1.03773 -5.00922,-0.80521 -10.06879,-1.21637 -15.13007,-1.7005 -5.21462,-0.63687 -10.29301,-1.269 -15.392744,-2.31341 l -8.131213,-0.70636 14.492507,0.60389 c 1.77314,0.95608 3.59543,1.50682 5.30341,2.43894 1.80567,0.98543 3.28613,2.23189 5.20185,3.32029 l 11.81217,7.53976 c 3.90332,1.99066 6.62963,4.57877 8.12071,7.62246 0.79776,1.62843 2.62521,6.28713 -0.0429,10.53612 -4.96579,7.90815 -16.79513,-2.24373 -23.37593,-5.60045 -11.7467,-5.77549 -5.61055,-2.07524 -26.861851,-10.26183 z"
               id="path3"
               sodipodi:nodetypes="ccsssssccccaccssccc" /><g
               id="g5"
               style="fill:#ffffff;fill-opacity:1;stroke:#020101;stroke-opacity:1"><path
                 style="opacity:1;fill:#ffffff;fill-opacity:1;fill-rule:evenodd;stroke:none;stroke-width:0.103;stroke-linecap:square;stroke-dasharray:none;stroke-opacity:1;paint-order:fill markers stroke"
                 d="m 85.031071,171.35116 0.748257,-0.14462 2.332808,-0.044 1.333032,0.0189 4.120798,0.70894 2.454304,0.44462 -9.141399,-3.84152 2.459402,-20.50176 7.018296,-12.28605 c -4.989774,-2.7249 -7.902863,-7.78134 -10.690421,-12.51337 l -2.213335,-2.81698 -1.358183,9.10486 -0.352123,13.28002 -0.150908,17.80729 0.100605,12.27395 z"
                 id="path4"
                 sodipodi:nodetypes="cccccccccccccccc" /><path
                 style="opacity:1;fill:#ffffff;fill-opacity:1;fill-rule:evenodd;stroke:none;stroke-width:0.103;stroke-linecap:square;stroke-dasharray:none;stroke-opacity:1;paint-order:fill markers stroke"
                 d="m 90.444941,155.83895 3.294851,-0.75455 4.225459,-0.62879 2.389399,-0.15091 3.24455,-0.0754 5.87533,0.48086 -4.08957,-2.11571 -15.543656,-1.38334 -1.207275,3.52122 z"
                 id="path5"
                 sodipodi:nodetypes="cccccccccc" /></g></g></g><g
           id="g9"><path
             style="opacity:1;fill:#d90707;fill-opacity:1;fill-rule:evenodd;stroke:#020101;stroke-width:2.803;stroke-linecap:round;stroke-dasharray:none;stroke-opacity:1;paint-order:fill markers stroke"
             d="m 58.995559,133.89259 c 3.678249,1.80076 7.398871,2.75132 11.33618,3.77039"
             id="path7"
             sodipodi:nodetypes="cc" /><path
             style="opacity:1;fill:#d90707;fill-opacity:1;fill-rule:evenodd;stroke:#020101;stroke-width:2.803;stroke-linecap:round;stroke-dasharray:none;stroke-opacity:1;paint-order:fill markers stroke"
             d="m 56.280901,141.34328 c 3.593233,2.16065 11.959643,6.46956 15.875513,8.0351"
             id="path8"
             sodipodi:nodetypes="cc" /><path
             style="opacity:1;fill:#d90707;fill-opacity:1;fill-rule:evenodd;stroke:#020101;stroke-width:2.803;stroke-linecap:round;stroke-dasharray:none;stroke-opacity:1;paint-order:fill markers stroke"
             d="m 54.007442,147.7729 c 2.207845,2.48036 6.56018,5.83015 10.191868,8.0351"
             id="path9"
             sodipodi:nodetypes="cc" /></g></g></g></g></svg>
