<?xml version="1.0" encoding="UTF-8" standalone="no"?>
<!-- Created with Inkscape (http://www.inkscape.org/) -->

<svg
   width="128.95132mm"
   height="134.26891mm"
   viewBox="0 0 128.95132 134.26891"
   version="1.1"
   id="svg1"
   xml:space="preserve"
   sodipodi:docname="aguacate.svg"
   inkscape:version="1.3 (0e150ed6c4, 2023-07-21)"
   xmlns:inkscape="http://www.inkscape.org/namespaces/inkscape"
   xmlns:sodipodi="http://sodipodi.sourceforge.net/DTD/sodipodi-0.dtd"
   xmlns="http://www.w3.org/2000/svg"
   xmlns:svg="http://www.w3.org/2000/svg"><sodipodi:namedview
     id="namedview1"
     pagecolor="#ffffff"
     bordercolor="#000000"
     borderopacity="0.25"
     inkscape:showpageshadow="2"
     inkscape:pageopacity="0.0"
     inkscape:pagecheckerboard="0"
     inkscape:deskcolor="#d1d1d1"
     inkscape:document-units="mm"
     inkscape:zoom="0.25"
     inkscape:cx="-1244"
     inkscape:cy="-50"
     inkscape:window-width="2880"
     inkscape:window-height="1514"
     inkscape:window-x="2869"
     inkscape:window-y="-11"
     inkscape:window-maximized="1"
     inkscape:current-layer="layer1"
     showguides="false" /><defs
     id="defs1" /><g
     inkscape:label="Capa 1"
     inkscape:groupmode="layer"
     id="layer1"
     transform="translate(-31.905481,-73.781425)"><path
       id="path23"
       style="font-size:207.912px;font-family:Arial;-inkscape-font-specification:'Arial, Normal';font-variant-ligatures:no-contextual;text-align:justify;letter-spacing:0px;word-spacing:0px;direction:rtl;fill:#db912c;fill-opacity:1;fill-rule:evenodd;stroke:#00001a;stroke-width:0.00000003175;stroke-linecap:round;stroke-linejoin:round;stroke-dasharray:none;stroke-opacity:1;paint-order:fill markers stroke"
       d="M 194.34971 258.5168 L 194.33876 258.52072 L 198.04345 267.74143 L 203.46261 281.19737 L 194.34971 258.5168 z "
       transform="scale(1.0850867,0.92158533)" /><path
       id="path12"
       style="font-size:207.912px;font-family:Arial;-inkscape-font-specification:'Arial, Normal';font-variant-ligatures:no-contextual;text-align:justify;letter-spacing:0px;word-spacing:0px;direction:rtl;fill:#db552c;fill-opacity:1;fill-rule:evenodd;stroke:#00001a;stroke-width:3.175e-08;stroke-linecap:round;stroke-linejoin:round;stroke-dasharray:none;stroke-opacity:1;paint-order:fill markers stroke"
       d="M 217.04266 254.64493 C 216.92985 254.57755 216.82006 254.49644 216.70596 254.43465 C 216.59184 254.37286 216.47322 254.33105 216.35783 254.27484 C 216.58841 254.38803 216.81721 254.50936 217.04266 254.64493 z "
       transform="scale(1.0850867,0.92158533)" /><path
       id="path11"
       style="font-size:207.912px;font-family:Arial;-inkscape-font-specification:'Arial, Normal';font-variant-ligatures:no-contextual;text-align:justify;letter-spacing:0px;word-spacing:0px;direction:rtl;fill:#db552c;fill-opacity:1;fill-rule:evenodd;stroke:#00001a;stroke-width:3.175e-08;stroke-linecap:round;stroke-linejoin:round;stroke-dasharray:none;stroke-opacity:1;paint-order:fill markers stroke"
       d="M 219.10098 256.25648 C 218.96646 256.12459 218.8352 255.97877 218.69856 255.85611 C 218.56192 255.73346 218.42012 255.63366 218.28137 255.52023 C 218.55862 255.74811 218.83219 255.99169 219.10098 256.25648 z "
       transform="scale(1.0850867,0.92158533)" /><path
       id="path10"
       style="font-size:207.912px;font-family:Arial;-inkscape-font-specification:'Arial, Normal';font-variant-ligatures:no-contextual;text-align:justify;letter-spacing:0px;word-spacing:0px;direction:rtl;fill:#db552c;fill-opacity:1;fill-rule:evenodd;stroke:#00001a;stroke-width:3.175e-08;stroke-linecap:round;stroke-linejoin:round;stroke-dasharray:none;stroke-opacity:1;paint-order:fill markers stroke"
       d="M 221.00357 258.52969 C 220.85297 258.31482 220.70486 258.08783 220.55114 257.88653 C 220.3965 257.68403 220.23602 257.50727 220.07823 257.31851 C 220.39258 257.69616 220.70175 258.09738 221.00357 258.52969 z "
       transform="scale(1.0850867,0.92158533)" /><path
       id="path9"
       style="font-size:207.912px;font-family:Arial;-inkscape-font-specification:'Arial, Normal';font-variant-ligatures:no-contextual;text-align:justify;letter-spacing:0px;word-spacing:0px;direction:rtl;fill:#db552c;fill-opacity:1;fill-rule:evenodd;stroke:#00001a;stroke-width:3.175e-08;stroke-linecap:round;stroke-linejoin:round;stroke-dasharray:none;stroke-opacity:1;paint-order:fill markers stroke"
       d="M 222.76186 261.48308 C 222.59698 261.16034 222.43399 260.82925 222.26466 260.52591 C 222.09617 260.22407 221.92131 259.95005 221.74841 259.66742 C 222.09468 260.23555 222.43328 260.83775 222.76186 261.48308 z "
       transform="scale(1.0850867,0.92158533)" /><g
       id="g61"
       transform="matrix(0.97200474,-0.13430687,0.13530208,0.96485521,26.333836,146.40356)"
       style="stroke-width:1.02275"><path
         id="path59"
         style="fill:#40821c;fill-opacity:1;fill-rule:evenodd;stroke:#00001a;stroke-width:3.24722e-08;stroke-linecap:round;stroke-linejoin:round;stroke-dasharray:none;stroke-opacity:1;paint-order:fill markers stroke"
         d="m 108.16336,-56.404009 c -1.01493,-0.215465 -2.02186,-0.378386 -3.02053,-0.488573 -0.99867,-0.110186 -1.98905,-0.167372 -2.97145,-0.172279 -0.9824,-0.0049 -1.95655,0.04252 -2.92268,0.142896 -0.96613,0.100377 -1.92424,0.253431 -2.874108,0.459081 -0.949866,0.205651 -1.89183,0.463831 -2.825431,0.774761 -0.9336,0.310931 -1.858914,0.67434 -2.776248,1.09055 -0.917334,0.416208 -1.826613,0.885245 -2.727681,1.406732 -0.901066,0.521489 -1.794202,1.095646 -2.679004,1.722415 l -0.945214,0.66994 c -0.642393,0.455048 -1.292261,0.876218 -1.94933,1.263987 -0.657069,0.38777 -1.321419,0.741896 -1.993168,1.062385 -0.671749,0.32049 -1.35058,0.607576 -2.037008,0.860785 -0.686428,0.253209 -1.380138,0.472642 -2.081245,0.65857 -0.701106,0.185929 -1.409802,0.338216 -2.125589,0.456862 -0.715786,0.118645 -1.438855,0.20339 -2.16932,0.254756 -0.730466,0.05136 -1.468124,0.06957 -2.213268,0.05366 -0.745146,-0.01591 -1.497574,-0.06587 -2.257397,-0.149061 -0.703362,-0.08237 -1.406628,-0.147949 -2.109259,-0.197381 -0.70263,-0.04944 -1.40497,-0.08264 -2.106867,-0.09914 -0.7019,-0.01649 -1.40353,-0.01633 -2.104696,1.12e-4 -0.701166,0.01647 -1.401872,0.04893 -2.102307,0.09834 -0.700435,0.04937 -1.400428,0.115289 -2.100132,0.197597 -0.699705,0.0823 -1.398878,0.1811 -2.097851,0.296342 -0.698973,0.115238 -1.397941,0.247308 -2.096182,0.395484 -0.698242,0.148177 -1.395779,0.312719 -2.093288,0.493831 -0.692584,0.182159 -1.37918,0.379212 -2.060187,0.591724 -0.681006,0.212514 -1.356366,0.440681 -2.025795,0.68355 -0.66943,0.242868 -1.33323,0.500634 -1.991083,0.773858 -0.657853,0.273224 -1.309804,0.561707 -1.956079,0.865286 -0.646276,0.303579 -1.286777,0.622167 -1.921475,0.956102 -0.634699,0.333934 -1.263856,0.683132 -1.886977,1.047421 -0.623122,0.36429 -1.240321,0.743699 -1.851867,1.138345 -0.611547,0.39464 -1.217401,0.804662 -1.817368,1.229663 -0.667762,0.477563 -1.322365,0.968872 -1.963871,1.474325 -0.641504,0.505457 -1.269749,1.024815 -1.884994,1.558164 -0.615245,0.533347 -1.217637,1.080649 -1.806622,1.641891 -0.588987,0.56124 -1.164512,1.136703 -1.72724,1.725837 -0.562727,0.589131 -1.112292,1.192035 -1.648761,1.809059 -0.536467,0.617025 -1.06018,1.247872 -1.570389,1.892789 -0.510209,0.644919 -1.007056,1.303926 -1.491006,1.976735 -0.483951,0.672811 -0.954943,1.359761 -1.412635,2.060464 -0.452763,0.701749 -0.888048,1.411384 -1.306318,2.129524 -0.41827,0.718138 -0.819441,1.444352 -1.203217,2.178881 -0.383776,0.734528 -0.750327,1.47743 -1.09961,2.228348 -0.349283,0.750917 -0.681106,1.51 -0.995895,2.277308 -0.314789,0.767307 -0.612499,1.542969 -0.892795,2.326666 -0.280295,0.783697 -0.543277,1.575541 -0.789077,2.375628 -0.245803,0.8000863 -0.474671,1.6085099 -0.685978,2.4249857 -0.211307,0.8164767 -0.404943,1.6411886 -0.581757,2.4740547 -0.177947,0.8382041 -0.337064,1.6751031 -0.476693,2.5116775 -0.139627,0.8365757 -0.259895,1.6727233 -0.361204,2.50767061 -0.101308,0.8349458 -0.183521,1.66911689 -0.246511,2.50243369 -0.06299,0.8333165 -0.106644,1.6656181 -0.131316,2.497305 -0.02467,0.8316884 -0.03037,1.6625182 -0.01674,2.4925783 0.01365,0.830057 0.04637,1.6595247 0.09836,2.4879536 0.05197,0.8284289 0.12327,1.6560249 0.213557,2.4828269 0.09029,0.8268 0.199642,1.652419 0.328248,2.47759 0.134666,0.820879 0.287034,1.63478 0.456886,2.441506 0.169851,0.806728 0.357051,1.606286 0.562086,2.398863 0.205035,0.792575 0.42797,1.57851 0.66819,2.356936 0.240221,0.778426 0.498094,1.549512 0.773499,2.313786 0.275406,0.764275 0.568002,1.521522 0.878592,2.271647 0.31059,0.750124 0.639028,1.493244 0.984802,2.229217 0.345776,0.735973 0.709044,1.464749 1.090004,2.186572 0.38096,0.72182 0.779458,1.436868 1.195602,2.144538 0.342886,0.519159 0.666094,1.033714 0.969569,1.5445 l 7.465315,12.565705 c 0.417278,0.702333 0.847359,1.387982 1.289674,2.057269 0.442316,0.669286 0.897171,1.322279 1.364521,1.958522 0.467355,0.636241 0.947199,1.255565 1.439583,1.858766 0.492422,0.603169 0.997502,1.18998 1.51494,1.760123 0.517422,0.570156 1.047432,1.123762 1.589893,1.660872 0.542461,0.537112 1.097246,1.058058 1.664742,1.562125 0.567497,0.504067 1.147274,0.991343 1.739805,1.462367 0.592533,0.471023 1.19759,0.925747 1.815161,1.363729 0.617566,0.437976 1.241737,0.857786 1.872025,1.260107 0.630288,0.402322 1.266959,0.786858 1.90997,1.153525 0.643006,0.366659 1.292297,0.715431 1.948023,1.046436 0.655729,0.331005 1.317526,0.644511 1.98597,0.939854 0.668444,0.295343 1.343475,0.572689 2.024643,0.832377 0.68116,0.259681 1.368699,0.501761 2.062582,0.725788 0.693884,0.224026 1.394142,0.42983 2.100748,0.618201 0.706599,0.188364 1.419372,0.358908 2.138694,0.511617 0.719323,0.152711 1.440406,0.286568 2.162592,0.401526 0.722187,0.114957 1.445663,0.211404 2.170719,0.288616 0.72505,0.07721 1.45164,0.13534 2.179554,0.174792 0.727921,0.03946 1.456901,0.06018 2.187686,0.06189 0.730779,0.0017 1.463382,-0.01579 2.197029,-0.05182 0.73365,-0.03604 1.468638,-0.09095 2.205151,-0.164743 0.736512,-0.0738 1.474507,-0.166501 2.213884,-0.278051 0.739383,-0.11154 1.480272,-0.241555 2.222518,-0.390849 0.742248,-0.149295 1.479858,-0.318978 2.212654,-0.508639 0.732797,-0.189661 1.460534,-0.399358 2.183872,-0.629391 0.723343,-0.230026 1.441931,-0.480639 2.155816,-0.751038 0.713892,-0.270391 1.423106,-0.560913 2.127547,-0.87167 0.704435,-0.310765 1.404391,-0.641697 2.09937,-0.992824 0.69499,-0.351123 1.385067,-0.722076 2.070604,-1.113564 0.685532,-0.391495 1.366457,-0.803365 2.042542,-1.235217 0.67608,-0.43186 1.347121,-0.883747 2.013759,-1.355968 0.581771,-0.412142 1.153718,-0.836145 1.715284,-1.271412 0.561572,-0.435271 1.112978,-0.881987 1.654408,-1.340304 0.541238,-0.45855 1.072855,-0.928215 1.594088,-1.409663 0.521231,-0.481447 1.032298,-0.974469 1.53328,-1.479095 0.501032,-0.504577 0.992157,-1.02072 1.47299,-1.548425 0.480832,-0.527701 0.951552,-1.067034 1.412172,-1.617863 0.46063,-0.55083 0.91094,-1.113351 1.35138,-1.687293 0.44044,-0.573946 0.87073,-1.159056 1.29096,-1.756124 0.84049,-1.19412 1.62881,-2.416315 2.36524,-3.666007 0.73643,-1.249689 1.42103,-2.52679 2.05341,-3.832051 0.63237,-1.305263 1.21245,-2.638502 1.74078,-3.999326 0.52832,-1.360827 1.00478,-2.749483 1.42905,-4.165879 0.32365,-1.136462 0.60337,-2.259835 0.83912,-3.370322 l 0.72083,-3.395435 c 0.33096,-1.558955 0.69354,-3.072569 1.08745,-4.540046 0.39392,-1.467474 0.81939,-2.888883 1.27628,-4.26487 0.2383,-0.68591 0.52748,-1.34462 0.86736,-1.975483 0.33989,-0.630857 0.73043,-1.234102 1.17191,-1.809918 0.44147,-0.575817 0.93348,-1.1241 1.47654,-1.644876 0.54306,-0.520783 1.13705,-1.014 1.78145,-1.48002 l 4.3501,-3.0269798 c 0.5151,-0.3649264 1.01443,-0.7422191 1.49825,-1.1326187 0.48381,-0.3903992 0.95202,-0.7938167 1.40469,-1.2095321 0.45254,-0.4158698 0.88927,-0.8447155 1.31056,-1.2860122 0.42127,-0.4413387 0.82729,-0.8950317 1.2173,-1.3618134 0.39001,-0.466782 0.76389,-0.9461801 1.12261,-1.43843937 0.35875,-0.49224833 0.70214,-0.99751322 1.02959,-1.51523805 0.32746,-0.51772548 0.63913,-1.04805858 0.9353,-1.59126118 0.29617,-0.5431944 0.57676,-1.0989931 0.84164,-1.6676653 0.26983,-0.5676173 0.52176,-1.1388378 0.75573,-1.7133717 0.23396,-0.5745346 0.45004,-1.1526506 0.64814,-1.7341023 0.19809,-0.5814591 0.37829,-1.1664634 0.54053,-1.7548359 0.16223,-0.5883679 0.30646,-1.179769 0.43284,-1.775059 0.12637,-0.595282 0.23482,-1.194088 0.32534,-1.796292 0.0905,-0.6022 0.1631,-1.207901 0.21775,-1.817014 0.0546,-0.609118 0.0914,-1.221717 0.11015,-1.837755 0.0188,-0.61603 0.0196,-1.235521 0.003,-1.858478 -0.0109,-0.627241 -0.0415,-1.249091 -0.0915,-1.865766 -0.0499,-0.616675 -0.11915,-1.2284 -0.20803,-1.834509 -0.0888,-0.606109 -0.19747,-1.2068 -0.32526,-1.802344 -0.1278,-0.595541 -0.27456,-1.185998 -0.44128,-1.770974 -0.16673,-0.584975 -0.35338,-1.164508 -0.55903,-1.738916 -0.20565,-0.57441 -0.43046,-1.143707 -0.67503,-1.707549 -0.24459,-0.563843 -0.50877,-1.122107 -0.79229,-1.675384 -0.28351,-0.553276 -0.58636,-1.101411 -0.90879,-1.644121 l -6.10014,-10.266833 c -0.5637,-0.934279 -1.15496,-1.823566 -1.77444,-2.66786 -0.61949,-0.844297 -1.26685,-1.643798 -1.94211,-2.398115 -0.67529,-0.754311 -1.37885,-1.463526 -2.10991,-2.127857 -0.73107,-0.664332 -1.48971,-1.283544 -2.27657,-1.857892 -0.78685,-0.574349 -1.60161,-1.103778 -2.44425,-1.588144 -0.84263,-0.484366 -1.71359,-0.923504 -2.61201,-1.317888 -0.89845,-0.394386 -1.82438,-0.744028 -2.7786,-1.04843 -0.95421,-0.304402 -1.93637,-0.563756 -2.94637,-0.778176 z"
         sodipodi:nodetypes="csssssssccssssssscssssssscssssssscssssssscssssssssssssssscssssssscccssccssssssssssssssssssssssssssscscscssssssscssscsssccsccsssscssssssscsssssssccssssssscc" /><path
         id="path61"
         style="fill:#03775a;fill-opacity:1;fill-rule:evenodd;stroke:#00001a;stroke-width:3.24722e-08;stroke-linecap:round;stroke-linejoin:round;stroke-dasharray:none;stroke-opacity:1;paint-order:fill markers stroke"
         d="m 106.88064,-49.424514 c -0.72879,-0.156663 -1.46351,-0.274049 -2.20399,-0.352318 -0.74048,-0.07826 -1.487,-0.117428 -2.2392,-0.117268 -0.7522,1.65e-4 -1.5101,0.03978 -2.27402,0.118391 -0.763899,0.07859 -1.533597,0.196415 -2.30921,0.353437 -0.773322,0.146351 -1.536855,0.336681 -2.290463,0.571007 -0.753599,0.234329 -1.497026,0.512581 -2.230904,0.834895 -0.733884,0.322305 -1.458323,0.688759 -2.172481,1.099044 -0.714176,0.410272 -1.418403,0.864142 -2.112818,1.362442 l -1.006065,0.65477 c -0.813784,0.572823 -1.635777,1.103214 -2.466278,1.590378 -0.830497,0.487151 -1.669169,0.931512 -2.516609,1.332684 -0.84742,0.401182 -1.703452,0.759121 -2.567813,1.074311 -0.864361,0.31519 -1.737337,0.587336 -2.618639,0.816534 -0.881296,0.229206 -1.770736,0.415651 -2.668946,0.558883 -0.898236,0.143214 -1.805019,0.243248 -2.720176,0.30048 -0.915151,0.05723 -1.838899,0.07147 -2.770984,0.04272 -0.932086,-0.02875 -1.872792,-0.100321 -2.821804,-0.215056 -1.255134,-0.152635 -2.499157,-0.248257 -3.732476,-0.286646 -1.233326,-0.03838 -2.455656,-0.01969 -3.667166,0.05617 -1.211531,0.07586 -2.41215,0.208872 -3.601867,0.398985 -1.189738,0.190103 -2.36865,0.437456 -3.53657,0.741792 -1.167915,0.304356 -2.325132,0.66603 -3.471251,1.084622 -1.14612,0.418593 -2.281018,0.894195 -3.405337,1.427032 -1.124313,0.532845 -2.238029,1.12265 -3.340541,1.769738 -1.102529,0.647066 -2.194017,1.351331 -3.27472,2.112672 l -0.08677,0.11559 c -0.558613,0.393452 -1.105141,0.797007 -1.64048,1.210761 -0.535292,0.413843 -1.059227,0.838006 -1.571188,1.272233 -0.512009,0.434136 -1.012183,0.878714 -1.500814,1.333325 -0.488686,0.454527 -0.965595,0.919412 -1.43096,1.394329 -0.465293,0.474988 -0.919064,0.960026 -1.361072,1.455357 -0.442027,0.495294 -0.872004,1.000773 -1.290703,1.516465 -0.418703,0.515684 -0.825954,1.041307 -1.221348,1.577352 -0.395386,0.536052 -0.779006,1.082575 -1.151076,1.638997 -0.744157,1.112818 -1.437821,2.248843 -2.081251,3.408449 -0.643443,1.159605 -1.236792,2.342529 -1.779527,3.548913 -0.542694,1.206401 -1.035208,2.436349 -1.477289,3.6894917 -0.442079,1.2531288 -0.833587,2.5296196 -1.174911,3.8295521 -0.338962,1.2892822 -0.623812,2.5849009 -0.854632,3.8862593 -0.230919,1.30134958 -0.407705,2.60871801 -0.530397,3.9221514 -0.122702,1.3134538 -0.191631,2.6325107 -0.206177,3.958042 -0.01454,1.325539 0.02524,2.6575318 0.118862,3.9951558 0.09591,1.3269457 0.249965,2.6409247 0.462082,3.9426177 0.106058,0.650853 0.226742,1.298611 0.361852,1.943143 0.135095,0.644531 0.284726,1.286106 0.448878,1.924322 0.328312,1.276439 0.714552,2.540026 1.15906,3.791196 0.444513,1.251178 0.947123,2.489627 1.507818,3.715535 l -0.03166,-0.140544 c 0.679267,1.441215 1.407175,2.848008 2.183576,4.22079 0.373909,0.633071 0.758902,1.251568 1.154616,1.855132 0.395684,0.603562 0.802125,1.1925 1.219584,1.76658 0.417541,0.574038 0.845974,1.133038 1.28528,1.677601 0.439301,0.544556 0.889636,1.074555 1.350708,1.589644 0.461066,0.515081 0.932847,1.015533 1.415727,1.501086 0.482909,0.485542 0.976663,0.956099 1.48137,1.41214 0.504669,0.45606 1.0204,0.89716 1.546905,1.323687 0.526512,0.42652 1.064016,0.838701 1.612324,1.235734 0.55438,0.392745 1.114219,0.769282 1.679927,1.130273 0.565721,0.360992 1.136999,0.706374 1.714037,1.035597 0.577043,0.329244 1.159963,0.642453 1.748345,0.939909 0.588372,0.29749 1.182334,0.578898 1.78205,0.844621 0.599715,0.265725 1.205206,0.515445 1.816265,0.749417 0.611019,0.234002 1.227959,0.45252 1.850352,0.654745 0.622377,0.202251 1.250452,0.388487 1.884175,0.558943 0.633723,0.170457 1.272837,0.324918 1.917883,0.463613 0.649969,0.139833 1.300623,0.262575 1.952084,0.368485 0.651476,0.105911 1.304045,0.194974 1.957012,0.266963 0.652964,0.07197 1.30653,0.126611 1.960997,0.164749 0.654446,0.03813 1.309862,0.05953 1.965797,0.06378 0.655926,0.0043 1.312264,-0.0083 1.969691,-0.03793 0.657429,-0.02956 1.315696,-0.07594 1.974611,-0.139427 0.658908,-0.06348 1.318721,-0.144166 1.979102,-0.24153 0.660396,-0.09736 1.321533,-0.211372 1.983415,-0.342601 0.667954,-0.13552 1.331792,-0.289399 1.991391,-0.460895 0.659598,-0.171498 1.314649,-0.36089 1.96588,-0.56838 0.651246,-0.207503 1.298606,-0.432701 1.941469,-0.676185 0.642891,-0.243481 1.281683,-0.505208 1.916206,-0.784684 0.634502,-0.279483 1.264617,-0.577231 1.890778,-0.892692 0.626173,-0.315433 1.247976,-0.648622 1.865762,-1.000085 0.617787,-0.351462 1.23155,-0.721049 1.840981,-1.10849 0.609437,-0.387433 1.214484,-0.793087 1.815591,-1.216468 1.080609,-0.76147 2.118326,-1.556822 3.112755,-2.386924 0.994411,-0.830139 1.945717,-1.694869 2.85384,-2.593785 0.908082,-0.898934 1.772996,-1.832379 2.594779,-2.80012 0.821775,-0.967734 1.600278,-1.969917 2.335769,-3.006456 0.735454,-1.036535 1.428039,-2.107349 2.077216,-3.212695 0.649142,-1.105342 1.25482,-2.244988 1.817677,-3.419136 0.562842,-1.174149 1.082596,-2.382433 1.559151,-3.625372 0.476344,-1.243023 0.910043,-2.52046 1.300216,-3.832213 0.299417,-0.985148 0.631007,-1.944637 0.994677,-2.878293 0.36393,-0.933556 0.75977,-1.841525 1.18768,-2.723684 0.42797,-0.8821311 0.88794,-1.7385237 1.38016,-2.5691723 0.49222,-0.8306469 1.01666,-1.6354274 1.57315,-2.4145612 0.55648,-0.7791556 1.14497,-1.5329383 1.76574,-2.2605779 0.62074,-0.7276499 1.27358,-1.4293152 1.95859,-2.1054643 0.68506,-0.67612371 1.40241,-1.3267074 2.15171,-1.95135491 0.74933,-0.62460269 1.53055,-1.22317589 2.34409,-1.79634069 l 1.01967,-0.7192124 c 0.46155,-0.3248982 0.90884,-0.661202 1.3423,-1.0090203 0.43346,-0.3478247 0.85312,-0.7073076 1.25876,-1.0777454 0.40551,-0.3705976 0.79702,-0.7526967 1.17459,-1.1460597 0.37755,-0.3933704 0.7412,-0.7976446 1.09083,-1.2137418 0.34966,-0.4160665 0.68512,-0.8437102 1.00679,-1.2825675 0.32167,-0.4388482 0.6294,-0.8891585 0.92315,-1.3507646 0.29371,-0.461601 0.57368,-0.934594 0.83946,-1.418968 0.26579,-0.484364 0.51751,-0.980152 0.75535,-1.487275 0.24386,-0.51141 0.47163,-1.025826 0.68338,-1.543443 0.21179,-0.517602 0.40768,-1.038185 0.58748,-1.56193 0.1796,-0.523836 0.34304,-1.050657 0.49055,-1.580686 0.14787,-0.529941 0.27894,-1.063527 0.39423,-1.599806 0.11585,-0.536117 0.2145,-1.075443 0.29767,-1.617908 0.083,-0.542509 0.1503,-1.088377 0.20136,-1.637051 0.0509,-0.548703 0.0854,-1.100374 0.10429,-1.655272 0.0188,-0.554904 0.0217,-1.112662 0.008,-1.673777 -0.009,-0.560055 -0.034,-1.115842 -0.077,-1.667301 -0.0431,-0.551476 -0.10365,-1.098768 -0.1814,-1.641653 -0.0778,-0.542886 -0.17284,-1.081587 -0.28528,-1.615877 -0.1124,-0.534281 -0.24199,-1.064408 -0.38913,-1.590105 -0.14714,-0.525698 -0.31177,-1.046835 -0.49359,-1.563938 -0.18183,-0.517103 -0.38084,-1.030158 -0.59734,-1.538671 -0.21652,-0.508523 -0.45062,-1.012589 -0.70181,-1.512507 -0.25119,-0.499921 -0.51977,-0.995405 -0.80567,-1.48674 -0.4404,-0.731097 -0.9073,-1.42778 -1.40127,-2.089461 -0.49398,-0.661688 -1.01486,-1.288711 -1.56237,-1.880989 -0.54753,-0.592237 -1.1219,-1.149522 -1.723,-1.672337 -0.6011,-0.522819 -1.22883,-1.010858 -1.88351,-1.464249 -0.64253,-0.461947 -1.29844,-0.886284 -1.96747,-1.272981 -0.66899,-0.38668 -1.3511,-0.735943 -2.0466,-1.04738 -0.6955,-0.311436 -1.40439,-0.585199 -2.1264,-0.821358 -0.72198,-0.236179 -1.45708,-0.434864 -2.20554,-0.595796 z"
         sodipodi:nodetypes="cssscsssccssssssscssssssccccscsssscsssccsscsssscccscssssscssssssssssssssscsssscssccsssssscsssssscccscssssscssssssscssssssscssscssscc" /><path
         id="path60"
         style="fill:#acd237;fill-opacity:1;fill-rule:evenodd;stroke:#00001a;stroke-width:3.24722e-08;stroke-linecap:round;stroke-linejoin:round;stroke-dasharray:none;stroke-opacity:1;paint-order:fill markers stroke"
         d="m 105.34457,-46.868751 c -0.66835,-0.123925 -1.34304,-0.211768 -2.02386,-0.263777 -0.68083,-0.05201 -1.36807,-0.06817 -2.06137,-0.04827 -0.69332,0.0199 -1.39275,0.07598 -2.098541,0.167779 -0.705781,0.09181 -1.417757,0.21958 -2.136028,0.383296 -0.715924,0.153914 -1.42377,0.347718 -2.123413,0.581433 -0.699631,0.233718 -1.39084,0.507258 -2.074189,0.820777 -0.68335,0.313518 -1.35895,0.667085 -2.026017,1.060403 -0.667058,0.393322 -1.325911,0.82616 -1.976686,1.299283 l -0.941362,0.624186 c -0.762166,0.544629 -1.531432,1.050098 -2.307383,1.516645 -0.775951,0.466547 -1.558508,0.894245 -2.348219,1.282737 -0.789701,0.388496 -1.5864,0.73776 -2.389863,1.0482 -0.803462,0.310442 -1.613948,0.58181 -2.431176,0.814201 -0.817223,0.232387 -1.641032,0.425954 -2.472007,0.580289 -0.830984,0.154332 -1.668926,0.269467 -2.513671,0.345744 -0.844735,0.07628 -1.696467,0.113531 -2.554965,0.111758 -0.858497,-0.0018 -1.724012,-0.04241 -2.596266,-0.122245 -1.153587,-0.106388 -2.298167,-0.161027 -3.434113,-0.163699 -1.135935,-0.0027 -2.262978,0.04651 -3.381271,0.147564 -1.11831,0.101068 -2.227793,0.254023 -3.328456,0.45882 -1.100669,0.20479 -2.192603,0.461556 -3.27563,0.770062 -1.083018,0.308521 -2.157413,0.66909 -3.222804,1.08133 -1.065376,0.412238 -2.121649,0.876226 -3.169394,1.3922 -1.047741,0.515971 -2.086926,1.083673 -3.117034,1.703369 -1.030099,0.619699 -2.051286,1.291284 -3.063743,2.014711 l -0.08243,0.107822 c -0.523319,0.373891 -1.035818,0.756543 -1.538042,1.14846 -0.502249,0.391889 -0.99431,0.792844 -1.475539,1.202682 -0.481082,0.410001 -0.951819,0.828807 -1.411976,1.25664 -0.460157,0.427833 -0.909787,0.864684 -1.348883,1.310515 -0.439081,0.445838 -0.867749,0.900568 -1.285796,1.36437 -0.418068,0.46378 -0.825239,0.936544 -1.222238,1.418327 -0.397001,0.481784 -0.783667,0.972344 -1.159618,1.472097 -0.375952,0.499761 -0.741286,1.008774 -1.09618,1.52652 -0.709803,1.035481 -1.373579,2.090804 -1.991555,3.166346 -0.617981,1.075546 -1.190285,2.171061 -1.716456,3.286667 -0.526159,1.115598 -1.006532,2.2513986 -1.440879,3.4070672 -0.434355,1.1556508 -0.822682,2.331272 -1.165213,3.5269964 -0.340155,1.1859211 -0.630513,2.3762363 -0.871218,3.570356 -0.240795,1.19411463 -0.431828,2.39230274 -0.57315,3.5946068 -0.141317,1.202313 -0.233189,2.408348 -0.275077,3.6188536 -0.04188,1.2105201 -0.03384,2.4255001 0.02372,3.6442096 0.05989,1.2089034 0.173663,2.4044484 0.341196,3.5872384 0.08377,0.591403 0.181089,1.179602 0.291771,1.76447 0.110679,0.584871 0.234798,1.166662 0.372392,1.745005 0.275178,1.156685 0.604043,2.300123 0.986862,3.430695 0.382818,1.130572 0.819482,2.248006 1.30993,3.352463 l -0.02616,-0.127469 c 0.595116,1.297899 1.235819,2.563112 1.921942,3.795986 0.331033,0.568143 0.672593,1.122676 1.024351,1.663306 0.351768,0.54062 0.713707,1.067615 1.086195,1.58074 0.372488,0.513121 0.755391,1.012193 1.148601,1.497804 0.393204,0.485618 0.796853,0.957692 1.210801,1.415793 0.41394,0.458094 0.837972,0.902639 1.272639,1.33323 0.434668,0.430588 0.879659,0.847216 1.335051,1.250305 0.45539,0.403078 0.921237,0.792256 1.397353,1.16782 0.476122,0.375571 0.962702,0.737753 1.459547,1.085822 0.502537,0.343991 1.010462,0.673058 1.524123,0.987768 0.513676,0.314708 1.032802,0.615024 1.557596,0.900434 0.524794,0.285423 1.055345,0.556053 1.59128,0.812181 0.535918,0.256131 1.077326,0.497449 1.624388,0.724293 0.54705,0.226843 1.099773,0.438931 1.657959,0.636483 0.55819,0.197561 1.122112,0.380898 1.691432,0.549162 0.569313,0.168304 1.14421,0.321832 1.724658,0.460812 0.580459,0.138948 1.166197,0.263212 1.757772,0.372896 0.596099,0.110526 1.193151,0.205561 1.791348,0.285152 0.598182,0.07958 1.19775,0.143762 1.798048,0.192336 0.6003,0.04856 1.201539,0.08129 1.803942,0.09893 0.602391,0.01763 1.206031,0.01994 1.810528,0.0066 0.604485,-0.01336 1.209712,-0.04206 1.816303,-0.08635 0.60659,-0.04429 1.214318,-0.103873 1.823013,-0.179132 0.608683,-0.07526 1.218567,-0.166236 1.829359,-0.27245 0.610786,-0.106225 1.222605,-0.227678 1.835495,-0.364855 0.618564,-0.141264 1.233752,-0.299162 1.84538,-0.473056 0.611646,-0.173883 1.219482,-0.363984 1.824192,-0.57051 0.604715,-0.206529 1.206249,-0.429112 1.804012,-0.668284 0.59778,-0.23916 1.192194,-0.494869 1.783038,-0.766672 0.590838,-0.271812 1.178023,-0.560179 1.761936,-0.864616 0.583913,-0.304437 1.164205,-0.624923 1.741183,-0.962002 0.576977,-0.33708 1.150624,-0.690608 1.720666,-1.060317 0.570015,-0.369753 1.136464,-0.7559 1.699575,-1.158257 1.012483,-0.723397 1.985956,-1.476873 2.920348,-2.260846 0.934227,-0.784161 1.829833,-1.598345 2.686132,-2.44289 0.856293,-0.844541 1.673571,-1.719401 2.451811,-2.624456 0.778228,-0.905071 1.517318,-1.840437 2.217484,-2.806041 0.70016,-0.9656 1.361537,-1.961373 1.983627,-2.987525 0.622086,-1.026148 1.204821,-2.082491 1.748837,-3.169193 0.544017,-1.086688 1.049044,-2.203429 1.514986,-3.350667 0.465937,-1.147246 0.892901,-2.324937 1.280767,-3.532714 0.297107,-0.907251 0.623397,-1.791902 0.978656,-2.653818 0.355269,-0.8619148 0.739822,-1.7011519 1.153221,-2.5177392 0.413388,-0.8165788 0.855765,-1.6104867 1.327305,-2.3817278 0.47152,-0.7712607 0.9722,-1.5197403 1.50186,-2.245662 0.52966,-0.7259267 1.08828,-1.4295251 1.67607,-2.1101247 0.58778,-0.68059539 1.20458,-1.33831753 1.85051,-1.97357109 0.64594,-0.63524601 1.32112,-1.24802941 2.02518,-1.83796771 0.70384,-0.5901877 1.43699,-1.156872 2.19916,-1.7014917 l 0.95544,-0.6831382 c 0.43228,-0.3089002 0.85191,-0.6274854 1.25888,-0.9564502 0.4073,-0.3285779 0.80145,-0.6681992 1.18337,-1.0169555 0.38174,-0.3489615 0.75076,-0.7081331 1.10725,-1.0771186 0.35646,-0.3690261 0.70032,-0.7476662 1.03151,-1.1367235 0.33123,-0.389029 0.64961,-0.788237 0.95554,-1.1973298 0.30592,-0.409083 0.59923,-0.828271 0.87988,-1.257405 0.28065,-0.429125 0.54887,-0.868291 0.80424,-1.317465 0.2554,-0.449175 0.49806,-0.908404 0.72817,-1.377624 0.23579,-0.473277 0.45672,-0.948907 0.66302,-1.427014 0.20628,-0.478113 0.39822,-0.95845 0.57502,-1.44139 0.17682,-0.482934 0.33878,-0.968174 0.48606,-1.455951 0.14727,-0.487779 0.27992,-0.978274 0.39773,-1.470875 0.11779,-0.492595 0.22078,-0.987458 0.3091,-1.484882 0.0883,-0.497428 0.16196,-0.997556 0.22077,-1.499808 0.0587,-0.502261 0.1024,-1.006814 0.1317,-1.513899 0.0293,-0.507089 0.0439,-1.016356 0.0437,-1.528277 0.004,-0.511087 -0.007,-1.017799 -0.0352,-1.520123 -0.0278,-0.502331 -0.0719,-1.000385 -0.13193,-1.493958 -0.06,-0.493572 -0.13607,-0.982888 -0.22822,-1.467702 -0.0922,-0.484819 -0.20017,-0.96539 -0.3245,-1.441452 -0.12432,-0.476066 -0.26487,-0.947509 -0.42135,-1.414821 -0.15648,-0.467311 -0.32889,-0.930477 -0.51752,-1.389032 -0.18863,-0.458559 -0.39357,-0.912598 -0.61436,-1.362395 -0.2208,-0.449807 -0.45769,-0.895099 -0.71065,-1.336148 -0.39022,-0.655896 -0.8056,-1.279658 -1.24668,-1.870763 -0.44109,-0.591099 -0.90771,-1.149863 -1.39966,-1.676175 -0.49195,-0.526306 -1.00937,-1.019992 -1.55217,-1.481514 -0.54282,-0.46152 -1.11092,-0.890583 -1.7046,-1.287316 -0.5823,-0.404854 -1.17774,-0.775033 -1.78608,-1.110493 -0.60833,-0.335458 -1.22952,-0.636399 -1.86388,-0.902463 -0.63434,-0.266056 -1.28187,-0.497384 -1.94226,-0.694045 -0.66039,-0.19667 -1.33367,-0.358753 -2.02008,-0.486019 z m -37.343182,30.730475 c 0.587069,0.108852 1.156825,0.243847 1.708968,0.405023 0.552128,0.161271 1.086484,0.348345 1.603686,0.561975 0.517206,0.213629 1.016969,0.453481 1.499249,0.719503 0.482268,0.266019 0.946983,0.558544 1.39433,0.876953 0.447341,0.318403 0.877693,0.662759 1.290104,1.03356 0.41242,0.370793 0.80725,0.767738 1.184738,1.190919 0.377484,0.423196 0.737264,0.872802 1.079821,1.348383 0.342556,0.4755791 0.667866,0.9774773 0.975492,1.5054439 0.307619,0.5279715 0.586564,1.0626485 0.836686,1.6042693 0.250129,0.5416277 0.471168,1.09012 0.663793,1.6454017 0.192625,0.5552701 0.356802,1.1173016 0.49193,1.6862326 0.135121,0.5689243 0.241403,1.1447742 0.319032,1.7273547 0.07762,0.5825771 0.126568,1.17186793 0.146697,1.76810321 0.02012,0.59623836 0.01118,1.19934259 -0.0262,1.80923489 -0.03738,0.6098813 -0.103189,1.2265181 -0.198057,1.8500628 -0.0949,0.623536 -0.218602,1.2539904 -0.370976,1.8911822 -0.152376,0.6372026 -0.327905,1.2580467 -0.52663,1.8623317 -0.198718,0.604291 -0.420922,1.1919297 -0.666026,1.7632969 -0.245103,0.5713798 -0.513125,1.1264471 -0.804594,1.6649091 -0.291472,0.538465 -0.606149,1.060334 -0.943974,1.565885 -0.337837,0.505548 -0.698814,0.994759 -1.083016,1.467401 -0.384206,0.472635 -0.791826,0.928649 -1.222392,1.368374 -0.430548,0.439755 -0.884038,0.863166 -1.360969,1.269982 -0.47707,0.40665 -0.977053,0.797052 -1.500369,1.170939 -0.523309,0.373882 -1.05083,0.717671 -1.582099,1.031235 -0.531269,0.313562 -1.066291,0.596787 -1.60553,0.849997 -0.539243,0.253214 -1.082331,0.476259 -1.629545,0.669131 -0.547203,0.192865 -1.098828,0.355643 -1.654007,0.488172 -0.555179,0.132528 -1.114294,0.23474 -1.677438,0.306923 -0.563159,0.07218 -1.130334,0.114225 -1.701453,0.126065 -0.571118,0.01186 -1.145898,-0.0062 -1.724986,-0.05473 C 60.338552,20.986757 59.755378,20.907902 59.168309,20.79905 58.581255,20.690205 58.011498,20.555211 57.459355,20.394035 56.907228,20.232764 56.372512,20.045141 55.855306,19.831514 55.33811,19.61789 54.838335,19.378022 54.356067,19.112003 53.873796,18.845998 53.408969,18.553928 52.961627,18.235526 52.514281,17.917115 52.084502,17.572373 51.672088,17.201588 51.259679,16.830784 50.864837,16.433838 50.487353,16.010654 50.109867,15.587471 49.74995,15.138339 49.407425,14.662747 49.06487,14.187165 48.739557,13.685268 48.431932,13.157301 48.12431,12.629332 47.845371,12.09465 47.595249,11.553029 47.345125,11.011409 47.124081,10.462909 46.931455,9.9076279 46.738831,9.3523576 46.574649,8.7903302 46.439522,8.2213987 46.304405,7.6524709 46.198122,7.0766215 46.120493,6.4940406 46.042869,5.9114667 45.993913,5.3221692 45.973797,4.725937 c -0.02012,-0.5962342 -0.01164,-1.1994224 0.02573,-1.8093154 0.03738,-0.6098877 0.103641,-1.2264393 0.19852,-1.8499823 0.0949,-0.62353548 0.218602,-1.25399005 0.370976,-1.89119365 0.152381,-0.63718395 0.327905,-1.25803495 0.526628,-1.86232015 0.19872,-0.6042912 0.420457,-1.1920167 0.665561,-1.7633842 0.245103,-0.5713795 0.513581,-1.1263622 0.80506,-1.6648217 0.291468,-0.5384611 0.606139,-1.0603377 0.943975,-1.565885 0.337843,-0.5055412 0.698814,-0.9947586 1.083011,-1.4673971 0.3842,-0.4726422 0.791831,-0.9286535 1.222402,-1.3683705 0.430549,-0.439756 0.884031,-0.863174 1.360963,-1.26999 0.47707,-0.40665 0.97705,-0.797048 1.50037,-1.170939 0.523309,-0.373882 1.05083,-0.71767 1.582098,-1.031235 0.53126,-0.313566 1.066404,-0.597241 1.605643,-0.850464 0.539233,-0.253217 1.082331,-0.476256 1.629536,-0.669121 0.547213,-0.192873 1.098259,-0.355273 1.653443,-0.487795 0.555178,-0.132527 1.114395,-0.235208 1.677544,-0.307395 0.56315,-0.07219 1.130329,-0.114215 1.701443,-0.126055 0.571124,-0.01186 1.146262,0.0068 1.725351,0.05527 0.579101,0.04848 1.162281,0.127342 1.749334,0.236184 z" /><path
         id="rect57"
         style="fill:#634031;fill-opacity:1;fill-rule:evenodd;stroke:#00001a;stroke-width:3.24722e-08;stroke-linecap:round;stroke-linejoin:round;stroke-dasharray:none;stroke-opacity:1;paint-order:fill markers stroke"
         d="m 46.425833,15.659461 c 0.399495,0.518775 0.816561,1.009101 1.251192,1.470627 0.434621,0.461521 0.886638,0.894667 1.356397,1.298941 0.469786,0.404241 0.957126,0.779929 1.46201,1.126951 0.504893,0.347028 1.027617,0.66519 1.567637,0.954961 0.540022,0.289774 1.097279,0.551075 1.672431,0.783594 0.575156,0.232524 1.167762,0.436329 1.778053,0.611607 0.610286,0.17527 1.238245,0.321583 1.883665,0.439606 0.64542,0.118024 1.308635,0.207565 1.98919,0.26834 0.68055,0.06077 1.353625,0.0908 2.019375,0.08986 0.665751,-9.5e-4 1.323994,-0.03307 1.974946,-0.09573 0.650953,-0.06264 1.29458,-0.155827 1.930734,-0.280182 0.636156,-0.124353 1.264957,-0.279697 1.886312,-0.46576 0.621349,-0.186069 1.235226,-0.40286 1.841784,-0.650629 0.60655,-0.24778 1.205911,-0.526332 1.79767,-0.835808 0.591754,-0.309486 1.175872,-0.649896 1.752832,-1.021081 0.576943,-0.371208 1.146552,-0.773373 1.70871,-1.206273 0.562155,-0.432899 1.096498,-0.88086 1.602789,-1.343816 0.506286,-0.462959 0.984617,-0.940745 1.435015,-1.433791 0.45039,-0.493054 0.872833,-1.001353 1.267344,-1.524479 0.39452,-0.523121 0.760942,-1.061245 1.099585,-1.614434 0.338632,-0.553199 0.649475,-1.121443 0.932229,-1.704715 0.282755,-0.5832711 0.53728,-1.1817329 0.764155,-1.7950772 0.226878,-0.6133443 0.426121,-1.2415305 0.597118,-1.8849464 0.170996,-0.6434179 0.313918,-1.3018297 0.429035,-1.9753185 0.115112,-0.6734969 0.197984,-1.337578 0.248773,-1.991731 0.05079,-0.6541553 0.06935,-1.2983396 0.05582,-1.93315057 -0.01356,-0.63481699 -0.05918,-1.25982461 -0.137044,-1.87530104 -0.07787,-0.61546799 -0.187709,-1.22130559 -0.329897,-1.81743949 -0.142188,-0.5961305 -0.316654,-1.1824759 -0.523174,-1.759274 -0.20651,-0.5767891 -0.445183,-1.1439577 -0.716025,-1.7014117 -0.270841,-0.5574521 -0.57372,-1.1054458 -0.908885,-1.6435559 -0.335166,-0.538121 -0.702666,-1.066617 -1.102161,-1.585392 -0.399488,-0.5187681 -0.816567,-1.0090942 -1.251187,-1.4706192 -0.434621,-0.461522 -0.886734,-0.89395 -1.356493,-1.298223 -0.469786,-0.404241 -0.957126,-0.779928 -1.462011,-1.126951 -0.504892,-0.347028 -1.027206,-0.665505 -1.567226,-0.955277 -0.540021,-0.289773 -1.098,-0.551164 -1.673157,-0.78369 -0.575152,-0.232518 -1.167763,-0.436329 -1.778048,-0.6116 -0.610286,-0.17527 -1.237842,-0.321906 -1.883256,-0.439921 -0.64542,-0.118025 -1.308641,-0.207571 -1.989189,-0.268342 -0.680555,-0.06078 -1.353624,-0.0908 -2.019376,-0.08986 -0.66575,9.5e-4 -1.323992,0.03307 -1.974944,0.09573 -0.650951,0.06264 -1.294587,0.155819 -1.93074,0.280174 -0.636154,0.124352 -1.26495,0.279708 -1.886306,0.465769 -0.621355,0.186063 -1.235231,0.402853 -1.841784,0.650631 -0.606556,0.24777 -1.205601,0.526734 -1.797359,0.836211 -0.591751,0.309488 -1.176187,0.649485 -1.75314,1.020678 -0.576943,0.371209 -1.146552,0.773373 -1.708709,1.206272 -0.562156,0.432901 -1.096499,0.88086 -1.602789,1.343817 -0.50629,0.462958 -0.984307,0.9411495 -1.434705,1.4341948 -0.450392,0.4930533 -0.873144,1.0009459 -1.267661,1.5240703 -0.394523,0.5231155 -0.760949,1.0612381 -1.099585,1.6144347 -0.338631,0.5532015 -0.649477,1.121438 -0.932232,1.7047107 -0.282756,0.5832707 -0.537275,1.1817411 -0.76415,1.7950849 -0.226876,0.6133444 -0.426118,1.2415306 -0.597116,1.88494739 -0.170996,0.64341623 -0.313925,1.30182104 -0.429036,1.97531711 -0.115118,0.6734901 -0.197984,1.3375787 -0.248773,1.9917309 -0.05079,0.6541462 -0.06977,1.2986556 -0.05623,1.9334653 0.01356,0.6348129 0.05918,1.2598259 0.137039,1.8752951 0.07787,0.6154745 0.188436,1.2214033 0.330624,1.8175359 0.142188,0.5961312 0.316245,1.1827919 0.522763,1.7595889 0.206512,0.576789 0.445184,1.143958 0.716025,1.701412 0.270841,0.557454 0.573819,1.104726 0.908984,1.642837 0.335163,0.538113 0.702667,1.066616 1.102155,1.585385 z" /></g></g></svg>
