<?xml version="1.0" encoding="UTF-8" standalone="no"?>
<!-- Created with Inkscape (http://www.inkscape.org/) -->

<svg
   width="128.95132mm"
   height="134.26891mm"
   viewBox="0 0 128.95132 134.26891"
   version="1.1"
   id="svg1"
   xml:space="preserve"
   sodipodi:docname="durazno.svg"
   inkscape:version="1.3 (0e150ed6c4, 2023-07-21)"
   xmlns:inkscape="http://www.inkscape.org/namespaces/inkscape"
   xmlns:sodipodi="http://sodipodi.sourceforge.net/DTD/sodipodi-0.dtd"
   xmlns="http://www.w3.org/2000/svg"
   xmlns:svg="http://www.w3.org/2000/svg"><sodipodi:namedview
     id="namedview1"
     pagecolor="#ffffff"
     bordercolor="#000000"
     borderopacity="0.25"
     inkscape:showpageshadow="2"
     inkscape:pageopacity="0.0"
     inkscape:pagecheckerboard="0"
     inkscape:deskcolor="#d1d1d1"
     inkscape:document-units="mm"
     inkscape:zoom="1"
     inkscape:cx="-50"
     inkscape:cy="37.5"
     inkscape:window-width="2880"
     inkscape:window-height="1514"
     inkscape:window-x="2869"
     inkscape:window-y="-11"
     inkscape:window-maximized="1"
     inkscape:current-layer="layer1" /><defs
     id="defs1" /><g
     inkscape:label="Capa 1"
     inkscape:groupmode="layer"
     id="layer1"
     transform="translate(-31.905481,-73.781425)"><path
       id="path23"
       style="font-size:207.912px;font-family:Arial;-inkscape-font-specification:'Arial, Normal';font-variant-ligatures:no-contextual;text-align:justify;letter-spacing:0px;word-spacing:0px;direction:rtl;fill:#db912c;fill-opacity:1;fill-rule:evenodd;stroke:#00001a;stroke-width:0.00000003175;stroke-linecap:round;stroke-linejoin:round;stroke-dasharray:none;stroke-opacity:1;paint-order:fill markers stroke"
       d="M 194.34971 258.5168 L 194.33876 258.52072 L 198.04345 267.74143 L 203.46261 281.19737 L 194.34971 258.5168 z "
       transform="scale(1.0850867,0.92158533)" /><path
       id="path12"
       style="font-size:207.912px;font-family:Arial;-inkscape-font-specification:'Arial, Normal';font-variant-ligatures:no-contextual;text-align:justify;letter-spacing:0px;word-spacing:0px;direction:rtl;fill:#db552c;fill-opacity:1;fill-rule:evenodd;stroke:#00001a;stroke-width:3.175e-08;stroke-linecap:round;stroke-linejoin:round;stroke-dasharray:none;stroke-opacity:1;paint-order:fill markers stroke"
       d="M 217.04266 254.64493 C 216.92985 254.57755 216.82006 254.49644 216.70596 254.43465 C 216.59184 254.37286 216.47322 254.33105 216.35783 254.27484 C 216.58841 254.38803 216.81721 254.50936 217.04266 254.64493 z "
       transform="scale(1.0850867,0.92158533)" /><path
       id="path11"
       style="font-size:207.912px;font-family:Arial;-inkscape-font-specification:'Arial, Normal';font-variant-ligatures:no-contextual;text-align:justify;letter-spacing:0px;word-spacing:0px;direction:rtl;fill:#db552c;fill-opacity:1;fill-rule:evenodd;stroke:#00001a;stroke-width:3.175e-08;stroke-linecap:round;stroke-linejoin:round;stroke-dasharray:none;stroke-opacity:1;paint-order:fill markers stroke"
       d="M 219.10098 256.25648 C 218.96646 256.12459 218.8352 255.97877 218.69856 255.85611 C 218.56192 255.73346 218.42012 255.63366 218.28137 255.52023 C 218.55862 255.74811 218.83219 255.99169 219.10098 256.25648 z "
       transform="scale(1.0850867,0.92158533)" /><path
       id="path10"
       style="font-size:207.912px;font-family:Arial;-inkscape-font-specification:'Arial, Normal';font-variant-ligatures:no-contextual;text-align:justify;letter-spacing:0px;word-spacing:0px;direction:rtl;fill:#db552c;fill-opacity:1;fill-rule:evenodd;stroke:#00001a;stroke-width:3.175e-08;stroke-linecap:round;stroke-linejoin:round;stroke-dasharray:none;stroke-opacity:1;paint-order:fill markers stroke"
       d="M 221.00357 258.52969 C 220.85297 258.31482 220.70486 258.08783 220.55114 257.88653 C 220.3965 257.68403 220.23602 257.50727 220.07823 257.31851 C 220.39258 257.69616 220.70175 258.09738 221.00357 258.52969 z "
       transform="scale(1.0850867,0.92158533)" /><path
       id="path9"
       style="font-size:207.912px;font-family:Arial;-inkscape-font-specification:'Arial, Normal';font-variant-ligatures:no-contextual;text-align:justify;letter-spacing:0px;word-spacing:0px;direction:rtl;fill:#db552c;fill-opacity:1;fill-rule:evenodd;stroke:#00001a;stroke-width:3.175e-08;stroke-linecap:round;stroke-linejoin:round;stroke-dasharray:none;stroke-opacity:1;paint-order:fill markers stroke"
       d="M 222.76186 261.48308 C 222.59698 261.16034 222.43399 260.82925 222.26466 260.52591 C 222.09617 260.22407 221.92131 259.95005 221.74841 259.66742 C 222.09468 260.23555 222.43328 260.83775 222.76186 261.48308 z "
       transform="scale(1.0850867,0.92158533)" /><path
       id="path52"
       style="font-size:99.0687px;font-family:Arial;-inkscape-font-specification:'Arial, Normal';font-variant-ligatures:no-contextual;text-align:justify;letter-spacing:0px;word-spacing:0px;direction:rtl;fill:#2abb67;fill-opacity:1;fill-rule:evenodd;stroke:#00001a;stroke-width:0.00000003175;stroke-linecap:round;stroke-linejoin:round;stroke-dasharray:none;stroke-opacity:1;paint-order:fill markers stroke"
       d="m 71.72734,101.8655 0.0124,0.01 c 0.629989,-0.27256 1.122245,0.15745 1.740979,-0.0827 0.618735,-0.24013 1.355801,-0.31536 1.964222,-0.52349 0.608419,-0.20812 1.253553,-0.29267 1.8526,-0.46922 0.599046,-0.17654 1.193256,-0.33778 1.78387,-0.48317 0.590614,-0.1454 1.177496,-0.27497 1.760616,-0.389643 0.583121,-0.11467 1.16286,-0.21432 1.739429,-0.29869 0.576568,-0.08437 1.149868,-0.153758 1.720826,-0.208257 0.570956,-0.0545 1.139553,-0.0938 1.705838,-0.118855 0.566286,-0.02506 1.130365,-0.03549 1.69292,-0.03152 0.562554,0.0039 1.123338,0.02221 1.683101,0.05478 0.559764,0.03256 1.11847,0.07931 1.676384,0.140043 0.557914,0.06073 1.115245,0.135295 1.672249,0.223759 0.557005,0.08846 1.113664,0.190663 1.670698,0.306441 0.557037,0.115779 0.998489,0.658839 1.556498,0.801499 0.558009,0.14267 1.116979,0.29855 1.676903,0.46767 l 1.765261,-0.82579 C 98.276829,96.881932 95.281162,93.605777 92.45269,91.314722 89.624217,88.989472 86.430796,87.826563 82.872395,87.826563 H 66.038282 c 0,2.803977 0.516744,5.419748 1.550809,7.847582 1.03122,2.421155 2.411358,4.484345 4.138249,6.191355 z"
       sodipodi:nodetypes="ccsssssssssssssscccscsc" /><path
       id="path53"
       style="font-size:99.0687px;font-family:Arial;-inkscape-font-specification:'Arial, Normal';font-variant-ligatures:no-contextual;text-align:justify;letter-spacing:0px;word-spacing:0px;direction:rtl;fill:#2abb67;fill-opacity:1;fill-rule:evenodd;stroke:#00001a;stroke-width:3.175e-08;stroke-linecap:round;stroke-linejoin:round;stroke-dasharray:none;stroke-opacity:1;paint-order:fill markers stroke"
       d="m 106.54654,94.316512 c -0.7242,3.759151 18.63799,-1.161927 27.52919,2.050901 0,0 -0.0877,0.359621 0.81993,-0.436772 0.90768,-0.796393 3.24989,-3.505626 4.29206,-5.747882 1.09647,-2.289668 1.64439,-4.756588 1.64439,-7.400994 h -17.80114 c -3.80537,0 -7.20746,1.096733 -10.20661,3.289656 -2.95894,2.154877 -5.051,4.903406 -6.27782,8.245095 z"
       transform="scale(0.94309221,1.0603417)"
       sodipodi:nodetypes="cczccsccc" /><path
       id="text52"
       style="font-size:99.0687px;font-family:Arial;-inkscape-font-specification:'Arial, Normal';font-variant-ligatures:no-contextual;text-align:justify;letter-spacing:0px;word-spacing:0px;direction:rtl;fill:#2edb6f;fill-opacity:1;fill-rule:evenodd;stroke:#00001a;stroke-width:3.175e-08;stroke-linecap:round;stroke-linejoin:round;stroke-dasharray:none;stroke-opacity:1;paint-order:fill markers stroke"
       d="M 127.72303 111.66055 L 130.42934 116.65303 C 129.66215 114.90691 128.77027 113.23659 127.72303 111.66055 z "
       transform="scale(0.94309221,1.0603417)" /><path
       id="path57"
       style="font-size:99.0687px;font-family:Arial;-inkscape-font-specification:'Arial, Normal';font-variant-ligatures:no-contextual;text-align:justify;letter-spacing:0px;word-spacing:0px;direction:rtl;fill:#2edb6f;fill-opacity:1;fill-rule:evenodd;stroke:#00001a;stroke-width:3.175e-08;stroke-linecap:round;stroke-linejoin:round;stroke-dasharray:none;stroke-opacity:1;paint-order:fill markers stroke"
       d="M 122.79261 105.55105 L 127.72303 111.66055 C 126.25325 109.42648 124.60397 107.39659 122.79261 105.55105 z "
       transform="scale(0.94309221,1.0603417)" /><path
       id="path54"
       style="font-size:99.0687px;font-family:Arial;-inkscape-font-specification:'Arial, Normal';font-variant-ligatures:no-contextual;text-align:justify;letter-spacing:0px;word-spacing:0px;direction:rtl;fill:#ff9c2e;fill-opacity:1;fill-rule:evenodd;stroke:#00001a;stroke-width:0.00000003175;stroke-linecap:round;stroke-linejoin:round;stroke-dasharray:none;stroke-opacity:1;paint-order:fill markers stroke"
       d="m 93.142113,92.684843 c -0.596498,-0.0037 -1.194619,0.0061 -1.795073,0.02973 -0.600456,0.02363 -1.203365,0.06069 -1.808772,0.112092 -0.60541,0.0514 -1.213306,0.116835 -1.824663,0.196405 -0.61136,0.07957 -1.226084,0.173548 -1.844389,0.281692 -0.618305,0.108141 -1.240602,0.230346 -1.866855,0.367466 -0.62625,0.13712 -1.256318,0.28918 -1.891512,0.455679 -0.635192,0.166496 -1.275422,0.34761 -1.920553,0.543889 -0.645134,0.196279 -1.295169,0.407589 -1.951239,0.634051 -0.656068,0.226462 -1.318303,0.468141 -1.986307,0.725186 l -0.01315,-0.0093 c 0.0051,0.0044 0.0092,0.0097 0.01425,0.01413 -4.514835,2.031676 -8.513874,4.805527 -11.996746,8.320637 -3.450626,3.51513 -6.15942,7.54619 -8.126599,12.09326 -1.934929,4.5471 -2.902474,9.33598 -2.902474,14.36678 0,4.38585 0.548476,8.28794 1.644937,11.7063 1.128707,3.38614 2.61224,6.4339 4.450423,9.14281 1.870432,2.67666 3.917864,5.12757 6.143031,7.35275 2.257419,2.22515 4.515206,4.35366 6.772622,6.38534 l 0.82192,0.67694 c 2.063926,1.87043 4.289222,3.80547 6.675636,5.8049 2.386414,1.99943 4.91789,3.8055 7.594542,5.41794 2.644403,1.6447 5.482607,2.99888 8.513997,4.06309 3.063639,1.09646 6.288431,1.64483 9.674541,1.64483 3.41839,0 6.64315,-0.54837 9.67455,-1.64483 3.0314,-1.06421 5.88556,-2.41839 8.56222,-4.06309 2.64439,-1.61244 5.1599,-3.41851 7.54632,-5.41794 2.38642,-1.99943 4.6277,-3.93447 6.72385,-5.8049 l 0.77425,-0.67694 c 2.25743,-2.03168 4.49868,-4.16019 6.72386,-6.38534 2.25742,-2.22518 4.30484,-4.67609 6.14303,-7.35275 1.87044,-2.70891 3.35396,-5.75667 4.45042,-9.14281 1.12871,-3.41836 1.69316,-7.32045 1.69316,-11.7063 0,-5.0308 -0.98351,-9.81968 -2.9507,-14.36678 -1.93491,-4.54707 -4.62776,-8.57813 -8.07837,-12.09326 -3.33736,-3.54763 -7.58299,-6.178249 -12.08661,-8.397152 -0.50514,-0.182532 -1.01939,-0.358673 -1.54193,-0.52732 -0.52253,-0.168647 -1.05376,-0.330179 -1.59233,-0.483945 -0.53857,-0.153764 -1.08456,-0.299758 -1.63781,-0.437646 -0.55325,-0.137888 -1.11345,-0.267408 -1.68001,-0.388423 -0.56656,-0.121015 -1.1393,-0.233617 -1.71781,-0.336763 -0.57851,-0.103146 -1.16268,-0.196924 -1.75179,-0.281205 -0.5891,-0.08428 -1.18359,-0.158789 -1.78192,-0.223209 -0.59833,-0.06442 -1.20093,-0.118727 -1.80713,-0.16229 -0.6062,-0.04356 -1.21579,-0.07625 -1.8285,-0.09796 -0.61269,-0.02171 -1.22817,-0.03233 -1.84603,-0.03119 -0.61785,0.0011 -1.23809,0.014 -1.85973,0.03899 -0.62164,0.02498 -1.24498,0.06178 -1.86905,0.111605 -0.31203,0.02491 -0.62406,0.053 -0.93644,0.08431 l -7.25974,1.466412 c -0.59673,-0.184054 -1.19151,-0.355634 -1.78521,-0.515136 -0.59371,-0.159499 -1.18641,-0.306511 -1.77809,-0.441057 -0.59168,-0.134546 -1.18251,-0.256815 -1.77316,-0.366005 -0.590633,-0.109189 -1.180892,-0.205572 -1.771505,-0.289002 -0.590613,-0.08343 -1.181576,-0.153756 -1.773156,-0.211025 -0.591577,-0.05727 -1.184,-0.101368 -1.777539,-0.132074 -0.593539,-0.03071 -1.188163,-0.04792 -1.784663,-0.05166 z"
       transform="scale(0.94309221,1.0603417)"
       sodipodi:nodetypes="csssssssscccccscccccsccsccscccccscccssssssssscssccsssssscc" /><path
       id="path56"
       style="font-size:99.0687px;font-family:Arial;-inkscape-font-specification:'Arial, Normal';font-variant-ligatures:no-contextual;text-align:justify;letter-spacing:0px;word-spacing:0px;direction:rtl;fill:#e16023;fill-opacity:1;fill-rule:evenodd;stroke:#00001a;stroke-width:0.00000003175;stroke-linecap:round;stroke-linejoin:round;stroke-dasharray:none;stroke-opacity:1;paint-order:fill markers stroke"
       d="m 105.58544,94.690802 c 7.16193,8.672438 5.04254,5.689598 11.72218,14.546818 5.18856,6.13522 8.30708,12.44233 9.15788,20.17639 0.0645,0.96747 0.46761,1.77329 1.20931,2.41826 0.74173,0.61273 1.59638,0.87116 2.56385,0.77441 0.96746,-0.0645 1.75771,-0.46789 2.37041,-1.20962 0.61273,-0.7417 0.8864,-1.59602 0.82193,-2.56349 -0.37197,-4.44168 -1.38272,-8.49579 -3.00166,-12.1805 -3.03677,-6.21857 -7.98738,-11.53652 -12.41099,-17.018484 l -5.17317,-6.410199 c -2.47683,0.344113 -4.99401,0.585671 -7.25974,1.466415 z"
       sodipodi:nodetypes="csccccccccc"
       transform="scale(0.94309221,1.0603417)" /></g></svg>
