<?xml version="1.0" encoding="UTF-8" standalone="no"?>
<!-- Created with Inkscape (http://www.inkscape.org/) -->

<svg
   width="128.95132mm"
   height="134.26891mm"
   viewBox="0 0 128.95132 134.26891"
   version="1.1"
   id="svg1"
   xml:space="preserve"
   sodipodi:docname="limon.svg"
   inkscape:version="1.3 (0e150ed6c4, 2023-07-21)"
   xmlns:inkscape="http://www.inkscape.org/namespaces/inkscape"
   xmlns:sodipodi="http://sodipodi.sourceforge.net/DTD/sodipodi-0.dtd"
   xmlns="http://www.w3.org/2000/svg"
   xmlns:svg="http://www.w3.org/2000/svg"><sodipodi:namedview
     id="namedview1"
     pagecolor="#ffffff"
     bordercolor="#000000"
     borderopacity="0.25"
     inkscape:showpageshadow="2"
     inkscape:pageopacity="0.0"
     inkscape:pagecheckerboard="0"
     inkscape:deskcolor="#d1d1d1"
     inkscape:document-units="mm"
     inkscape:zoom="1"
     inkscape:cx="584"
     inkscape:cy="444.5"
     inkscape:window-width="2880"
     inkscape:window-height="1514"
     inkscape:window-x="2869"
     inkscape:window-y="-11"
     inkscape:window-maximized="1"
     inkscape:current-layer="layer1" /><defs
     id="defs1" /><g
     inkscape:label="Capa 1"
     inkscape:groupmode="layer"
     id="layer1"
     transform="translate(-31.905481,-73.781425)"><path
       id="path23"
       style="font-size:207.912px;font-family:Arial;-inkscape-font-specification:'Arial, Normal';font-variant-ligatures:no-contextual;text-align:justify;letter-spacing:0px;word-spacing:0px;direction:rtl;fill:#db912c;fill-opacity:1;fill-rule:evenodd;stroke:#00001a;stroke-width:0.00000003175;stroke-linecap:round;stroke-linejoin:round;stroke-dasharray:none;stroke-opacity:1;paint-order:fill markers stroke"
       d="M 194.34971 258.5168 L 194.33876 258.52072 L 198.04345 267.74143 L 203.46261 281.19737 L 194.34971 258.5168 z "
       transform="scale(1.0850867,0.92158533)" /><path
       id="path12"
       style="font-size:207.912px;font-family:Arial;-inkscape-font-specification:'Arial, Normal';font-variant-ligatures:no-contextual;text-align:justify;letter-spacing:0px;word-spacing:0px;direction:rtl;fill:#db552c;fill-opacity:1;fill-rule:evenodd;stroke:#00001a;stroke-width:3.175e-08;stroke-linecap:round;stroke-linejoin:round;stroke-dasharray:none;stroke-opacity:1;paint-order:fill markers stroke"
       d="M 217.04266 254.64493 C 216.92985 254.57755 216.82006 254.49644 216.70596 254.43465 C 216.59184 254.37286 216.47322 254.33105 216.35783 254.27484 C 216.58841 254.38803 216.81721 254.50936 217.04266 254.64493 z "
       transform="scale(1.0850867,0.92158533)" /><path
       id="path11"
       style="font-size:207.912px;font-family:Arial;-inkscape-font-specification:'Arial, Normal';font-variant-ligatures:no-contextual;text-align:justify;letter-spacing:0px;word-spacing:0px;direction:rtl;fill:#db552c;fill-opacity:1;fill-rule:evenodd;stroke:#00001a;stroke-width:3.175e-08;stroke-linecap:round;stroke-linejoin:round;stroke-dasharray:none;stroke-opacity:1;paint-order:fill markers stroke"
       d="M 219.10098 256.25648 C 218.96646 256.12459 218.8352 255.97877 218.69856 255.85611 C 218.56192 255.73346 218.42012 255.63366 218.28137 255.52023 C 218.55862 255.74811 218.83219 255.99169 219.10098 256.25648 z "
       transform="scale(1.0850867,0.92158533)" /><path
       id="path10"
       style="font-size:207.912px;font-family:Arial;-inkscape-font-specification:'Arial, Normal';font-variant-ligatures:no-contextual;text-align:justify;letter-spacing:0px;word-spacing:0px;direction:rtl;fill:#db552c;fill-opacity:1;fill-rule:evenodd;stroke:#00001a;stroke-width:3.175e-08;stroke-linecap:round;stroke-linejoin:round;stroke-dasharray:none;stroke-opacity:1;paint-order:fill markers stroke"
       d="M 221.00357 258.52969 C 220.85297 258.31482 220.70486 258.08783 220.55114 257.88653 C 220.3965 257.68403 220.23602 257.50727 220.07823 257.31851 C 220.39258 257.69616 220.70175 258.09738 221.00357 258.52969 z "
       transform="scale(1.0850867,0.92158533)" /><path
       id="path9"
       style="font-size:207.912px;font-family:Arial;-inkscape-font-specification:'Arial, Normal';font-variant-ligatures:no-contextual;text-align:justify;letter-spacing:0px;word-spacing:0px;direction:rtl;fill:#db552c;fill-opacity:1;fill-rule:evenodd;stroke:#00001a;stroke-width:3.175e-08;stroke-linecap:round;stroke-linejoin:round;stroke-dasharray:none;stroke-opacity:1;paint-order:fill markers stroke"
       d="M 222.76186 261.48308 C 222.59698 261.16034 222.43399 260.82925 222.26466 260.52591 C 222.09617 260.22407 221.92131 259.95005 221.74841 259.66742 C 222.09468 260.23555 222.43328 260.83775 222.76186 261.48308 z "
       transform="scale(1.0850867,0.92158533)" /><g
       id="g44"
       transform="matrix(1.0675071,0,0,1.0736135,4.9303914,-19.427514)"
       style="stroke-width:0.934094"><path
         id="text42"
         style="font-size:98.3978px;font-family:Arial;-inkscape-font-specification:'Arial, Normal';font-variant-ligatures:no-contextual;text-align:justify;letter-spacing:0px;word-spacing:0px;direction:rtl;fill:#78be2c;fill-opacity:1;fill-rule:evenodd;stroke:#00001a;stroke-width:2.96575e-08;stroke-linecap:round;stroke-linejoin:round;stroke-dasharray:none;stroke-opacity:1;paint-order:fill markers stroke"
         d="m 58.482671,113.06419 c 0.05699,-0.0743 0.112803,-0.15346 0.170015,-0.22686 0.267936,-0.3437 0.538087,-0.67761 0.811837,-1.00252 0.27375,-0.32491 0.550987,-0.64106 0.831991,-0.94929 0.281003,-0.30824 0.566068,-0.60859 0.855762,-0.90227 0.289692,-0.29369 0.583845,-0.58072 0.883666,-0.86197 0.299822,-0.28124 0.605352,-0.5564 0.91674,-0.82733 0.311387,-0.27094 0.628522,-0.53774 0.952914,-0.80047 0.324391,-0.26275 0.655938,-0.52159 0.994771,-0.77826 0.338833,-0.25665 0.685017,-0.51107 1.03973,-0.76377 0.354713,-0.25271 0.717825,-0.5036 1.089856,-0.75447 0.744061,-0.50174 1.524152,-1.00236 2.34611,-1.50948 0.821957,-0.50711 1.6859,-1.02084 2.597257,-1.55028 l -0.001,-0.003 c -0.05566,0.0283 -0.114021,0.052 -0.169499,0.0806 -1.576393,-1.95247 -3.594203,-3.579712 -6.053377,-4.881357 -2.427646,-1.301646 -5.044187,-2.06613 -7.850167,-2.293917 -2.774452,-0.227789 -5.454534,0.243936 -8.039819,1.415417 L 32.787082,105.2409 c 0.945836,2.73345 2.521959,5.06001 4.728909,6.97994 2.206951,1.88738 4.729473,3.14014 7.566981,3.75842 2.869036,0.61828 5.722175,0.34208 8.559685,-0.82941 z" /><path
         id="path44"
         style="font-size:98.3978px;font-family:Arial;-inkscape-font-specification:'Arial, Normal';font-variant-ligatures:no-contextual;text-align:justify;letter-spacing:0px;word-spacing:0px;direction:rtl;fill:#debc3a;fill-opacity:1;fill-rule:evenodd;stroke:#00001a;stroke-width:2.96575e-08;stroke-linecap:round;stroke-linejoin:round;stroke-dasharray:none;stroke-opacity:1;paint-order:fill markers stroke"
         d="m 55.391386,115.11719 c -1.682392,2.62141 -3.074487,5.4272 -4.143417,8.43825 -1.481809,4.26289 -2.254632,8.70444 -2.317687,13.32528 -0.06306,4.5883 0.678254,9.16072 2.22312,13.71648 l 4.303096,12.49536 c 1.734033,5.1415 4.288066,9.63219 7.661547,13.47204 3.373483,3.83986 7.26704,6.88279 11.680941,9.12813 4.413902,2.27788 9.080278,3.62839 13.998628,4.05143 1.765562,0.13017 3.373193,0.86206 4.823481,2.19625 1.79709,1.69214 3.909434,2.81507 6.337082,3.36827 2.459173,0.5532 4.918663,0.37424 7.377843,-0.53691 2.45917,-0.87862 4.47698,-2.3269 6.05338,-4.34445 1.57639,-2.01755 2.55379,-4.26289 2.93211,-6.73602 0.28376,-1.95247 1.08758,-3.5797 2.41175,-4.88135 3.56265,-3.51445 6.36877,-7.58203 8.41809,-12.20287 2.08084,-4.65339 3.2628,-9.56718 3.54655,-14.74123 0.31528,-5.17404 -0.394,-10.31542 -2.12803,-15.42438 l -4.30361,-12.54445 c -1.76557,-5.23913 -4.38211,-9.79499 -7.85017,-13.66739 -3.43655,-3.87239 -7.42516,-6.93135 -11.96517,-9.1767 -4.54001,-2.245334 -9.347939,-3.530679 -14.423926,-3.85609 -5.075986,-0.357952 -10.136007,0.374461 -15.180466,2.196765 -1.296059,0.46664 -2.546228,1.012455 -3.755842,1.627815 l 10e-4,0.003 c -0.911357,0.52944 -1.7753,1.04317 -2.597257,1.55028 -0.821958,0.50712 -1.602049,1.00774 -2.34611,1.50948 -0.372031,0.25087 -0.735143,0.50176 -1.089856,0.75447 -0.354713,0.2527 -0.700897,0.50712 -1.03973,0.76377 -0.338833,0.25667 -0.67038,0.51551 -0.994771,0.77826 -0.324392,0.26273 -0.641527,0.52953 -0.952914,0.80047 -0.311388,0.27093 -0.616918,0.54609 -0.91674,0.82733 -0.299821,0.28125 -0.593974,0.56828 -0.883666,0.86197 -0.289694,0.29368 -0.574759,0.59403 -0.855762,0.90227 -0.281004,0.30823 -0.558241,0.62438 -0.831991,0.94929 -0.27375,0.32491 -0.543901,0.65882 -0.811837,1.00252 -0.05721,0.0734 -0.113029,0.15256 -0.170015,0.22686 l 0.03101,-0.0134 c -0.554142,0.70343 -1.065456,1.43407 -1.569412,2.16938 -0.218366,0.3285 -0.436317,0.66085 -0.653708,1.00717 z"
         sodipodi:nodetypes="cccccscccccscccccccsccccsssccssssssccccc" /><path
         id="path43"
         style="font-size:98.3978px;font-family:Arial;-inkscape-font-specification:'Arial, Normal';font-variant-ligatures:no-contextual;text-align:justify;letter-spacing:0px;word-spacing:0px;direction:rtl;fill:#a9b574;fill-opacity:1;fill-rule:evenodd;stroke:#00001a;stroke-width:2.96575e-08;stroke-linecap:round;stroke-linejoin:round;stroke-dasharray:none;stroke-opacity:1;paint-order:fill markers stroke"
         d="m 55.391386,115.11719 0.01757,-0.003 c 0.217391,-0.34632 0.435342,-0.67867 0.653708,-1.00717 -0.228583,0.33351 -0.453019,0.66968 -0.671277,1.00975 z" /></g></g></svg>
