<?xml version="1.0" encoding="UTF-8" standalone="no"?>
<!-- Created with Inkscape (http://www.inkscape.org/) -->

<svg
   width="128.95132mm"
   height="134.26891mm"
   viewBox="0 0 128.95132 134.26891"
   version="1.1"
   id="svg1"
   xml:space="preserve"
   sodipodi:docname="manzana.svg"
   inkscape:version="1.3 (0e150ed6c4, 2023-07-21)"
   xmlns:inkscape="http://www.inkscape.org/namespaces/inkscape"
   xmlns:sodipodi="http://sodipodi.sourceforge.net/DTD/sodipodi-0.dtd"
   xmlns="http://www.w3.org/2000/svg"
   xmlns:svg="http://www.w3.org/2000/svg"><sodipodi:namedview
     id="namedview1"
     pagecolor="#ffffff"
     bordercolor="#000000"
     borderopacity="0.25"
     inkscape:showpageshadow="2"
     inkscape:pageopacity="0.0"
     inkscape:pagecheckerboard="0"
     inkscape:deskcolor="#d1d1d1"
     inkscape:document-units="mm"
     inkscape:zoom="0.70710678"
     inkscape:cx="1112.9861"
     inkscape:cy="669.63012"
     inkscape:window-width="2880"
     inkscape:window-height="1514"
     inkscape:window-x="2869"
     inkscape:window-y="-11"
     inkscape:window-maximized="1"
     inkscape:current-layer="layer1" /><defs
     id="defs1" /><g
     inkscape:label="Capa 1"
     inkscape:groupmode="layer"
     id="layer1"
     transform="translate(-31.905481,-73.781425)"><path
       id="path23"
       style="font-size:207.912px;font-family:Arial;-inkscape-font-specification:'Arial, Normal';font-variant-ligatures:no-contextual;text-align:justify;letter-spacing:0px;word-spacing:0px;direction:rtl;fill:#db912c;fill-opacity:1;fill-rule:evenodd;stroke:#00001a;stroke-width:0.00000003175;stroke-linecap:round;stroke-linejoin:round;stroke-dasharray:none;stroke-opacity:1;paint-order:fill markers stroke"
       d="M 194.34971 258.5168 L 194.33876 258.52072 L 198.04345 267.74143 L 203.46261 281.19737 L 194.34971 258.5168 z "
       transform="scale(1.0850867,0.92158533)" /><g
       id="g42"
       transform="translate(-276.5252,-42.343769)"><g
         id="g4"
         transform="translate(285.12313,-109.16318)"><path
           style="fill:#03ba5f;fill-opacity:1;fill-rule:evenodd;stroke:#000000;stroke-width:3.175e-08;stroke-linecap:round;stroke-linejoin:round;stroke-dasharray:none;stroke-opacity:1;paint-order:fill markers stroke"
           d="m 88.000908,261.52322 c 1.151496,-12.95176 0.178186,-25.34433 -19.097341,-26.04923 -6.991854,-0.10902 -10.174044,-0.97586 -16.349286,-3.40473 -2.068851,13.88017 -1.167975,26.36799 20.0753,25.71924 7.376926,-1.43625 9.892926,-0.6965 15.371327,3.73472 z"
           id="path2"
           sodipodi:nodetypes="ccccc"
           inkscape:transform-center-x="16.550415"
           inkscape:transform-center-y="-13.437903" /><g
           id="g3"
           transform="translate(16.66875,25.4)"><path
             id="text2"
             style="font-size:107.651px;font-family:Arial;-inkscape-font-specification:'Arial, Normal';font-variant-ligatures:no-contextual;text-align:justify;letter-spacing:0px;word-spacing:0px;direction:rtl;fill:#db2e2c;fill-opacity:1;fill-rule:evenodd;stroke:#000000;stroke-width:3.175e-08;stroke-linecap:round;stroke-linejoin:round;stroke-dasharray:none;stroke-opacity:1;paint-order:fill markers stroke"
             d="m 92.105548,221.72192 v 5e-4 c -4.590577,-0.0701 -9.128861,0.82337 -13.614311,2.68063 -1.695199,0.71376 -3.444071,1.11914 -5.240249,1.25236 l -6.752192,45.37684 6.752192,44.2449 c 1.463848,0.0913 2.930229,0.3361 4.39938,0.7442 4.765789,1.33162 9.513949,1.75247 14.244696,1.26188 4.730747,-0.49059 9.198726,-1.78732 13.403826,-3.88988 4.20511,-2.06751 7.93719,-4.83577 11.19614,-8.30498 3.25897,-3.46921 5.79997,-7.51662 7.62219,-12.14223 3.11878,-7.91963 4.67807,-16.13748 4.67807,-24.65283 0,-8.51535 -1.55929,-16.75027 -4.67807,-24.70493 -1.78718,-4.5205 -4.32818,-8.41021 -7.62219,-11.66916 -3.25895,-3.25896 -6.99103,-5.76455 -11.19614,-7.51668 -4.17006,-1.75213 -8.567723,-2.64558 -13.193342,-2.68062 z"
             transform="scale(0.96977453,1.0311675)"
             sodipodi:nodetypes="cccccccscscscccc" /><path
             id="path3"
             style="font-size:107.651px;font-family:Arial;-inkscape-font-specification:'Arial, Normal';font-variant-ligatures:no-contextual;text-align:justify;letter-spacing:0px;word-spacing:0px;direction:rtl;fill:#db2e2c;fill-opacity:1;fill-rule:evenodd;stroke:#000000;stroke-width:3.175e-08;stroke-linecap:round;stroke-linejoin:round;stroke-dasharray:none;stroke-opacity:1;paint-order:fill markers stroke"
             d="m 52.907303,228.63244 v 5.1e-4 c 4.45182,-0.0723 8.85294,0.84904 13.20281,2.76418 1.64396,0.73601 3.33997,1.15402 5.08186,1.29139 v 92.41503 c -1.4196,0.0941 -2.84166,0.34658 -4.2664,0.7674 -4.62175,1.37312 -9.22639,1.80709 -13.81415,1.30121 -4.58776,-0.50589 -8.920688,-1.84303 -12.998687,-4.01112 -4.078009,-2.13195 -7.697285,-4.98649 -10.857732,-8.56383 -3.160466,-3.57733 -5.624663,-7.75089 -7.391805,-12.52067 -3.024514,-8.16647 -4.536674,-16.64045 -4.536674,-25.4212 0,-8.78075 1.51216,-17.27233 4.536674,-25.47492 1.733161,-4.66139 4.197358,-8.67233 7.391805,-12.03286 3.160447,-3.36053 6.779723,-5.94421 10.857732,-7.75095 4.044018,-1.80674 8.308757,-2.72804 12.794567,-2.76417 z" /></g></g></g><path
       id="path12"
       style="font-size:207.912px;font-family:Arial;-inkscape-font-specification:'Arial, Normal';font-variant-ligatures:no-contextual;text-align:justify;letter-spacing:0px;word-spacing:0px;direction:rtl;fill:#db552c;fill-opacity:1;fill-rule:evenodd;stroke:#00001a;stroke-width:3.175e-08;stroke-linecap:round;stroke-linejoin:round;stroke-dasharray:none;stroke-opacity:1;paint-order:fill markers stroke"
       d="M 217.04266 254.64493 C 216.92985 254.57755 216.82006 254.49644 216.70596 254.43465 C 216.59184 254.37286 216.47322 254.33105 216.35783 254.27484 C 216.58841 254.38803 216.81721 254.50936 217.04266 254.64493 z "
       transform="scale(1.0850867,0.92158533)" /><path
       id="path11"
       style="font-size:207.912px;font-family:Arial;-inkscape-font-specification:'Arial, Normal';font-variant-ligatures:no-contextual;text-align:justify;letter-spacing:0px;word-spacing:0px;direction:rtl;fill:#db552c;fill-opacity:1;fill-rule:evenodd;stroke:#00001a;stroke-width:3.175e-08;stroke-linecap:round;stroke-linejoin:round;stroke-dasharray:none;stroke-opacity:1;paint-order:fill markers stroke"
       d="M 219.10098 256.25648 C 218.96646 256.12459 218.8352 255.97877 218.69856 255.85611 C 218.56192 255.73346 218.42012 255.63366 218.28137 255.52023 C 218.55862 255.74811 218.83219 255.99169 219.10098 256.25648 z "
       transform="scale(1.0850867,0.92158533)" /><path
       id="path10"
       style="font-size:207.912px;font-family:Arial;-inkscape-font-specification:'Arial, Normal';font-variant-ligatures:no-contextual;text-align:justify;letter-spacing:0px;word-spacing:0px;direction:rtl;fill:#db552c;fill-opacity:1;fill-rule:evenodd;stroke:#00001a;stroke-width:3.175e-08;stroke-linecap:round;stroke-linejoin:round;stroke-dasharray:none;stroke-opacity:1;paint-order:fill markers stroke"
       d="M 221.00357 258.52969 C 220.85297 258.31482 220.70486 258.08783 220.55114 257.88653 C 220.3965 257.68403 220.23602 257.50727 220.07823 257.31851 C 220.39258 257.69616 220.70175 258.09738 221.00357 258.52969 z "
       transform="scale(1.0850867,0.92158533)" /><path
       id="path9"
       style="font-size:207.912px;font-family:Arial;-inkscape-font-specification:'Arial, Normal';font-variant-ligatures:no-contextual;text-align:justify;letter-spacing:0px;word-spacing:0px;direction:rtl;fill:#db552c;fill-opacity:1;fill-rule:evenodd;stroke:#00001a;stroke-width:3.175e-08;stroke-linecap:round;stroke-linejoin:round;stroke-dasharray:none;stroke-opacity:1;paint-order:fill markers stroke"
       d="M 222.76186 261.48308 C 222.59698 261.16034 222.43399 260.82925 222.26466 260.52591 C 222.09617 260.22407 221.92131 259.95005 221.74841 259.66742 C 222.09468 260.23555 222.43328 260.83775 222.76186 261.48308 z "
       transform="scale(1.0850867,0.92158533)" /></g></svg>
