<?xml version="1.0" encoding="UTF-8" standalone="no"?>
<!-- Created with Inkscape (http://www.inkscape.org/) -->

<svg
   width="128.95132mm"
   height="134.26891mm"
   viewBox="0 0 128.95132 134.26891"
   version="1.1"
   id="svg1"
   xml:space="preserve"
   sodipodi:docname="melon.svg"
   inkscape:version="1.3 (0e150ed6c4, 2023-07-21)"
   xmlns:inkscape="http://www.inkscape.org/namespaces/inkscape"
   xmlns:sodipodi="http://sodipodi.sourceforge.net/DTD/sodipodi-0.dtd"
   xmlns="http://www.w3.org/2000/svg"
   xmlns:svg="http://www.w3.org/2000/svg"><sodipodi:namedview
     id="namedview1"
     pagecolor="#ffffff"
     bordercolor="#000000"
     borderopacity="0.25"
     inkscape:showpageshadow="2"
     inkscape:pageopacity="0.0"
     inkscape:pagecheckerboard="0"
     inkscape:deskcolor="#d1d1d1"
     inkscape:document-units="mm"
     inkscape:zoom="0.70710678"
     inkscape:cx="623.66818"
     inkscape:cy="801.15198"
     inkscape:window-width="2880"
     inkscape:window-height="1514"
     inkscape:window-x="2869"
     inkscape:window-y="-11"
     inkscape:window-maximized="1"
     inkscape:current-layer="layer1" /><defs
     id="defs1" /><g
     inkscape:label="Capa 1"
     inkscape:groupmode="layer"
     id="layer1"
     transform="translate(-31.905481,-73.781425)"><path
       id="path5"
       style="font-size:207.912px;font-family:Arial;-inkscape-font-specification:'Arial, Normal';font-variant-ligatures:no-contextual;text-align:justify;letter-spacing:0px;word-spacing:0px;direction:rtl;fill:#623f30;fill-opacity:1;fill-rule:evenodd;stroke:#00001a;stroke-width:3.175e-08;stroke-linecap:round;stroke-linejoin:round;stroke-dasharray:none;stroke-opacity:1;paint-order:fill markers stroke"
       d="m 53.978892,82.805214 c -0.101738,-0.01649 -0.203533,-0.03156 -0.306793,-0.03156 -0.117112,0 -0.235737,0.01443 -0.35477,0.03567 -0.02929,0.0051 -0.05862,0.01136 -0.088,0.01769 -0.119484,0.02642 -0.239393,0.05951 -0.360808,0.107046 -0.111159,0.03623 -0.211581,0.08345 -0.309806,0.132995 -0.04436,0.02289 -0.08829,0.04628 -0.129952,0.07195 -0.09222,0.05552 -0.182517,0.113158 -0.261829,0.181943 -0.09743,0.08451 -0.184985,0.17916 -0.262928,0.283684 -0.07794,0.104534 -0.14609,0.218974 -0.204529,0.34355 -0.05844,0.124572 -0.102385,0.24903 -0.131597,0.373624 -0.02923,0.124588 -0.04388,0.249314 -0.04388,0.373919 0,0.117907 0.01523,0.235671 0.04139,0.353571 0.02918,0.120058 0.07034,0.240281 0.126663,0.36035 0.935095,2.064366 2.084516,3.754857 3.448196,5.071782 1.402644,1.316925 3.175636,2.153574 5.31856,2.509502 1.59746,0.284734 3.350735,0.284734 5.259886,0 1.909155,-0.320336 4.013095,-0.836615 6.311872,-1.548464 -0.07194,-0.134843 5.180872,11.781304 5.287628,12.049784 l 3.91565,-1.49479 c -1.752852,-3.982215 -3.500621,-7.951907 -5.22183,-11.856038 l 0.0063,-0.0022 -0.01368,-0.03156 8.649686,-2.936497 c 0.779243,-0.249148 1.98697,-0.07103 3.623388,0.534043 0.141459,0.04925 0.272164,0.141182 0.41043,0.203177 0.06642,0.02956 0.134715,0.05153 0.200413,0.08404 0.06568,0.03253 0.12889,0.07516 0.193834,0.110591 0.242736,0.133325 0.480701,0.285823 0.713111,0.460315 0.07987,0.05965 0.161509,0.112137 0.240167,0.176636 0.07866,0.0645 0.15423,0.141195 0.231668,0.210557 0.191092,0.171958 0.378931,0.356949 0.56259,0.558517 0.09084,0.09927 0.183224,0.192226 0.272249,0.29872 0.08849,0.105858 0.173759,0.225233 0.260461,0.338233 0.145289,0.190115 0.288547,0.388123 0.428792,0.59833 0.09954,0.148636 0.2002,0.29274 0.297199,0.451476 0.09749,0.159523 0.191315,0.333644 0.286235,0.503371 0.05492,0.09853 0.115373,0.175238 0.169435,0.277195 0.233768,0.498297 0.623294,0.836455 1.168769,1.014421 0.584433,0.142364 1.129992,0.106509 1.636503,-0.107046 0.506506,-0.213558 0.857164,-0.5692 1.051975,-1.067497 0.14294,-0.391724 0.168125,-0.763932 0.08033,-1.117332 -0.03152,-0.116828 -0.07444,-0.231544 -0.131326,-0.344137 -0.185069,-0.355923 -0.378835,-0.698782 -0.580957,-1.028568 -0.202122,-0.329781 -0.412785,-0.646488 -0.631958,-0.950127 -0.219169,-0.303645 -0.446725,-0.594183 -0.682949,-0.871693 -0.236215,-0.277503 -0.48095,-0.541883 -0.734211,-0.79325 -0.253272,-0.251364 -0.515186,-0.48987 -0.785493,-0.715103 -0.270308,-0.225227 -0.549125,-0.437278 -0.836479,-0.636364 -0.287354,-0.199092 -0.583084,-0.385275 -0.887479,-0.558227 -0.304396,-0.172955 -0.617311,-0.332672 -0.938747,-0.479483 -0.23658,-0.111338 -0.469463,-0.205431 -0.702415,-0.300198 -0.167074,-0.06796 -0.333235,-0.131647 -0.498436,-0.191091 -0.230389,-0.08289 -0.460847,-0.166634 -0.687608,-0.23296 -0.308045,-0.0901 -0.612725,-0.164899 -0.91407,-0.224411 -0.30135,-0.05952 -0.599409,-0.103477 -0.894058,-0.132406 -0.294649,-0.02893 -0.586098,-0.04263 -0.874047,-0.04097 -0.287953,0.0017 -0.572501,0.01849 -0.853753,0.05073 -0.281257,0.03224 -0.559183,0.07988 -0.83374,0.142723 -0.274563,0.06284 -0.545592,0.141006 -0.813459,0.234437 l -9.234213,3.096581 c -0.779243,0.275838 -1.524493,0.530482 -2.235552,0.764058 -0.711057,0.23357 -1.388154,0.445946 -2.031026,0.637255 -0.642878,0.191302 -1.251529,0.361702 -1.826221,0.510743 -0.574692,0.149041 -1.115189,0.27687 -1.621701,0.383649 -0.506505,0.09787 -0.991238,0.175718 -1.453904,0.233552 -0.231334,0.02893 -0.457092,0.05273 -0.677464,0.07165 -0.220378,0.01888 -0.435424,0.03299 -0.644845,0.04188 -0.209413,0.0089 -0.413205,0.01261 -0.611661,0.01147 -0.198461,-0.0012 -0.391542,-0.0072 -0.579042,-0.01827 -0.187505,-0.01112 -0.369593,-0.02722 -0.546137,-0.04834 -0.17655,-0.02112 -0.347375,-0.0473 -0.512969,-0.07844 -0.141235,-0.02226 -0.281003,-0.04913 -0.419205,-0.0808 -0.13819,-0.03167 -0.274996,-0.06825 -0.410153,-0.109399 -0.135146,-0.04114 -0.268715,-0.08711 -0.400827,-0.137713 -0.132111,-0.05059 -0.26272,-0.105943 -0.391786,-0.166005 -0.12906,-0.06005 -0.256715,-0.12481 -0.382741,-0.194326 -0.126014,-0.06951 -0.250433,-0.143676 -0.373412,-0.222637 -0.122971,-0.07898 -0.244434,-0.16253 -0.364368,-0.250951 -0.119925,-0.08843 -0.238157,-0.181677 -0.355046,-0.279559 -0.112014,-0.09787 -0.223195,-0.203548 -0.333384,-0.316998 -0.11019,-0.113461 -0.219545,-0.234865 -0.327904,-0.363894 -0.108358,-0.129033 -0.215883,-0.265583 -0.322422,-0.41019 -0.106528,-0.144606 -0.211948,-0.297196 -0.316662,-0.457376 -0.104708,-0.160174 -0.208572,-0.32792 -0.311451,-0.503666 -0.102882,-0.175748 -0.204912,-0.359535 -0.30597,-0.550854 -0.101057,-0.191314 -0.201257,-0.390263 -0.30049,-0.597144 -0.09922,-0.206887 -0.19732,-0.421587 -0.294728,-0.644035 -0.05844,-0.124576 -0.126859,-0.239019 -0.204801,-0.343549 -0.07794,-0.104523 -0.165498,-0.199183 -0.262928,-0.283685 -0.06236,-0.05409 -0.135548,-0.09713 -0.205894,-0.143014 -0.078,-0.05267 -0.164156,-0.09689 -0.252237,-0.139191 -0.07935,-0.03669 -0.155847,-0.07619 -0.243181,-0.104683 -0.09946,-0.04194 -0.200376,-0.06885 -0.301317,-0.09436 -0.05514,-0.01421 -0.110549,-0.02523 -0.16614,-0.03452 z"
       sodipodi:nodetypes="cscccccssscsccccccccccccccsccsccsccscccscccssssssscssssscssccssscscsssscssssssscssssssscsscccccc" /><path
       id="path24"
       style="font-size:207.912px;font-family:Arial;-inkscape-font-specification:'Arial, Normal';font-variant-ligatures:no-contextual;text-align:justify;letter-spacing:0px;word-spacing:0px;direction:rtl;fill:#a9b574;fill-opacity:1;fill-rule:evenodd;stroke:#00001a;stroke-width:3.175e-08;stroke-linecap:round;stroke-linejoin:round;stroke-dasharray:none;stroke-opacity:1;paint-order:fill markers stroke"
       d="m 79.888583,100.50297 c -1.139909,0.4697 -2.294338,0.94536 -3.453053,1.4228 -5.566203,2.47312 -10.479617,5.89496 -14.740163,10.26525 -4.260548,4.33641 -7.593288,9.33348 -9.998437,14.99116 -2.405145,5.62379 -3.607793,11.65416 -3.607793,18.09104 0,6.5724 1.254067,12.73819 3.762289,18.49749 2.508228,5.75931 5.961424,10.82408 10.359409,15.19437 4.432345,4.3703 9.569049,7.77522 15.410124,10.21444 5.841079,2.47312 12.094488,3.70955 18.760185,3.70955 6.665696,0 12.919096,-1.23643 18.760186,-3.70955 5.84107,-2.43922 10.97776,-5.84414 15.41012,-10.21444 4.43234,-4.37029 7.88554,-9.43506 10.35941,-15.19437 2.50823,-5.7593 3.76229,-11.92509 3.76229,-18.49749 0,-6.57237 -1.25406,-12.73846 -3.76229,-18.49777 -2.47387,-5.7593 -5.92707,-10.80715 -10.35941,-15.14356 -4.43236,-4.37029 -9.56905,-7.79214 -15.41012,-10.26525 -5.84109,-2.473106 -12.09449,-3.709535 -18.760186,-3.709535 -5.703642,0 -11.201233,0.948689 -16.492561,2.845865 z"
       sodipodi:nodetypes="ccccssccscscsccssc" /><path
       id="path23"
       style="font-size:207.912px;font-family:Arial;-inkscape-font-specification:'Arial, Normal';font-variant-ligatures:no-contextual;text-align:justify;letter-spacing:0px;word-spacing:0px;direction:rtl;fill:#db912c;fill-opacity:1;fill-rule:evenodd;stroke:#00001a;stroke-width:0.00000003175;stroke-linecap:round;stroke-linejoin:round;stroke-dasharray:none;stroke-opacity:1;paint-order:fill markers stroke"
       d="M 194.34971 258.5168 L 194.33876 258.52072 L 198.04345 267.74143 L 203.46261 281.19737 L 194.34971 258.5168 z "
       transform="scale(1.0850867,0.92158533)" /><path
       id="text4"
       style="font-size:207.912px;font-family:Arial;-inkscape-font-specification:'Arial, Normal';font-variant-ligatures:no-contextual;text-align:justify;letter-spacing:0px;word-spacing:0px;direction:rtl;fill:#db552c;fill-opacity:1;fill-rule:evenodd;stroke:#00001a;stroke-width:3.175e-08;stroke-linecap:round;stroke-linejoin:round;stroke-dasharray:none;stroke-opacity:1;paint-order:fill markers stroke"
       d="M 153.59908 245.06871 C 153.7697 244.97449 153.94414 244.88478 154.13723 244.81582 C 154.34813 244.72543 154.55642 244.66253 154.76397 244.61227 C 154.55045 244.66268 154.34144 244.65887 154.12437 244.7519 C 153.92014 244.82484 153.77815 244.96748 153.59908 245.06871 z "
       transform="scale(1.0850867,0.92158533)" /><path
       id="path14"
       style="font-size:207.912px;font-family:Arial;-inkscape-font-specification:'Arial, Normal';font-variant-ligatures:no-contextual;text-align:justify;letter-spacing:0px;word-spacing:0px;direction:rtl;fill:#db552c;fill-opacity:1;fill-rule:evenodd;stroke:#00001a;stroke-width:3.175e-08;stroke-linecap:round;stroke-linejoin:round;stroke-dasharray:none;stroke-opacity:1;paint-order:fill markers stroke"
       d="M 151.87365 248.83797 C 151.8282 248.61378 151.80174 248.38985 151.80174 248.16565 C 151.80174 247.92872 151.82718 247.69155 151.87794 247.45464 C 151.92869 247.21772 152.00502 246.98106 152.10653 246.74419 C 152.20805 246.50731 152.32642 246.28969 152.46181 246.09093 C 152.5972 245.89217 152.74929 245.71218 152.91853 245.5515 C 153.0563 245.4207 153.21314 245.31111 153.37334 245.20553 C 152.83336 245.5695 152.37457 246.02483 152.09367 246.68026 C 151.78544 247.39947 151.71396 248.11876 151.87365 248.83797 z "
       transform="scale(1.0850867,0.92158533)" /><path
       style="fill:#57793c;fill-opacity:1;fill-rule:evenodd;stroke:#00001a;stroke-width:3.175e-08;stroke-linecap:round;stroke-linejoin:round;stroke-dasharray:none;stroke-opacity:1;paint-order:fill markers stroke"
       d="m 94.141367,100.07588 c 1.96571,1.21962 10.813013,8.08348 13.445663,10.48885 2.63265,2.40535 5.35307,5.57302 8.16123,9.5029 2.80816,3.92987 5.47607,8.82541 8.0034,14.68632 2.49225,5.86094 4.17712,11.14603 5.05468,15.85511 1.22169,6.30367 2.24644,17.89224 -2.83125,30.03561 l 3.6396,-3.44092 c 3.41477,-10.45538 3.74266,-18.07024 2.19328,-28.67825 -0.66694,-4.60743 -2.194,-9.65557 -4.58093,-15.14385 -2.35183,-5.52215 -4.98446,-10.12964 -7.89793,-13.82238 -2.87836,-3.7266 -5.75687,-6.72474 -8.63524,-8.99457 -2.87836,-2.26985 -12.006313,-9.06601 -14.287943,-10.28563 z"
       id="path41"
       sodipodi:nodetypes="cssccccsccscc" /><path
       id="path12"
       style="font-size:207.912px;font-family:Arial;-inkscape-font-specification:'Arial, Normal';font-variant-ligatures:no-contextual;text-align:justify;letter-spacing:0px;word-spacing:0px;direction:rtl;fill:#db552c;fill-opacity:1;fill-rule:evenodd;stroke:#00001a;stroke-width:3.175e-08;stroke-linecap:round;stroke-linejoin:round;stroke-dasharray:none;stroke-opacity:1;paint-order:fill markers stroke"
       d="M 217.04266 254.64493 C 216.92985 254.57755 216.82006 254.49644 216.70596 254.43465 C 216.59184 254.37286 216.47322 254.33105 216.35783 254.27484 C 216.58841 254.38803 216.81721 254.50936 217.04266 254.64493 z "
       transform="scale(1.0850867,0.92158533)" /><path
       id="path11"
       style="font-size:207.912px;font-family:Arial;-inkscape-font-specification:'Arial, Normal';font-variant-ligatures:no-contextual;text-align:justify;letter-spacing:0px;word-spacing:0px;direction:rtl;fill:#db552c;fill-opacity:1;fill-rule:evenodd;stroke:#00001a;stroke-width:3.175e-08;stroke-linecap:round;stroke-linejoin:round;stroke-dasharray:none;stroke-opacity:1;paint-order:fill markers stroke"
       d="M 219.10098 256.25648 C 218.96646 256.12459 218.8352 255.97877 218.69856 255.85611 C 218.56192 255.73346 218.42012 255.63366 218.28137 255.52023 C 218.55862 255.74811 218.83219 255.99169 219.10098 256.25648 z "
       transform="scale(1.0850867,0.92158533)" /><path
       id="path10"
       style="font-size:207.912px;font-family:Arial;-inkscape-font-specification:'Arial, Normal';font-variant-ligatures:no-contextual;text-align:justify;letter-spacing:0px;word-spacing:0px;direction:rtl;fill:#db552c;fill-opacity:1;fill-rule:evenodd;stroke:#00001a;stroke-width:3.175e-08;stroke-linecap:round;stroke-linejoin:round;stroke-dasharray:none;stroke-opacity:1;paint-order:fill markers stroke"
       d="M 221.00357 258.52969 C 220.85297 258.31482 220.70486 258.08783 220.55114 257.88653 C 220.3965 257.68403 220.23602 257.50727 220.07823 257.31851 C 220.39258 257.69616 220.70175 258.09738 221.00357 258.52969 z "
       transform="scale(1.0850867,0.92158533)" /><path
       id="path9"
       style="font-size:207.912px;font-family:Arial;-inkscape-font-specification:'Arial, Normal';font-variant-ligatures:no-contextual;text-align:justify;letter-spacing:0px;word-spacing:0px;direction:rtl;fill:#db552c;fill-opacity:1;fill-rule:evenodd;stroke:#00001a;stroke-width:3.175e-08;stroke-linecap:round;stroke-linejoin:round;stroke-dasharray:none;stroke-opacity:1;paint-order:fill markers stroke"
       d="M 222.76186 261.48308 C 222.59698 261.16034 222.43399 260.82925 222.26466 260.52591 C 222.09617 260.22407 221.92131 259.95005 221.74841 259.66742 C 222.09468 260.23555 222.43328 260.83775 222.76186 261.48308 z "
       transform="scale(1.0850867,0.92158533)" /><path
       id="path6"
       style="font-size:207.912px;font-family:Arial;-inkscape-font-specification:'Arial, Normal';font-variant-ligatures:no-contextual;text-align:justify;letter-spacing:0px;word-spacing:0px;direction:rtl;fill:#db552c;fill-opacity:1;fill-rule:evenodd;stroke:#00001a;stroke-width:3.175e-08;stroke-linecap:round;stroke-linejoin:round;stroke-dasharray:none;stroke-opacity:1;paint-order:fill markers stroke"
       d="M 156.35461 244.63639 C 156.52995 244.6849 156.70524 244.73608 156.87801 244.81582 C 157.02972 244.87 157.16258 244.9451 157.30043 245.01488 C 157.14842 244.93497 157.03444 244.81236 156.86515 244.7519 C 156.69817 244.67483 156.52403 244.6842 156.35461 244.63639 z "
       transform="scale(1.0850867,0.92158533)" /><path
       id="path4"
       style="font-size:207.912px;font-family:Arial;-inkscape-font-specification:'Arial, Normal';font-variant-ligatures:no-contextual;text-align:justify;letter-spacing:0px;word-spacing:0px;direction:rtl;fill:#db552c;fill-opacity:1;fill-rule:evenodd;stroke:#00001a;stroke-width:3.175e-08;stroke-linecap:round;stroke-linejoin:round;stroke-dasharray:none;stroke-opacity:1;paint-order:fill markers stroke"
       d="M 155.52024 244.44686 C 155.32276 244.44686 155.11748 244.54069 154.91684 244.57863 C 155.12361 244.53827 155.32967 244.51078 155.5331 244.51078 C 155.71247 244.51078 155.88929 244.53939 156.06601 244.57078 C 155.8834 244.53734 155.70563 244.44686 155.52024 244.44686 z "
       transform="scale(1.0850867,0.92158533)" /><path
       id="path19-2"
       style="font-size:207.912px;font-family:Arial;-inkscape-font-specification:'Arial, Normal';font-variant-ligatures:no-contextual;text-align:justify;letter-spacing:0px;word-spacing:0px;direction:rtl;fill:#57793c;fill-opacity:1;fill-rule:evenodd;stroke:#00001a;stroke-width:3.175e-08;stroke-linecap:round;stroke-linejoin:round;stroke-dasharray:none;stroke-opacity:1;paint-order:fill markers stroke"
       d="m 66.049458,111.08063 -1.421752,1.6771 c -13.116633,34.97392 20.502971,75.84748 32.778581,77.98114 l 2.211424,0.25401 c -1.930611,-1.2535 -9.669333,-8.60609 -12.301988,-11.01143 -2.632645,-2.40537 -5.37058,-5.57302 -8.213841,-9.50291 -2.808164,-3.92986 -5.458547,-8.82539 -7.950785,-14.68633 -2.527346,-5.86094 -4.247248,-11.14575 -5.159899,-15.85483 -0.877549,-4.70907 -1.263752,-8.8085 -1.158444,-12.29796 0.105304,-3.48947 0.760376,-14.3567 1.216704,-16.55879 z"
       sodipodi:nodetypes="ccccccccsc" /><path
       style="fill:#57793c;fill-opacity:1;fill-rule:evenodd;stroke:#00001a;stroke-width:3.175e-08;stroke-linecap:round;stroke-linejoin:round;stroke-dasharray:none;stroke-opacity:1;paint-order:fill markers stroke"
       d="m 116.26107,186.73542 c -0.91265,-2.87965 -5.05855,-11.85276 -7.41037,-18.188 -2.31674,-6.33524 -5.54592,-14.33043 -9.687962,-23.98573 -4.106934,-9.62143 -7.669791,-17.46429 -10.688567,-23.52851 -3.036091,-6.17074 -7.625314,-15.4155 -9.198151,-18.28832 l -0.684449,0.25401 c 0.947758,2.87965 5.091155,12.68146 7.407894,19.05059 2.316727,6.33523 5.545921,14.3135 9.68796,23.93492 4.142035,9.62143 7.705135,17.48122 10.688805,23.57932 3.01878,6.0642 7.76123,14.80035 9.20041,17.47673 z"
       id="path38"
       sodipodi:nodetypes="cccccccsccc" /></g></svg>
