<?xml version="1.0" encoding="UTF-8" standalone="no"?>
<!-- Created with Inkscape (http://www.inkscape.org/) -->

<svg
   width="128.95132mm"
   height="134.26891mm"
   viewBox="0 0 128.95132 134.26891"
   version="1.1"
   id="svg1"
   xml:space="preserve"
   sodipodi:docname="naranja.svg"
   inkscape:version="1.3 (0e150ed6c4, 2023-07-21)"
   xmlns:inkscape="http://www.inkscape.org/namespaces/inkscape"
   xmlns:sodipodi="http://sodipodi.sourceforge.net/DTD/sodipodi-0.dtd"
   xmlns="http://www.w3.org/2000/svg"
   xmlns:svg="http://www.w3.org/2000/svg"><sodipodi:namedview
     id="namedview1"
     pagecolor="#ffffff"
     bordercolor="#000000"
     borderopacity="0.25"
     inkscape:showpageshadow="2"
     inkscape:pageopacity="0.0"
     inkscape:pagecheckerboard="0"
     inkscape:deskcolor="#d1d1d1"
     inkscape:document-units="mm"
     inkscape:zoom="1"
     inkscape:cx="34"
     inkscape:cy="145.5"
     inkscape:window-width="2880"
     inkscape:window-height="1514"
     inkscape:window-x="2869"
     inkscape:window-y="-11"
     inkscape:window-maximized="1"
     inkscape:current-layer="layer1" /><defs
     id="defs1" /><g
     inkscape:label="Capa 1"
     inkscape:groupmode="layer"
     id="layer1"
     transform="translate(-31.905481,-73.781425)"><path
       id="path23"
       style="font-size:207.912px;font-family:Arial;-inkscape-font-specification:'Arial, Normal';font-variant-ligatures:no-contextual;text-align:justify;letter-spacing:0px;word-spacing:0px;direction:rtl;fill:#db912c;fill-opacity:1;fill-rule:evenodd;stroke:#00001a;stroke-width:0.00000003175;stroke-linecap:round;stroke-linejoin:round;stroke-dasharray:none;stroke-opacity:1;paint-order:fill markers stroke"
       d="M 194.34971 258.5168 L 194.33876 258.52072 L 198.04345 267.74143 L 203.46261 281.19737 L 194.34971 258.5168 z "
       transform="scale(1.0850867,0.92158533)" /><path
       id="path12"
       style="font-size:207.912px;font-family:Arial;-inkscape-font-specification:'Arial, Normal';font-variant-ligatures:no-contextual;text-align:justify;letter-spacing:0px;word-spacing:0px;direction:rtl;fill:#db552c;fill-opacity:1;fill-rule:evenodd;stroke:#00001a;stroke-width:3.175e-08;stroke-linecap:round;stroke-linejoin:round;stroke-dasharray:none;stroke-opacity:1;paint-order:fill markers stroke"
       d="M 217.04266 254.64493 C 216.92985 254.57755 216.82006 254.49644 216.70596 254.43465 C 216.59184 254.37286 216.47322 254.33105 216.35783 254.27484 C 216.58841 254.38803 216.81721 254.50936 217.04266 254.64493 z "
       transform="scale(1.0850867,0.92158533)" /><path
       id="path11"
       style="font-size:207.912px;font-family:Arial;-inkscape-font-specification:'Arial, Normal';font-variant-ligatures:no-contextual;text-align:justify;letter-spacing:0px;word-spacing:0px;direction:rtl;fill:#db552c;fill-opacity:1;fill-rule:evenodd;stroke:#00001a;stroke-width:3.175e-08;stroke-linecap:round;stroke-linejoin:round;stroke-dasharray:none;stroke-opacity:1;paint-order:fill markers stroke"
       d="M 219.10098 256.25648 C 218.96646 256.12459 218.8352 255.97877 218.69856 255.85611 C 218.56192 255.73346 218.42012 255.63366 218.28137 255.52023 C 218.55862 255.74811 218.83219 255.99169 219.10098 256.25648 z "
       transform="scale(1.0850867,0.92158533)" /><path
       id="path10"
       style="font-size:207.912px;font-family:Arial;-inkscape-font-specification:'Arial, Normal';font-variant-ligatures:no-contextual;text-align:justify;letter-spacing:0px;word-spacing:0px;direction:rtl;fill:#db552c;fill-opacity:1;fill-rule:evenodd;stroke:#00001a;stroke-width:3.175e-08;stroke-linecap:round;stroke-linejoin:round;stroke-dasharray:none;stroke-opacity:1;paint-order:fill markers stroke"
       d="M 221.00357 258.52969 C 220.85297 258.31482 220.70486 258.08783 220.55114 257.88653 C 220.3965 257.68403 220.23602 257.50727 220.07823 257.31851 C 220.39258 257.69616 220.70175 258.09738 221.00357 258.52969 z "
       transform="scale(1.0850867,0.92158533)" /><path
       id="path9"
       style="font-size:207.912px;font-family:Arial;-inkscape-font-specification:'Arial, Normal';font-variant-ligatures:no-contextual;text-align:justify;letter-spacing:0px;word-spacing:0px;direction:rtl;fill:#db552c;fill-opacity:1;fill-rule:evenodd;stroke:#00001a;stroke-width:3.175e-08;stroke-linecap:round;stroke-linejoin:round;stroke-dasharray:none;stroke-opacity:1;paint-order:fill markers stroke"
       d="M 222.76186 261.48308 C 222.59698 261.16034 222.43399 260.82925 222.26466 260.52591 C 222.09617 260.22407 221.92131 259.95005 221.74841 259.66742 C 222.09468 260.23555 222.43328 260.83775 222.76186 261.48308 z "
       transform="scale(1.0850867,0.92158533)" /><path
       id="text44"
       style="font-size:117.768px;font-family:Arial;-inkscape-font-specification:'Arial, Normal';font-variant-ligatures:no-contextual;text-align:justify;letter-spacing:0px;word-spacing:0px;direction:rtl;fill:#e1742a;fill-opacity:1;fill-rule:evenodd;stroke:#00001a;stroke-width:0.00000003175;stroke-linecap:round;stroke-linejoin:round;stroke-dasharray:none;stroke-opacity:1;paint-order:fill markers stroke"
       d="m 74.780171,111.35104 c 0.0044,3.3e-4 0.0085,0.001 0.01289,0.002 -6.210415,2.64518 -11.692746,6.34407 -16.446397,11.09772 -4.715316,4.75366 -8.433729,10.2741 -11.155578,16.56119 -2.683512,6.24875 -4.025484,12.93885 -4.025484,20.06933 0,7.16881 1.341972,13.87715 4.025484,20.1259 2.683513,6.24875 6.401926,11.75042 11.155578,16.50407 4.753651,4.75365 10.255139,8.47187 16.50389,11.15538 6.287087,2.68351 12.995457,4.02539 20.125934,4.02539 7.168812,0 13.877672,-1.34188 20.126422,-4.02539 6.24876,-2.68351 11.75024,-6.40173 16.50389,-11.15538 4.75366,-4.75365 8.47207,-10.25532 11.15558,-16.50407 2.68351,-6.24875 4.02549,-12.95709 4.02549,-20.1259 0,-7.01547 -1.30366,-13.59021 -3.9105,-19.72396 -2.56851,-6.17208 -6.15282,-11.6158 -10.75313,-16.33111 -4.56197,-4.71532 -9.8714,-8.45338 -15.92847,-11.21357 -6.04868,-2.79464 -12.55656,-4.28836 -19.52275,-4.48338 l -4.995922,0.51995 -6.793562,1.10454 -8.126304,1.51835 z"
       transform="scale(1.0426472,0.95909718)"
       sodipodi:nodetypes="ccccssscssssscccccccc" /><path
       id="path44"
       style="font-size:117.768px;font-family:Arial;-inkscape-font-specification:'Arial, Normal';font-variant-ligatures:no-contextual;text-align:justify;letter-spacing:0px;word-spacing:0px;direction:rtl;fill:#03ba5f;fill-opacity:1;fill-rule:evenodd;stroke:#00001a;stroke-width:0.00000003175;stroke-linecap:round;stroke-linejoin:round;stroke-dasharray:none;stroke-opacity:1;paint-order:fill markers stroke"
       d="m 74.780171,111.35104 2.3135,-0.17221 7.902009,-1.61588 6.793562,-1.10454 4.883774,-1.12954 c -0.0097,-2.7e-4 -0.01908,-0.001 -0.02875,-0.002 -0.613375,-3.18188 -1.89738,-6.0191 -3.85251,-8.510935 -1.955131,-2.491833 -4.351225,-4.465757 -7.188082,-5.922521 -2.836856,-1.456764 -5.923093,-2.185385 -9.258316,-2.185385 H 55.644004 c 0,3.641911 0.843398,6.977034 2.530177,10.005571 1.725116,3.02853 4.025426,5.50144 6.900618,7.41824 2.90994,1.87614 6.145326,2.9488 9.705372,3.21881 z"
       transform="scale(1.0426472,0.95909718)"
       sodipodi:nodetypes="ccccccssscccc" /></g></svg>
