<?xml version="1.0" encoding="UTF-8" standalone="no"?>
<!-- Created with Inkscape (http://www.inkscape.org/) -->

<svg
   width="128.95132mm"
   height="134.26891mm"
   viewBox="0 0 128.95132 134.26891"
   version="1.1"
   id="svg1"
   xml:space="preserve"
   inkscape:version="1.3 (0e150ed6c4, 2023-07-21)"
   sodipodi:docname="pera.svg"
   xmlns:inkscape="http://www.inkscape.org/namespaces/inkscape"
   xmlns:sodipodi="http://sodipodi.sourceforge.net/DTD/sodipodi-0.dtd"
   xmlns="http://www.w3.org/2000/svg"
   xmlns:svg="http://www.w3.org/2000/svg"><sodipodi:namedview
     id="namedview1"
     pagecolor="#ffffff"
     bordercolor="#000000"
     borderopacity="0.25"
     inkscape:showpageshadow="2"
     inkscape:pageopacity="0.0"
     inkscape:pagecheckerboard="0"
     inkscape:deskcolor="#d1d1d1"
     inkscape:document-units="mm"
     inkscape:zoom="0.35355339"
     inkscape:cx="-110.30866"
     inkscape:cy="165.46299"
     inkscape:window-width="2880"
     inkscape:window-height="1514"
     inkscape:window-x="2869"
     inkscape:window-y="-11"
     inkscape:window-maximized="1"
     inkscape:current-layer="layer1" /><defs
     id="defs1" /><g
     inkscape:label="Capa 1"
     inkscape:groupmode="layer"
     id="layer1"
     transform="translate(-31.905481,-73.781425)"><path
       style="fill:#03ba5f;fill-opacity:1;fill-rule:evenodd;stroke:#000000;stroke-width:3.175e-08;stroke-linecap:round;stroke-linejoin:round;stroke-dasharray:none;stroke-opacity:1;paint-order:fill markers stroke"
       d="M 85.081617,99.866711 C 78.975377,87.281266 71.520897,76.355546 56.167272,86.074236 c -5.48998,3.66078 -8.430346,4.57189 -14.539939,5.65006 5.895502,13.936724 13.345195,24.989404 29.495634,12.961484 4.95384,-5.295599 7.30804,-5.965719 13.95865,-4.819069 z"
       id="path1"
       sodipodi:nodetypes="ccccc" /><g
       id="g1"
       transform="translate(-15.381048,7.1621675)"><path
         id="text1"
         style="font-size:97.9045px;font-family:Arial;-inkscape-font-specification:'Arial, Normal';font-variant-ligatures:no-contextual;text-align:justify;letter-spacing:0px;word-spacing:0px;direction:rtl;fill:#add337;fill-opacity:1;fill-rule:evenodd;stroke-width:1.6;stroke-linecap:round;stroke-linejoin:round;paint-order:fill markers stroke"
         d="m 114.00813,81.852133 c -3.07617,-0.100242 -12.74578,0.380622 -19.112625,9.625386 0.01018,-0.0039 -0.494987,0.790355 -1.069489,1.787192 l -0.04324,0.0054 c -1.422635,2.501993 -2.360489,5.246525 -2.795758,8.242209 -0.509919,3.72878 -0.04776,7.42555 1.386385,11.09059 l 0.334418,0.86067 c 1.912196,4.93984 2.008324,9.95906 0.287348,15.05825 -1.434146,4.14309 -2.103761,8.39794 -2.008151,12.76412 0.09561,4.36618 0.924343,8.58865 2.48597,12.668 1.816585,4.71675 4.397819,8.78025 7.744162,12.19033 3.37821,3.44196 7.23459,6.11923 11.5689,8.03143 4.33431,1.9122 8.89179,2.94764 13.67228,3.10699 4.81236,0.15935 9.56101,-0.65287 14.24589,-2.43758 4.71674,-1.84846 8.78003,-4.44601 12.19011,-7.79235 3.44195,-3.34635 6.11932,-7.18662 8.03151,-11.52093 1.9122,-4.33431 2.94784,-8.89211 3.10719,-13.6726 0.15935,-4.81236 -0.66938,-9.56052 -2.48597,-14.2454 -1.56163,-4.07935 -3.79258,-7.76067 -6.69274,-11.04327 -2.90016,-3.31447 -6.26234,-6.02315 -10.08673,-8.12657 -4.68488,-2.51772 -7.99927,-6.27877 -9.94333,-11.282348 l -0.33442,-0.907994 c -1.52976,-3.85626 -3.85629,-7.011397 -6.97954,-9.465381 -3.12326,-2.453985 -6.6451,-3.999663 -10.5651,-4.637062 -0.98,-0.167317 -1.95896,-0.267216 -2.93697,-0.299086 z"
         transform="scale(0.94415626,1.0591467)"
         sodipodi:nodetypes="scccccccsccscccsccccccscss" /></g></g></svg>
