<?xml version="1.0" encoding="UTF-8" standalone="no"?>
<!-- Created with Inkscape (http://www.inkscape.org/) -->

<svg
   width="128.95132mm"
   height="134.26891mm"
   viewBox="0 0 128.95132 134.26891"
   version="1.1"
   id="svg1"
   xml:space="preserve"
   sodipodi:docname="zanahoria.svg"
   inkscape:version="1.3 (0e150ed6c4, 2023-07-21)"
   xmlns:inkscape="http://www.inkscape.org/namespaces/inkscape"
   xmlns:sodipodi="http://sodipodi.sourceforge.net/DTD/sodipodi-0.dtd"
   xmlns="http://www.w3.org/2000/svg"
   xmlns:svg="http://www.w3.org/2000/svg"><sodipodi:namedview
     id="namedview1"
     pagecolor="#ffffff"
     bordercolor="#000000"
     borderopacity="0.25"
     inkscape:showpageshadow="2"
     inkscape:pageopacity="0.0"
     inkscape:pagecheckerboard="0"
     inkscape:deskcolor="#d1d1d1"
     inkscape:document-units="mm"
     inkscape:zoom="1.4142136"
     inkscape:cx="111.01576"
     inkscape:cy="324.20846"
     inkscape:window-width="2880"
     inkscape:window-height="1514"
     inkscape:window-x="2869"
     inkscape:window-y="-11"
     inkscape:window-maximized="1"
     inkscape:current-layer="layer1" /><defs
     id="defs1" /><g
     inkscape:label="Capa 1"
     inkscape:groupmode="layer"
     id="layer1"
     transform="translate(-31.905481,-73.781425)"><path
       id="path23"
       style="font-size:207.912px;font-family:Arial;-inkscape-font-specification:'Arial, Normal';font-variant-ligatures:no-contextual;text-align:justify;letter-spacing:0px;word-spacing:0px;direction:rtl;fill:#db912c;fill-opacity:1;fill-rule:evenodd;stroke:#00001a;stroke-width:0.00000003175;stroke-linecap:round;stroke-linejoin:round;stroke-dasharray:none;stroke-opacity:1;paint-order:fill markers stroke"
       d="M 194.34971 258.5168 L 194.33876 258.52072 L 198.04345 267.74143 L 203.46261 281.19737 L 194.34971 258.5168 z "
       transform="scale(1.0850867,0.92158533)" /><path
       id="path12"
       style="font-size:207.912px;font-family:Arial;-inkscape-font-specification:'Arial, Normal';font-variant-ligatures:no-contextual;text-align:justify;letter-spacing:0px;word-spacing:0px;direction:rtl;fill:#db552c;fill-opacity:1;fill-rule:evenodd;stroke:#00001a;stroke-width:3.175e-08;stroke-linecap:round;stroke-linejoin:round;stroke-dasharray:none;stroke-opacity:1;paint-order:fill markers stroke"
       d="M 217.04266 254.64493 C 216.92985 254.57755 216.82006 254.49644 216.70596 254.43465 C 216.59184 254.37286 216.47322 254.33105 216.35783 254.27484 C 216.58841 254.38803 216.81721 254.50936 217.04266 254.64493 z "
       transform="scale(1.0850867,0.92158533)" /><path
       id="path11"
       style="font-size:207.912px;font-family:Arial;-inkscape-font-specification:'Arial, Normal';font-variant-ligatures:no-contextual;text-align:justify;letter-spacing:0px;word-spacing:0px;direction:rtl;fill:#db552c;fill-opacity:1;fill-rule:evenodd;stroke:#00001a;stroke-width:3.175e-08;stroke-linecap:round;stroke-linejoin:round;stroke-dasharray:none;stroke-opacity:1;paint-order:fill markers stroke"
       d="M 219.10098 256.25648 C 218.96646 256.12459 218.8352 255.97877 218.69856 255.85611 C 218.56192 255.73346 218.42012 255.63366 218.28137 255.52023 C 218.55862 255.74811 218.83219 255.99169 219.10098 256.25648 z "
       transform="scale(1.0850867,0.92158533)" /><path
       id="path10"
       style="font-size:207.912px;font-family:Arial;-inkscape-font-specification:'Arial, Normal';font-variant-ligatures:no-contextual;text-align:justify;letter-spacing:0px;word-spacing:0px;direction:rtl;fill:#db552c;fill-opacity:1;fill-rule:evenodd;stroke:#00001a;stroke-width:3.175e-08;stroke-linecap:round;stroke-linejoin:round;stroke-dasharray:none;stroke-opacity:1;paint-order:fill markers stroke"
       d="M 221.00357 258.52969 C 220.85297 258.31482 220.70486 258.08783 220.55114 257.88653 C 220.3965 257.68403 220.23602 257.50727 220.07823 257.31851 C 220.39258 257.69616 220.70175 258.09738 221.00357 258.52969 z "
       transform="scale(1.0850867,0.92158533)" /><path
       id="path9"
       style="font-size:207.912px;font-family:Arial;-inkscape-font-specification:'Arial, Normal';font-variant-ligatures:no-contextual;text-align:justify;letter-spacing:0px;word-spacing:0px;direction:rtl;fill:#db552c;fill-opacity:1;fill-rule:evenodd;stroke:#00001a;stroke-width:3.175e-08;stroke-linecap:round;stroke-linejoin:round;stroke-dasharray:none;stroke-opacity:1;paint-order:fill markers stroke"
       d="M 222.76186 261.48308 C 222.59698 261.16034 222.43399 260.82925 222.26466 260.52591 C 222.09617 260.22407 221.92131 259.95005 221.74841 259.66742 C 222.09468 260.23555 222.43328 260.83775 222.76186 261.48308 z "
       transform="scale(1.0850867,0.92158533)" /><path
       id="path46"
       style="font-size:100.141px;font-family:Arial;-inkscape-font-specification:'Arial, Normal';font-variant-ligatures:no-contextual;text-align:justify;letter-spacing:0px;word-spacing:0px;direction:rtl;fill:#03ba5f;fill-opacity:1;fill-rule:evenodd;stroke:#00001a;stroke-width:3.175e-08;stroke-linecap:round;stroke-linejoin:round;stroke-dasharray:none;stroke-opacity:1;paint-order:fill markers stroke"
       d="m 117.45261,111.18513 -0.003,0.009 c 0.003,-0.009 -1.21484,-0.29513 -1.25471,-0.0209 -0.50439,3.46912 3.90791,4.4676 6.421,5.2226 l -0.0179,-0.0646 -0.15334,-0.15328 4.10756,-4.10753 c 0.29338,3.0968 1.56464,5.77013 3.8139,8.01939 1.69509,1.6951 3.66745,2.83569 5.91671,3.42245 2.24926,0.58676 4.4819,0.58676 6.69856,0 2.24926,-0.58676 4.23779,-1.72735 5.96548,-3.42245 2.41224,-2.44484 3.6835,-5.34639 3.81389,-8.70398 0.13039,-3.39019 -0.86387,-6.37271 -2.98274,-8.94795 l 0.0493,-0.0488 c 1.69509,-1.7277 2.81977,-3.700179 3.37393,-5.91684 0.58677,-2.249258 0.58677,-4.498546 0,-6.747804 -0.55416,-2.249259 -1.67884,-4.221249 -3.37393,-5.916343 -1.72769,-1.695093 -3.71622,-2.81949 -5.96548,-3.373655 -2.24925,-0.586764 -4.49861,-0.586764 -6.74786,0 -2.21666,0.554165 -4.17286,1.678562 -5.86795,3.373655 l -0.0975,0.09759 c -2.57524,-2.021072 -5.52515,-2.933448 -8.85014,-2.73786 -3.29239,0.162989 -6.11244,1.434133 -8.45949,3.813783 -1.72769,1.727691 -2.8847,3.716371 -3.47146,5.965629 -0.55417,2.216661 -0.55417,4.44926 0,6.698518 0.58676,2.216661 1.74377,4.189137 3.47146,5.916837 2.08627,2.08626 4.59645,3.32502 7.53026,3.71619 l -3.91196,3.91137 z"
       sodipodi:nodetypes="ccsccccssccccccccccccccccsccc"
       transform="scale(0.95375052,1.0484922)" /><path
       id="path49"
       style="font-size:100.141px;font-family:Arial;-inkscape-font-specification:'Arial, Normal';font-variant-ligatures:no-contextual;text-align:justify;letter-spacing:0px;word-spacing:0px;direction:rtl;fill:#e1742a;fill-opacity:1;fill-rule:evenodd;stroke:#00001a;stroke-width:3.175e-08;stroke-linecap:round;stroke-linejoin:round;stroke-dasharray:none;stroke-opacity:1;paint-order:fill markers stroke"
       d="m 92.786101,96.932978 c -0.429886,-0.0015 -0.860869,0.0077 -1.292791,0.02809 -3.455371,0.162986 -6.764212,0.961999 -9.926204,2.396306 -3.129394,1.434316 -5.899873,3.455416 -8.312112,6.063216 -2.412243,2.60784 -4.205158,5.75331 -5.378681,9.43688 l -17.994496,55.49799 c -0.684554,2.05367 -0.76593,4.02618 -0.244362,5.91683 0.521564,1.89069 1.466792,3.5206 2.835903,4.88971 1.369111,1.36911 2.983115,2.29818 4.841192,2.78715 1.890675,0.52156 3.879213,0.45629 5.965475,-0.19567 L 118.77791,165.7595 c 3.68357,-1.17353 6.8291,-2.96638 9.43694,-5.37863 2.6078,-2.41225 4.62923,-5.18324 6.06354,-8.31265 1.43431,-3.16197 2.23296,-6.47093 2.39595,-9.92628 0.16299,-3.45539 -0.37486,-6.84527 -1.61355,-10.17026 -1.23873,-3.35756 -3.22725,-6.40588 -5.96548,-9.14411 l -6.497,-6.49644 c -1.66843,-1.74872 -3.51087,-3.38086 -5.1457,-5.146 l -6.69369,-6.64479 c -2.73819,-2.73823 -5.77008,-4.726912 -9.09504,-5.965631 -2.909372,-1.083879 -5.868589,-1.631027 -8.877779,-1.641731 z"
       transform="scale(0.95375052,1.0484922)"
       sodipodi:nodetypes="ssccccsscccccscccccss" /><path
       id="path48"
       style="font-size:100.141px;font-family:Arial;-inkscape-font-specification:'Arial, Normal';font-variant-ligatures:no-contextual;text-align:justify;letter-spacing:0px;word-spacing:0px;direction:rtl;fill:#e15d21;fill-opacity:1;fill-rule:evenodd;stroke:#00001a;stroke-width:3.175e-08;stroke-linecap:round;stroke-linejoin:round;stroke-dasharray:none;stroke-opacity:1;paint-order:fill markers stroke"
       d="m 85.092436,176.68128 9.439395,-3.06052 -12.182332,-14.12014 c -0.880142,-0.88015 -1.922909,-1.32039 -3.12903,-1.32039 -1.206121,0 -2.24943,0.44024 -3.129572,1.32039 -0.847544,0.84754 -1.271659,1.89047 -1.271659,3.12919 0,1.20613 0.424115,2.24954 1.271659,3.12969 z"
       transform="scale(0.95375052,1.0484922)"
       sodipodi:nodetypes="cccssscc" /><path
       id="text44"
       style="font-size:100.141px;font-family:Arial;-inkscape-font-specification:'Arial, Normal';font-variant-ligatures:no-contextual;text-align:justify;letter-spacing:0px;word-spacing:0px;direction:rtl;fill:#e15d21;fill-opacity:1;fill-rule:evenodd;stroke:#00001a;stroke-width:3.175e-08;stroke-linecap:round;stroke-linejoin:round;stroke-dasharray:none;stroke-opacity:1;paint-order:fill markers stroke"
       d="m 64.477952,121.3057 -2.85504,9.68011 c 5.678937,6.36209 11.423186,12.66538 17.149679,18.98459 0.839437,0.92282 1.83449,1.3839 2.984831,1.3839 1.18143,0 2.191902,-0.44409 3.031339,-1.33274 0.808348,-0.92282 1.212329,-2.01633 1.212329,-3.28093 0,-1.26462 -0.403981,-2.35864 -1.212329,-3.28146 z"
       sodipodi:nodetypes="cccscscc" /><path
       id="path47"
       style="font-size:100.141px;font-family:Arial;-inkscape-font-specification:'Arial, Normal';font-variant-ligatures:no-contextual;text-align:justify;letter-spacing:0px;word-spacing:0px;direction:rtl;fill:#e15d21;fill-opacity:1;fill-rule:evenodd;stroke:#00001a;stroke-width:3.175e-08;stroke-linecap:round;stroke-linejoin:round;stroke-dasharray:none;stroke-opacity:1;paint-order:fill markers stroke"
       d="m 124.20495,163.35783 c 0.32305,-0.18171 0.49889,-0.32437 0.82156,-0.50662 0.32267,-0.18226 0.62093,-0.44877 0.9388,-0.63785 0.31786,-0.18908 0.57133,-0.4593 0.87996,-0.6615 0.30864,-0.2022 0.54413,-0.47369 0.83911,-0.69529 0.1475,-0.1108 0.23673,-0.2209 0.37998,-0.33773 0.14325,-0.11683 0.29167,-0.27649 0.43012,-0.40014 0.13846,-0.12364 0.28746,-0.27685 0.42057,-0.4081 0.1331,-0.13124 0.25225,-0.24376 0.37946,-0.38339 0.12721,-0.13963 0.30103,-0.29562 0.42178,-0.44442 0.12076,-0.1488 0.26685,-0.26018 0.38061,-0.41894 0.11375,-0.15876 0.25993,-0.25267 0.36613,-0.42217 0.10619,-0.1695 0.28966,-0.2827 0.38774,-0.46373 l -21.46103,-21.89007 c -0.88015,-0.88014 -1.93962,-1.32038 -3.17834,-1.32038 -1.20612,0 -2.24943,0.44024 -3.12957,1.32038 -0.84755,0.84755 -1.27112,1.89047 -1.27112,3.1292 0,1.2061 0.42357,2.24905 1.27112,3.12919 z"
       transform="scale(0.95375052,1.0484922)"
       sodipodi:nodetypes="csssssssssssccssscc" /></g></svg>
